;TYPE=PLATED
;Layer: PTH_Top_to_Inner1
;EasyEDA Pro v2.2.47.7, 2026-04-24 13:10:04
;Gerber Generator version 0.3
M48
METRIC,LZ,0000.00000
;Hole size 1 = 0.30500 METRIC
T01C0.30500
;Hole size 2 = 0.35000 METRIC
T02C0.35000
%
G05
G90
T01
X-96.80694Y-46.86119
X-97.80397Y-50.65281
X-94.90316Y-50.77981
X-109.093Y-43.561
X-101.38512Y-43.307
X-75.184Y-46.99
X-77.851Y-49.53
X-82.3595Y-45.7835
X-79.883Y-47.244
X-101.219Y-46.101
X-92.329Y-47.879
X-93.853Y-47.371
X-110.236Y-43.561
X-106.299Y-49.62807
X-100.11512Y-39.751
X-98.806Y-39.624
X-85.09Y-42.418
X-99.314Y-47.117
X-78.994Y-32.004
X-107.73512Y-39.497
X-106.426Y-39.37
X-110.363Y-39.243
X-105.156Y-39.751
X-114.935Y-8.89
X-111.125Y-18.034
T02
X-92.583Y-27.03081
X-92.583Y-28.30081
X-92.583Y-29.57081
X-92.583Y-30.84081
X-92.583Y-32.11081
X-92.583Y-33.528
X-92.456Y-34.65081
X-92.583Y-35.92081
X-92.583Y-37.084
M30