;TYPE=PLATED
;Layer: PTH_Through
;EasyEDA Pro v2.2.47.7, 2026-04-24 13:10:04
;Gerber Generator version 0.3
M48
METRIC,LZ,0000.00000
;Hole size 1 = 0.30500 METRIC
T01C0.30500
;Hole size 2 = 0.35000 METRIC
T02C0.35000
;Hole size 3 = 0.60000 METRIC
T03C0.60000
;Hole size 4 = 1.00000 METRIC
T04C1.00000
;Hole size 5 = 1.02001 METRIC
T05C1.02001
;Hole size 6 = 1.10000 METRIC
T06C1.10000
;Hole size 7 = 1.10002 METRIC
T07C1.10002
;Hole size 8 = 1.20000 METRIC
T08C1.20000
%
G05
G90
T01
X-97.49266Y-46.48188
X-95.03016Y-48.36681
X-107.73512Y-43.434
X-106.46512Y-43.434
X-105.156Y-43.307
X-103.92512Y-43.307
X-102.489Y-43.307
X-89.30364Y-47.85526
X-111.54512Y-43.561
X-106.426Y-48.12134
X-92.329Y-41.529
X-87.12307Y-37.211
X-63.5Y-28.321
X-58.2295Y-18.3515
X-54.61Y-25.273
X-51.181Y-26.797
X-47.244Y-29.845
X-107.95Y-19.558
X-106.807Y-21.209
X-76.454Y-7.493
X-118.11Y-51.181
X-116.713Y-50.546
X-115.316Y-50.8
X-114.3Y-51.689
X-113.538Y-52.959
X-113.538Y-54.47947
X-114.173Y-55.626
X-115.316Y-56.388
X-30.861Y-50.8
X-32.385Y-50.165
X-33.83888Y-50.165
X-35.179Y-50.8
X-35.814Y-51.943
X-36.195Y-53.34
X-35.814Y-54.864
X-34.925Y-55.88
X-33.655Y-56.515
X-95.758Y-4.953
X-95.758Y-6.223
X-95.758Y-7.58511
X-95.758Y-8.82333
X-95.758Y-10.2769
X-95.758Y-11.684
X-95.758Y-12.91485
X-95.885Y-13.97
X-102.6551Y-22.29574
X-102.616Y-21.082
X-101.727Y-19.939
X-100.838Y-19.177
X-99.949Y-18.415
X-99.06Y-17.653
X-98.298Y-16.764
X-97.409Y-15.875
X-96.647Y-14.986
X-93.345Y-4.953
X-93.345Y-6.158
X-93.345Y-7.493
X-93.345Y-8.763
X-93.345Y-10.14185
X-93.345Y-11.43
X-93.345Y-12.64522
X-93.345Y-13.75782
X-93.345Y-14.90632
X-94.107Y-15.748
X-94.869Y-16.51
X-95.758Y-17.399
X-96.774Y-18.542
X-97.79Y-19.304
X-98.679Y-20.193
X-99.314Y-20.955
X-99.949Y-21.59
X-100.457Y-22.225
X-77.597Y-3.81
X-77.597Y-5.461
X-77.597Y-4.55975
X-77.597Y-6.33633
X-77.597Y-7.1977
X-77.597Y-8.05908
X-75.438Y-3.937
X-75.438Y-4.88277
X-75.438Y-6.01332
X-75.438Y-6.985
X-75.438Y-8.22059
T02
X-86.05415Y-45.06472
T03
X-92.22918Y-54.08112G85X-92.22918Y-54.98114
X-100.87915Y-54.08112G85X-100.87915Y-54.98114
X-92.22918Y-49.73124G85X-92.22918Y-50.93124
X-100.87915Y-49.73124G85X-100.87915Y-50.93124
T04
X-58.166Y-54.483
X-58.166Y-51.943
X-58.166Y-49.403
X-58.166Y-46.863
X-58.166Y-44.323
X-58.166Y-41.783
X-58.166Y-39.243
X-58.166Y-36.703
X-58.166Y-34.163
X-58.166Y-31.623
X-58.166Y-29.083
X-58.166Y-26.543
X-58.166Y-24.003
X-58.166Y-21.463
T05
X-111.76Y-5.588
X-114.3Y-5.588
X-116.84Y-5.588
T06
X-80.17116Y9.41819
X-77.63116Y9.41819
X-97.06216Y9.29119
X-94.52216Y9.29119
X-110.98646Y5.87449
X-110.98646Y8.41449
T07
X-54.00916Y-46.46181
X-54.00916Y-43.92181
X-54.00916Y-41.38181
X-54.00916Y-38.84181
X-54.00916Y-36.30181
X-54.00916Y-33.76181
X-54.00916Y-31.22181
X-54.00916Y-28.68181
X-52.61216Y1.54419
X-52.61216Y-0.99581
X-52.61216Y-3.53581
X-52.61216Y-6.07581
X-52.61216Y-8.61581
X-52.61216Y-11.15581
X-52.61216Y-13.69581
X-52.61216Y-16.23581
X-116.078Y-11.049
X-113.538Y-11.049
X-110.998Y-11.049
X-108.458Y-11.049
T08
X-75.79149Y3.29881
X-80.87149Y3.30882
X-78.33149Y3.29881
X-93.5988Y3.043
X-98.6788Y3.053
X-96.1388Y3.043
M30