;TYPE=PLATED
;Layer: PTH_Through_Via
;EasyEDA Pro v2.2.47.7, 2026-04-24 13:10:04
;Gerber Generator version 0.3
M48
METRIC,LZ,0000.00000
;Hole size 1 = 0.30500 METRIC
T01C0.30500
;Hole size 2 = 0.35000 METRIC
T02C0.35000
%
G05
G90
T01
X-97.49266Y-46.48188
X-95.03016Y-48.36681
X-107.73512Y-43.434
X-106.46512Y-43.434
X-105.156Y-43.307
X-103.92512Y-43.307
X-102.489Y-43.307
X-89.30364Y-47.85526
X-111.54512Y-43.561
X-106.426Y-48.12134
X-92.329Y-41.529
X-87.12307Y-37.211
X-63.5Y-28.321
X-58.2295Y-18.3515
X-54.61Y-25.273
X-51.181Y-26.797
X-47.244Y-29.845
X-107.95Y-19.558
X-106.807Y-21.209
X-76.454Y-7.493
X-118.11Y-51.181
X-116.713Y-50.546
X-115.316Y-50.8
X-114.3Y-51.689
X-113.538Y-52.959
X-113.538Y-54.47947
X-114.173Y-55.626
X-115.316Y-56.388
X-30.861Y-50.8
X-32.385Y-50.165
X-33.83888Y-50.165
X-35.179Y-50.8
X-35.814Y-51.943
X-36.195Y-53.34
X-35.814Y-54.864
X-34.925Y-55.88
X-33.655Y-56.515
X-95.758Y-4.953
X-95.758Y-6.223
X-95.758Y-7.58511
X-95.758Y-8.82333
X-95.758Y-10.2769
X-95.758Y-11.684
X-95.758Y-12.91485
X-95.885Y-13.97
X-102.6551Y-22.29574
X-102.616Y-21.082
X-101.727Y-19.939
X-100.838Y-19.177
X-99.949Y-18.415
X-99.06Y-17.653
X-98.298Y-16.764
X-97.409Y-15.875
X-96.647Y-14.986
X-93.345Y-4.953
X-93.345Y-6.158
X-93.345Y-7.493
X-93.345Y-8.763
X-93.345Y-10.14185
X-93.345Y-11.43
X-93.345Y-12.64522
X-93.345Y-13.75782
X-93.345Y-14.90632
X-94.107Y-15.748
X-94.869Y-16.51
X-95.758Y-17.399
X-96.774Y-18.542
X-97.79Y-19.304
X-98.679Y-20.193
X-99.314Y-20.955
X-99.949Y-21.59
X-100.457Y-22.225
X-77.597Y-3.81
X-77.597Y-5.461
X-77.597Y-4.55975
X-77.597Y-6.33633
X-77.597Y-7.1977
X-77.597Y-8.05908
X-75.438Y-3.937
X-75.438Y-4.88277
X-75.438Y-6.01332
X-75.438Y-6.985
X-75.438Y-8.22059
T02
X-86.05415Y-45.06472
M30