G04 Layer: InnerLayer2*
G04 EasyEDA Pro v2.2.47.7, 2026-04-24 13:10:02*
G04 Gerber Generator version 0.3*
G04 Scale: 100 percent, Rotated: No, Reflected: No*
G04 Dimensions in millimeters*
G04 Leading zeros omitted, absolute positions, 4 integers and 5 decimals*
G04 Generated by one-click*
G04 Object Configs: Pad,Via,Track,Text,Image,Dimension,BoardOutline,BoardCutout,CopperFilled,SolidRegion,FPCStiffener,Line,PlaneZone,ComponentProperty,ComponentSilkscreen,TearDrop*
G04 Layer Configs: 1,15,16,2,3,4,5,6,7,8,9,10,11,13,14,56*
G04 Copper Areas: 48*
%FSLAX45Y45*%
%MOMM*%
%ADD10C,0.2032*%
%ADD11C,0.254*%
%ADD12C,1.7*%
%ADD13R,1.7X1.5748*%
%ADD14O,1.0X1.9*%
%ADD15O,1.0016X2.1*%
%ADD16O,1.0X2.1*%
%ADD17C,1.1*%
%ADD18R,2.2X2.2*%
%ADD19C,2.2*%
%ADD20R,1.6X1.6*%
%ADD21C,1.6*%
%ADD22R,1.8X2.59999*%
%ADD23O,1.8X2.59999*%
%ADD24C,1.5748*%
%ADD25R,1.5748X1.5748*%
%ADD26R,1.7X1.7*%
%ADD27C,0.61*%
%ADD28C,0.8*%
G75*


G04 Copper Start*
G36*
G01X-11417812Y-2226208D02*
G01X-12007202Y-2226208D01*
G01X-12007202Y-2120900D01*
G01X-10747014Y-2120900D01*
G01X-10745087Y-2136770D01*
G01X-10739418Y-2151718D01*
G01X-10730337Y-2164874D01*
G01X-10718371Y-2175475D01*
G01X-10704215Y-2182905D01*
G01X-10688693Y-2186731D01*
G01X-10672707Y-2186731D01*
G01X-10657185Y-2182905D01*
G01X-10643029Y-2175475D01*
G01X-10631063Y-2164874D01*
G01X-10621982Y-2151718D01*
G01X-10616313Y-2136770D01*
G01X-10616173Y-2135614D01*
G01X-5931915Y-2135614D01*
G01X-5931915Y-2156986D01*
G01X-5927988Y-2177994D01*
G01X-5920267Y-2197923D01*
G01X-5909016Y-2216093D01*
G01X-5894618Y-2231887D01*
G01X-5877563Y-2244767D01*
G01X-5858432Y-2254293D01*
G01X-5837876Y-2260142D01*
G01X-5816595Y-2262114D01*
G01X-5816595Y-2262114D01*
G01X-5795314Y-2260142D01*
G01X-5774758Y-2254293D01*
G01X-5755627Y-2244767D01*
G01X-5738572Y-2231887D01*
G01X-5724173Y-2216093D01*
G01X-5712923Y-2197923D01*
G01X-5705202Y-2177994D01*
G01X-5701275Y-2156986D01*
G01X-5701275Y-2135614D01*
G01X-5705202Y-2114606D01*
G01X-5712923Y-2094677D01*
G01X-5724173Y-2076507D01*
G01X-5738572Y-2060713D01*
G01X-5755627Y-2047833D01*
G01X-5774758Y-2038307D01*
G01X-5795314Y-2032458D01*
G01X-5816595Y-2030486D01*
G01X-5837876Y-2032458D01*
G01X-5858432Y-2038307D01*
G01X-5877563Y-2047833D01*
G01X-5894618Y-2060713D01*
G01X-5909016Y-2076507D01*
G01X-5920267Y-2094677D01*
G01X-5927988Y-2114606D01*
G01X-5931915Y-2135614D01*
G01X-10616173Y-2135614D01*
G01X-10614386Y-2120900D01*
G01X-10616313Y-2105030D01*
G01X-10621982Y-2090082D01*
G01X-10631063Y-2076926D01*
G01X-10643029Y-2066325D01*
G01X-10657185Y-2058895D01*
G01X-10672707Y-2055069D01*
G01X-10688693Y-2055069D01*
G01X-10704215Y-2058895D01*
G01X-10718371Y-2066325D01*
G01X-10730337Y-2076926D01*
G01X-10739418Y-2090082D01*
G01X-10745087Y-2105030D01*
G01X-10747014Y-2120900D01*
G01X-10747014Y-2120900D01*
G01X-12007202Y-2120900D01*
G01X-12007202Y-1955800D01*
G01X-10861314Y-1955800D01*
G01X-10859387Y-1971670D01*
G01X-10853718Y-1986618D01*
G01X-10844637Y-1999774D01*
G01X-10832671Y-2010375D01*
G01X-10818515Y-2017805D01*
G01X-10802993Y-2021631D01*
G01X-10787007Y-2021631D01*
G01X-10771485Y-2017805D01*
G01X-10757329Y-2010375D01*
G01X-10745363Y-1999774D01*
G01X-10736282Y-1986618D01*
G01X-10730613Y-1971670D01*
G01X-10728686Y-1955800D01*
G01X-10730613Y-1939930D01*
G01X-10736282Y-1924982D01*
G01X-10745363Y-1911826D01*
G01X-10757329Y-1901225D01*
G01X-10771485Y-1893795D01*
G01X-10787007Y-1889969D01*
G01X-10802993Y-1889969D01*
G01X-10818515Y-1893795D01*
G01X-10832671Y-1901225D01*
G01X-10844637Y-1911826D01*
G01X-10853718Y-1924982D01*
G01X-10859387Y-1939930D01*
G01X-10861314Y-1955800D01*
G01X-10861314Y-1955800D01*
G01X-12007202Y-1955800D01*
G01X-12007202Y-1835150D01*
G01X-5889264Y-1835150D01*
G01X-5887337Y-1851020D01*
G01X-5881668Y-1865968D01*
G01X-5872587Y-1879124D01*
G01X-5860621Y-1889725D01*
G01X-5846465Y-1897155D01*
G01X-5830943Y-1900981D01*
G01X-5814957Y-1900981D01*
G01X-5799435Y-1897155D01*
G01X-5785279Y-1889725D01*
G01X-5773313Y-1879124D01*
G01X-5764232Y-1865968D01*
G01X-5758563Y-1851020D01*
G01X-5756636Y-1835150D01*
G01X-5758563Y-1819280D01*
G01X-5764232Y-1804332D01*
G01X-5773313Y-1791176D01*
G01X-5785279Y-1780575D01*
G01X-5799435Y-1773145D01*
G01X-5814957Y-1769319D01*
G01X-5830943Y-1769319D01*
G01X-5846465Y-1773145D01*
G01X-5860621Y-1780575D01*
G01X-5872587Y-1791176D01*
G01X-5881668Y-1804332D01*
G01X-5887337Y-1819280D01*
G01X-5889264Y-1835150D01*
G01X-5889264Y-1835150D01*
G01X-12007202Y-1835150D01*
G01X-12007202Y-1544841D01*
G01X-5382030Y-1544841D01*
G01X-5382030Y-1702321D01*
G01X-5380277Y-1713388D01*
G01X-5375190Y-1723372D01*
G01X-5367267Y-1731295D01*
G01X-5357283Y-1736382D01*
G01X-5346216Y-1738135D01*
G01X-5176216Y-1738135D01*
G01X-5165149Y-1736382D01*
G01X-5155166Y-1731295D01*
G01X-5147242Y-1723372D01*
G01X-5142155Y-1713388D01*
G01X-5140402Y-1702321D01*
G01X-5140402Y-1544841D01*
G01X-5140402Y-1544841D01*
G01X-5142155Y-1533774D01*
G01X-5147242Y-1523790D01*
G01X-5155166Y-1515867D01*
G01X-5165149Y-1510780D01*
G01X-5176216Y-1509027D01*
G01X-5346216Y-1509027D01*
G01X-5357283Y-1510780D01*
G01X-5367267Y-1515867D01*
G01X-5375190Y-1523790D01*
G01X-5380277Y-1533774D01*
G01X-5382030Y-1544841D01*
G01X-12007202Y-1544841D01*
G01X-12007202Y-1369581D01*
G01X-5382030Y-1369581D01*
G01X-5380195Y-1390560D01*
G01X-5374744Y-1410901D01*
G01X-5365844Y-1429988D01*
G01X-5353765Y-1447238D01*
G01X-5338874Y-1462129D01*
G01X-5321623Y-1474209D01*
G01X-5302537Y-1483109D01*
G01X-5282195Y-1488559D01*
G01X-5261216Y-1490395D01*
G01X-5261216Y-1490395D01*
G01X-5240237Y-1488559D01*
G01X-5219896Y-1483109D01*
G01X-5200809Y-1474209D01*
G01X-5183559Y-1462129D01*
G01X-5168668Y-1447238D01*
G01X-5156588Y-1429988D01*
G01X-5147688Y-1410901D01*
G01X-5142238Y-1390560D01*
G01X-5140402Y-1369581D01*
G01X-5142238Y-1348602D01*
G01X-5147688Y-1328260D01*
G01X-5156588Y-1309174D01*
G01X-5168668Y-1291923D01*
G01X-5183559Y-1277032D01*
G01X-5200809Y-1264953D01*
G01X-5219896Y-1256053D01*
G01X-5240237Y-1250602D01*
G01X-5261216Y-1248767D01*
G01X-5282195Y-1250602D01*
G01X-5302537Y-1256053D01*
G01X-5321623Y-1264953D01*
G01X-5338874Y-1277032D01*
G01X-5353765Y-1291923D01*
G01X-5365844Y-1309174D01*
G01X-5374744Y-1328260D01*
G01X-5380195Y-1348602D01*
G01X-5382030Y-1369581D01*
G01X-12007202Y-1369581D01*
G01X-12007202Y-1189900D01*
G01X-11728614Y-1189900D01*
G01X-11726861Y-1200967D01*
G01X-11721774Y-1210951D01*
G01X-11713851Y-1218874D01*
G01X-11703867Y-1223961D01*
G01X-11692800Y-1225714D01*
G01X-11522800Y-1225714D01*
G01X-11522800Y-1225714D01*
G01X-11511733Y-1223961D01*
G01X-11501749Y-1218874D01*
G01X-11493826Y-1210951D01*
G01X-11488739Y-1200967D01*
G01X-11486986Y-1189900D01*
G01X-11486986Y-1104900D01*
G01X-11474614Y-1104900D01*
G01X-11472778Y-1125879D01*
G01X-11467328Y-1146221D01*
G01X-11458428Y-1165307D01*
G01X-11446349Y-1182558D01*
G01X-11431458Y-1197449D01*
G01X-11414207Y-1209528D01*
G01X-11395121Y-1218428D01*
G01X-11374779Y-1223878D01*
G01X-11353800Y-1225714D01*
G01X-11332821Y-1223878D01*
G01X-11312479Y-1218428D01*
G01X-11293393Y-1209528D01*
G01X-11276142Y-1197449D01*
G01X-11261251Y-1182558D01*
G01X-11249172Y-1165307D01*
G01X-11240272Y-1146221D01*
G01X-11234822Y-1125879D01*
G01X-11232986Y-1104900D01*
G01X-11220614Y-1104900D01*
G01X-11218778Y-1125879D01*
G01X-11213328Y-1146221D01*
G01X-11204428Y-1165307D01*
G01X-11192349Y-1182558D01*
G01X-11177458Y-1197449D01*
G01X-11160207Y-1209528D01*
G01X-11141121Y-1218428D01*
G01X-11120779Y-1223878D01*
G01X-11099800Y-1225714D01*
G01X-11078821Y-1223878D01*
G01X-11058479Y-1218428D01*
G01X-11039393Y-1209528D01*
G01X-11022142Y-1197449D01*
G01X-11007251Y-1182558D01*
G01X-10995172Y-1165307D01*
G01X-10986272Y-1146221D01*
G01X-10980822Y-1125879D01*
G01X-10978986Y-1104900D01*
G01X-10966614Y-1104900D01*
G01X-10964778Y-1125879D01*
G01X-10959328Y-1146221D01*
G01X-10950428Y-1165307D01*
G01X-10938349Y-1182558D01*
G01X-10923458Y-1197449D01*
G01X-10906207Y-1209528D01*
G01X-10887121Y-1218428D01*
G01X-10866779Y-1223878D01*
G01X-10845800Y-1225714D01*
G01X-10824821Y-1223878D01*
G01X-10804479Y-1218428D01*
G01X-10785393Y-1209528D01*
G01X-10768142Y-1197449D01*
G01X-10753251Y-1182558D01*
G01X-10741172Y-1165307D01*
G01X-10732272Y-1146221D01*
G01X-10726822Y-1125879D01*
G01X-10725921Y-1115581D01*
G01X-5382030Y-1115581D01*
G01X-5380195Y-1136560D01*
G01X-5374744Y-1156901D01*
G01X-5365844Y-1175988D01*
G01X-5353765Y-1193238D01*
G01X-5338874Y-1208129D01*
G01X-5321623Y-1220209D01*
G01X-5302537Y-1229109D01*
G01X-5282195Y-1234559D01*
G01X-5261216Y-1236395D01*
G01X-5261216Y-1236395D01*
G01X-5240237Y-1234559D01*
G01X-5219896Y-1229109D01*
G01X-5200809Y-1220209D01*
G01X-5183559Y-1208129D01*
G01X-5168668Y-1193238D01*
G01X-5156588Y-1175988D01*
G01X-5147688Y-1156901D01*
G01X-5142238Y-1136560D01*
G01X-5140402Y-1115581D01*
G01X-5142238Y-1094602D01*
G01X-5147688Y-1074260D01*
G01X-5156588Y-1055174D01*
G01X-5168668Y-1037923D01*
G01X-5183559Y-1023032D01*
G01X-5200809Y-1010953D01*
G01X-5219896Y-1002053D01*
G01X-5240237Y-996602D01*
G01X-5261216Y-994767D01*
G01X-5282195Y-996602D01*
G01X-5302537Y-1002053D01*
G01X-5321623Y-1010953D01*
G01X-5338874Y-1023032D01*
G01X-5353765Y-1037923D01*
G01X-5365844Y-1055174D01*
G01X-5374744Y-1074260D01*
G01X-5380195Y-1094602D01*
G01X-5382030Y-1115581D01*
G01X-10725921Y-1115581D01*
G01X-10724986Y-1104900D01*
G01X-10726822Y-1083921D01*
G01X-10732272Y-1063579D01*
G01X-10741172Y-1044493D01*
G01X-10753251Y-1027242D01*
G01X-10768142Y-1012351D01*
G01X-10785393Y-1000272D01*
G01X-10804479Y-991372D01*
G01X-10824821Y-985922D01*
G01X-10845800Y-984086D01*
G01X-10866779Y-985922D01*
G01X-10887121Y-991372D01*
G01X-10906207Y-1000272D01*
G01X-10923458Y-1012351D01*
G01X-10938349Y-1027242D01*
G01X-10950428Y-1044493D01*
G01X-10959328Y-1063579D01*
G01X-10964778Y-1083921D01*
G01X-10966614Y-1104900D01*
G01X-10966614Y-1104900D01*
G01X-10978986Y-1104900D01*
G01X-10980822Y-1083921D01*
G01X-10986272Y-1063579D01*
G01X-10995172Y-1044493D01*
G01X-11007251Y-1027242D01*
G01X-11022142Y-1012351D01*
G01X-11039393Y-1000272D01*
G01X-11058479Y-991372D01*
G01X-11078821Y-985922D01*
G01X-11099800Y-984086D01*
G01X-11120779Y-985922D01*
G01X-11141121Y-991372D01*
G01X-11160207Y-1000272D01*
G01X-11177458Y-1012351D01*
G01X-11192349Y-1027242D01*
G01X-11204428Y-1044493D01*
G01X-11213328Y-1063579D01*
G01X-11218778Y-1083921D01*
G01X-11220614Y-1104900D01*
G01X-11220614Y-1104900D01*
G01X-11232986Y-1104900D01*
G01X-11234822Y-1083921D01*
G01X-11240272Y-1063579D01*
G01X-11249172Y-1044493D01*
G01X-11261251Y-1027242D01*
G01X-11276142Y-1012351D01*
G01X-11293393Y-1000272D01*
G01X-11312479Y-991372D01*
G01X-11332821Y-985922D01*
G01X-11353800Y-984086D01*
G01X-11374779Y-985922D01*
G01X-11395121Y-991372D01*
G01X-11414207Y-1000272D01*
G01X-11431458Y-1012351D01*
G01X-11446349Y-1027242D01*
G01X-11458428Y-1044493D01*
G01X-11467328Y-1063579D01*
G01X-11472778Y-1083921D01*
G01X-11474614Y-1104900D01*
G01X-11474614Y-1104900D01*
G01X-11486986Y-1104900D01*
G01X-11486986Y-1019900D01*
G01X-11488739Y-1008833D01*
G01X-11493826Y-998849D01*
G01X-11501749Y-990926D01*
G01X-11511733Y-985839D01*
G01X-11522800Y-984086D01*
G01X-11692800Y-984086D01*
G01X-11703867Y-985839D01*
G01X-11713851Y-990926D01*
G01X-11721774Y-998849D01*
G01X-11726861Y-1008833D01*
G01X-11728614Y-1019900D01*
G01X-11728614Y-1189900D01*
G01X-12007202Y-1189900D01*
G01X-12007202Y-861581D01*
G01X-5382030Y-861581D01*
G01X-5380195Y-882560D01*
G01X-5374744Y-902901D01*
G01X-5365844Y-921988D01*
G01X-5353765Y-939238D01*
G01X-5338874Y-954129D01*
G01X-5321623Y-966209D01*
G01X-5302537Y-975109D01*
G01X-5282195Y-980559D01*
G01X-5261216Y-982395D01*
G01X-5261216Y-982395D01*
G01X-5240237Y-980559D01*
G01X-5219896Y-975109D01*
G01X-5200809Y-966209D01*
G01X-5183559Y-954129D01*
G01X-5168668Y-939238D01*
G01X-5156588Y-921988D01*
G01X-5147688Y-902901D01*
G01X-5142238Y-882560D01*
G01X-5140402Y-861581D01*
G01X-5142238Y-840602D01*
G01X-5147688Y-820260D01*
G01X-5156588Y-801174D01*
G01X-5168668Y-783923D01*
G01X-5183559Y-769032D01*
G01X-5200809Y-756953D01*
G01X-5219896Y-748053D01*
G01X-5240237Y-742602D01*
G01X-5261216Y-740767D01*
G01X-5282195Y-742602D01*
G01X-5302537Y-748053D01*
G01X-5321623Y-756953D01*
G01X-5338874Y-769032D01*
G01X-5353765Y-783923D01*
G01X-5365844Y-801174D01*
G01X-5374744Y-820260D01*
G01X-5380195Y-840602D01*
G01X-5382030Y-861581D01*
G01X-12007202Y-861581D01*
G01X-12007202Y-749300D01*
G01X-7711714Y-749300D01*
G01X-7709787Y-765170D01*
G01X-7704118Y-780118D01*
G01X-7695037Y-793274D01*
G01X-7683071Y-803875D01*
G01X-7668915Y-811305D01*
G01X-7653393Y-815131D01*
G01X-7637407Y-815131D01*
G01X-7621885Y-811305D01*
G01X-7607729Y-803875D01*
G01X-7595763Y-793274D01*
G01X-7586682Y-780118D01*
G01X-7581013Y-765170D01*
G01X-7579086Y-749300D01*
G01X-7581013Y-733430D01*
G01X-7586682Y-718482D01*
G01X-7595763Y-705326D01*
G01X-7607729Y-694725D01*
G01X-7621885Y-687295D01*
G01X-7637407Y-683469D01*
G01X-7653393Y-683469D01*
G01X-7668915Y-687295D01*
G01X-7683071Y-694725D01*
G01X-7695037Y-705326D01*
G01X-7704118Y-718482D01*
G01X-7709787Y-733430D01*
G01X-7711714Y-749300D01*
G01X-7711714Y-749300D01*
G01X-12007202Y-749300D01*
G01X-12007202Y-637540D01*
G01X-11798554Y-637540D01*
G01X-11796801Y-648607D01*
G01X-11791714Y-658591D01*
G01X-11783791Y-666514D01*
G01X-11773807Y-671601D01*
G01X-11762740Y-673354D01*
G01X-11605260Y-673354D01*
G01X-11605260Y-673354D01*
G01X-11594193Y-671601D01*
G01X-11584209Y-666514D01*
G01X-11576286Y-658591D01*
G01X-11571199Y-648607D01*
G01X-11569446Y-637540D01*
G01X-11569446Y-558800D01*
G01X-11544554Y-558800D01*
G01X-11542604Y-579849D01*
G01X-11536818Y-600182D01*
G01X-11527396Y-619105D01*
G01X-11514656Y-635975D01*
G01X-11499034Y-650216D01*
G01X-11481061Y-661345D01*
G01X-11461349Y-668981D01*
G01X-11440570Y-672865D01*
G01X-11419430Y-672865D01*
G01X-11398651Y-668981D01*
G01X-11378939Y-661345D01*
G01X-11360966Y-650216D01*
G01X-11345344Y-635975D01*
G01X-11332604Y-619105D01*
G01X-11323182Y-600182D01*
G01X-11317396Y-579849D01*
G01X-11315446Y-558800D01*
G01X-11315446Y-558800D01*
G01X-11290554Y-558800D01*
G01X-11288604Y-579849D01*
G01X-11282818Y-600182D01*
G01X-11273396Y-619105D01*
G01X-11260656Y-635975D01*
G01X-11245034Y-650216D01*
G01X-11227061Y-661345D01*
G01X-11207349Y-668981D01*
G01X-11186570Y-672865D01*
G01X-11165430Y-672865D01*
G01X-11144651Y-668981D01*
G01X-11124939Y-661345D01*
G01X-11106966Y-650216D01*
G01X-11091344Y-635975D01*
G01X-11078604Y-619105D01*
G01X-11072866Y-607581D01*
G01X-5382030Y-607581D01*
G01X-5380195Y-628560D01*
G01X-5374744Y-648901D01*
G01X-5365844Y-667988D01*
G01X-5353765Y-685238D01*
G01X-5338874Y-700129D01*
G01X-5321623Y-712209D01*
G01X-5302537Y-721109D01*
G01X-5282195Y-726559D01*
G01X-5261216Y-728395D01*
G01X-5261216Y-728395D01*
G01X-5240237Y-726559D01*
G01X-5219896Y-721109D01*
G01X-5200809Y-712209D01*
G01X-5183559Y-700129D01*
G01X-5168668Y-685238D01*
G01X-5156588Y-667988D01*
G01X-5147688Y-648901D01*
G01X-5142238Y-628560D01*
G01X-5140402Y-607581D01*
G01X-5142238Y-586602D01*
G01X-5147688Y-566260D01*
G01X-5156588Y-547174D01*
G01X-5168668Y-529923D01*
G01X-5183559Y-515032D01*
G01X-5200809Y-502953D01*
G01X-5219896Y-494053D01*
G01X-5240237Y-488602D01*
G01X-5261216Y-486767D01*
G01X-5282195Y-488602D01*
G01X-5302537Y-494053D01*
G01X-5321623Y-502953D01*
G01X-5338874Y-515032D01*
G01X-5353765Y-529923D01*
G01X-5365844Y-547174D01*
G01X-5374744Y-566260D01*
G01X-5380195Y-586602D01*
G01X-5382030Y-607581D01*
G01X-11072866Y-607581D01*
G01X-11069182Y-600182D01*
G01X-11063396Y-579849D01*
G01X-11061446Y-558800D01*
G01X-11063396Y-537751D01*
G01X-11069182Y-517418D01*
G01X-11078604Y-498495D01*
G01X-11091344Y-481625D01*
G01X-11106966Y-467384D01*
G01X-11124939Y-456255D01*
G01X-11144651Y-448619D01*
G01X-11165430Y-444735D01*
G01X-11186570Y-444735D01*
G01X-11207349Y-448619D01*
G01X-11227061Y-456255D01*
G01X-11245034Y-467384D01*
G01X-11260656Y-481625D01*
G01X-11273396Y-498495D01*
G01X-11282818Y-517418D01*
G01X-11288604Y-537751D01*
G01X-11290554Y-558800D01*
G01X-11290554Y-558800D01*
G01X-11315446Y-558800D01*
G01X-11317396Y-537751D01*
G01X-11323182Y-517418D01*
G01X-11332604Y-498495D01*
G01X-11345344Y-481625D01*
G01X-11360966Y-467384D01*
G01X-11378939Y-456255D01*
G01X-11398651Y-448619D01*
G01X-11419430Y-444735D01*
G01X-11440570Y-444735D01*
G01X-11461349Y-448619D01*
G01X-11481061Y-456255D01*
G01X-11499034Y-467384D01*
G01X-11514656Y-481625D01*
G01X-11527396Y-498495D01*
G01X-11536818Y-517418D01*
G01X-11542604Y-537751D01*
G01X-11544554Y-558800D01*
G01X-11544554Y-558800D01*
G01X-11569446Y-558800D01*
G01X-11569446Y-480060D01*
G01X-11571199Y-468993D01*
G01X-11576286Y-459009D01*
G01X-11584209Y-451086D01*
G01X-11594193Y-445999D01*
G01X-11605260Y-444246D01*
G01X-11762740Y-444246D01*
G01X-11773807Y-445999D01*
G01X-11783791Y-451086D01*
G01X-11791714Y-459009D01*
G01X-11796801Y-468993D01*
G01X-11798554Y-480060D01*
G01X-11798554Y-637540D01*
G01X-12007202Y-637540D01*
G01X-12007202Y-353581D01*
G01X-5382030Y-353581D01*
G01X-5380195Y-374560D01*
G01X-5374744Y-394901D01*
G01X-5365844Y-413988D01*
G01X-5353765Y-431238D01*
G01X-5338874Y-446129D01*
G01X-5321623Y-458209D01*
G01X-5302537Y-467109D01*
G01X-5282195Y-472559D01*
G01X-5261216Y-474395D01*
G01X-5261216Y-474395D01*
G01X-5240237Y-472559D01*
G01X-5219896Y-467109D01*
G01X-5200809Y-458209D01*
G01X-5183559Y-446129D01*
G01X-5168668Y-431238D01*
G01X-5156588Y-413988D01*
G01X-5147688Y-394901D01*
G01X-5142238Y-374560D01*
G01X-5140402Y-353581D01*
G01X-5142238Y-332602D01*
G01X-5147688Y-312260D01*
G01X-5156588Y-293174D01*
G01X-5168668Y-275923D01*
G01X-5183559Y-261032D01*
G01X-5200809Y-248953D01*
G01X-5219896Y-240053D01*
G01X-5240237Y-234602D01*
G01X-5261216Y-232767D01*
G01X-5282195Y-234602D01*
G01X-5302537Y-240053D01*
G01X-5321623Y-248953D01*
G01X-5338874Y-261032D01*
G01X-5353765Y-275923D01*
G01X-5365844Y-293174D01*
G01X-5374744Y-312260D01*
G01X-5380195Y-332602D01*
G01X-5382030Y-353581D01*
G01X-12007202Y-353581D01*
G01X-12007202Y-99581D01*
G01X-5382030Y-99581D01*
G01X-5380195Y-120560D01*
G01X-5374744Y-140901D01*
G01X-5365844Y-159988D01*
G01X-5353765Y-177238D01*
G01X-5338874Y-192129D01*
G01X-5321623Y-204209D01*
G01X-5302537Y-213109D01*
G01X-5282195Y-218559D01*
G01X-5261216Y-220395D01*
G01X-5261216Y-220395D01*
G01X-5240237Y-218559D01*
G01X-5219896Y-213109D01*
G01X-5200809Y-204209D01*
G01X-5183559Y-192129D01*
G01X-5168668Y-177238D01*
G01X-5156588Y-159988D01*
G01X-5147688Y-140901D01*
G01X-5142238Y-120560D01*
G01X-5140402Y-99581D01*
G01X-5142238Y-78602D01*
G01X-5147688Y-58260D01*
G01X-5156588Y-39174D01*
G01X-5168668Y-21923D01*
G01X-5183559Y-7032D01*
G01X-5200809Y5047D01*
G01X-5219896Y13947D01*
G01X-5240237Y19398D01*
G01X-5261216Y21233D01*
G01X-5282195Y19398D01*
G01X-5302537Y13947D01*
G01X-5321623Y5047D01*
G01X-5338874Y-7032D01*
G01X-5353765Y-21923D01*
G01X-5365844Y-39174D01*
G01X-5374744Y-58260D01*
G01X-5380195Y-78602D01*
G01X-5382030Y-99581D01*
G01X-12007202Y-99581D01*
G01X-12007202Y345295D01*
G01X-9993727Y345295D01*
G01X-9993727Y265295D01*
G01X-9991815Y243448D01*
G01X-9986139Y222265D01*
G01X-9976871Y202388D01*
G01X-9964292Y184424D01*
G01X-9948784Y168916D01*
G01X-9930820Y156337D01*
G01X-9910944Y147069D01*
G01X-9889760Y141393D01*
G01X-9867913Y139482D01*
G01X-9846065Y141393D01*
G01X-9824882Y147069D01*
G01X-9805006Y156337D01*
G01X-9787041Y168916D01*
G01X-9771534Y184424D01*
G01X-9758955Y202388D01*
G01X-9749686Y222265D01*
G01X-9744010Y243448D01*
G01X-9742099Y265295D01*
G01X-9742099Y265295D01*
G01X-9742099Y344305D01*
G01X-9739701Y344305D01*
G01X-9739701Y264305D01*
G01X-9737790Y242457D01*
G01X-9732114Y221274D01*
G01X-9722845Y201398D01*
G01X-9710266Y183433D01*
G01X-9694759Y167926D01*
G01X-9676794Y155347D01*
G01X-9656918Y146078D01*
G01X-9635735Y140402D01*
G01X-9613887Y138491D01*
G01X-9592040Y140402D01*
G01X-9570856Y146078D01*
G01X-9550980Y155347D01*
G01X-9533016Y167926D01*
G01X-9517508Y183433D01*
G01X-9504929Y201398D01*
G01X-9495661Y221274D01*
G01X-9489985Y242457D01*
G01X-9488073Y264305D01*
G01X-9488073Y264305D01*
G01X-9488073Y344305D01*
G01X-9489985Y366152D01*
G01X-9495661Y387335D01*
G01X-9504929Y407212D01*
G01X-9517508Y425176D01*
G01X-9526637Y434304D01*
G01X-9485701Y434304D01*
G01X-9485701Y174305D01*
G01X-9483948Y163238D01*
G01X-9478861Y153254D01*
G01X-9470938Y145331D01*
G01X-9460954Y140244D01*
G01X-9449887Y138491D01*
G01X-9269887Y138491D01*
G01X-9258820Y140244D01*
G01X-9248837Y145331D01*
G01X-9240913Y153254D01*
G01X-9240320Y154419D01*
G01X-5382030Y154419D01*
G01X-5380195Y133440D01*
G01X-5374744Y113099D01*
G01X-5365844Y94012D01*
G01X-5353765Y76762D01*
G01X-5338874Y61871D01*
G01X-5321623Y49791D01*
G01X-5302537Y40891D01*
G01X-5282195Y35441D01*
G01X-5261216Y33605D01*
G01X-5261216Y33605D01*
G01X-5240237Y35441D01*
G01X-5219896Y40891D01*
G01X-5200809Y49791D01*
G01X-5183559Y61871D01*
G01X-5168668Y76762D01*
G01X-5156588Y94012D01*
G01X-5147688Y113099D01*
G01X-5142238Y133440D01*
G01X-5140402Y154419D01*
G01X-5142238Y175398D01*
G01X-5147688Y195740D01*
G01X-5156588Y214826D01*
G01X-5168668Y232077D01*
G01X-5183559Y246968D01*
G01X-5200809Y259047D01*
G01X-5219896Y267947D01*
G01X-5240237Y273398D01*
G01X-5261216Y275233D01*
G01X-5282195Y273398D01*
G01X-5302537Y267947D01*
G01X-5321623Y259047D01*
G01X-5338874Y246968D01*
G01X-5353765Y232077D01*
G01X-5365844Y214826D01*
G01X-5374744Y195740D01*
G01X-5380195Y175398D01*
G01X-5382030Y154419D01*
G01X-9240320Y154419D01*
G01X-9235826Y163238D01*
G01X-9234073Y174305D01*
G01X-9234073Y370877D01*
G01X-8212996Y370877D01*
G01X-8212996Y290877D01*
G01X-8211085Y269030D01*
G01X-8205409Y247846D01*
G01X-8196140Y227970D01*
G01X-8183561Y210005D01*
G01X-8168054Y194498D01*
G01X-8150089Y181919D01*
G01X-8130213Y172651D01*
G01X-8109030Y166975D01*
G01X-8087182Y165063D01*
G01X-8065335Y166975D01*
G01X-8044151Y172651D01*
G01X-8024275Y181919D01*
G01X-8006311Y194498D01*
G01X-7990803Y210005D01*
G01X-7978224Y227970D01*
G01X-7968956Y247846D01*
G01X-7963280Y269030D01*
G01X-7961368Y290877D01*
G01X-7961368Y290877D01*
G01X-7961368Y369886D01*
G01X-7958971Y369886D01*
G01X-7958971Y289886D01*
G01X-7957059Y268039D01*
G01X-7951383Y246856D01*
G01X-7942115Y226979D01*
G01X-7929536Y209015D01*
G01X-7914028Y193507D01*
G01X-7896064Y180928D01*
G01X-7876188Y171660D01*
G01X-7855004Y165984D01*
G01X-7833157Y164073D01*
G01X-7811309Y165984D01*
G01X-7790126Y171660D01*
G01X-7770250Y180928D01*
G01X-7752285Y193507D01*
G01X-7736778Y209015D01*
G01X-7724199Y226979D01*
G01X-7714930Y246856D01*
G01X-7709254Y268039D01*
G01X-7707343Y289886D01*
G01X-7707343Y289886D01*
G01X-7707343Y369886D01*
G01X-7709254Y391734D01*
G01X-7714930Y412917D01*
G01X-7724199Y432793D01*
G01X-7736778Y450758D01*
G01X-7745906Y459886D01*
G01X-7704971Y459886D01*
G01X-7704971Y199887D01*
G01X-7703218Y188819D01*
G01X-7698131Y178836D01*
G01X-7690208Y170912D01*
G01X-7680224Y165825D01*
G01X-7669157Y164073D01*
G01X-7489157Y164073D01*
G01X-7478090Y165825D01*
G01X-7468106Y170912D01*
G01X-7460183Y178836D01*
G01X-7455096Y188819D01*
G01X-7453343Y199887D01*
G01X-7453343Y459886D01*
G01X-7455096Y470953D01*
G01X-7460183Y480937D01*
G01X-7468106Y488860D01*
G01X-7478090Y493947D01*
G01X-7489157Y495700D01*
G01X-7669157Y495700D01*
G01X-7669157Y495700D01*
G01X-7680224Y493947D01*
G01X-7690208Y488860D01*
G01X-7698131Y480937D01*
G01X-7703218Y470953D01*
G01X-7704971Y459886D01*
G01X-7745906Y459886D01*
G01X-7752285Y466265D01*
G01X-7770250Y478844D01*
G01X-7790126Y488113D01*
G01X-7811309Y493789D01*
G01X-7833157Y495700D01*
G01X-7855004Y493789D01*
G01X-7876188Y488113D01*
G01X-7896064Y478844D01*
G01X-7914028Y466265D01*
G01X-7929536Y450758D01*
G01X-7942115Y432793D01*
G01X-7951383Y412917D01*
G01X-7957059Y391734D01*
G01X-7958971Y369886D01*
G01X-7961368Y369886D01*
G01X-7961368Y370877D01*
G01X-7963280Y392724D01*
G01X-7968956Y413908D01*
G01X-7978224Y433784D01*
G01X-7990803Y451748D01*
G01X-8006311Y467256D01*
G01X-8024275Y479835D01*
G01X-8044151Y489103D01*
G01X-8065335Y494779D01*
G01X-8087182Y496691D01*
G01X-8109030Y494779D01*
G01X-8130213Y489103D01*
G01X-8150089Y479835D01*
G01X-8168054Y467256D01*
G01X-8183561Y451748D01*
G01X-8196140Y433784D01*
G01X-8205409Y413908D01*
G01X-8211085Y392724D01*
G01X-8212996Y370877D01*
G01X-9234073Y370877D01*
G01X-9234073Y434304D01*
G01X-9235826Y445372D01*
G01X-9240913Y455355D01*
G01X-9248837Y463279D01*
G01X-9258820Y468366D01*
G01X-9269887Y470118D01*
G01X-9449887Y470118D01*
G01X-9449887Y470118D01*
G01X-9460954Y468366D01*
G01X-9470938Y463279D01*
G01X-9478861Y455355D01*
G01X-9483948Y445372D01*
G01X-9485701Y434304D01*
G01X-9526637Y434304D01*
G01X-9533016Y440684D01*
G01X-9550980Y453263D01*
G01X-9570856Y462531D01*
G01X-9592040Y468207D01*
G01X-9613887Y470118D01*
G01X-9635735Y468207D01*
G01X-9656918Y462531D01*
G01X-9676794Y453263D01*
G01X-9694759Y440684D01*
G01X-9710266Y425176D01*
G01X-9722845Y407212D01*
G01X-9732114Y387335D01*
G01X-9737790Y366152D01*
G01X-9739701Y344305D01*
G01X-9742099Y344305D01*
G01X-9742099Y345295D01*
G01X-9744010Y367143D01*
G01X-9749686Y388326D01*
G01X-9758955Y408202D01*
G01X-9771534Y426167D01*
G01X-9787041Y441674D01*
G01X-9805006Y454253D01*
G01X-9824882Y463522D01*
G01X-9846065Y469198D01*
G01X-9867913Y471109D01*
G01X-9889760Y469198D01*
G01X-9910944Y463522D01*
G01X-9930820Y454253D01*
G01X-9948784Y441674D01*
G01X-9964292Y426167D01*
G01X-9976871Y408202D01*
G01X-9986139Y388326D01*
G01X-9991815Y367143D01*
G01X-9993727Y345295D01*
G01X-12007202Y345295D01*
G01X-12007202Y477449D01*
G01X-11244460Y477449D01*
G01X-11242707Y466382D01*
G01X-11237620Y456398D01*
G01X-11229697Y448475D01*
G01X-11219713Y443388D01*
G01X-11208646Y441635D01*
G01X-10988646Y441635D01*
G01X-10977579Y443388D01*
G01X-10967595Y448475D01*
G01X-10959672Y456398D01*
G01X-10954585Y466382D01*
G01X-10952832Y477449D01*
G01X-10952832Y596942D01*
G01X-10934963Y596942D01*
G01X-10934963Y577957D01*
G01X-10931015Y559386D01*
G01X-10923293Y542042D01*
G01X-10912134Y526683D01*
G01X-10898025Y513979D01*
G01X-10881583Y504486D01*
G01X-10863527Y498620D01*
G01X-10844646Y496635D01*
G01X-10844646Y496635D01*
G01X-10825765Y498620D01*
G01X-10807709Y504486D01*
G01X-10791267Y513979D01*
G01X-10777158Y526683D01*
G01X-10765999Y542042D01*
G01X-10758277Y559386D01*
G01X-10754330Y577957D01*
G01X-10754330Y596942D01*
G01X-10758277Y615512D01*
G01X-10765999Y632856D01*
G01X-10777158Y648216D01*
G01X-10791267Y660919D01*
G01X-10807709Y670412D01*
G01X-10822197Y675119D01*
G01X-9797030Y675119D01*
G01X-9795046Y656238D01*
G01X-9789179Y638182D01*
G01X-9779686Y621740D01*
G01X-9766983Y607631D01*
G01X-9751623Y596472D01*
G01X-9734279Y588750D01*
G01X-9715709Y584803D01*
G01X-9696724Y584803D01*
G01X-9678153Y588750D01*
G01X-9660809Y596472D01*
G01X-9645450Y607631D01*
G01X-9632746Y621740D01*
G01X-9623254Y638182D01*
G01X-9617387Y656238D01*
G01X-9615402Y675119D01*
G01X-9543030Y675119D01*
G01X-9541046Y656238D01*
G01X-9535179Y638182D01*
G01X-9525686Y621740D01*
G01X-9512983Y607631D01*
G01X-9497623Y596472D01*
G01X-9480279Y588750D01*
G01X-9461709Y584803D01*
G01X-9442724Y584803D01*
G01X-9424153Y588750D01*
G01X-9406809Y596472D01*
G01X-9391450Y607631D01*
G01X-9378746Y621740D01*
G01X-9369254Y638182D01*
G01X-9363387Y656238D01*
G01X-9361402Y675119D01*
G01X-9362737Y687819D01*
G01X-8107930Y687819D01*
G01X-8105946Y668938D01*
G01X-8100079Y650882D01*
G01X-8090586Y634440D01*
G01X-8077883Y620331D01*
G01X-8062523Y609172D01*
G01X-8045179Y601450D01*
G01X-8026609Y597503D01*
G01X-8007624Y597503D01*
G01X-7989053Y601450D01*
G01X-7971709Y609172D01*
G01X-7956350Y620331D01*
G01X-7943646Y634440D01*
G01X-7934154Y650882D01*
G01X-7928287Y668938D01*
G01X-7926302Y687819D01*
G01X-7853930Y687819D01*
G01X-7851946Y668938D01*
G01X-7846079Y650882D01*
G01X-7836586Y634440D01*
G01X-7823883Y620331D01*
G01X-7808523Y609172D01*
G01X-7791179Y601450D01*
G01X-7772609Y597503D01*
G01X-7753624Y597503D01*
G01X-7735053Y601450D01*
G01X-7717709Y609172D01*
G01X-7702350Y620331D01*
G01X-7689646Y634440D01*
G01X-7680154Y650882D01*
G01X-7674287Y668938D01*
G01X-7672302Y687819D01*
G01X-7674287Y706701D01*
G01X-7680154Y724757D01*
G01X-7689646Y741198D01*
G01X-7702350Y755307D01*
G01X-7717709Y766467D01*
G01X-7735053Y774189D01*
G01X-7753624Y778136D01*
G01X-7772609Y778136D01*
G01X-7791179Y774189D01*
G01X-7808523Y766467D01*
G01X-7823883Y755307D01*
G01X-7836586Y741198D01*
G01X-7846079Y724757D01*
G01X-7851946Y706701D01*
G01X-7853930Y687819D01*
G01X-7853930Y687819D01*
G01X-7926302Y687819D01*
G01X-7928287Y706701D01*
G01X-7934154Y724757D01*
G01X-7943646Y741198D01*
G01X-7956350Y755307D01*
G01X-7971709Y766467D01*
G01X-7989053Y774189D01*
G01X-8007624Y778136D01*
G01X-8026609Y778136D01*
G01X-8045179Y774189D01*
G01X-8062523Y766467D01*
G01X-8077883Y755307D01*
G01X-8090586Y741198D01*
G01X-8100079Y724757D01*
G01X-8105946Y706701D01*
G01X-8107930Y687819D01*
G01X-8107930Y687819D01*
G01X-9362737Y687819D01*
G01X-9363387Y694001D01*
G01X-9369254Y712057D01*
G01X-9378746Y728498D01*
G01X-9391450Y742607D01*
G01X-9406809Y753767D01*
G01X-9424153Y761489D01*
G01X-9442724Y765436D01*
G01X-9461709Y765436D01*
G01X-9480279Y761489D01*
G01X-9497623Y753767D01*
G01X-9512983Y742607D01*
G01X-9525686Y728498D01*
G01X-9535179Y712057D01*
G01X-9541046Y694001D01*
G01X-9543030Y675119D01*
G01X-9543030Y675119D01*
G01X-9615402Y675119D01*
G01X-9617387Y694001D01*
G01X-9623254Y712057D01*
G01X-9632746Y728498D01*
G01X-9645450Y742607D01*
G01X-9660809Y753767D01*
G01X-9678153Y761489D01*
G01X-9696724Y765436D01*
G01X-9715709Y765436D01*
G01X-9734279Y761489D01*
G01X-9751623Y753767D01*
G01X-9766983Y742607D01*
G01X-9779686Y728498D01*
G01X-9789179Y712057D01*
G01X-9795046Y694001D01*
G01X-9797030Y675119D01*
G01X-9797030Y675119D01*
G01X-10822197Y675119D01*
G01X-10825765Y676279D01*
G01X-10844646Y678263D01*
G01X-10863527Y676279D01*
G01X-10881583Y670412D01*
G01X-10898025Y660919D01*
G01X-10912134Y648216D01*
G01X-10923293Y632856D01*
G01X-10931015Y615512D01*
G01X-10934963Y596942D01*
G01X-10952832Y596942D01*
G01X-10952832Y697449D01*
G01X-10954585Y708516D01*
G01X-10959672Y718500D01*
G01X-10967595Y726423D01*
G01X-10977579Y731510D01*
G01X-10988646Y733263D01*
G01X-11000884Y733263D01*
G01X-10984855Y750272D01*
G01X-10971750Y769622D01*
G01X-10961905Y790818D01*
G01X-10955572Y813315D01*
G01X-10952915Y836534D01*
G01X-10953586Y850942D01*
G01X-10934963Y850942D01*
G01X-10934963Y831957D01*
G01X-10931015Y813386D01*
G01X-10923293Y796042D01*
G01X-10912134Y780683D01*
G01X-10898025Y767979D01*
G01X-10881583Y758486D01*
G01X-10863527Y752620D01*
G01X-10844646Y750635D01*
G01X-10844646Y750635D01*
G01X-10825765Y752620D01*
G01X-10807709Y758486D01*
G01X-10791267Y767979D01*
G01X-10777158Y780683D01*
G01X-10765999Y796042D01*
G01X-10758277Y813386D01*
G01X-10757058Y819119D01*
G01X-9852030Y819119D01*
G01X-9850277Y808052D01*
G01X-9845190Y798068D01*
G01X-9837267Y790145D01*
G01X-9827283Y785058D01*
G01X-9816216Y783305D01*
G01X-9596216Y783305D01*
G01X-9585149Y785058D01*
G01X-9575165Y790145D01*
G01X-9567242Y798068D01*
G01X-9562155Y808052D01*
G01X-9560402Y819119D01*
G01X-9560402Y831357D01*
G01X-9543394Y815328D01*
G01X-9524043Y802223D01*
G01X-9502847Y792378D01*
G01X-9480351Y786045D01*
G01X-9457131Y783388D01*
G01X-9433786Y784475D01*
G01X-9410913Y789277D01*
G01X-9389102Y797672D01*
G01X-9368913Y809444D01*
G01X-9350863Y824290D01*
G01X-9344232Y831819D01*
G01X-8162930Y831819D01*
G01X-8161177Y820752D01*
G01X-8156090Y810768D01*
G01X-8148167Y802845D01*
G01X-8138183Y797758D01*
G01X-8127116Y796005D01*
G01X-7907116Y796005D01*
G01X-7896049Y797758D01*
G01X-7886065Y802845D01*
G01X-7878142Y810768D01*
G01X-7873055Y820752D01*
G01X-7871302Y831819D01*
G01X-7871302Y844057D01*
G01X-7854294Y828028D01*
G01X-7834943Y814923D01*
G01X-7813747Y805078D01*
G01X-7791251Y798745D01*
G01X-7768031Y796088D01*
G01X-7744686Y797175D01*
G01X-7721813Y801977D01*
G01X-7700002Y810372D01*
G01X-7679813Y822144D01*
G01X-7661763Y836990D01*
G01X-7646317Y854529D01*
G01X-7633871Y874311D01*
G01X-7624746Y895826D01*
G01X-7619175Y918524D01*
G01X-7617302Y941819D01*
G01X-7619175Y965115D01*
G01X-7624746Y987812D01*
G01X-7633871Y1009328D01*
G01X-7646317Y1029110D01*
G01X-7661763Y1046649D01*
G01X-7679813Y1061495D01*
G01X-7700002Y1073266D01*
G01X-7721813Y1081661D01*
G01X-7744686Y1086464D01*
G01X-7768031Y1087550D01*
G01X-7791251Y1084893D01*
G01X-7813747Y1078561D01*
G01X-7834943Y1068715D01*
G01X-7854294Y1055610D01*
G01X-7871302Y1039582D01*
G01X-7871302Y1051819D01*
G01X-7871302Y1051819D01*
G01X-7873055Y1062886D01*
G01X-7878142Y1072870D01*
G01X-7886065Y1080793D01*
G01X-7896049Y1085880D01*
G01X-7907116Y1087633D01*
G01X-8127116Y1087633D01*
G01X-8138183Y1085880D01*
G01X-8148167Y1080793D01*
G01X-8156090Y1072870D01*
G01X-8161177Y1062886D01*
G01X-8162930Y1051819D01*
G01X-8162930Y831819D01*
G01X-9344232Y831819D01*
G01X-9335417Y841829D01*
G01X-9322971Y861611D01*
G01X-9313846Y883126D01*
G01X-9308275Y905824D01*
G01X-9306402Y929119D01*
G01X-9308275Y952415D01*
G01X-9313846Y975112D01*
G01X-9322971Y996628D01*
G01X-9335417Y1016410D01*
G01X-9350863Y1033949D01*
G01X-9368913Y1048795D01*
G01X-9389102Y1060566D01*
G01X-9410913Y1068961D01*
G01X-9433786Y1073764D01*
G01X-9457131Y1074850D01*
G01X-9480351Y1072193D01*
G01X-9502847Y1065861D01*
G01X-9524043Y1056015D01*
G01X-9543394Y1042910D01*
G01X-9560402Y1026882D01*
G01X-9560402Y1039119D01*
G01X-9560402Y1039119D01*
G01X-9562155Y1050186D01*
G01X-9567242Y1060170D01*
G01X-9575165Y1068093D01*
G01X-9585149Y1073180D01*
G01X-9596216Y1074933D01*
G01X-9816216Y1074933D01*
G01X-9827283Y1073180D01*
G01X-9837267Y1068093D01*
G01X-9845190Y1060170D01*
G01X-9850277Y1050186D01*
G01X-9852030Y1039119D01*
G01X-9852030Y819119D01*
G01X-10757058Y819119D01*
G01X-10754330Y831957D01*
G01X-10754330Y850942D01*
G01X-10758277Y869512D01*
G01X-10765999Y886856D01*
G01X-10777158Y902216D01*
G01X-10791267Y914919D01*
G01X-10807709Y924412D01*
G01X-10825765Y930279D01*
G01X-10844646Y932263D01*
G01X-10863527Y930279D01*
G01X-10881583Y924412D01*
G01X-10898025Y914919D01*
G01X-10912134Y902216D01*
G01X-10923293Y886856D01*
G01X-10931015Y869512D01*
G01X-10934963Y850942D01*
G01X-10953586Y850942D01*
G01X-10954002Y859880D01*
G01X-10958804Y882752D01*
G01X-10967199Y904563D01*
G01X-10978971Y924753D01*
G01X-10993817Y942803D01*
G01X-11011356Y958249D01*
G01X-11031137Y970694D01*
G01X-11052653Y979820D01*
G01X-11075350Y985390D01*
G01X-11098646Y987263D01*
G01X-11121942Y985390D01*
G01X-11144639Y979820D01*
G01X-11166155Y970694D01*
G01X-11185936Y958249D01*
G01X-11203475Y942803D01*
G01X-11218321Y924753D01*
G01X-11230093Y904563D01*
G01X-11238488Y882752D01*
G01X-11243291Y859880D01*
G01X-11244377Y836534D01*
G01X-11241720Y813315D01*
G01X-11235388Y790818D01*
G01X-11225542Y769622D01*
G01X-11212437Y750272D01*
G01X-11196409Y733263D01*
G01X-11208646Y733263D01*
G01X-11208646Y733263D01*
G01X-11219713Y731510D01*
G01X-11229697Y726423D01*
G01X-11237620Y718500D01*
G01X-11242707Y708516D01*
G01X-11244460Y697449D01*
G01X-11244460Y477449D01*
G01X-12007202Y477449D01*
G01X-12007202Y1538719D01*
G01X-11835130Y1538719D01*
G01X-11833239Y1512275D01*
G01X-11827603Y1486369D01*
G01X-11818339Y1461529D01*
G01X-11805633Y1438261D01*
G01X-11789745Y1417037D01*
G01X-11770999Y1398290D01*
G01X-11749775Y1382403D01*
G01X-11726506Y1369697D01*
G01X-11701666Y1360432D01*
G01X-11675760Y1354797D01*
G01X-11649316Y1352905D01*
G01X-11622872Y1354797D01*
G01X-11596966Y1360432D01*
G01X-11572126Y1369697D01*
G01X-11548858Y1382403D01*
G01X-11527634Y1398290D01*
G01X-11508887Y1417037D01*
G01X-11493000Y1438261D01*
G01X-11480294Y1461529D01*
G01X-11471029Y1486369D01*
G01X-11465394Y1512275D01*
G01X-11464411Y1526019D01*
G01X-3491230Y1526019D01*
G01X-3489339Y1499575D01*
G01X-3483703Y1473669D01*
G01X-3474439Y1448829D01*
G01X-3461733Y1425561D01*
G01X-3445845Y1404337D01*
G01X-3427099Y1385590D01*
G01X-3405875Y1369703D01*
G01X-3382606Y1356997D01*
G01X-3357766Y1347732D01*
G01X-3331860Y1342097D01*
G01X-3305416Y1340205D01*
G01X-3278972Y1342097D01*
G01X-3253066Y1347732D01*
G01X-3228226Y1356997D01*
G01X-3204958Y1369703D01*
G01X-3183734Y1385590D01*
G01X-3164987Y1404337D01*
G01X-3149100Y1425561D01*
G01X-3136394Y1448829D01*
G01X-3127129Y1473669D01*
G01X-3121494Y1499575D01*
G01X-3119602Y1526019D01*
G01X-3121494Y1552463D01*
G01X-3127129Y1578369D01*
G01X-3136394Y1603209D01*
G01X-3149100Y1626478D01*
G01X-3164987Y1647702D01*
G01X-3183734Y1666448D01*
G01X-3204958Y1682336D01*
G01X-3228226Y1695042D01*
G01X-3253066Y1704306D01*
G01X-3278972Y1709942D01*
G01X-3305416Y1711833D01*
G01X-3331860Y1709942D01*
G01X-3357766Y1704306D01*
G01X-3382606Y1695042D01*
G01X-3405875Y1682336D01*
G01X-3427099Y1666448D01*
G01X-3445845Y1647702D01*
G01X-3461733Y1626478D01*
G01X-3474439Y1603209D01*
G01X-3483703Y1578369D01*
G01X-3489339Y1552463D01*
G01X-3491230Y1526019D01*
G01X-3491230Y1526019D01*
G01X-11464411Y1526019D01*
G01X-11463502Y1538719D01*
G01X-11465394Y1565163D01*
G01X-11471029Y1591069D01*
G01X-11480294Y1615909D01*
G01X-11493000Y1639178D01*
G01X-11508887Y1660402D01*
G01X-11527634Y1679148D01*
G01X-11548858Y1695036D01*
G01X-11572126Y1707742D01*
G01X-11596966Y1717006D01*
G01X-11622872Y1722642D01*
G01X-11649316Y1724533D01*
G01X-11675760Y1722642D01*
G01X-11701666Y1717006D01*
G01X-11726506Y1707742D01*
G01X-11749775Y1695036D01*
G01X-11770999Y1679148D01*
G01X-11789745Y1660402D01*
G01X-11805633Y1639178D01*
G01X-11818339Y1615909D01*
G01X-11827603Y1591069D01*
G01X-11833239Y1565163D01*
G01X-11835130Y1538719D01*
G01X-11835130Y1538719D01*
G01X-12007202Y1538719D01*
G01X-12007202Y1576819D01*
G01X-12005351Y1609780D01*
G01X-11999821Y1642326D01*
G01X-11990682Y1674049D01*
G01X-11978049Y1704549D01*
G01X-11962080Y1733442D01*
G01X-11942977Y1760366D01*
G01X-11920979Y1784982D01*
G01X-11896363Y1806980D01*
G01X-11869439Y1826083D01*
G01X-11840546Y1842052D01*
G01X-11810046Y1854685D01*
G01X-11778323Y1863824D01*
G01X-11745777Y1869354D01*
G01X-11712816Y1871205D01*
G01X-3241916Y1871205D01*
G01X-3208956Y1869354D01*
G01X-3176409Y1863824D01*
G01X-3144687Y1854685D01*
G01X-3114187Y1842052D01*
G01X-3085294Y1826083D01*
G01X-3058370Y1806980D01*
G01X-3033754Y1784982D01*
G01X-3011756Y1760366D01*
G01X-2992653Y1733442D01*
G01X-2976684Y1704549D01*
G01X-2964050Y1674049D01*
G01X-2954911Y1642326D01*
G01X-2949381Y1609780D01*
G01X-2947530Y1576819D01*
G01X-2947530Y-5395481D01*
G01X-2949381Y-5428441D01*
G01X-2954911Y-5460988D01*
G01X-2964050Y-5492710D01*
G01X-2976684Y-5523210D01*
G01X-2992653Y-5552103D01*
G01X-3011756Y-5579027D01*
G01X-3033754Y-5603643D01*
G01X-3058370Y-5625641D01*
G01X-3085294Y-5644744D01*
G01X-3114187Y-5660713D01*
G01X-3144687Y-5673347D01*
G01X-3176409Y-5682486D01*
G01X-3208956Y-5688016D01*
G01X-3241916Y-5689867D01*
G01X-11712816Y-5689867D01*
G01X-11745777Y-5688016D01*
G01X-11778323Y-5682486D01*
G01X-11810046Y-5673347D01*
G01X-11840546Y-5660713D01*
G01X-11869439Y-5644744D01*
G01X-11896363Y-5625641D01*
G01X-11920979Y-5603643D01*
G01X-11942977Y-5579027D01*
G01X-11962080Y-5552103D01*
G01X-11978049Y-5523210D01*
G01X-11990682Y-5492710D01*
G01X-11999821Y-5460988D01*
G01X-12005351Y-5428441D01*
G01X-12007202Y-5395481D01*
G01X-12007202Y-5370081D01*
G01X-11835130Y-5370081D01*
G01X-11833239Y-5396525D01*
G01X-11827603Y-5422431D01*
G01X-11818339Y-5447271D01*
G01X-11805633Y-5470539D01*
G01X-11789745Y-5491763D01*
G01X-11770999Y-5510510D01*
G01X-11749775Y-5526397D01*
G01X-11726506Y-5539103D01*
G01X-11701666Y-5548368D01*
G01X-11675760Y-5554003D01*
G01X-11649316Y-5555895D01*
G01X-11622872Y-5554003D01*
G01X-11596966Y-5548368D01*
G01X-11572126Y-5539103D01*
G01X-11548858Y-5526397D01*
G01X-11527634Y-5510510D01*
G01X-11508887Y-5491763D01*
G01X-11493000Y-5470539D01*
G01X-11480294Y-5447271D01*
G01X-11471029Y-5422431D01*
G01X-11467915Y-5408113D01*
G01X-10173729Y-5408113D01*
G01X-10173729Y-5498113D01*
G01X-10171853Y-5515955D01*
G01X-10166310Y-5533017D01*
G01X-10157340Y-5548553D01*
G01X-10145336Y-5561885D01*
G01X-10130822Y-5572430D01*
G01X-10114433Y-5579727D01*
G01X-10096885Y-5583457D01*
G01X-10078945Y-5583457D01*
G01X-10061397Y-5579727D01*
G01X-10045008Y-5572430D01*
G01X-10030494Y-5561885D01*
G01X-10018490Y-5548553D01*
G01X-10009520Y-5533017D01*
G01X-10003976Y-5515955D01*
G01X-10002101Y-5498113D01*
G01X-10002101Y-5408113D01*
G01X-9308732Y-5408113D01*
G01X-9308732Y-5498113D01*
G01X-9306856Y-5515955D01*
G01X-9301313Y-5533017D01*
G01X-9292343Y-5548553D01*
G01X-9280339Y-5561885D01*
G01X-9265825Y-5572430D01*
G01X-9249436Y-5579727D01*
G01X-9231888Y-5583457D01*
G01X-9213948Y-5583457D01*
G01X-9196400Y-5579727D01*
G01X-9180011Y-5572430D01*
G01X-9165497Y-5561885D01*
G01X-9153493Y-5548553D01*
G01X-9144523Y-5533017D01*
G01X-9138979Y-5515955D01*
G01X-9137104Y-5498113D01*
G01X-9137104Y-5408113D01*
G01X-9138979Y-5390272D01*
G01X-9144523Y-5373210D01*
G01X-9147357Y-5368300D01*
G01X-5932409Y-5368300D01*
G01X-5932409Y-5528300D01*
G01X-5930656Y-5539367D01*
G01X-5925569Y-5549351D01*
G01X-5917646Y-5557274D01*
G01X-5907662Y-5562361D01*
G01X-5896595Y-5564114D01*
G01X-5736595Y-5564114D01*
G01X-5725528Y-5562361D01*
G01X-5715544Y-5557274D01*
G01X-5707621Y-5549351D01*
G01X-5702534Y-5539367D01*
G01X-5700781Y-5528300D01*
G01X-5700781Y-5368300D01*
G01X-5700781Y-5368300D01*
G01X-5702534Y-5357233D01*
G01X-5707621Y-5347249D01*
G01X-5710189Y-5344681D01*
G01X-3491230Y-5344681D01*
G01X-3489339Y-5371125D01*
G01X-3483703Y-5397031D01*
G01X-3474439Y-5421871D01*
G01X-3461733Y-5445139D01*
G01X-3445845Y-5466363D01*
G01X-3427099Y-5485110D01*
G01X-3405875Y-5500997D01*
G01X-3382606Y-5513703D01*
G01X-3357766Y-5522968D01*
G01X-3331860Y-5528603D01*
G01X-3305416Y-5530495D01*
G01X-3278972Y-5528603D01*
G01X-3253066Y-5522968D01*
G01X-3228226Y-5513703D01*
G01X-3204958Y-5500997D01*
G01X-3183734Y-5485110D01*
G01X-3164987Y-5466363D01*
G01X-3149100Y-5445139D01*
G01X-3136394Y-5421871D01*
G01X-3127129Y-5397031D01*
G01X-3121494Y-5371125D01*
G01X-3119602Y-5344681D01*
G01X-3121494Y-5318237D01*
G01X-3127129Y-5292331D01*
G01X-3136394Y-5267491D01*
G01X-3149100Y-5244222D01*
G01X-3164987Y-5222998D01*
G01X-3183734Y-5204252D01*
G01X-3204958Y-5188364D01*
G01X-3228226Y-5175658D01*
G01X-3253066Y-5166394D01*
G01X-3278972Y-5160758D01*
G01X-3305416Y-5158867D01*
G01X-3331860Y-5160758D01*
G01X-3357766Y-5166394D01*
G01X-3382606Y-5175658D01*
G01X-3405875Y-5188364D01*
G01X-3427099Y-5204252D01*
G01X-3445845Y-5222998D01*
G01X-3461733Y-5244222D01*
G01X-3474439Y-5267491D01*
G01X-3483703Y-5292331D01*
G01X-3489339Y-5318237D01*
G01X-3491230Y-5344681D01*
G01X-3491230Y-5344681D01*
G01X-5710189Y-5344681D01*
G01X-5715544Y-5339326D01*
G01X-5725528Y-5334239D01*
G01X-5736595Y-5332486D01*
G01X-5896595Y-5332486D01*
G01X-5907662Y-5334239D01*
G01X-5917646Y-5339326D01*
G01X-5925569Y-5347249D01*
G01X-5930656Y-5357233D01*
G01X-5932409Y-5368300D01*
G01X-9147357Y-5368300D01*
G01X-9153493Y-5357673D01*
G01X-9165497Y-5344341D01*
G01X-9180011Y-5333796D01*
G01X-9196400Y-5326500D01*
G01X-9213948Y-5322770D01*
G01X-9231888Y-5322770D01*
G01X-9249436Y-5326500D01*
G01X-9265825Y-5333796D01*
G01X-9280339Y-5344341D01*
G01X-9292343Y-5357673D01*
G01X-9301313Y-5373210D01*
G01X-9306856Y-5390272D01*
G01X-9308732Y-5408113D01*
G01X-9308732Y-5408113D01*
G01X-10002101Y-5408113D01*
G01X-10003976Y-5390272D01*
G01X-10009520Y-5373210D01*
G01X-10018490Y-5357673D01*
G01X-10030494Y-5344341D01*
G01X-10045008Y-5333796D01*
G01X-10061397Y-5326500D01*
G01X-10078945Y-5322770D01*
G01X-10096885Y-5322770D01*
G01X-10114433Y-5326500D01*
G01X-10130822Y-5333796D01*
G01X-10145336Y-5344341D01*
G01X-10157340Y-5357673D01*
G01X-10166310Y-5373210D01*
G01X-10171853Y-5390272D01*
G01X-10173729Y-5408113D01*
G01X-10173729Y-5408113D01*
G01X-11467915Y-5408113D01*
G01X-11465394Y-5396525D01*
G01X-11463502Y-5370081D01*
G01X-11465394Y-5343637D01*
G01X-11471029Y-5317731D01*
G01X-11480294Y-5292891D01*
G01X-11493000Y-5269622D01*
G01X-11508887Y-5248398D01*
G01X-11527634Y-5229652D01*
G01X-11548858Y-5213764D01*
G01X-11572126Y-5201058D01*
G01X-11596966Y-5191794D01*
G01X-11622872Y-5186158D01*
G01X-11649316Y-5184267D01*
G01X-11675760Y-5186158D01*
G01X-11701666Y-5191794D01*
G01X-11726506Y-5201058D01*
G01X-11749775Y-5213764D01*
G01X-11770999Y-5229652D01*
G01X-11789745Y-5248398D01*
G01X-11805633Y-5269622D01*
G01X-11818339Y-5292891D01*
G01X-11827603Y-5317731D01*
G01X-11833239Y-5343637D01*
G01X-11835130Y-5370081D01*
G01X-11835130Y-5370081D01*
G01X-12007202Y-5370081D01*
G01X-12007202Y-5183614D01*
G01X-5931915Y-5183614D01*
G01X-5931915Y-5204986D01*
G01X-5927988Y-5225994D01*
G01X-5920267Y-5245923D01*
G01X-5909016Y-5264093D01*
G01X-5894618Y-5279887D01*
G01X-5877563Y-5292767D01*
G01X-5858432Y-5302293D01*
G01X-5837876Y-5308142D01*
G01X-5816595Y-5310114D01*
G01X-5816595Y-5310114D01*
G01X-5795314Y-5308142D01*
G01X-5774758Y-5302293D01*
G01X-5755627Y-5292767D01*
G01X-5738572Y-5279887D01*
G01X-5724173Y-5264093D01*
G01X-5712923Y-5245923D01*
G01X-5705202Y-5225994D01*
G01X-5701275Y-5204986D01*
G01X-5701275Y-5183614D01*
G01X-5705202Y-5162606D01*
G01X-5712923Y-5142677D01*
G01X-5724173Y-5124507D01*
G01X-5738572Y-5108713D01*
G01X-5755627Y-5095833D01*
G01X-5774758Y-5086307D01*
G01X-5795314Y-5080458D01*
G01X-5816595Y-5078486D01*
G01X-5837876Y-5080458D01*
G01X-5858432Y-5086307D01*
G01X-5877563Y-5095833D01*
G01X-5894618Y-5108713D01*
G01X-5909016Y-5124507D01*
G01X-5920267Y-5142677D01*
G01X-5927988Y-5162606D01*
G01X-5931915Y-5183614D01*
G01X-12007202Y-5183614D01*
G01X-12007202Y-4978124D01*
G01X-10173729Y-4978124D01*
G01X-10173729Y-5088124D01*
G01X-10171961Y-5105454D01*
G01X-10166730Y-5122069D01*
G01X-10158251Y-5137286D01*
G01X-10146874Y-5150477D01*
G01X-10133068Y-5161098D01*
G01X-10117401Y-5168713D01*
G01X-10100519Y-5173007D01*
G01X-10083118Y-5173804D01*
G01X-10065915Y-5171070D01*
G01X-10049618Y-5164918D01*
G01X-10034899Y-5155602D01*
G01X-10022364Y-5143506D01*
G01X-10012531Y-5129128D01*
G01X-10005804Y-5113060D01*
G01X-9996956Y-5126759D01*
G01X-9985114Y-5137970D01*
G01X-9970952Y-5146056D01*
G01X-9955277Y-5150554D01*
G01X-9938982Y-5151209D01*
G01X-9922997Y-5147984D01*
G01X-9908231Y-5141061D01*
G01X-9895527Y-5130837D01*
G01X-9885608Y-5117892D01*
G01X-9879040Y-5102966D01*
G01X-9876198Y-5086914D01*
G01X-9434610Y-5086914D01*
G01X-9431766Y-5102968D01*
G01X-9425200Y-5117891D01*
G01X-9415284Y-5130833D01*
G01X-9402584Y-5141056D01*
G01X-9387823Y-5147980D01*
G01X-9371842Y-5151208D01*
G01X-9355551Y-5150557D01*
G01X-9339878Y-5146065D01*
G01X-9325716Y-5137987D01*
G01X-9313872Y-5126783D01*
G01X-9305019Y-5113092D01*
G01X-9298287Y-5129155D01*
G01X-9288450Y-5143528D01*
G01X-9275913Y-5155619D01*
G01X-9261194Y-5164929D01*
G01X-9244897Y-5171076D01*
G01X-9227695Y-5173805D01*
G01X-9210297Y-5173005D01*
G01X-9193418Y-5168708D01*
G01X-9177755Y-5161092D01*
G01X-9163952Y-5150470D01*
G01X-9152578Y-5137280D01*
G01X-9144101Y-5122065D01*
G01X-9138871Y-5105451D01*
G01X-9137104Y-5088124D01*
G01X-9137104Y-4978124D01*
G01X-9138979Y-4960283D01*
G01X-9144523Y-4943221D01*
G01X-9152379Y-4929614D01*
G01X-5931915Y-4929614D01*
G01X-5931915Y-4950986D01*
G01X-5927988Y-4971994D01*
G01X-5920267Y-4991923D01*
G01X-5909016Y-5010093D01*
G01X-5894618Y-5025887D01*
G01X-5877563Y-5038767D01*
G01X-5858432Y-5048293D01*
G01X-5837876Y-5054142D01*
G01X-5816595Y-5056114D01*
G01X-5816595Y-5056114D01*
G01X-5795314Y-5054142D01*
G01X-5774758Y-5048293D01*
G01X-5755627Y-5038767D01*
G01X-5738572Y-5025887D01*
G01X-5724173Y-5010093D01*
G01X-5712923Y-4991923D01*
G01X-5705202Y-4971994D01*
G01X-5701275Y-4950986D01*
G01X-5701275Y-4929614D01*
G01X-5705202Y-4908606D01*
G01X-5712923Y-4888677D01*
G01X-5724173Y-4870507D01*
G01X-5738572Y-4854713D01*
G01X-5755627Y-4841833D01*
G01X-5774758Y-4832307D01*
G01X-5795314Y-4826458D01*
G01X-5816595Y-4824486D01*
G01X-5837876Y-4826458D01*
G01X-5858432Y-4832307D01*
G01X-5877563Y-4841833D01*
G01X-5894618Y-4854713D01*
G01X-5909016Y-4870507D01*
G01X-5920267Y-4888677D01*
G01X-5927988Y-4908606D01*
G01X-5931915Y-4929614D01*
G01X-9152379Y-4929614D01*
G01X-9153493Y-4927684D01*
G01X-9165497Y-4914352D01*
G01X-9180011Y-4903807D01*
G01X-9196400Y-4896511D01*
G01X-9213948Y-4892781D01*
G01X-9231888Y-4892781D01*
G01X-9249436Y-4896511D01*
G01X-9265825Y-4903807D01*
G01X-9280339Y-4914352D01*
G01X-9292343Y-4927684D01*
G01X-9301313Y-4943221D01*
G01X-9306856Y-4960283D01*
G01X-9308732Y-4978124D01*
G01X-9308732Y-5046495D01*
G01X-9319051Y-5033872D01*
G01X-9332067Y-5024054D01*
G01X-9347039Y-5017600D01*
G01X-9363114Y-5014877D01*
G01X-9379376Y-5016042D01*
G01X-9394900Y-5021026D01*
G01X-9408800Y-5029547D01*
G01X-9420285Y-5041119D01*
G01X-9428701Y-5055083D01*
G01X-9433568Y-5070643D01*
G01X-9434610Y-5086914D01*
G01X-9434610Y-5086914D01*
G01X-9876198Y-5086914D01*
G01X-9876197Y-5086908D01*
G01X-9877241Y-5070634D01*
G01X-9882112Y-5055070D01*
G01X-9890533Y-5041105D01*
G01X-9902024Y-5029534D01*
G01X-9915930Y-5021016D01*
G01X-9931459Y-5016036D01*
G01X-9947725Y-5014879D01*
G01X-9963803Y-5017610D01*
G01X-9978774Y-5024074D01*
G01X-9991788Y-5033902D01*
G01X-10002101Y-5046535D01*
G01X-10002101Y-4978124D01*
G01X-10002101Y-4978124D01*
G01X-10003976Y-4960283D01*
G01X-10009520Y-4943221D01*
G01X-10018490Y-4927684D01*
G01X-10030494Y-4914352D01*
G01X-10045008Y-4903807D01*
G01X-10061397Y-4896511D01*
G01X-10078945Y-4892781D01*
G01X-10096885Y-4892781D01*
G01X-10114433Y-4896511D01*
G01X-10130822Y-4903807D01*
G01X-10145336Y-4914352D01*
G01X-10157340Y-4927684D01*
G01X-10166310Y-4943221D01*
G01X-10171853Y-4960283D01*
G01X-10173729Y-4978124D01*
G01X-12007202Y-4978124D01*
G01X-12007202Y-4812134D01*
G01X-10708914Y-4812134D01*
G01X-10706987Y-4828004D01*
G01X-10701318Y-4842952D01*
G01X-10692237Y-4856108D01*
G01X-10680271Y-4866710D01*
G01X-10666115Y-4874139D01*
G01X-10650593Y-4877965D01*
G01X-10634607Y-4877965D01*
G01X-10619085Y-4874139D01*
G01X-10604929Y-4866710D01*
G01X-10592963Y-4856108D01*
G01X-10583882Y-4842952D01*
G01X-10581503Y-4836681D01*
G01X-9569330Y-4836681D01*
G01X-9567403Y-4852551D01*
G01X-9561734Y-4867498D01*
G01X-9552653Y-4880655D01*
G01X-9540687Y-4891256D01*
G01X-9526532Y-4898685D01*
G01X-9511010Y-4902511D01*
G01X-9495023Y-4902511D01*
G01X-9479501Y-4898685D01*
G01X-9465346Y-4891256D01*
G01X-9453380Y-4880655D01*
G01X-9444298Y-4867498D01*
G01X-9438629Y-4852551D01*
G01X-9436702Y-4836681D01*
G01X-9438629Y-4820811D01*
G01X-9444298Y-4805863D01*
G01X-9453380Y-4792706D01*
G01X-9465346Y-4782105D01*
G01X-9479501Y-4774676D01*
G01X-9495023Y-4770850D01*
G01X-9511010Y-4770850D01*
G01X-9526532Y-4774676D01*
G01X-9540687Y-4782105D01*
G01X-9552653Y-4792706D01*
G01X-9561734Y-4805863D01*
G01X-9567403Y-4820811D01*
G01X-9569330Y-4836681D01*
G01X-9569330Y-4836681D01*
G01X-10581503Y-4836681D01*
G01X-10578213Y-4828004D01*
G01X-10576286Y-4812134D01*
G01X-10578213Y-4796264D01*
G01X-10583882Y-4781316D01*
G01X-10592963Y-4768160D01*
G01X-10604929Y-4757559D01*
G01X-10619085Y-4750129D01*
G01X-10634607Y-4746304D01*
G01X-10650593Y-4746304D01*
G01X-10666115Y-4750129D01*
G01X-10680271Y-4757559D01*
G01X-10692237Y-4768160D01*
G01X-10701318Y-4781316D01*
G01X-10706987Y-4796264D01*
G01X-10708914Y-4812134D01*
G01X-10708914Y-4812134D01*
G01X-12007202Y-4812134D01*
G01X-12007202Y-4648188D01*
G01X-9815580Y-4648188D01*
G01X-9813653Y-4664058D01*
G01X-9807984Y-4679006D01*
G01X-9798903Y-4692162D01*
G01X-9786937Y-4702763D01*
G01X-9772782Y-4710193D01*
G01X-9757260Y-4714019D01*
G01X-9741273Y-4714019D01*
G01X-9725751Y-4710193D01*
G01X-9711596Y-4702763D01*
G01X-9699629Y-4692162D01*
G01X-9690548Y-4679006D01*
G01X-9689262Y-4675614D01*
G01X-5931915Y-4675614D01*
G01X-5931915Y-4696986D01*
G01X-5927988Y-4717994D01*
G01X-5920267Y-4737923D01*
G01X-5909016Y-4756093D01*
G01X-5894618Y-4771887D01*
G01X-5877563Y-4784767D01*
G01X-5858432Y-4794293D01*
G01X-5837876Y-4800142D01*
G01X-5816595Y-4802114D01*
G01X-5816595Y-4802114D01*
G01X-5795314Y-4800142D01*
G01X-5774758Y-4794293D01*
G01X-5755627Y-4784767D01*
G01X-5738572Y-4771887D01*
G01X-5724173Y-4756093D01*
G01X-5712923Y-4737923D01*
G01X-5705202Y-4717994D01*
G01X-5701275Y-4696986D01*
G01X-5701275Y-4675614D01*
G01X-5705202Y-4654606D01*
G01X-5708466Y-4646181D01*
G01X-5521730Y-4646181D01*
G01X-5519895Y-4667160D01*
G01X-5514444Y-4687501D01*
G01X-5505544Y-4706588D01*
G01X-5493465Y-4723838D01*
G01X-5478574Y-4738729D01*
G01X-5461323Y-4750809D01*
G01X-5442237Y-4759709D01*
G01X-5421895Y-4765159D01*
G01X-5400916Y-4766995D01*
G01X-5379937Y-4765159D01*
G01X-5359596Y-4759709D01*
G01X-5340509Y-4750809D01*
G01X-5323259Y-4738729D01*
G01X-5308368Y-4723838D01*
G01X-5296288Y-4706588D01*
G01X-5287388Y-4687501D01*
G01X-5281938Y-4667160D01*
G01X-5280102Y-4646181D01*
G01X-5281938Y-4625202D01*
G01X-5287388Y-4604860D01*
G01X-5296288Y-4585774D01*
G01X-5308368Y-4568523D01*
G01X-5323259Y-4553632D01*
G01X-5340509Y-4541553D01*
G01X-5359596Y-4532653D01*
G01X-5379937Y-4527202D01*
G01X-5400916Y-4525367D01*
G01X-5400916Y-4525367D01*
G01X-5421895Y-4527202D01*
G01X-5442237Y-4532653D01*
G01X-5461323Y-4541553D01*
G01X-5478574Y-4553632D01*
G01X-5493465Y-4568523D01*
G01X-5505544Y-4585774D01*
G01X-5514444Y-4604860D01*
G01X-5519895Y-4625202D01*
G01X-5521730Y-4646181D01*
G01X-5708466Y-4646181D01*
G01X-5712923Y-4634677D01*
G01X-5724173Y-4616507D01*
G01X-5738572Y-4600713D01*
G01X-5755627Y-4587833D01*
G01X-5774758Y-4578307D01*
G01X-5795314Y-4572458D01*
G01X-5816595Y-4570486D01*
G01X-5837876Y-4572458D01*
G01X-5858432Y-4578307D01*
G01X-5877563Y-4587833D01*
G01X-5894618Y-4600713D01*
G01X-5909016Y-4616507D01*
G01X-5920267Y-4634677D01*
G01X-5927988Y-4654606D01*
G01X-5931915Y-4675614D01*
G01X-9689262Y-4675614D01*
G01X-9684879Y-4664058D01*
G01X-9682952Y-4648188D01*
G01X-9684879Y-4632318D01*
G01X-9690548Y-4617370D01*
G01X-9699629Y-4604214D01*
G01X-9711596Y-4593613D01*
G01X-9725751Y-4586183D01*
G01X-9741273Y-4582358D01*
G01X-9757260Y-4582358D01*
G01X-9772782Y-4586183D01*
G01X-9786937Y-4593613D01*
G01X-9798903Y-4604214D01*
G01X-9807984Y-4617370D01*
G01X-9813653Y-4632318D01*
G01X-9815580Y-4648188D01*
G01X-9815580Y-4648188D01*
G01X-12007202Y-4648188D01*
G01X-12007202Y-4506472D01*
G01X-8681229Y-4506472D01*
G01X-8679328Y-4523342D01*
G01X-8673721Y-4539366D01*
G01X-8664689Y-4553741D01*
G01X-8652684Y-4565745D01*
G01X-8638309Y-4574778D01*
G01X-8622285Y-4580385D01*
G01X-8605415Y-4582285D01*
G01X-8588545Y-4580385D01*
G01X-8572520Y-4574778D01*
G01X-8558146Y-4565745D01*
G01X-8546141Y-4553741D01*
G01X-8537109Y-4539366D01*
G01X-8531502Y-4523342D01*
G01X-8529601Y-4506472D01*
G01X-8531502Y-4489601D01*
G01X-8537109Y-4473577D01*
G01X-8546141Y-4459202D01*
G01X-8558146Y-4447198D01*
G01X-8572520Y-4438166D01*
G01X-8588545Y-4432558D01*
G01X-8605415Y-4430658D01*
G01X-8622285Y-4432558D01*
G01X-8638309Y-4438166D01*
G01X-8652684Y-4447198D01*
G01X-8664689Y-4459202D01*
G01X-8673721Y-4473577D01*
G01X-8679328Y-4489601D01*
G01X-8681229Y-4506472D01*
G01X-8681229Y-4506472D01*
G01X-12007202Y-4506472D01*
G01X-12007202Y-4356100D01*
G01X-11220826Y-4356100D01*
G01X-11218899Y-4371970D01*
G01X-11213230Y-4386918D01*
G01X-11204148Y-4400074D01*
G01X-11192182Y-4410675D01*
G01X-11178027Y-4418105D01*
G01X-11162505Y-4421931D01*
G01X-11146518Y-4421931D01*
G01X-11145234Y-4421614D01*
G01X-5931915Y-4421614D01*
G01X-5931915Y-4442986D01*
G01X-5927988Y-4463994D01*
G01X-5920267Y-4483923D01*
G01X-5909016Y-4502093D01*
G01X-5894618Y-4517887D01*
G01X-5877563Y-4530767D01*
G01X-5858432Y-4540293D01*
G01X-5837876Y-4546142D01*
G01X-5816595Y-4548114D01*
G01X-5816595Y-4548114D01*
G01X-5795314Y-4546142D01*
G01X-5774758Y-4540293D01*
G01X-5755627Y-4530767D01*
G01X-5738572Y-4517887D01*
G01X-5724173Y-4502093D01*
G01X-5712923Y-4483923D01*
G01X-5705202Y-4463994D01*
G01X-5701275Y-4442986D01*
G01X-5701275Y-4421614D01*
G01X-5705202Y-4400606D01*
G01X-5708466Y-4392181D01*
G01X-5521730Y-4392181D01*
G01X-5519895Y-4413160D01*
G01X-5514444Y-4433501D01*
G01X-5505544Y-4452588D01*
G01X-5493465Y-4469838D01*
G01X-5478574Y-4484729D01*
G01X-5461323Y-4496809D01*
G01X-5442237Y-4505709D01*
G01X-5421895Y-4511159D01*
G01X-5400916Y-4512995D01*
G01X-5379937Y-4511159D01*
G01X-5359596Y-4505709D01*
G01X-5340509Y-4496809D01*
G01X-5323259Y-4484729D01*
G01X-5308368Y-4469838D01*
G01X-5296288Y-4452588D01*
G01X-5287388Y-4433501D01*
G01X-5281938Y-4413160D01*
G01X-5280102Y-4392181D01*
G01X-5281938Y-4371202D01*
G01X-5287388Y-4350860D01*
G01X-5296288Y-4331774D01*
G01X-5308368Y-4314523D01*
G01X-5323259Y-4299632D01*
G01X-5340509Y-4287553D01*
G01X-5359596Y-4278653D01*
G01X-5379937Y-4273202D01*
G01X-5400916Y-4271367D01*
G01X-5400916Y-4271367D01*
G01X-5421895Y-4273202D01*
G01X-5442237Y-4278653D01*
G01X-5461323Y-4287553D01*
G01X-5478574Y-4299632D01*
G01X-5493465Y-4314523D01*
G01X-5505544Y-4331774D01*
G01X-5514444Y-4350860D01*
G01X-5519895Y-4371202D01*
G01X-5521730Y-4392181D01*
G01X-5708466Y-4392181D01*
G01X-5712923Y-4380677D01*
G01X-5724173Y-4362507D01*
G01X-5738572Y-4346713D01*
G01X-5755627Y-4333833D01*
G01X-5774758Y-4324307D01*
G01X-5795314Y-4318458D01*
G01X-5816595Y-4316486D01*
G01X-5837876Y-4318458D01*
G01X-5858432Y-4324307D01*
G01X-5877563Y-4333833D01*
G01X-5894618Y-4346713D01*
G01X-5909016Y-4362507D01*
G01X-5920267Y-4380677D01*
G01X-5927988Y-4400606D01*
G01X-5931915Y-4421614D01*
G01X-11145234Y-4421614D01*
G01X-11130996Y-4418105D01*
G01X-11116841Y-4410675D01*
G01X-11104875Y-4400074D01*
G01X-11095793Y-4386918D01*
G01X-11090125Y-4371970D01*
G01X-11088198Y-4356100D01*
G01X-11089740Y-4343400D01*
G01X-10839826Y-4343400D01*
G01X-10837965Y-4358998D01*
G01X-10832488Y-4373720D01*
G01X-10823702Y-4386742D01*
G01X-10812099Y-4397331D01*
G01X-10798332Y-4404894D01*
G01X-10783171Y-4409007D01*
G01X-10767469Y-4409438D01*
G01X-10752105Y-4406164D01*
G01X-10737943Y-4399368D01*
G01X-10725777Y-4389432D01*
G01X-10716289Y-4376913D01*
G01X-10710012Y-4362513D01*
G01X-10703824Y-4376759D01*
G01X-10694494Y-4389174D01*
G01X-10682531Y-4399079D01*
G01X-10668592Y-4405930D01*
G01X-10653442Y-4409351D01*
G01X-10637912Y-4409154D01*
G01X-10622854Y-4405351D01*
G01X-10609094Y-4398149D01*
G01X-10597386Y-4387944D01*
G01X-10588372Y-4375296D01*
G01X-10582548Y-4360898D01*
G01X-10580232Y-4345541D01*
G01X-10575135Y-4359908D01*
G01X-10566892Y-4372731D01*
G01X-10555939Y-4383334D01*
G01X-10542854Y-4391155D01*
G01X-10528328Y-4395781D01*
G01X-10513130Y-4396968D01*
G01X-10498063Y-4394653D01*
G01X-10483922Y-4388959D01*
G01X-10471455Y-4380185D01*
G01X-10461321Y-4368797D01*
G01X-10454056Y-4355395D01*
G01X-10446805Y-4368776D01*
G01X-10436695Y-4380151D01*
G01X-10424258Y-4388921D01*
G01X-10410149Y-4394626D01*
G01X-10395111Y-4396963D01*
G01X-10379936Y-4395811D01*
G01X-10365423Y-4391229D01*
G01X-10352337Y-4383460D01*
G01X-10341367Y-4372911D01*
G01X-10333091Y-4360140D01*
G01X-10327944Y-4345818D01*
G01X-10326198Y-4330700D01*
G01X-10315214Y-4330700D01*
G01X-10313287Y-4346570D01*
G01X-10307618Y-4361518D01*
G01X-10298537Y-4374674D01*
G01X-10286571Y-4385275D01*
G01X-10272415Y-4392705D01*
G01X-10256893Y-4396531D01*
G01X-10240907Y-4396531D01*
G01X-10225385Y-4392705D01*
G01X-10211229Y-4385275D01*
G01X-10199263Y-4374674D01*
G01X-10190182Y-4361518D01*
G01X-10184513Y-4346570D01*
G01X-10182586Y-4330700D01*
G01X-10184513Y-4314830D01*
G01X-10190182Y-4299882D01*
G01X-10199263Y-4286726D01*
G01X-10211229Y-4276125D01*
G01X-10225385Y-4268695D01*
G01X-10240907Y-4264869D01*
G01X-10256893Y-4264869D01*
G01X-10272415Y-4268695D01*
G01X-10286571Y-4276125D01*
G01X-10298537Y-4286726D01*
G01X-10307618Y-4299882D01*
G01X-10313287Y-4314830D01*
G01X-10315214Y-4330700D01*
G01X-10315214Y-4330700D01*
G01X-10326198Y-4330700D01*
G01X-10327944Y-4315582D01*
G01X-10333091Y-4301260D01*
G01X-10341367Y-4288489D01*
G01X-10352337Y-4277940D01*
G01X-10365423Y-4270171D01*
G01X-10379936Y-4265589D01*
G01X-10395111Y-4264437D01*
G01X-10410149Y-4266774D01*
G01X-10424258Y-4272479D01*
G01X-10436695Y-4281249D01*
G01X-10446805Y-4292624D01*
G01X-10454056Y-4306005D01*
G01X-10461204Y-4292770D01*
G01X-10471151Y-4281488D01*
G01X-10483385Y-4272737D01*
G01X-10497276Y-4266968D01*
G01X-10512110Y-4264478D01*
G01X-10527123Y-4265395D01*
G01X-10541544Y-4269672D01*
G01X-10554630Y-4277088D01*
G01X-10565707Y-4287263D01*
G01X-10574207Y-4299672D01*
G01X-10579692Y-4313678D01*
G01X-10581880Y-4328559D01*
G01X-10581880Y-4328559D01*
G01X-10587215Y-4313710D01*
G01X-10595908Y-4300542D01*
G01X-10607465Y-4289800D01*
G01X-10621233Y-4282093D01*
G01X-10636433Y-4277856D01*
G01X-10652202Y-4277331D01*
G01X-10667650Y-4280545D01*
G01X-10681901Y-4287318D01*
G01X-10694148Y-4297266D01*
G01X-10703699Y-4309826D01*
G01X-10710012Y-4324287D01*
G01X-10716289Y-4309887D01*
G01X-10725777Y-4297368D01*
G01X-10737943Y-4287432D01*
G01X-10752105Y-4280636D01*
G01X-10767469Y-4277362D01*
G01X-10783171Y-4277793D01*
G01X-10798332Y-4281906D01*
G01X-10812099Y-4289469D01*
G01X-10823702Y-4300058D01*
G01X-10832488Y-4313080D01*
G01X-10837965Y-4327802D01*
G01X-10839826Y-4343400D01*
G01X-11089740Y-4343400D01*
G01X-11090125Y-4340230D01*
G01X-11095793Y-4325282D01*
G01X-11104875Y-4312126D01*
G01X-11116841Y-4301525D01*
G01X-11130996Y-4294095D01*
G01X-11146518Y-4290269D01*
G01X-11162505Y-4290269D01*
G01X-11178027Y-4294095D01*
G01X-11192182Y-4301525D01*
G01X-11204148Y-4312126D01*
G01X-11213230Y-4325282D01*
G01X-11218899Y-4340230D01*
G01X-11220826Y-4356100D01*
G01X-11220826Y-4356100D01*
G01X-12007202Y-4356100D01*
G01X-12007202Y-4317136D01*
G01X-11417812Y-4317136D01*
G01X-11412605Y-4315741D01*
G01X-11408793Y-4311929D01*
G01X-11407398Y-4306722D01*
G01X-11407398Y-4152900D01*
G01X-9299214Y-4152900D01*
G01X-9297287Y-4168770D01*
G01X-9291618Y-4183718D01*
G01X-9282537Y-4196874D01*
G01X-9270571Y-4207475D01*
G01X-9256415Y-4214905D01*
G01X-9240893Y-4218731D01*
G01X-9224907Y-4218731D01*
G01X-9209385Y-4214905D01*
G01X-9195229Y-4207475D01*
G01X-9183263Y-4196874D01*
G01X-9174182Y-4183718D01*
G01X-9168513Y-4168770D01*
G01X-9168373Y-4167614D01*
G01X-5931915Y-4167614D01*
G01X-5931915Y-4188986D01*
G01X-5927988Y-4209994D01*
G01X-5920267Y-4229923D01*
G01X-5909016Y-4248093D01*
G01X-5894618Y-4263887D01*
G01X-5877563Y-4276767D01*
G01X-5858432Y-4286293D01*
G01X-5837876Y-4292142D01*
G01X-5816595Y-4294114D01*
G01X-5816595Y-4294114D01*
G01X-5795314Y-4292142D01*
G01X-5774758Y-4286293D01*
G01X-5755627Y-4276767D01*
G01X-5738572Y-4263887D01*
G01X-5724173Y-4248093D01*
G01X-5712923Y-4229923D01*
G01X-5705202Y-4209994D01*
G01X-5701275Y-4188986D01*
G01X-5701275Y-4167614D01*
G01X-5705202Y-4146606D01*
G01X-5708466Y-4138181D01*
G01X-5521730Y-4138181D01*
G01X-5519895Y-4159160D01*
G01X-5514444Y-4179501D01*
G01X-5505544Y-4198588D01*
G01X-5493465Y-4215838D01*
G01X-5478574Y-4230729D01*
G01X-5461323Y-4242809D01*
G01X-5442237Y-4251709D01*
G01X-5421895Y-4257159D01*
G01X-5400916Y-4258995D01*
G01X-5379937Y-4257159D01*
G01X-5359596Y-4251709D01*
G01X-5340509Y-4242809D01*
G01X-5323259Y-4230729D01*
G01X-5308368Y-4215838D01*
G01X-5296288Y-4198588D01*
G01X-5287388Y-4179501D01*
G01X-5281938Y-4159160D01*
G01X-5280102Y-4138181D01*
G01X-5281938Y-4117202D01*
G01X-5287388Y-4096860D01*
G01X-5296288Y-4077774D01*
G01X-5308368Y-4060523D01*
G01X-5323259Y-4045632D01*
G01X-5340509Y-4033553D01*
G01X-5359596Y-4024653D01*
G01X-5379937Y-4019202D01*
G01X-5400916Y-4017367D01*
G01X-5400916Y-4017367D01*
G01X-5421895Y-4019202D01*
G01X-5442237Y-4024653D01*
G01X-5461323Y-4033553D01*
G01X-5478574Y-4045632D01*
G01X-5493465Y-4060523D01*
G01X-5505544Y-4077774D01*
G01X-5514444Y-4096860D01*
G01X-5519895Y-4117202D01*
G01X-5521730Y-4138181D01*
G01X-5708466Y-4138181D01*
G01X-5712923Y-4126677D01*
G01X-5724173Y-4108507D01*
G01X-5738572Y-4092713D01*
G01X-5755627Y-4079833D01*
G01X-5774758Y-4070307D01*
G01X-5795314Y-4064458D01*
G01X-5816595Y-4062486D01*
G01X-5837876Y-4064458D01*
G01X-5858432Y-4070307D01*
G01X-5877563Y-4079833D01*
G01X-5894618Y-4092713D01*
G01X-5909016Y-4108507D01*
G01X-5920267Y-4126677D01*
G01X-5927988Y-4146606D01*
G01X-5931915Y-4167614D01*
G01X-9168373Y-4167614D01*
G01X-9166586Y-4152900D01*
G01X-9168513Y-4137030D01*
G01X-9174182Y-4122082D01*
G01X-9183263Y-4108926D01*
G01X-9195229Y-4098325D01*
G01X-9209385Y-4090895D01*
G01X-9224907Y-4087069D01*
G01X-9240893Y-4087069D01*
G01X-9256415Y-4090895D01*
G01X-9270571Y-4098325D01*
G01X-9282537Y-4108926D01*
G01X-9291618Y-4122082D01*
G01X-9297287Y-4137030D01*
G01X-9299214Y-4152900D01*
G01X-9299214Y-4152900D01*
G01X-11407398Y-4152900D01*
G01X-11407398Y-3913614D01*
G01X-5931915Y-3913614D01*
G01X-5931915Y-3934986D01*
G01X-5927988Y-3955994D01*
G01X-5920267Y-3975923D01*
G01X-5909016Y-3994093D01*
G01X-5894618Y-4009887D01*
G01X-5877563Y-4022767D01*
G01X-5858432Y-4032293D01*
G01X-5837876Y-4038142D01*
G01X-5816595Y-4040114D01*
G01X-5816595Y-4040114D01*
G01X-5795314Y-4038142D01*
G01X-5774758Y-4032293D01*
G01X-5755627Y-4022767D01*
G01X-5738572Y-4009887D01*
G01X-5724173Y-3994093D01*
G01X-5712923Y-3975923D01*
G01X-5705202Y-3955994D01*
G01X-5701275Y-3934986D01*
G01X-5701275Y-3913614D01*
G01X-5705202Y-3892606D01*
G01X-5708466Y-3884181D01*
G01X-5521730Y-3884181D01*
G01X-5519895Y-3905160D01*
G01X-5514444Y-3925501D01*
G01X-5505544Y-3944588D01*
G01X-5493465Y-3961838D01*
G01X-5478574Y-3976729D01*
G01X-5461323Y-3988809D01*
G01X-5442237Y-3997709D01*
G01X-5421895Y-4003159D01*
G01X-5400916Y-4004995D01*
G01X-5379937Y-4003159D01*
G01X-5359596Y-3997709D01*
G01X-5340509Y-3988809D01*
G01X-5323259Y-3976729D01*
G01X-5308368Y-3961838D01*
G01X-5296288Y-3944588D01*
G01X-5287388Y-3925501D01*
G01X-5281938Y-3905160D01*
G01X-5280102Y-3884181D01*
G01X-5281938Y-3863202D01*
G01X-5287388Y-3842860D01*
G01X-5296288Y-3823774D01*
G01X-5308368Y-3806523D01*
G01X-5323259Y-3791632D01*
G01X-5340509Y-3779553D01*
G01X-5359596Y-3770653D01*
G01X-5379937Y-3765202D01*
G01X-5400916Y-3763367D01*
G01X-5400916Y-3763367D01*
G01X-5421895Y-3765202D01*
G01X-5442237Y-3770653D01*
G01X-5461323Y-3779553D01*
G01X-5478574Y-3791632D01*
G01X-5493465Y-3806523D01*
G01X-5505544Y-3823774D01*
G01X-5514444Y-3842860D01*
G01X-5519895Y-3863202D01*
G01X-5521730Y-3884181D01*
G01X-5708466Y-3884181D01*
G01X-5712923Y-3872677D01*
G01X-5724173Y-3854507D01*
G01X-5738572Y-3838713D01*
G01X-5755627Y-3825833D01*
G01X-5774758Y-3816307D01*
G01X-5795314Y-3810458D01*
G01X-5816595Y-3808486D01*
G01X-5837876Y-3810458D01*
G01X-5858432Y-3816307D01*
G01X-5877563Y-3825833D01*
G01X-5894618Y-3838713D01*
G01X-5909016Y-3854507D01*
G01X-5920267Y-3872677D01*
G01X-5927988Y-3892606D01*
G01X-5931915Y-3913614D01*
G01X-11407398Y-3913614D01*
G01X-11407398Y-3721100D01*
G01X-8778621Y-3721100D01*
G01X-8776694Y-3736970D01*
G01X-8771025Y-3751918D01*
G01X-8761944Y-3765074D01*
G01X-8749978Y-3775675D01*
G01X-8735822Y-3783105D01*
G01X-8720300Y-3786931D01*
G01X-8704314Y-3786931D01*
G01X-8688792Y-3783105D01*
G01X-8674637Y-3775675D01*
G01X-8662670Y-3765074D01*
G01X-8653589Y-3751918D01*
G01X-8647920Y-3736970D01*
G01X-8645993Y-3721100D01*
G01X-8647920Y-3705230D01*
G01X-8653589Y-3690282D01*
G01X-8662670Y-3677126D01*
G01X-8674637Y-3666525D01*
G01X-8687803Y-3659614D01*
G01X-5931915Y-3659614D01*
G01X-5931915Y-3680986D01*
G01X-5927988Y-3701994D01*
G01X-5920267Y-3721923D01*
G01X-5909016Y-3740093D01*
G01X-5894618Y-3755887D01*
G01X-5877563Y-3768767D01*
G01X-5858432Y-3778293D01*
G01X-5837876Y-3784142D01*
G01X-5816595Y-3786114D01*
G01X-5816595Y-3786114D01*
G01X-5795314Y-3784142D01*
G01X-5774758Y-3778293D01*
G01X-5755627Y-3768767D01*
G01X-5738572Y-3755887D01*
G01X-5724173Y-3740093D01*
G01X-5712923Y-3721923D01*
G01X-5705202Y-3701994D01*
G01X-5701275Y-3680986D01*
G01X-5701275Y-3659614D01*
G01X-5705202Y-3638606D01*
G01X-5708466Y-3630181D01*
G01X-5521730Y-3630181D01*
G01X-5519895Y-3651160D01*
G01X-5514444Y-3671501D01*
G01X-5505544Y-3690588D01*
G01X-5493465Y-3707838D01*
G01X-5478574Y-3722729D01*
G01X-5461323Y-3734809D01*
G01X-5442237Y-3743709D01*
G01X-5421895Y-3749159D01*
G01X-5400916Y-3750995D01*
G01X-5379937Y-3749159D01*
G01X-5359596Y-3743709D01*
G01X-5340509Y-3734809D01*
G01X-5323259Y-3722729D01*
G01X-5308368Y-3707838D01*
G01X-5296288Y-3690588D01*
G01X-5287388Y-3671501D01*
G01X-5281938Y-3651160D01*
G01X-5280102Y-3630181D01*
G01X-5281938Y-3609202D01*
G01X-5287388Y-3588860D01*
G01X-5296288Y-3569774D01*
G01X-5308368Y-3552523D01*
G01X-5323259Y-3537632D01*
G01X-5340509Y-3525553D01*
G01X-5359596Y-3516653D01*
G01X-5379937Y-3511202D01*
G01X-5400916Y-3509367D01*
G01X-5400916Y-3509367D01*
G01X-5421895Y-3511202D01*
G01X-5442237Y-3516653D01*
G01X-5461323Y-3525553D01*
G01X-5478574Y-3537632D01*
G01X-5493465Y-3552523D01*
G01X-5505544Y-3569774D01*
G01X-5514444Y-3588860D01*
G01X-5519895Y-3609202D01*
G01X-5521730Y-3630181D01*
G01X-5708466Y-3630181D01*
G01X-5712923Y-3618677D01*
G01X-5724173Y-3600507D01*
G01X-5738572Y-3584713D01*
G01X-5755627Y-3571833D01*
G01X-5774758Y-3562307D01*
G01X-5795314Y-3556458D01*
G01X-5816595Y-3554486D01*
G01X-5837876Y-3556458D01*
G01X-5858432Y-3562307D01*
G01X-5877563Y-3571833D01*
G01X-5894618Y-3584713D01*
G01X-5909016Y-3600507D01*
G01X-5920267Y-3618677D01*
G01X-5927988Y-3638606D01*
G01X-5931915Y-3659614D01*
G01X-8687803Y-3659614D01*
G01X-8688792Y-3659095D01*
G01X-8704314Y-3655269D01*
G01X-8720300Y-3655269D01*
G01X-8735822Y-3659095D01*
G01X-8749978Y-3666525D01*
G01X-8761944Y-3677126D01*
G01X-8771025Y-3690282D01*
G01X-8776694Y-3705230D01*
G01X-8778621Y-3721100D01*
G01X-8778621Y-3721100D01*
G01X-11407398Y-3721100D01*
G01X-11407398Y-3405614D01*
G01X-5931915Y-3405614D01*
G01X-5931915Y-3426986D01*
G01X-5927988Y-3447994D01*
G01X-5920267Y-3467923D01*
G01X-5909016Y-3486093D01*
G01X-5894618Y-3501887D01*
G01X-5877563Y-3514767D01*
G01X-5858432Y-3524293D01*
G01X-5837876Y-3530142D01*
G01X-5816595Y-3532114D01*
G01X-5816595Y-3532114D01*
G01X-5795314Y-3530142D01*
G01X-5774758Y-3524293D01*
G01X-5755627Y-3514767D01*
G01X-5738572Y-3501887D01*
G01X-5724173Y-3486093D01*
G01X-5712923Y-3467923D01*
G01X-5705202Y-3447994D01*
G01X-5701275Y-3426986D01*
G01X-5701275Y-3405614D01*
G01X-5705202Y-3384606D01*
G01X-5708466Y-3376181D01*
G01X-5521730Y-3376181D01*
G01X-5519895Y-3397160D01*
G01X-5514444Y-3417501D01*
G01X-5505544Y-3436588D01*
G01X-5493465Y-3453838D01*
G01X-5478574Y-3468729D01*
G01X-5461323Y-3480809D01*
G01X-5442237Y-3489709D01*
G01X-5421895Y-3495159D01*
G01X-5400916Y-3496995D01*
G01X-5379937Y-3495159D01*
G01X-5359596Y-3489709D01*
G01X-5340509Y-3480809D01*
G01X-5323259Y-3468729D01*
G01X-5308368Y-3453838D01*
G01X-5296288Y-3436588D01*
G01X-5287388Y-3417501D01*
G01X-5281938Y-3397160D01*
G01X-5280102Y-3376181D01*
G01X-5281938Y-3355202D01*
G01X-5287388Y-3334860D01*
G01X-5296288Y-3315774D01*
G01X-5308368Y-3298523D01*
G01X-5323259Y-3283632D01*
G01X-5340509Y-3271553D01*
G01X-5359596Y-3262653D01*
G01X-5379937Y-3257202D01*
G01X-5400916Y-3255367D01*
G01X-5400916Y-3255367D01*
G01X-5421895Y-3257202D01*
G01X-5442237Y-3262653D01*
G01X-5461323Y-3271553D01*
G01X-5478574Y-3283632D01*
G01X-5493465Y-3298523D01*
G01X-5505544Y-3315774D01*
G01X-5514444Y-3334860D01*
G01X-5519895Y-3355202D01*
G01X-5521730Y-3376181D01*
G01X-5708466Y-3376181D01*
G01X-5712923Y-3364677D01*
G01X-5724173Y-3346507D01*
G01X-5738572Y-3330713D01*
G01X-5755627Y-3317833D01*
G01X-5774758Y-3308307D01*
G01X-5795314Y-3302458D01*
G01X-5816595Y-3300486D01*
G01X-5837876Y-3302458D01*
G01X-5858432Y-3308307D01*
G01X-5877563Y-3317833D01*
G01X-5894618Y-3330713D01*
G01X-5909016Y-3346507D01*
G01X-5920267Y-3364677D01*
G01X-5927988Y-3384606D01*
G01X-5931915Y-3405614D01*
G01X-11407398Y-3405614D01*
G01X-11407398Y-3151614D01*
G01X-5931915Y-3151614D01*
G01X-5931915Y-3172986D01*
G01X-5927988Y-3193994D01*
G01X-5920267Y-3213923D01*
G01X-5909016Y-3232093D01*
G01X-5894618Y-3247887D01*
G01X-5877563Y-3260767D01*
G01X-5858432Y-3270293D01*
G01X-5837876Y-3276142D01*
G01X-5816595Y-3278114D01*
G01X-5816595Y-3278114D01*
G01X-5795314Y-3276142D01*
G01X-5774758Y-3270293D01*
G01X-5755627Y-3260767D01*
G01X-5738572Y-3247887D01*
G01X-5724173Y-3232093D01*
G01X-5712923Y-3213923D01*
G01X-5705202Y-3193994D01*
G01X-5701275Y-3172986D01*
G01X-5701275Y-3151614D01*
G01X-5705202Y-3130606D01*
G01X-5708466Y-3122181D01*
G01X-5521730Y-3122181D01*
G01X-5519895Y-3143160D01*
G01X-5514444Y-3163501D01*
G01X-5505544Y-3182588D01*
G01X-5493465Y-3199838D01*
G01X-5478574Y-3214729D01*
G01X-5461323Y-3226809D01*
G01X-5442237Y-3235709D01*
G01X-5421895Y-3241159D01*
G01X-5400916Y-3242995D01*
G01X-5379937Y-3241159D01*
G01X-5359596Y-3235709D01*
G01X-5340509Y-3226809D01*
G01X-5323259Y-3214729D01*
G01X-5308368Y-3199838D01*
G01X-5296288Y-3182588D01*
G01X-5287388Y-3163501D01*
G01X-5281938Y-3143160D01*
G01X-5280102Y-3122181D01*
G01X-5281938Y-3101202D01*
G01X-5287388Y-3080860D01*
G01X-5296288Y-3061774D01*
G01X-5308368Y-3044523D01*
G01X-5323259Y-3029632D01*
G01X-5340509Y-3017553D01*
G01X-5359596Y-3008653D01*
G01X-5379937Y-3003202D01*
G01X-5400916Y-3001367D01*
G01X-5400916Y-3001367D01*
G01X-5421895Y-3003202D01*
G01X-5442237Y-3008653D01*
G01X-5461323Y-3017553D01*
G01X-5478574Y-3029632D01*
G01X-5493465Y-3044523D01*
G01X-5505544Y-3061774D01*
G01X-5514444Y-3080860D01*
G01X-5519895Y-3101202D01*
G01X-5521730Y-3122181D01*
G01X-5708466Y-3122181D01*
G01X-5712923Y-3110677D01*
G01X-5724173Y-3092507D01*
G01X-5738572Y-3076713D01*
G01X-5755627Y-3063833D01*
G01X-5774758Y-3054307D01*
G01X-5795314Y-3048458D01*
G01X-5816595Y-3046486D01*
G01X-5837876Y-3048458D01*
G01X-5858432Y-3054307D01*
G01X-5877563Y-3063833D01*
G01X-5894618Y-3076713D01*
G01X-5909016Y-3092507D01*
G01X-5920267Y-3110677D01*
G01X-5927988Y-3130606D01*
G01X-5931915Y-3151614D01*
G01X-11407398Y-3151614D01*
G01X-11407398Y-2832100D01*
G01X-6416314Y-2832100D01*
G01X-6414387Y-2847970D01*
G01X-6408718Y-2862918D01*
G01X-6399637Y-2876074D01*
G01X-6387671Y-2886675D01*
G01X-6373515Y-2894105D01*
G01X-6357993Y-2897931D01*
G01X-6342007Y-2897931D01*
G01X-6340723Y-2897614D01*
G01X-5931915Y-2897614D01*
G01X-5931915Y-2918986D01*
G01X-5927988Y-2939994D01*
G01X-5920267Y-2959923D01*
G01X-5909016Y-2978093D01*
G01X-5894618Y-2993887D01*
G01X-5877563Y-3006767D01*
G01X-5858432Y-3016293D01*
G01X-5837876Y-3022142D01*
G01X-5816595Y-3024114D01*
G01X-5816595Y-3024114D01*
G01X-5795314Y-3022142D01*
G01X-5774758Y-3016293D01*
G01X-5755627Y-3006767D01*
G01X-5738572Y-2993887D01*
G01X-5730014Y-2984500D01*
G01X-4790714Y-2984500D01*
G01X-4788787Y-3000370D01*
G01X-4783118Y-3015318D01*
G01X-4774037Y-3028474D01*
G01X-4762071Y-3039075D01*
G01X-4747915Y-3046505D01*
G01X-4732393Y-3050331D01*
G01X-4716407Y-3050331D01*
G01X-4700885Y-3046505D01*
G01X-4686729Y-3039075D01*
G01X-4674763Y-3028474D01*
G01X-4665682Y-3015318D01*
G01X-4660013Y-3000370D01*
G01X-4658086Y-2984500D01*
G01X-4660013Y-2968630D01*
G01X-4665682Y-2953682D01*
G01X-4674763Y-2940526D01*
G01X-4686729Y-2929925D01*
G01X-4700885Y-2922495D01*
G01X-4716407Y-2918669D01*
G01X-4732393Y-2918669D01*
G01X-4747915Y-2922495D01*
G01X-4762071Y-2929925D01*
G01X-4774037Y-2940526D01*
G01X-4783118Y-2953682D01*
G01X-4788787Y-2968630D01*
G01X-4790714Y-2984500D01*
G01X-4790714Y-2984500D01*
G01X-5730014Y-2984500D01*
G01X-5724173Y-2978093D01*
G01X-5712923Y-2959923D01*
G01X-5707886Y-2946921D01*
G01X-5521730Y-2946921D01*
G01X-5519977Y-2957988D01*
G01X-5514890Y-2967972D01*
G01X-5506967Y-2975895D01*
G01X-5496983Y-2980982D01*
G01X-5485916Y-2982735D01*
G01X-5315916Y-2982735D01*
G01X-5304849Y-2980982D01*
G01X-5294866Y-2975895D01*
G01X-5286942Y-2967972D01*
G01X-5281855Y-2957988D01*
G01X-5280102Y-2946921D01*
G01X-5280102Y-2789441D01*
G01X-5281855Y-2778374D01*
G01X-5286942Y-2768390D01*
G01X-5294866Y-2760467D01*
G01X-5304849Y-2755380D01*
G01X-5315916Y-2753627D01*
G01X-5485916Y-2753627D01*
G01X-5496983Y-2755380D01*
G01X-5506967Y-2760467D01*
G01X-5514890Y-2768390D01*
G01X-5519977Y-2778374D01*
G01X-5521730Y-2789441D01*
G01X-5521730Y-2946921D01*
G01X-5521730Y-2946921D01*
G01X-5707886Y-2946921D01*
G01X-5705202Y-2939994D01*
G01X-5701275Y-2918986D01*
G01X-5701275Y-2897614D01*
G01X-5705202Y-2876606D01*
G01X-5712923Y-2856677D01*
G01X-5724173Y-2838507D01*
G01X-5738572Y-2822713D01*
G01X-5755627Y-2809833D01*
G01X-5774758Y-2800307D01*
G01X-5795314Y-2794458D01*
G01X-5816595Y-2792486D01*
G01X-5837876Y-2794458D01*
G01X-5858432Y-2800307D01*
G01X-5877563Y-2809833D01*
G01X-5894618Y-2822713D01*
G01X-5909016Y-2838507D01*
G01X-5920267Y-2856677D01*
G01X-5927988Y-2876606D01*
G01X-5931915Y-2897614D01*
G01X-6340723Y-2897614D01*
G01X-6326485Y-2894105D01*
G01X-6312329Y-2886675D01*
G01X-6300363Y-2876074D01*
G01X-6291282Y-2862918D01*
G01X-6285613Y-2847970D01*
G01X-6283686Y-2832100D01*
G01X-6285613Y-2816230D01*
G01X-6291282Y-2801282D01*
G01X-6300363Y-2788126D01*
G01X-6312329Y-2777525D01*
G01X-6326485Y-2770095D01*
G01X-6342007Y-2766269D01*
G01X-6357993Y-2766269D01*
G01X-6373515Y-2770095D01*
G01X-6387671Y-2777525D01*
G01X-6399637Y-2788126D01*
G01X-6408718Y-2801282D01*
G01X-6414387Y-2816230D01*
G01X-6416314Y-2832100D01*
G01X-6416314Y-2832100D01*
G01X-11407398Y-2832100D01*
G01X-11407398Y-2643614D01*
G01X-5931915Y-2643614D01*
G01X-5931915Y-2664986D01*
G01X-5927988Y-2685994D01*
G01X-5920267Y-2705923D01*
G01X-5909016Y-2724093D01*
G01X-5894618Y-2739887D01*
G01X-5877563Y-2752767D01*
G01X-5858432Y-2762293D01*
G01X-5837876Y-2768142D01*
G01X-5816595Y-2770114D01*
G01X-5816595Y-2770114D01*
G01X-5795314Y-2768142D01*
G01X-5774758Y-2762293D01*
G01X-5755627Y-2752767D01*
G01X-5738572Y-2739887D01*
G01X-5724173Y-2724093D01*
G01X-5712923Y-2705923D01*
G01X-5705202Y-2685994D01*
G01X-5704026Y-2679700D01*
G01X-5184414Y-2679700D01*
G01X-5182487Y-2695570D01*
G01X-5176818Y-2710518D01*
G01X-5167737Y-2723674D01*
G01X-5155771Y-2734275D01*
G01X-5141615Y-2741705D01*
G01X-5126093Y-2745531D01*
G01X-5110107Y-2745531D01*
G01X-5094585Y-2741705D01*
G01X-5080429Y-2734275D01*
G01X-5068463Y-2723674D01*
G01X-5059382Y-2710518D01*
G01X-5053713Y-2695570D01*
G01X-5051786Y-2679700D01*
G01X-5053713Y-2663830D01*
G01X-5059382Y-2648882D01*
G01X-5068463Y-2635726D01*
G01X-5080429Y-2625125D01*
G01X-5094585Y-2617695D01*
G01X-5110107Y-2613869D01*
G01X-5126093Y-2613869D01*
G01X-5141615Y-2617695D01*
G01X-5155771Y-2625125D01*
G01X-5167737Y-2635726D01*
G01X-5176818Y-2648882D01*
G01X-5182487Y-2663830D01*
G01X-5184414Y-2679700D01*
G01X-5184414Y-2679700D01*
G01X-5704026Y-2679700D01*
G01X-5701275Y-2664986D01*
G01X-5701275Y-2643614D01*
G01X-5705202Y-2622606D01*
G01X-5712923Y-2602677D01*
G01X-5724173Y-2584507D01*
G01X-5738572Y-2568713D01*
G01X-5755627Y-2555833D01*
G01X-5774758Y-2546307D01*
G01X-5795314Y-2540458D01*
G01X-5816595Y-2538486D01*
G01X-5837876Y-2540458D01*
G01X-5858432Y-2546307D01*
G01X-5877563Y-2555833D01*
G01X-5894618Y-2568713D01*
G01X-5909016Y-2584507D01*
G01X-5920267Y-2602677D01*
G01X-5927988Y-2622606D01*
G01X-5931915Y-2643614D01*
G01X-11407398Y-2643614D01*
G01X-11407398Y-2527300D01*
G01X-5527314Y-2527300D01*
G01X-5525387Y-2543170D01*
G01X-5519718Y-2558118D01*
G01X-5510637Y-2571274D01*
G01X-5498671Y-2581875D01*
G01X-5484515Y-2589305D01*
G01X-5468993Y-2593131D01*
G01X-5453007Y-2593131D01*
G01X-5437485Y-2589305D01*
G01X-5423329Y-2581875D01*
G01X-5411363Y-2571274D01*
G01X-5402282Y-2558118D01*
G01X-5396613Y-2543170D01*
G01X-5394686Y-2527300D01*
G01X-5396613Y-2511430D01*
G01X-5402282Y-2496482D01*
G01X-5411363Y-2483326D01*
G01X-5423329Y-2472725D01*
G01X-5437485Y-2465295D01*
G01X-5453007Y-2461469D01*
G01X-5468993Y-2461469D01*
G01X-5484515Y-2465295D01*
G01X-5498671Y-2472725D01*
G01X-5510637Y-2483326D01*
G01X-5519718Y-2496482D01*
G01X-5525387Y-2511430D01*
G01X-5527314Y-2527300D01*
G01X-5527314Y-2527300D01*
G01X-11407398Y-2527300D01*
G01X-11407398Y-2389614D01*
G01X-5931915Y-2389614D01*
G01X-5931915Y-2410986D01*
G01X-5927988Y-2431994D01*
G01X-5920267Y-2451923D01*
G01X-5909016Y-2470093D01*
G01X-5894618Y-2485887D01*
G01X-5877563Y-2498767D01*
G01X-5858432Y-2508293D01*
G01X-5837876Y-2514142D01*
G01X-5816595Y-2516114D01*
G01X-5816595Y-2516114D01*
G01X-5795314Y-2514142D01*
G01X-5774758Y-2508293D01*
G01X-5755627Y-2498767D01*
G01X-5738572Y-2485887D01*
G01X-5724173Y-2470093D01*
G01X-5712923Y-2451923D01*
G01X-5705202Y-2431994D01*
G01X-5701275Y-2410986D01*
G01X-5701275Y-2389614D01*
G01X-5705202Y-2368606D01*
G01X-5712923Y-2348677D01*
G01X-5724173Y-2330507D01*
G01X-5738572Y-2314713D01*
G01X-5755627Y-2301833D01*
G01X-5774758Y-2292307D01*
G01X-5795314Y-2286458D01*
G01X-5816595Y-2284486D01*
G01X-5837876Y-2286458D01*
G01X-5858432Y-2292307D01*
G01X-5877563Y-2301833D01*
G01X-5894618Y-2314713D01*
G01X-5909016Y-2330507D01*
G01X-5920267Y-2348677D01*
G01X-5927988Y-2368606D01*
G01X-5931915Y-2389614D01*
G01X-11407398Y-2389614D01*
G01X-11407398Y-2236622D01*
G01X-11408793Y-2231415D01*
G01X-11412605Y-2227604D01*
G01X-11417812Y-2226208D01*
G37*
G54D10*
G01X-11417812Y-2226208D02*
G01X-12007202Y-2226208D01*
G01X-12007202Y1576819D01*
G02X-11712816Y1871205I294386J0D01*
G01X-3241916Y1871205D01*
G02X-2947530Y1576819I0J-294386D01*
G01X-2947530Y-5395481D01*
G02X-3241916Y-5689867I-294386J0D01*
G01X-11712816Y-5689867D01*
G02X-12007202Y-5395481I0J294386D01*
G01X-12007202Y-4317136D01*
G01X-11417812Y-4317136D01*
G03X-11407398Y-4306722I0J10414D01*
G01X-11407398Y-2236622D01*
G03X-11417812Y-2226208I-10414J0D01*
G01X-11835130Y1538719D02*
G03X-11463502Y1538719I185814J0D01*
G03X-11835130Y1538719I-185814J0D01*
G01X-11835130Y-5370081D02*
G03X-11463502Y-5370081I185814J0D01*
G03X-11835130Y-5370081I-185814J0D01*
G01X-11605260Y-673354D02*
G03X-11569446Y-637540I0J35814D01*
G01X-11569446Y-480060D01*
G03X-11605260Y-444246I-35814J0D01*
G01X-11762740Y-444246D01*
G03X-11798554Y-480060I0J-35814D01*
G01X-11798554Y-637540D01*
G03X-11762740Y-673354I35814J0D01*
G01X-11605260Y-673354D01*
G01X-11522800Y-1225714D02*
G03X-11486986Y-1189900I0J35814D01*
G01X-11486986Y-1019900D01*
G03X-11522800Y-984086I-35814J0D01*
G01X-11692800Y-984086D01*
G03X-11728614Y-1019900I0J-35814D01*
G01X-11728614Y-1189900D01*
G03X-11692800Y-1225714I35814J0D01*
G01X-11522800Y-1225714D01*
G01X-11544554Y-558800D02*
G03X-11315446Y-558800I114554J0D01*
G03X-11544554Y-558800I-114554J0D01*
G01X-11474614Y-1104900D02*
G03X-11232986Y-1104900I120814J0D01*
G03X-11474614Y-1104900I-120814J0D01*
G01X-11290554Y-558800D02*
G03X-11061446Y-558800I114554J0D01*
G03X-11290554Y-558800I-114554J0D01*
G01X-11208646Y733263D02*
G03X-11244460Y697449I0J-35814D01*
G01X-11244460Y477449D01*
G03X-11208646Y441635I35814J0D01*
G01X-10988646Y441635D01*
G03X-10952832Y477449I0J35814D01*
G01X-10952832Y697449D01*
G03X-10988646Y733263I-35814J0D01*
G01X-11000884Y733263D01*
G03X-11098646Y987263I-97763J108186D01*
G03X-11196409Y733263I0J-145814D01*
G01X-11208646Y733263D01*
G01X-11220826Y-4356100D02*
G03X-11088198Y-4356100I66314J0D01*
G03X-11220826Y-4356100I-66314J0D01*
G01X-11220614Y-1104900D02*
G03X-10978986Y-1104900I120814J0D01*
G03X-11220614Y-1104900I-120814J0D01*
G01X-10966614Y-1104900D02*
G03X-10724986Y-1104900I120814J0D01*
G03X-10966614Y-1104900I-120814J0D01*
G01X-10844646Y750635D02*
G03X-10844646Y932263I0J90814D01*
G03X-10844646Y750635I0J-90814D01*
G01X-10844646Y496635D02*
G03X-10844646Y678263I0J90814D01*
G03X-10844646Y496635I0J-90814D01*
G01X-10861314Y-1955800D02*
G03X-10728686Y-1955800I66314J0D01*
G03X-10861314Y-1955800I-66314J0D01*
G01X-10581880Y-4328559D02*
G03X-10710012Y-4324287I-64632J-14841D01*
G03X-10839826Y-4343400I-63500J-19113D01*
G03X-10710012Y-4362513I66314J0D01*
G03X-10580232Y-4345541I63500J19113D01*
G03X-10454056Y-4355395I64632J14841D01*
G03X-10326198Y-4330700I61544J24695D01*
G03X-10454056Y-4306005I-66314J0D01*
G03X-10581880Y-4328559I-61544J-24695D01*
G01X-10747014Y-2120900D02*
G03X-10614386Y-2120900I66314J0D01*
G03X-10747014Y-2120900I-66314J0D01*
G01X-10708914Y-4812134D02*
G03X-10576286Y-4812134I66314J0D01*
G03X-10708914Y-4812134I-66314J0D01*
G01X-10315214Y-4330700D02*
G03X-10182586Y-4330700I66314J0D01*
G03X-10315214Y-4330700I-66314J0D01*
G01X-10002101Y-4978124D02*
G03X-10173729Y-4978124I-85814J0D01*
G01X-10173729Y-5088124D01*
G03X-10005804Y-5113060I85814J0D01*
G03X-9876197Y-5086908I61399J29948D01*
G03X-10002101Y-5046535I-68208J3796D01*
G01X-10002101Y-4978124D01*
G01X-10173729Y-5408113D02*
G01X-10173729Y-5498113D01*
G03X-10002101Y-5498113I85814J0D01*
G01X-10002101Y-5408113D01*
G03X-10173729Y-5408113I-85814J0D01*
G01X-9742099Y265295D02*
G01X-9742099Y345295D01*
G03X-9993727Y345295I-125814J0D01*
G01X-9993727Y265295D01*
G03X-9742099Y265295I125814J0D01*
G01X-9560402Y1039119D02*
G03X-9596216Y1074933I-35814J0D01*
G01X-9816216Y1074933D01*
G03X-9852030Y1039119I0J-35814D01*
G01X-9852030Y819119D01*
G03X-9816216Y783305I35814J0D01*
G01X-9596216Y783305D01*
G03X-9560402Y819119I0J35814D01*
G01X-9560402Y831357D01*
G03X-9306402Y929119I108186J97763D01*
G03X-9560402Y1026882I-145814J0D01*
G01X-9560402Y1039119D01*
G01X-9815580Y-4648188D02*
G03X-9682952Y-4648188I66314J0D01*
G03X-9815580Y-4648188I-66314J0D01*
G01X-9797030Y675119D02*
G03X-9615402Y675119I90814J0D01*
G03X-9797030Y675119I-90814J0D01*
G01X-9488073Y264305D02*
G01X-9488073Y344305D01*
G03X-9739701Y344305I-125814J0D01*
G01X-9739701Y264305D01*
G03X-9488073Y264305I125814J0D01*
G01X-9569330Y-4836681D02*
G03X-9436702Y-4836681I66314J0D01*
G03X-9569330Y-4836681I-66314J0D01*
G01X-9543030Y675119D02*
G03X-9361402Y675119I90814J0D01*
G03X-9543030Y675119I-90814J0D01*
G01X-9449887Y470118D02*
G03X-9485701Y434304I0J-35814D01*
G01X-9485701Y174305D01*
G03X-9449887Y138491I35814J0D01*
G01X-9269887Y138491D01*
G03X-9234073Y174305I0J35814D01*
G01X-9234073Y434304D01*
G03X-9269887Y470118I-35814J0D01*
G01X-9449887Y470118D01*
G01X-9434610Y-5086914D02*
G03X-9305019Y-5113092I68207J3802D01*
G03X-9137104Y-5088124I82101J24968D01*
G01X-9137104Y-4978124D01*
G03X-9308732Y-4978124I-85814J0D01*
G01X-9308732Y-5046495D01*
G03X-9434610Y-5086914I-57671J-36617D01*
G01X-9308732Y-5408113D02*
G01X-9308732Y-5498113D01*
G03X-9137104Y-5498113I85814J0D01*
G01X-9137104Y-5408113D01*
G03X-9308732Y-5408113I-85814J0D01*
G01X-9299214Y-4152900D02*
G03X-9166586Y-4152900I66314J0D01*
G03X-9299214Y-4152900I-66314J0D01*
G01X-8778621Y-3721100D02*
G03X-8645993Y-3721100I66314J0D01*
G03X-8778621Y-3721100I-66314J0D01*
G01X-8681229Y-4506472D02*
G03X-8529601Y-4506472I75814J0D01*
G03X-8681229Y-4506472I-75814J0D01*
G01X-7961368Y290877D02*
G01X-7961368Y370877D01*
G03X-8212996Y370877I-125814J0D01*
G01X-8212996Y290877D01*
G03X-7961368Y290877I125814J0D01*
G01X-7871302Y1051819D02*
G03X-7907116Y1087633I-35814J0D01*
G01X-8127116Y1087633D01*
G03X-8162930Y1051819I0J-35814D01*
G01X-8162930Y831819D01*
G03X-8127116Y796005I35814J0D01*
G01X-7907116Y796005D01*
G03X-7871302Y831819I0J35814D01*
G01X-7871302Y844057D01*
G03X-7617302Y941819I108186J97763D01*
G03X-7871302Y1039582I-145814J0D01*
G01X-7871302Y1051819D01*
G01X-8107930Y687819D02*
G03X-7926302Y687819I90814J0D01*
G03X-8107930Y687819I-90814J0D01*
G01X-7707343Y289886D02*
G01X-7707343Y369886D01*
G03X-7958971Y369886I-125814J0D01*
G01X-7958971Y289886D01*
G03X-7707343Y289886I125814J0D01*
G01X-7853930Y687819D02*
G03X-7672302Y687819I90814J0D01*
G03X-7853930Y687819I-90814J0D01*
G01X-7711714Y-749300D02*
G03X-7579086Y-749300I66314J0D01*
G03X-7711714Y-749300I-66314J0D01*
G01X-7669157Y495700D02*
G03X-7704971Y459886I0J-35814D01*
G01X-7704971Y199887D01*
G03X-7669157Y164073I35814J0D01*
G01X-7489157Y164073D01*
G03X-7453343Y199887I0J35814D01*
G01X-7453343Y459886D01*
G03X-7489157Y495700I-35814J0D01*
G01X-7669157Y495700D01*
G01X-6416314Y-2832100D02*
G03X-6283686Y-2832100I66314J0D01*
G03X-6416314Y-2832100I-66314J0D01*
G01X-5816595Y-2262114D02*
G03X-5816595Y-2030486I0J115814D01*
G03X-5816595Y-2262114I0J-115814D01*
G01X-5816595Y-2516114D02*
G03X-5816595Y-2284486I0J115814D01*
G03X-5816595Y-2516114I0J-115814D01*
G01X-5816595Y-3532114D02*
G03X-5816595Y-3300486I0J115814D01*
G03X-5816595Y-3532114I0J-115814D01*
G01X-5816595Y-3278114D02*
G03X-5816595Y-3046486I0J115814D01*
G03X-5816595Y-3278114I0J-115814D01*
G01X-5816595Y-2770114D02*
G03X-5816595Y-2538486I0J115814D01*
G03X-5816595Y-2770114I0J-115814D01*
G01X-5816595Y-3024114D02*
G03X-5816595Y-2792486I0J115814D01*
G03X-5816595Y-3024114I0J-115814D01*
G01X-5816595Y-5056114D02*
G03X-5816595Y-4824486I0J115814D01*
G03X-5816595Y-5056114I0J-115814D01*
G01X-5816595Y-5310114D02*
G03X-5816595Y-5078486I0J115814D01*
G03X-5816595Y-5310114I0J-115814D01*
G01X-5700781Y-5368300D02*
G03X-5736595Y-5332486I-35814J0D01*
G01X-5896595Y-5332486D01*
G03X-5932409Y-5368300I0J-35814D01*
G01X-5932409Y-5528300D01*
G03X-5896595Y-5564114I35814J0D01*
G01X-5736595Y-5564114D01*
G03X-5700781Y-5528300I0J35814D01*
G01X-5700781Y-5368300D01*
G01X-5816595Y-4802114D02*
G03X-5816595Y-4570486I0J115814D01*
G03X-5816595Y-4802114I0J-115814D01*
G01X-5816595Y-3786114D02*
G03X-5816595Y-3554486I0J115814D01*
G03X-5816595Y-3786114I0J-115814D01*
G01X-5816595Y-4040114D02*
G03X-5816595Y-3808486I0J115814D01*
G03X-5816595Y-4040114I0J-115814D01*
G01X-5816595Y-4548114D02*
G03X-5816595Y-4316486I0J115814D01*
G03X-5816595Y-4548114I0J-115814D01*
G01X-5816595Y-4294114D02*
G03X-5816595Y-4062486I0J115814D01*
G03X-5816595Y-4294114I0J-115814D01*
G01X-5889264Y-1835150D02*
G03X-5756636Y-1835150I66314J0D01*
G03X-5889264Y-1835150I-66314J0D01*
G01X-5527314Y-2527300D02*
G03X-5394686Y-2527300I66314J0D01*
G03X-5527314Y-2527300I-66314J0D01*
G01X-5400916Y-3001367D02*
G03X-5400916Y-3242995I0J-120814D01*
G03X-5400916Y-3001367I0J120814D01*
G01X-5400916Y-3509367D02*
G03X-5400916Y-3750995I0J-120814D01*
G03X-5400916Y-3509367I0J120814D01*
G01X-5400916Y-3255367D02*
G03X-5400916Y-3496995I0J-120814D01*
G03X-5400916Y-3255367I0J120814D01*
G01X-5521730Y-2946921D02*
G03X-5485916Y-2982735I35814J0D01*
G01X-5315916Y-2982735D01*
G03X-5280102Y-2946921I0J35814D01*
G01X-5280102Y-2789441D01*
G03X-5315916Y-2753627I-35814J0D01*
G01X-5485916Y-2753627D01*
G03X-5521730Y-2789441I0J-35814D01*
G01X-5521730Y-2946921D01*
G01X-5400916Y-4525367D02*
G03X-5400916Y-4766995I0J-120814D01*
G03X-5400916Y-4525367I0J120814D01*
G01X-5400916Y-3763367D02*
G03X-5400916Y-4004995I0J-120814D01*
G03X-5400916Y-3763367I0J120814D01*
G01X-5400916Y-4017367D02*
G03X-5400916Y-4258995I0J-120814D01*
G03X-5400916Y-4017367I0J120814D01*
G01X-5400916Y-4271367D02*
G03X-5400916Y-4512995I0J-120814D01*
G03X-5400916Y-4271367I0J120814D01*
G01X-5261216Y-220395D02*
G03X-5261216Y21233I0J120814D01*
G03X-5261216Y-220395I0J-120814D01*
G01X-5261216Y33605D02*
G03X-5261216Y275233I0J120814D01*
G03X-5261216Y33605I0J-120814D01*
G01X-5261216Y-474395D02*
G03X-5261216Y-232767I0J120814D01*
G03X-5261216Y-474395I0J-120814D01*
G01X-5261216Y-982395D02*
G03X-5261216Y-740767I0J120814D01*
G03X-5261216Y-982395I0J-120814D01*
G01X-5261216Y-728395D02*
G03X-5261216Y-486767I0J120814D01*
G03X-5261216Y-728395I0J-120814D01*
G01X-5261216Y-1490395D02*
G03X-5261216Y-1248767I0J120814D01*
G03X-5261216Y-1490395I0J-120814D01*
G01X-5261216Y-1236395D02*
G03X-5261216Y-994767I0J120814D01*
G03X-5261216Y-1236395I0J-120814D01*
G01X-5140402Y-1544841D02*
G03X-5176216Y-1509027I-35814J0D01*
G01X-5346216Y-1509027D01*
G03X-5382030Y-1544841I0J-35814D01*
G01X-5382030Y-1702321D01*
G03X-5346216Y-1738135I35814J0D01*
G01X-5176216Y-1738135D01*
G03X-5140402Y-1702321I0J35814D01*
G01X-5140402Y-1544841D01*
G01X-5184414Y-2679700D02*
G03X-5051786Y-2679700I66314J0D01*
G03X-5184414Y-2679700I-66314J0D01*
G01X-4790714Y-2984500D02*
G03X-4658086Y-2984500I66314J0D01*
G03X-4790714Y-2984500I-66314J0D01*
G01X-3491230Y1526019D02*
G03X-3119602Y1526019I185814J0D01*
G03X-3491230Y1526019I-185814J0D01*
G01X-3491230Y-5344681D02*
G03X-3119602Y-5344681I185814J0D01*
G03X-3491230Y-5344681I-185814J0D01*
G54D11*
G01X-10137661Y-5453113D02*
G01X-10163569Y-5453113D01*
G01X-10038169Y-5453113D02*
G01X-10012261Y-5453113D01*
G01X-10087915Y-5358367D02*
G01X-10087915Y-5332459D01*
G01X-10087915Y-5547859D02*
G01X-10087915Y-5573767D01*
G01X-9778167Y305295D02*
G01X-9752259Y305295D01*
G01X-9957659Y305295D02*
G01X-9983567Y305295D01*
G01X-9867913Y175550D02*
G01X-9867913Y149642D01*
G01X-9867913Y435041D02*
G01X-9867913Y460949D01*
G01X-11098646Y477703D02*
G01X-11098646Y451795D01*
G01X-11208392Y587449D02*
G01X-11234300Y587449D01*
G01X-10988900Y587449D02*
G01X-10962992Y587449D01*
G01X-10137661Y-5033124D02*
G01X-10163569Y-5033124D01*
G01X-10038169Y-5033124D02*
G01X-10012261Y-5033124D01*
G01X-10087915Y-4928379D02*
G01X-10087915Y-4902471D01*
G01X-10087915Y-5137870D02*
G01X-10087915Y-5163778D01*
G01X-11254486Y-558800D02*
G01X-11280394Y-558800D01*
G01X-11097514Y-558800D02*
G01X-11071606Y-558800D01*
G01X-11176000Y-480314D02*
G01X-11176000Y-454406D01*
G01X-11176000Y-637286D02*
G01X-11176000Y-663194D01*
G01X-11438546Y-1104900D02*
G01X-11464454Y-1104900D01*
G01X-11269054Y-1104900D02*
G01X-11243146Y-1104900D01*
G01X-11353800Y-1020154D02*
G01X-11353800Y-994246D01*
G01X-11353800Y-1189646D02*
G01X-11353800Y-1215554D01*
G01X-9272664Y-5033124D02*
G01X-9298572Y-5033124D01*
G01X-9173172Y-5033124D02*
G01X-9147264Y-5033124D01*
G01X-9222918Y-4928379D02*
G01X-9222918Y-4902471D01*
G01X-9222918Y-5137870D02*
G01X-9222918Y-5163778D01*
G01X-9272664Y-5453113D02*
G01X-9298572Y-5453113D01*
G01X-9173172Y-5453113D02*
G01X-9147264Y-5453113D01*
G01X-9222918Y-5358367D02*
G01X-9222918Y-5332459D01*
G01X-9222918Y-5547859D02*
G01X-9222918Y-5573767D01*
G01X-7997436Y330877D02*
G01X-7971528Y330877D01*
G01X-8176928Y330877D02*
G01X-8202836Y330877D01*
G01X-8087182Y201131D02*
G01X-8087182Y175223D01*
G01X-8087182Y460623D02*
G01X-8087182Y486531D01*
G01X-5816595Y-5274046D02*
G01X-5816595Y-5299954D01*
G01X-5816595Y-5114554D02*
G01X-5816595Y-5088646D01*
G01X-5896341Y-5194300D02*
G01X-5922249Y-5194300D01*
G01X-5736849Y-5194300D02*
G01X-5710941Y-5194300D01*
G01X-5400916Y-3037435D02*
G01X-5400916Y-3011527D01*
G01X-5400916Y-3206927D02*
G01X-5400916Y-3232835D01*
G01X-5316170Y-3122181D02*
G01X-5290262Y-3122181D01*
G01X-5485662Y-3122181D02*
G01X-5511570Y-3122181D01*
G01X-5261216Y-438327D02*
G01X-5261216Y-464235D01*
G01X-5261216Y-268835D02*
G01X-5261216Y-242927D01*
G01X-5345962Y-353581D02*
G01X-5371870Y-353581D01*
G01X-5176470Y-353581D02*
G01X-5150562Y-353581D01*
G04 Copper End*

G04 Pad Start*
G54D12*
G01X-5400916Y-4646181D03*
G01X-5400916Y-4392181D03*
G01X-5400916Y-4138181D03*
G01X-5400916Y-3884181D03*
G01X-5400916Y-3630181D03*
G01X-5400916Y-3376181D03*
G01X-5400916Y-3122181D03*
G54D13*
G01X-5400916Y-2868181D03*
G54D12*
G01X-5261216Y154419D03*
G01X-5261216Y-99581D03*
G01X-5261216Y-353581D03*
G01X-5261216Y-607581D03*
G01X-5261216Y-861581D03*
G01X-5261216Y-1115581D03*
G01X-5261216Y-1369581D03*
G54D13*
G01X-5261216Y-1623581D03*
G54D14*
G01X-9222918Y-5453113D03*
G01X-10087915Y-5453113D03*
G54D16*
G01X-9222918Y-5033124D03*
G01X-10087915Y-5033124D03*
G54D17*
G01X-8017116Y687819D03*
G01X-7763116Y687819D03*
G54D18*
G01X-8017116Y941819D03*
G54D19*
G01X-7763116Y941819D03*
G54D17*
G01X-9706216Y675119D03*
G01X-9452216Y675119D03*
G54D18*
G01X-9706216Y929119D03*
G54D19*
G01X-9452216Y929119D03*
G54D17*
G01X-10844646Y587449D03*
G01X-10844646Y841449D03*
G54D18*
G01X-11098646Y587449D03*
G54D19*
G01X-11098646Y841449D03*
G54D20*
G01X-5816595Y-5448300D03*
G54D21*
G01X-5816595Y-5194300D03*
G01X-5816595Y-4940300D03*
G01X-5816595Y-4686300D03*
G01X-5816595Y-4432300D03*
G01X-5816595Y-4178300D03*
G01X-5816595Y-3924300D03*
G01X-5816595Y-3670300D03*
G01X-5816595Y-3416300D03*
G01X-5816595Y-3162300D03*
G01X-5816595Y-2908300D03*
G01X-5816595Y-2654300D03*
G01X-5816595Y-2400300D03*
G01X-5816595Y-2146300D03*
G54D22*
G01X-7579157Y329886D03*
G54D23*
G01X-8087182Y330877D03*
G01X-7833157Y329886D03*
G54D22*
G01X-9359887Y304305D03*
G54D23*
G01X-9867913Y305295D03*
G01X-9613887Y304305D03*
G54D24*
G01X-11176000Y-558800D03*
G01X-11430000Y-558800D03*
G54D25*
G01X-11684000Y-558800D03*
G54D26*
G01X-11607800Y-1104900D03*
G54D12*
G01X-11353800Y-1104900D03*
G01X-11099800Y-1104900D03*
G01X-10845800Y-1104900D03*
G04 Pad End*

G04 Via Start*
G54D27*
G01X-9749266Y-4648188D03*
G01X-9503016Y-4836681D03*
G54D28*
G01X-8605415Y-4506472D03*
G54D27*
G01X-10773512Y-4343400D03*
G01X-10646512Y-4343400D03*
G01X-10515600Y-4330700D03*
G01X-10392512Y-4330700D03*
G01X-10248900Y-4330700D03*
G01X-8930364Y-4785526D03*
G01X-11154512Y-4356100D03*
G01X-10642600Y-4812134D03*
G01X-9232900Y-4152900D03*
G01X-8712307Y-3721100D03*
G01X-6350000Y-2832100D03*
G01X-5822950Y-1835150D03*
G01X-5461000Y-2527300D03*
G01X-5118100Y-2679700D03*
G01X-4724400Y-2984500D03*
G01X-10795000Y-1955800D03*
G01X-10680700Y-2120900D03*
G01X-7645400Y-749300D03*
G01X-11811000Y-5118100D03*
G01X-11671300Y-5054600D03*
G01X-11531600Y-5080000D03*
G01X-11430000Y-5168900D03*
G01X-11353800Y-5295900D03*
G01X-11353800Y-5447947D03*
G01X-11417300Y-5562600D03*
G01X-11531600Y-5638800D03*
G01X-3086100Y-5080000D03*
G01X-3238500Y-5016500D03*
G01X-3383888Y-5016500D03*
G01X-3517900Y-5080000D03*
G01X-3581400Y-5194300D03*
G01X-3619500Y-5334000D03*
G01X-3581400Y-5486400D03*
G01X-3492500Y-5588000D03*
G01X-3365500Y-5651500D03*
G01X-9575800Y-495300D03*
G01X-9575800Y-622300D03*
G01X-9575800Y-758511D03*
G01X-9575800Y-882333D03*
G01X-9575800Y-1027690D03*
G01X-9575800Y-1168400D03*
G01X-9575800Y-1291485D03*
G01X-9588500Y-1397000D03*
G01X-10265510Y-2229574D03*
G01X-10261600Y-2108200D03*
G01X-10172700Y-1993900D03*
G01X-10083800Y-1917700D03*
G01X-9994900Y-1841500D03*
G01X-9906000Y-1765300D03*
G01X-9829800Y-1676400D03*
G01X-9740900Y-1587500D03*
G01X-9664700Y-1498600D03*
G01X-9334500Y-495300D03*
G01X-9334500Y-615800D03*
G01X-9334500Y-749300D03*
G01X-9334500Y-876300D03*
G01X-9334500Y-1014185D03*
G01X-9334500Y-1143000D03*
G01X-9334500Y-1264522D03*
G01X-9334500Y-1375782D03*
G01X-9334500Y-1490632D03*
G01X-9410700Y-1574800D03*
G01X-9486900Y-1651000D03*
G01X-9575800Y-1739900D03*
G01X-9677400Y-1854200D03*
G01X-9779000Y-1930400D03*
G01X-9867900Y-2019300D03*
G01X-9931400Y-2095500D03*
G01X-9994900Y-2159000D03*
G01X-10045700Y-2222500D03*
G01X-7759700Y-381000D03*
G01X-7759700Y-546100D03*
G01X-7759700Y-455975D03*
G01X-7759700Y-633633D03*
G01X-7759700Y-719770D03*
G01X-7759700Y-805908D03*
G01X-7543800Y-393700D03*
G01X-7543800Y-488277D03*
G01X-7543800Y-601332D03*
G01X-7543800Y-698500D03*
G01X-7543800Y-822059D03*
G04 Via End*

M02*

