G04 Layer: TopSolderMaskLayer*
G04 EasyEDA Pro v2.2.47.7, 2026-04-24 13:10:02*
G04 Gerber Generator version 0.3*
G04 Scale: 100 percent, Rotated: No, Reflected: No*
G04 Dimensions in millimeters*
G04 Leading zeros omitted, absolute positions, 4 integers and 5 decimals*
G04 Generated by one-click*
G04 Object Configs: Pad,Via,Track,Text,Image,Dimension,BoardOutline,BoardCutout,CopperFilled,SolidRegion,FPCStiffener,Line,PlaneZone,ComponentProperty,ComponentSilkscreen,TearDrop*
G04 Layer Configs: 1,15,16,2,3,4,5,6,7,8,9,10,11,13,14,56*
G04 Copper Areas: 0*
%FSLAX45Y45*%
%MOMM*%
%AMRoundRect*1,1,$1,$2,$3*1,1,$1,$4,$5*1,1,$1,0-$2,0-$3*1,1,$1,0-$4,0-$5*20,1,$1,$2,$3,$4,$5,0*20,1,$1,$4,$5,0-$2,0-$3,0*20,1,$1,0-$2,0-$3,0-$4,0-$5,0*20,1,$1,0-$4,0-$5,$2,$3,0*4,1,4,$2,$3,$4,$5,0-$2,0-$3,0-$4,0-$5,$2,$3,0*%
%ADD10RoundRect,0.09093X-0.45455X-0.75455X-0.45455X0.75455*%
%ADD11RoundRect,0.09093X-0.75455X0.45455X0.75455X0.45455*%
%ADD12RoundRect,0.09224X-0.45468X0.45468X0.45468X0.45468*%
%ADD13C,1.8016*%
%ADD14RoundRect,0.09579X-0.8529X-0.7903X-0.8529X0.7903*%
%ADD15RoundRect,0.08875X-0.30643X0.58143X0.30643X0.58143*%
%ADD16RoundRect,0.08109X-0.16026X0.58526X0.16026X0.58526*%
%ADD17O,1.1016X2.0016*%
%ADD18O,1.1016X2.2016*%
%ADD19RoundRect,0.0936X-0.27302X0.54302X0.27302X0.54302*%
%ADD20RoundRect,0.08756X-0.27302X0.54302X0.27302X0.54302*%
%ADD21C,1.1*%
%ADD22R,2.2X2.2*%
%ADD23C,2.2*%
%ADD24RoundRect,0.09444X-0.80278X-0.80278X-0.80278X0.80278*%
%ADD25C,1.7*%
%ADD26RoundRect,0.09131X-0.40514X0.45514X0.40514X0.45514*%
%ADD27RoundRect,0.09131X-0.45514X-0.40514X-0.45514X0.40514*%
%ADD28RoundRect,0.09691X-1.00234X-1.00234X-1.00234X1.00234*%
%ADD29RoundRect,0.09302X-0.50429X0.62929X0.50429X0.62929*%
%ADD30RoundRect,0.09138X-0.43711X-0.40835X-0.43711X0.40835*%
%ADD31RoundRect,0.09138X-0.40835X0.43711X0.40835X0.43711*%
%ADD32RoundRect,0.0944X-0.6836X-0.6186X-0.6836X0.6186*%
%ADD33RoundRect,0.09368X-0.55396X-1.25396X-0.55396X1.25396*%
%ADD34RoundRect,0.09754X-1.80203X-1.17203X-1.80203X1.17203*%
%ADD35RoundRect,0.09645X-0.90257X1.30257X0.90257X1.30257*%
%ADD36O,1.9016X2.70159*%
%ADD37RoundRect,0.09594X-0.81284X-1.02602X-0.81284X1.02602*%
%ADD38C,1.6764*%
%ADD39RoundRect,0.09579X-0.7903X0.7903X0.7903X0.7903*%
%ADD40RoundRect,0.09618X-0.85271X0.85271X0.85271X0.85271*%
G75*


G04 Pad Start*
G54D10*
G01X-11281512Y-4149585D03*
G01X-11154512Y-4149585D03*
G01X-11027512Y-4149585D03*
G01X-10900512Y-4149585D03*
G01X-10773512Y-4149585D03*
G01X-10646512Y-4149585D03*
G01X-10519512Y-4149585D03*
G01X-10392512Y-4149585D03*
G01X-10265512Y-4149585D03*
G01X-10138512Y-4149585D03*
G01X-10011512Y-4149585D03*
G01X-9884512Y-4149585D03*
G01X-9757512Y-4149585D03*
G01X-9630512Y-4149585D03*
G54D11*
G01X-9502521Y-3973081D03*
G01X-9502521Y-3846081D03*
G01X-9502521Y-3719081D03*
G01X-9502521Y-3592081D03*
G01X-9502521Y-3465081D03*
G01X-9502521Y-3338081D03*
G01X-9502521Y-3211081D03*
G01X-9502521Y-3084081D03*
G01X-9502521Y-2957081D03*
G01X-9502521Y-2830081D03*
G01X-9502521Y-2703081D03*
G01X-9505518Y-2576081D03*
G54D10*
G01X-9630512Y-2399576D03*
G01X-9757512Y-2399576D03*
G01X-9884512Y-2399576D03*
G01X-10011512Y-2399576D03*
G01X-10138512Y-2399576D03*
G01X-10265512Y-2399576D03*
G01X-10392512Y-2399576D03*
G01X-10519512Y-2399576D03*
G01X-10646512Y-2399576D03*
G01X-10773512Y-2399576D03*
G01X-10900512Y-2399576D03*
G01X-11027512Y-2399576D03*
G01X-11154512Y-2399576D03*
G01X-11281512Y-2399576D03*
G54D12*
G01X-10369499Y-3284588D03*
G01X-10369499Y-3424593D03*
G01X-10369499Y-3564598D03*
G01X-10649509Y-3564598D03*
G01X-10649509Y-3424593D03*
G01X-10649509Y-3284588D03*
G01X-10509504Y-3284588D03*
G01X-10509504Y-3564598D03*
G01X-10509504Y-3424593D03*
G54D13*
G01X-5400916Y-4646181D03*
G01X-5400916Y-4392181D03*
G01X-5400916Y-4138181D03*
G01X-5400916Y-3884181D03*
G01X-5400916Y-3630181D03*
G01X-5400916Y-3376181D03*
G01X-5400916Y-3122181D03*
G54D14*
G01X-5400916Y-2868181D03*
G54D13*
G01X-5261216Y154419D03*
G01X-5261216Y-99581D03*
G01X-5261216Y-353581D03*
G01X-5261216Y-607581D03*
G01X-5261216Y-861581D03*
G01X-5261216Y-1115581D03*
G01X-5261216Y-1369581D03*
G54D14*
G01X-5261216Y-1623581D03*
G54D15*
G01X-9335414Y-4956848D03*
G01X-9415424Y-4956848D03*
G54D16*
G01X-9480423Y-4956848D03*
G01X-9530410Y-4956848D03*
G01X-9580423Y-4956848D03*
G01X-9630410Y-4956848D03*
G01X-9680397Y-4956848D03*
G01X-9730410Y-4956848D03*
G01X-9780397Y-4956848D03*
G01X-9830410Y-4956848D03*
G54D15*
G01X-9895408Y-4956848D03*
G01X-9975418Y-4956848D03*
G54D17*
G01X-9222918Y-5453113D03*
G01X-10087915Y-5453113D03*
G54D18*
G01X-9222918Y-5033124D03*
G01X-10087915Y-5033124D03*
G54D20*
G01X-9813912Y-4786490D03*
G01X-9718916Y-4786490D03*
G01X-9623920Y-4786490D03*
G01X-9623920Y-4556671D03*
G01X-9718916Y-4556671D03*
G01X-9813912Y-4556671D03*
G54D21*
G01X-8017116Y687819D03*
G01X-7763116Y687819D03*
G54D22*
G01X-8017116Y941819D03*
G54D23*
G01X-7763116Y941819D03*
G54D21*
G01X-9706216Y675119D03*
G01X-9452216Y675119D03*
G54D22*
G01X-9706216Y929119D03*
G54D23*
G01X-9452216Y929119D03*
G54D21*
G01X-10844646Y587449D03*
G01X-10844646Y841449D03*
G54D22*
G01X-11098646Y587449D03*
G54D23*
G01X-11098646Y841449D03*
G54D24*
G01X-5816595Y-5448300D03*
G54D25*
G01X-5816595Y-5194300D03*
G01X-5816595Y-4940300D03*
G01X-5816595Y-4686300D03*
G01X-5816595Y-4432300D03*
G01X-5816595Y-4178300D03*
G01X-5816595Y-3924300D03*
G01X-5816595Y-3670300D03*
G01X-5816595Y-3416300D03*
G01X-5816595Y-3162300D03*
G01X-5816595Y-2908300D03*
G01X-5816595Y-2654300D03*
G01X-5816595Y-2400300D03*
G01X-5816595Y-2146300D03*
G54D26*
G01X-8890350Y-4414189D03*
G01X-9030355Y-4414189D03*
G01X-8890350Y-4236389D03*
G01X-9030355Y-4236389D03*
G01X-8890315Y-4065424D03*
G01X-9030320Y-4065424D03*
G54D27*
G01X-8601316Y-2887383D03*
G01X-8601316Y-2747378D03*
G01X-8777087Y-2885210D03*
G01X-8777087Y-2745206D03*
G01X-8956916Y-2887383D03*
G01X-8956916Y-2747378D03*
G54D26*
G01X-9065367Y-4785523D03*
G01X-8925362Y-4785523D03*
G54D27*
G01X-10300447Y-4957473D03*
G01X-10300447Y-4817468D03*
G54D28*
G01X-8626716Y-4045191D03*
G01X-8626716Y-4485170D03*
G54D29*
G01X-11526614Y-1623571D03*
G01X-11746629Y-1623571D03*
G54D30*
G01X-7645400Y-278536D03*
G01X-7645400Y-127864D03*
G01X-9448800Y-140564D03*
G01X-9448800Y-291236D03*
G54D31*
G01X-7811364Y-139700D03*
G01X-7962036Y-139700D03*
G01X-9602064Y-139700D03*
G01X-9752736Y-139700D03*
G54D30*
G01X-10007600Y-4761636D03*
G01X-10007600Y-4610964D03*
G01X-9388716Y-4734217D03*
G01X-9388716Y-4583544D03*
G54D31*
G01X-9783280Y-4366781D03*
G01X-9933953Y-4366781D03*
G01X-9629153Y-4366781D03*
G01X-9478480Y-4366781D03*
G01X-8921159Y-4623798D03*
G01X-9071832Y-4623798D03*
G54D30*
G01X-10465547Y-4812134D03*
G01X-10465547Y-4962807D03*
G54D32*
G01X-8944216Y-5164290D03*
G01X-8944216Y-5601271D03*
G01X-10379316Y-5151590D03*
G01X-10379316Y-5588571D03*
G54D33*
G01X-9056497Y-3764095D03*
G01X-8826500Y-3764095D03*
G01X-8596503Y-3764095D03*
G54D34*
G01X-8826500Y-3170103D03*
G54D35*
G01X-7579157Y329886D03*
G54D36*
G01X-8087182Y330877D03*
G01X-7833157Y329886D03*
G54D35*
G01X-9359887Y304305D03*
G54D36*
G01X-9867913Y305295D03*
G01X-9613887Y304305D03*
G54D31*
G01X-11645036Y-762000D03*
G01X-11494364Y-762000D03*
G54D37*
G01X-7366000Y634873D03*
G01X-7366000Y1066927D03*
G01X-9105900Y634873D03*
G01X-9105900Y1066927D03*
G54D38*
G01X-11176000Y-558800D03*
G01X-11430000Y-558800D03*
G54D39*
G01X-11684000Y-558800D03*
G54D40*
G01X-11607800Y-1104900D03*
G54D13*
G01X-11353800Y-1104900D03*
G01X-11099800Y-1104900D03*
G01X-10845800Y-1104900D03*
G04 Pad End*

M02*

