G04 Layer: InnerLayer1*
G04 EasyEDA Pro v2.2.47.7, 2026-04-24 13:10:02*
G04 Gerber Generator version 0.3*
G04 Scale: 100 percent, Rotated: No, Reflected: No*
G04 Dimensions in millimeters*
G04 Leading zeros omitted, absolute positions, 4 integers and 5 decimals*
G04 Generated by one-click*
G04 Object Configs: Pad,Via,Track,Text,Image,Dimension,BoardOutline,BoardCutout,CopperFilled,SolidRegion,FPCStiffener,Line,PlaneZone,ComponentProperty,ComponentSilkscreen,TearDrop*
G04 Layer Configs: 1,15,16,2,3,4,5,6,7,8,9,10,11,13,14,56*
G04 Copper Areas: 48*
%FSLAX45Y45*%
%MOMM*%
%ADD10C,0.2032*%
%ADD11C,0.254*%
%ADD12C,1.7*%
%ADD13R,1.7X1.5748*%
%ADD14O,1.0X1.9*%
%ADD15O,1.0X2.1*%
%ADD16C,1.1*%
%ADD17R,2.2X2.2*%
%ADD18C,2.2034*%
%ADD19C,2.2*%
%ADD20R,1.6X1.6*%
%ADD21C,1.6*%
%ADD22R,1.8X2.59999*%
%ADD23O,1.8X2.59999*%
%ADD24C,1.5748*%
%ADD25R,1.5748X1.5748*%
%ADD26R,1.7X1.7*%
%ADD27C,0.61*%
%ADD28C,0.8*%
%ADD29C,0.4*%
%ADD30C,0.3*%
G75*


G04 Copper Start*
G36*
G01X-11417812Y-2226208D02*
G01X-12007202Y-2226208D01*
G01X-12007202Y-1189900D01*
G01X-11728614Y-1189900D01*
G01X-11726861Y-1200967D01*
G01X-11721774Y-1210951D01*
G01X-11713851Y-1218874D01*
G01X-11703867Y-1223961D01*
G01X-11692800Y-1225714D01*
G01X-11568295Y-1225714D01*
G01X-11275314Y-1518695D01*
G01X-11275314Y-2679700D01*
G01X-11275314Y-2679700D01*
G01X-11273661Y-2692256D01*
G01X-11268814Y-2703957D01*
G01X-11261105Y-2714005D01*
G01X-11084814Y-2890295D01*
G01X-11084814Y-3879090D01*
G01X-11093912Y-3891461D01*
G01X-11099921Y-3905594D01*
G01X-11102518Y-3920729D01*
G01X-11101564Y-3936056D01*
G01X-11097110Y-3950753D01*
G01X-11089394Y-3964031D01*
G01X-11078832Y-3975178D01*
G01X-11065989Y-3983597D01*
G01X-11051553Y-3988836D01*
G01X-11036300Y-3990614D01*
G01X-11021047Y-3988836D01*
G01X-11006611Y-3983597D01*
G01X-10993768Y-3975178D01*
G01X-10983206Y-3964031D01*
G01X-10975490Y-3950753D01*
G01X-10971036Y-3936056D01*
G01X-10970082Y-3920729D01*
G01X-10972679Y-3905594D01*
G01X-10978688Y-3891461D01*
G01X-10987786Y-3879090D01*
G01X-10987786Y-2870200D01*
G01X-10989439Y-2857644D01*
G01X-10994286Y-2845943D01*
G01X-11001995Y-2835895D01*
G01X-11178286Y-2659605D01*
G01X-11178286Y-1811752D01*
G01X-11174525Y-1826862D01*
G01X-11167345Y-1840678D01*
G01X-11157141Y-1852438D01*
G01X-11144476Y-1861496D01*
G01X-11130048Y-1867350D01*
G01X-11114652Y-1869679D01*
G01X-11099138Y-1868354D01*
G01X-11084361Y-1863448D01*
G01X-11071135Y-1855231D01*
G01X-11060189Y-1844157D01*
G01X-11052128Y-1830836D01*
G01X-11047394Y-1816003D01*
G01X-11046251Y-1800474D01*
G01X-11048759Y-1785107D01*
G01X-11054781Y-1770748D01*
G01X-11063986Y-1758190D01*
G01X-11063986Y-1524000D01*
G01X-11065639Y-1511444D01*
G01X-11070486Y-1499743D01*
G01X-11078195Y-1489695D01*
G01X-11342689Y-1225202D01*
G01X-11321623Y-1221350D01*
G01X-11301568Y-1213840D01*
G01X-11283154Y-1202906D01*
G01X-11266960Y-1188893D01*
G01X-11253495Y-1172241D01*
G01X-11243181Y-1153473D01*
G01X-11236343Y-1133179D01*
G01X-11233195Y-1111997D01*
G01X-11233408Y-1104900D01*
G01X-11220614Y-1104900D01*
G01X-11218778Y-1125879D01*
G01X-11213328Y-1146221D01*
G01X-11204428Y-1165307D01*
G01X-11192349Y-1182558D01*
G01X-11177458Y-1197449D01*
G01X-11160207Y-1209528D01*
G01X-11141121Y-1218428D01*
G01X-11120779Y-1223878D01*
G01X-11099800Y-1225714D01*
G01X-11078821Y-1223878D01*
G01X-11058479Y-1218428D01*
G01X-11039393Y-1209528D01*
G01X-11022142Y-1197449D01*
G01X-11007251Y-1182558D01*
G01X-10995172Y-1165307D01*
G01X-10986272Y-1146221D01*
G01X-10980822Y-1125879D01*
G01X-10978986Y-1104900D01*
G01X-10966614Y-1104900D01*
G01X-10964778Y-1125879D01*
G01X-10959328Y-1146221D01*
G01X-10950428Y-1165307D01*
G01X-10938349Y-1182558D01*
G01X-10923458Y-1197449D01*
G01X-10906207Y-1209528D01*
G01X-10887121Y-1218428D01*
G01X-10866779Y-1223878D01*
G01X-10845800Y-1225714D01*
G01X-10824821Y-1223878D01*
G01X-10804479Y-1218428D01*
G01X-10785393Y-1209528D01*
G01X-10768142Y-1197449D01*
G01X-10753251Y-1182558D01*
G01X-10741172Y-1165307D01*
G01X-10732272Y-1146221D01*
G01X-10726822Y-1125879D01*
G01X-10724986Y-1104900D01*
G01X-10726822Y-1083921D01*
G01X-10732272Y-1063579D01*
G01X-10741172Y-1044493D01*
G01X-10753251Y-1027242D01*
G01X-10768142Y-1012351D01*
G01X-10785393Y-1000272D01*
G01X-10804479Y-991372D01*
G01X-10824821Y-985922D01*
G01X-10845800Y-984086D01*
G01X-10866779Y-985922D01*
G01X-10887121Y-991372D01*
G01X-10906207Y-1000272D01*
G01X-10923458Y-1012351D01*
G01X-10938349Y-1027242D01*
G01X-10950428Y-1044493D01*
G01X-10959328Y-1063579D01*
G01X-10964778Y-1083921D01*
G01X-10966614Y-1104900D01*
G01X-10966614Y-1104900D01*
G01X-10978986Y-1104900D01*
G01X-10980822Y-1083921D01*
G01X-10986272Y-1063579D01*
G01X-10995172Y-1044493D01*
G01X-11007251Y-1027242D01*
G01X-11022142Y-1012351D01*
G01X-11039393Y-1000272D01*
G01X-11058479Y-991372D01*
G01X-11078821Y-985922D01*
G01X-11099800Y-984086D01*
G01X-11120779Y-985922D01*
G01X-11141121Y-991372D01*
G01X-11160207Y-1000272D01*
G01X-11177458Y-1012351D01*
G01X-11192349Y-1027242D01*
G01X-11204428Y-1044493D01*
G01X-11213328Y-1063579D01*
G01X-11218778Y-1083921D01*
G01X-11220614Y-1104900D01*
G01X-11220614Y-1104900D01*
G01X-11233408Y-1104900D01*
G01X-11233837Y-1090591D01*
G01X-11238248Y-1069635D01*
G01X-11246289Y-1049787D01*
G01X-11257709Y-1031671D01*
G01X-11272148Y-1015856D01*
G01X-11289152Y-1002838D01*
G01X-11308188Y-993027D01*
G01X-11328657Y-986731D01*
G01X-11349916Y-984149D01*
G01X-11371297Y-985360D01*
G01X-11392128Y-990327D01*
G01X-11411755Y-998894D01*
G01X-11429560Y-1010792D01*
G01X-11444986Y-1025647D01*
G01X-11444986Y-934210D01*
G01X-11435888Y-921839D01*
G01X-11429879Y-907706D01*
G01X-11427282Y-892571D01*
G01X-11428236Y-877244D01*
G01X-11432690Y-862547D01*
G01X-11440406Y-849269D01*
G01X-11450968Y-838122D01*
G01X-11463811Y-829703D01*
G01X-11478247Y-824464D01*
G01X-11493500Y-822686D01*
G01X-11508753Y-824464D01*
G01X-11523189Y-829703D01*
G01X-11536032Y-838122D01*
G01X-11546594Y-849269D01*
G01X-11554310Y-862547D01*
G01X-11558764Y-877244D01*
G01X-11559718Y-892571D01*
G01X-11557121Y-907706D01*
G01X-11551112Y-921839D01*
G01X-11542014Y-934210D01*
G01X-11542014Y-984086D01*
G01X-11692800Y-984086D01*
G01X-11703867Y-985839D01*
G01X-11713851Y-990926D01*
G01X-11721774Y-998849D01*
G01X-11726861Y-1008833D01*
G01X-11728614Y-1019900D01*
G01X-11728614Y-1189900D01*
G01X-12007202Y-1189900D01*
G01X-12007202Y-637540D01*
G01X-11798554Y-637540D01*
G01X-11796801Y-648607D01*
G01X-11791714Y-658591D01*
G01X-11783791Y-666514D01*
G01X-11773807Y-671601D01*
G01X-11762740Y-673354D01*
G01X-11605260Y-673354D01*
G01X-11605260Y-673354D01*
G01X-11594193Y-671601D01*
G01X-11584209Y-666514D01*
G01X-11576286Y-658591D01*
G01X-11571199Y-648607D01*
G01X-11569446Y-637540D01*
G01X-11569446Y-558800D01*
G01X-11544554Y-558800D01*
G01X-11542604Y-579849D01*
G01X-11536818Y-600182D01*
G01X-11527396Y-619105D01*
G01X-11514656Y-635975D01*
G01X-11499034Y-650216D01*
G01X-11481061Y-661345D01*
G01X-11461349Y-668981D01*
G01X-11440570Y-672865D01*
G01X-11419430Y-672865D01*
G01X-11398651Y-668981D01*
G01X-11378939Y-661345D01*
G01X-11360966Y-650216D01*
G01X-11345344Y-635975D01*
G01X-11332604Y-619105D01*
G01X-11323182Y-600182D01*
G01X-11317396Y-579849D01*
G01X-11315446Y-558800D01*
G01X-11315446Y-558800D01*
G01X-11290554Y-558800D01*
G01X-11288604Y-579849D01*
G01X-11282818Y-600182D01*
G01X-11273396Y-619105D01*
G01X-11260656Y-635975D01*
G01X-11245034Y-650216D01*
G01X-11227061Y-661345D01*
G01X-11207349Y-668981D01*
G01X-11186570Y-672865D01*
G01X-11165430Y-672865D01*
G01X-11144651Y-668981D01*
G01X-11124939Y-661345D01*
G01X-11106966Y-650216D01*
G01X-11091344Y-635975D01*
G01X-11078604Y-619105D01*
G01X-11069182Y-600182D01*
G01X-11063396Y-579849D01*
G01X-11061446Y-558800D01*
G01X-11063396Y-537751D01*
G01X-11069182Y-517418D01*
G01X-11078604Y-498495D01*
G01X-11091344Y-481625D01*
G01X-11106966Y-467384D01*
G01X-11124939Y-456255D01*
G01X-11144651Y-448619D01*
G01X-11165430Y-444735D01*
G01X-11186570Y-444735D01*
G01X-11207349Y-448619D01*
G01X-11227061Y-456255D01*
G01X-11245034Y-467384D01*
G01X-11260656Y-481625D01*
G01X-11273396Y-498495D01*
G01X-11282818Y-517418D01*
G01X-11288604Y-537751D01*
G01X-11290554Y-558800D01*
G01X-11290554Y-558800D01*
G01X-11315446Y-558800D01*
G01X-11317396Y-537751D01*
G01X-11323182Y-517418D01*
G01X-11332604Y-498495D01*
G01X-11345344Y-481625D01*
G01X-11360966Y-467384D01*
G01X-11378939Y-456255D01*
G01X-11398651Y-448619D01*
G01X-11419430Y-444735D01*
G01X-11440570Y-444735D01*
G01X-11461349Y-448619D01*
G01X-11481061Y-456255D01*
G01X-11499034Y-467384D01*
G01X-11514656Y-481625D01*
G01X-11527396Y-498495D01*
G01X-11536818Y-517418D01*
G01X-11542604Y-537751D01*
G01X-11544554Y-558800D01*
G01X-11544554Y-558800D01*
G01X-11569446Y-558800D01*
G01X-11569446Y-480060D01*
G01X-11571199Y-468993D01*
G01X-11576286Y-459009D01*
G01X-11584209Y-451086D01*
G01X-11594193Y-445999D01*
G01X-11605260Y-444246D01*
G01X-11762740Y-444246D01*
G01X-11773807Y-445999D01*
G01X-11783791Y-451086D01*
G01X-11791714Y-459009D01*
G01X-11796801Y-468993D01*
G01X-11798554Y-480060D01*
G01X-11798554Y-637540D01*
G01X-12007202Y-637540D01*
G01X-12007202Y345295D01*
G01X-9993727Y345295D01*
G01X-9993727Y265295D01*
G01X-9991815Y243448D01*
G01X-9986139Y222265D01*
G01X-9976871Y202388D01*
G01X-9964292Y184424D01*
G01X-9948784Y168916D01*
G01X-9930820Y156337D01*
G01X-9910944Y147069D01*
G01X-9889760Y141393D01*
G01X-9867913Y139482D01*
G01X-9846065Y141393D01*
G01X-9824882Y147069D01*
G01X-9805006Y156337D01*
G01X-9787041Y168916D01*
G01X-9771534Y184424D01*
G01X-9758955Y202388D01*
G01X-9749686Y222265D01*
G01X-9744010Y243448D01*
G01X-9742099Y265295D01*
G01X-9742099Y265295D01*
G01X-9742099Y345295D01*
G01X-9744010Y367143D01*
G01X-9749686Y388326D01*
G01X-9758955Y408202D01*
G01X-9771534Y426167D01*
G01X-9787041Y441674D01*
G01X-9805006Y454253D01*
G01X-9824882Y463522D01*
G01X-9846065Y469198D01*
G01X-9867913Y471109D01*
G01X-9889760Y469198D01*
G01X-9910944Y463522D01*
G01X-9930820Y454253D01*
G01X-9948784Y441674D01*
G01X-9964292Y426167D01*
G01X-9976871Y408202D01*
G01X-9986139Y388326D01*
G01X-9991815Y367143D01*
G01X-9993727Y345295D01*
G01X-12007202Y345295D01*
G01X-12007202Y477449D01*
G01X-11244460Y477449D01*
G01X-11242707Y466382D01*
G01X-11237620Y456398D01*
G01X-11229697Y448475D01*
G01X-11219713Y443388D01*
G01X-11208646Y441635D01*
G01X-10988646Y441635D01*
G01X-10977579Y443388D01*
G01X-10967595Y448475D01*
G01X-10959672Y456398D01*
G01X-10954585Y466382D01*
G01X-10952832Y477449D01*
G01X-10952832Y596942D01*
G01X-10934963Y596942D01*
G01X-10934963Y577957D01*
G01X-10931015Y559386D01*
G01X-10923293Y542042D01*
G01X-10912134Y526683D01*
G01X-10898025Y513979D01*
G01X-10881583Y504486D01*
G01X-10863527Y498620D01*
G01X-10844646Y496635D01*
G01X-10844646Y496635D01*
G01X-10825765Y498620D01*
G01X-10807709Y504486D01*
G01X-10791267Y513979D01*
G01X-10777158Y526683D01*
G01X-10765999Y542042D01*
G01X-10758277Y559386D01*
G01X-10754330Y577957D01*
G01X-10754330Y596942D01*
G01X-10758277Y615512D01*
G01X-10765999Y632856D01*
G01X-10777158Y648216D01*
G01X-10791267Y660919D01*
G01X-10807709Y670412D01*
G01X-10825765Y676279D01*
G01X-10844646Y678263D01*
G01X-10863527Y676279D01*
G01X-10881583Y670412D01*
G01X-10898025Y660919D01*
G01X-10912134Y648216D01*
G01X-10923293Y632856D01*
G01X-10931015Y615512D01*
G01X-10934963Y596942D01*
G01X-10952832Y596942D01*
G01X-10952832Y697449D01*
G01X-10954585Y708516D01*
G01X-10959672Y718500D01*
G01X-10967595Y726423D01*
G01X-10977579Y731510D01*
G01X-10988646Y733263D01*
G01X-11000884Y733263D01*
G01X-10984871Y750251D01*
G01X-10971775Y769577D01*
G01X-10961932Y790746D01*
G01X-10955592Y813213D01*
G01X-10952919Y836405D01*
G01X-10953582Y850942D01*
G01X-10934963Y850942D01*
G01X-10934963Y831957D01*
G01X-10931015Y813386D01*
G01X-10923293Y796042D01*
G01X-10912134Y780683D01*
G01X-10898025Y767979D01*
G01X-10881583Y758486D01*
G01X-10863527Y752620D01*
G01X-10844646Y750635D01*
G01X-10844646Y750635D01*
G01X-10825765Y752620D01*
G01X-10807709Y758486D01*
G01X-10791267Y767979D01*
G01X-10777158Y780683D01*
G01X-10765999Y796042D01*
G01X-10758277Y813386D01*
G01X-10754330Y831957D01*
G01X-10754330Y850942D01*
G01X-10758277Y869512D01*
G01X-10765999Y886856D01*
G01X-10777158Y902216D01*
G01X-10791267Y914919D01*
G01X-10807709Y924412D01*
G01X-10825765Y930279D01*
G01X-10844646Y932263D01*
G01X-10863527Y930279D01*
G01X-10881583Y924412D01*
G01X-10898025Y914919D01*
G01X-10912134Y902216D01*
G01X-10923293Y886856D01*
G01X-10931015Y869512D01*
G01X-10934963Y850942D01*
G01X-10953582Y850942D01*
G01X-10953982Y859726D01*
G01X-10958753Y882578D01*
G01X-10967110Y904377D01*
G01X-10764300Y1107186D01*
G01X-9530153Y1107186D01*
G01X-9530153Y1052357D01*
G01X-9546146Y1040650D01*
G01X-9560402Y1026882D01*
G01X-9560402Y1039119D01*
G01X-9562155Y1050186D01*
G01X-9567242Y1060170D01*
G01X-9575165Y1068093D01*
G01X-9585149Y1073180D01*
G01X-9596216Y1074933D01*
G01X-9816216Y1074933D01*
G01X-9827283Y1073180D01*
G01X-9837267Y1068093D01*
G01X-9845190Y1060170D01*
G01X-9850277Y1050186D01*
G01X-9852030Y1039119D01*
G01X-9852030Y819119D01*
G01X-9850277Y808052D01*
G01X-9845190Y798068D01*
G01X-9837267Y790145D01*
G01X-9827283Y785058D01*
G01X-9816216Y783305D01*
G01X-9662401Y783305D01*
G01X-9662401Y754664D01*
G01X-9679722Y761983D01*
G01X-9698179Y765577D01*
G01X-9716980Y765293D01*
G01X-9735320Y761143D01*
G01X-9752412Y753306D01*
G01X-9767524Y742116D01*
G01X-9780007Y728054D01*
G01X-9789327Y711722D01*
G01X-9795084Y693822D01*
G01X-9797030Y675119D01*
G01X-9795084Y656417D01*
G01X-9789327Y638516D01*
G01X-9780007Y622185D01*
G01X-9767524Y608123D01*
G01X-9752412Y596933D01*
G01X-9735320Y589095D01*
G01X-9716980Y584945D01*
G01X-9698179Y584662D01*
G01X-9679722Y588256D01*
G01X-9662401Y595574D01*
G01X-9662401Y460389D01*
G01X-9681113Y450652D01*
G01X-9697934Y437927D01*
G01X-9712394Y422570D01*
G01X-9724085Y405014D01*
G01X-9732678Y385751D01*
G01X-9737933Y365323D01*
G01X-9739701Y344305D01*
G01X-9739701Y264305D01*
G01X-9737790Y242457D01*
G01X-9732114Y221274D01*
G01X-9722845Y201398D01*
G01X-9710266Y183433D01*
G01X-9694759Y167926D01*
G01X-9676794Y155347D01*
G01X-9656918Y146078D01*
G01X-9635735Y140402D01*
G01X-9613887Y138491D01*
G01X-9592040Y140402D01*
G01X-9570856Y146078D01*
G01X-9550980Y155347D01*
G01X-9533016Y167926D01*
G01X-9517508Y183433D01*
G01X-9504929Y201398D01*
G01X-9495661Y221274D01*
G01X-9489985Y242457D01*
G01X-9488073Y264305D01*
G01X-9488073Y344305D01*
G01X-9489842Y365323D01*
G01X-9495096Y385751D01*
G01X-9503690Y405014D01*
G01X-9515381Y422570D01*
G01X-9526429Y434304D01*
G01X-9485701Y434304D01*
G01X-9485701Y174305D01*
G01X-9483948Y163238D01*
G01X-9478861Y153254D01*
G01X-9470938Y145331D01*
G01X-9460954Y140244D01*
G01X-9449887Y138491D01*
G01X-9269887Y138491D01*
G01X-9258820Y140244D01*
G01X-9248837Y145331D01*
G01X-9240913Y153254D01*
G01X-9240320Y154419D01*
G01X-5382030Y154419D01*
G01X-5380195Y133440D01*
G01X-5374744Y113099D01*
G01X-5365844Y94012D01*
G01X-5353765Y76762D01*
G01X-5338874Y61871D01*
G01X-5321623Y49791D01*
G01X-5302537Y40891D01*
G01X-5282195Y35441D01*
G01X-5261216Y33605D01*
G01X-5261216Y33605D01*
G01X-5240237Y35441D01*
G01X-5219896Y40891D01*
G01X-5200809Y49791D01*
G01X-5183559Y61871D01*
G01X-5168668Y76762D01*
G01X-5156588Y94012D01*
G01X-5147688Y113099D01*
G01X-5142238Y133440D01*
G01X-5140402Y154419D01*
G01X-5142238Y175398D01*
G01X-5147688Y195740D01*
G01X-5156588Y214826D01*
G01X-5168668Y232077D01*
G01X-5183559Y246968D01*
G01X-5200809Y259047D01*
G01X-5219896Y267947D01*
G01X-5240237Y273398D01*
G01X-5261216Y275233D01*
G01X-5282195Y273398D01*
G01X-5302537Y267947D01*
G01X-5321623Y259047D01*
G01X-5338874Y246968D01*
G01X-5353765Y232077D01*
G01X-5365844Y214826D01*
G01X-5374744Y195740D01*
G01X-5380195Y175398D01*
G01X-5382030Y154419D01*
G01X-9240320Y154419D01*
G01X-9235826Y163238D01*
G01X-9234073Y174305D01*
G01X-9234073Y370877D01*
G01X-8212996Y370877D01*
G01X-8212996Y290877D01*
G01X-8211085Y269030D01*
G01X-8205409Y247846D01*
G01X-8196140Y227970D01*
G01X-8183561Y210005D01*
G01X-8168054Y194498D01*
G01X-8150089Y181919D01*
G01X-8130213Y172651D01*
G01X-8109030Y166975D01*
G01X-8087182Y165063D01*
G01X-8065335Y166975D01*
G01X-8044151Y172651D01*
G01X-8024275Y181919D01*
G01X-8006311Y194498D01*
G01X-7990803Y210005D01*
G01X-7978224Y227970D01*
G01X-7968956Y247846D01*
G01X-7963280Y269030D01*
G01X-7961368Y290877D01*
G01X-7961368Y290877D01*
G01X-7961368Y370877D01*
G01X-7963280Y392724D01*
G01X-7968956Y413908D01*
G01X-7978224Y433784D01*
G01X-7990803Y451748D01*
G01X-8006311Y467256D01*
G01X-8024275Y479835D01*
G01X-8044151Y489103D01*
G01X-8065335Y494779D01*
G01X-8087182Y496691D01*
G01X-8109030Y494779D01*
G01X-8130213Y489103D01*
G01X-8150089Y479835D01*
G01X-8168054Y467256D01*
G01X-8183561Y451748D01*
G01X-8196140Y433784D01*
G01X-8205409Y413908D01*
G01X-8211085Y392724D01*
G01X-8212996Y370877D01*
G01X-9234073Y370877D01*
G01X-9234073Y434304D01*
G01X-9235826Y445372D01*
G01X-9240913Y455355D01*
G01X-9248837Y463279D01*
G01X-9258820Y468366D01*
G01X-9269887Y470118D01*
G01X-9449887Y470118D01*
G01X-9449887Y470118D01*
G01X-9460954Y468366D01*
G01X-9470938Y463279D01*
G01X-9478861Y455355D01*
G01X-9483948Y445372D01*
G01X-9485701Y434304D01*
G01X-9526429Y434304D01*
G01X-9529840Y437927D01*
G01X-9546662Y450652D01*
G01X-9565373Y460389D01*
G01X-9565373Y675119D01*
G01X-9543030Y675119D01*
G01X-9541046Y656238D01*
G01X-9535179Y638182D01*
G01X-9525686Y621740D01*
G01X-9512983Y607631D01*
G01X-9497623Y596472D01*
G01X-9480279Y588750D01*
G01X-9461709Y584803D01*
G01X-9442724Y584803D01*
G01X-9424153Y588750D01*
G01X-9406809Y596472D01*
G01X-9391450Y607631D01*
G01X-9378746Y621740D01*
G01X-9369254Y638182D01*
G01X-9363387Y656238D01*
G01X-9361402Y675119D01*
G01X-9363387Y694001D01*
G01X-9369254Y712057D01*
G01X-9378746Y728498D01*
G01X-9391450Y742607D01*
G01X-9406809Y753767D01*
G01X-9424153Y761489D01*
G01X-9442724Y765436D01*
G01X-9461709Y765436D01*
G01X-9480279Y761489D01*
G01X-9497623Y753767D01*
G01X-9512983Y742607D01*
G01X-9525686Y728498D01*
G01X-9535179Y712057D01*
G01X-9541046Y694001D01*
G01X-9543030Y675119D01*
G01X-9543030Y675119D01*
G01X-9565373Y675119D01*
G01X-9565373Y800916D01*
G01X-9561667Y809684D01*
G01X-9560402Y819119D01*
G01X-9560402Y831357D01*
G01X-9542832Y814880D01*
G01X-9522788Y801521D01*
G01X-9500819Y791644D01*
G01X-9477524Y785518D01*
G01X-9453538Y783311D01*
G01X-9429516Y785083D01*
G01X-9406113Y790786D01*
G01X-9383968Y800263D01*
G01X-9363686Y813257D01*
G01X-9345820Y829412D01*
G01X-9330857Y848288D01*
G01X-9319206Y869371D01*
G01X-9311184Y892083D01*
G01X-9307011Y915806D01*
G01X-9306801Y939893D01*
G01X-9310559Y963685D01*
G01X-9318182Y986534D01*
G01X-9329463Y1007817D01*
G01X-9344094Y1026952D01*
G01X-9361675Y1043417D01*
G01X-9381727Y1056763D01*
G01X-9403702Y1066626D01*
G01X-9403702Y1106789D01*
G01X-9377905Y1132586D01*
G01X-7982995Y1132586D01*
G01X-7938042Y1087633D01*
G01X-8127116Y1087633D01*
G01X-8138183Y1085880D01*
G01X-8148167Y1080793D01*
G01X-8156090Y1072870D01*
G01X-8161177Y1062886D01*
G01X-8162930Y1051819D01*
G01X-8162930Y831819D01*
G01X-8161177Y820752D01*
G01X-8156090Y810768D01*
G01X-8148167Y802845D01*
G01X-8138183Y797758D01*
G01X-8127116Y796005D01*
G01X-7947914Y796005D01*
G01X-7947914Y746626D01*
G01X-7961198Y759376D01*
G01X-7976781Y769184D01*
G01X-7994022Y775648D01*
G01X-8012213Y778501D01*
G01X-8030605Y777626D01*
G01X-8048442Y773059D01*
G01X-8064992Y764989D01*
G01X-8079574Y753745D01*
G01X-8091588Y739792D01*
G01X-8100541Y723702D01*
G01X-8106064Y706137D01*
G01X-8107930Y687819D01*
G01X-8106064Y669501D01*
G01X-8100541Y651936D01*
G01X-8091588Y635847D01*
G01X-8079574Y621893D01*
G01X-8064992Y610650D01*
G01X-8048442Y602579D01*
G01X-8030605Y598013D01*
G01X-8012213Y597138D01*
G01X-7994022Y599991D01*
G01X-7976781Y606454D01*
G01X-7961198Y616263D01*
G01X-7947914Y629013D01*
G01X-7947914Y421460D01*
G01X-7954016Y404847D01*
G01X-7957726Y387541D01*
G01X-7958971Y369886D01*
G01X-7958971Y289886D01*
G01X-7957059Y268039D01*
G01X-7951383Y246856D01*
G01X-7942115Y226979D01*
G01X-7929536Y209015D01*
G01X-7914028Y193507D01*
G01X-7896064Y180928D01*
G01X-7876188Y171660D01*
G01X-7855004Y165984D01*
G01X-7833157Y164073D01*
G01X-7811309Y165984D01*
G01X-7790126Y171660D01*
G01X-7770250Y180928D01*
G01X-7752285Y193507D01*
G01X-7736778Y209015D01*
G01X-7724199Y226979D01*
G01X-7714930Y246856D01*
G01X-7709254Y268039D01*
G01X-7707343Y289886D01*
G01X-7707343Y369886D01*
G01X-7709183Y391323D01*
G01X-7714648Y412132D01*
G01X-7723579Y431707D01*
G01X-7735714Y449473D01*
G01X-7745821Y459886D01*
G01X-7704971Y459886D01*
G01X-7704971Y199887D01*
G01X-7703218Y188819D01*
G01X-7698131Y178836D01*
G01X-7690208Y170912D01*
G01X-7680224Y165825D01*
G01X-7669157Y164073D01*
G01X-7489157Y164073D01*
G01X-7478090Y165825D01*
G01X-7468106Y170912D01*
G01X-7460183Y178836D01*
G01X-7455096Y188819D01*
G01X-7453343Y199887D01*
G01X-7453343Y459886D01*
G01X-7455096Y470953D01*
G01X-7460183Y480937D01*
G01X-7468106Y488860D01*
G01X-7478090Y493947D01*
G01X-7489157Y495700D01*
G01X-7669157Y495700D01*
G01X-7669157Y495700D01*
G01X-7680224Y493947D01*
G01X-7690208Y488860D01*
G01X-7698131Y480937D01*
G01X-7703218Y470953D01*
G01X-7704971Y459886D01*
G01X-7745821Y459886D01*
G01X-7750699Y464912D01*
G01X-7768096Y477572D01*
G01X-7787395Y487082D01*
G01X-7808032Y493166D01*
G01X-7829404Y495644D01*
G01X-7850886Y494445D01*
G01X-7850886Y664503D01*
G01X-7844267Y647055D01*
G01X-7834221Y631328D01*
G01X-7821173Y617987D01*
G01X-7805674Y607594D01*
G01X-7788377Y600589D01*
G01X-7770014Y597268D01*
G01X-7751359Y597770D01*
G01X-7733201Y602074D01*
G01X-7716306Y609999D01*
G01X-7701388Y621210D01*
G01X-7689076Y635234D01*
G01X-7679891Y651478D01*
G01X-7674220Y669257D01*
G01X-7672302Y687819D01*
G01X-7674220Y706382D01*
G01X-7679891Y724161D01*
G01X-7689076Y740405D01*
G01X-7701388Y754428D01*
G01X-7716306Y765640D01*
G01X-7733201Y773565D01*
G01X-7751359Y777869D01*
G01X-7770014Y778371D01*
G01X-7788377Y775049D01*
G01X-7805674Y768044D01*
G01X-7821173Y757652D01*
G01X-7834221Y744311D01*
G01X-7844267Y728584D01*
G01X-7850886Y711136D01*
G01X-7850886Y824103D01*
G01X-7850903Y825393D01*
G01X-7831920Y813259D01*
G01X-7811295Y804195D01*
G01X-7789519Y798416D01*
G01X-7767113Y796060D01*
G01X-7744612Y797184D01*
G01X-7722552Y801761D01*
G01X-7701461Y809682D01*
G01X-7681841Y820757D01*
G01X-7664162Y834722D01*
G01X-7648845Y851244D01*
G01X-7636257Y869928D01*
G01X-7626696Y890329D01*
G01X-7620393Y911958D01*
G01X-7617496Y934301D01*
G01X-7618076Y956823D01*
G01X-7622119Y978987D01*
G01X-7629527Y1000263D01*
G01X-7640125Y1020144D01*
G01X-7653659Y1038156D01*
G01X-7669806Y1053868D01*
G01X-7688180Y1066904D01*
G01X-7708343Y1076955D01*
G01X-7729814Y1083780D01*
G01X-7752080Y1087215D01*
G01X-7774610Y1087180D01*
G01X-7796865Y1083674D01*
G01X-7928595Y1215405D01*
G01X-7938643Y1223114D01*
G01X-7950344Y1227961D01*
G01X-7962900Y1229614D01*
G01X-9398000Y1229614D01*
G01X-9410556Y1227961D01*
G01X-9422257Y1223114D01*
G01X-9432305Y1215405D01*
G01X-9461500Y1186209D01*
G01X-9465295Y1190005D01*
G01X-9475343Y1197714D01*
G01X-9487044Y1202561D01*
G01X-9499600Y1204214D01*
G01X-10784395Y1204214D01*
G01X-10784395Y1204214D01*
G01X-10796951Y1202561D01*
G01X-10808652Y1197714D01*
G01X-10818700Y1190005D01*
G01X-11035719Y972986D01*
G01X-11057269Y981269D01*
G01X-11079856Y986047D01*
G01X-11102914Y987201D01*
G01X-11125866Y984700D01*
G01X-11148135Y978608D01*
G01X-11169163Y969078D01*
G01X-11188424Y956348D01*
G01X-11205433Y940737D01*
G01X-11219766Y922638D01*
G01X-11231063Y902503D01*
G01X-11239039Y880838D01*
G01X-11243496Y858185D01*
G01X-11244322Y835112D01*
G01X-11241496Y812199D01*
G01X-11235089Y790019D01*
G01X-11225261Y769128D01*
G01X-11212259Y750050D01*
G01X-11196409Y733263D01*
G01X-11208646Y733263D01*
G01X-11219713Y731510D01*
G01X-11229697Y726423D01*
G01X-11237620Y718500D01*
G01X-11242707Y708516D01*
G01X-11244460Y697449D01*
G01X-11244460Y477449D01*
G01X-12007202Y477449D01*
G01X-12007202Y1538719D01*
G01X-11835130Y1538719D01*
G01X-11833239Y1512275D01*
G01X-11827603Y1486369D01*
G01X-11818339Y1461529D01*
G01X-11805633Y1438261D01*
G01X-11789745Y1417037D01*
G01X-11770999Y1398290D01*
G01X-11749775Y1382403D01*
G01X-11726506Y1369697D01*
G01X-11701666Y1360432D01*
G01X-11675760Y1354797D01*
G01X-11649316Y1352905D01*
G01X-11622872Y1354797D01*
G01X-11596966Y1360432D01*
G01X-11572126Y1369697D01*
G01X-11548858Y1382403D01*
G01X-11527634Y1398290D01*
G01X-11508887Y1417037D01*
G01X-11493000Y1438261D01*
G01X-11480294Y1461529D01*
G01X-11471029Y1486369D01*
G01X-11465394Y1512275D01*
G01X-11464411Y1526019D01*
G01X-3491230Y1526019D01*
G01X-3489339Y1499575D01*
G01X-3483703Y1473669D01*
G01X-3474439Y1448829D01*
G01X-3461733Y1425561D01*
G01X-3445845Y1404337D01*
G01X-3427099Y1385590D01*
G01X-3405875Y1369703D01*
G01X-3382606Y1356997D01*
G01X-3357766Y1347732D01*
G01X-3331860Y1342097D01*
G01X-3305416Y1340205D01*
G01X-3278972Y1342097D01*
G01X-3253066Y1347732D01*
G01X-3228226Y1356997D01*
G01X-3204958Y1369703D01*
G01X-3183734Y1385590D01*
G01X-3164987Y1404337D01*
G01X-3149100Y1425561D01*
G01X-3136394Y1448829D01*
G01X-3127129Y1473669D01*
G01X-3121494Y1499575D01*
G01X-3119602Y1526019D01*
G01X-3121494Y1552463D01*
G01X-3127129Y1578369D01*
G01X-3136394Y1603209D01*
G01X-3149100Y1626478D01*
G01X-3164987Y1647702D01*
G01X-3183734Y1666448D01*
G01X-3204958Y1682336D01*
G01X-3228226Y1695042D01*
G01X-3253066Y1704306D01*
G01X-3278972Y1709942D01*
G01X-3305416Y1711833D01*
G01X-3331860Y1709942D01*
G01X-3357766Y1704306D01*
G01X-3382606Y1695042D01*
G01X-3405875Y1682336D01*
G01X-3427099Y1666448D01*
G01X-3445845Y1647702D01*
G01X-3461733Y1626478D01*
G01X-3474439Y1603209D01*
G01X-3483703Y1578369D01*
G01X-3489339Y1552463D01*
G01X-3491230Y1526019D01*
G01X-3491230Y1526019D01*
G01X-11464411Y1526019D01*
G01X-11463502Y1538719D01*
G01X-11465394Y1565163D01*
G01X-11471029Y1591069D01*
G01X-11480294Y1615909D01*
G01X-11493000Y1639178D01*
G01X-11508887Y1660402D01*
G01X-11527634Y1679148D01*
G01X-11548858Y1695036D01*
G01X-11572126Y1707742D01*
G01X-11596966Y1717006D01*
G01X-11622872Y1722642D01*
G01X-11649316Y1724533D01*
G01X-11675760Y1722642D01*
G01X-11701666Y1717006D01*
G01X-11726506Y1707742D01*
G01X-11749775Y1695036D01*
G01X-11770999Y1679148D01*
G01X-11789745Y1660402D01*
G01X-11805633Y1639178D01*
G01X-11818339Y1615909D01*
G01X-11827603Y1591069D01*
G01X-11833239Y1565163D01*
G01X-11835130Y1538719D01*
G01X-11835130Y1538719D01*
G01X-12007202Y1538719D01*
G01X-12007202Y1576819D01*
G01X-12005351Y1609780D01*
G01X-11999821Y1642326D01*
G01X-11990682Y1674049D01*
G01X-11978049Y1704549D01*
G01X-11962080Y1733442D01*
G01X-11942977Y1760366D01*
G01X-11920979Y1784982D01*
G01X-11896363Y1806980D01*
G01X-11869439Y1826083D01*
G01X-11840546Y1842052D01*
G01X-11810046Y1854685D01*
G01X-11778323Y1863824D01*
G01X-11745777Y1869354D01*
G01X-11712816Y1871205D01*
G01X-3241916Y1871205D01*
G01X-3208956Y1869354D01*
G01X-3176409Y1863824D01*
G01X-3144687Y1854685D01*
G01X-3114187Y1842052D01*
G01X-3085294Y1826083D01*
G01X-3058370Y1806980D01*
G01X-3033754Y1784982D01*
G01X-3011756Y1760366D01*
G01X-2992653Y1733442D01*
G01X-2976684Y1704549D01*
G01X-2964050Y1674049D01*
G01X-2954911Y1642326D01*
G01X-2949381Y1609780D01*
G01X-2947530Y1576819D01*
G01X-2947530Y-5395481D01*
G01X-2949381Y-5428441D01*
G01X-2954911Y-5460988D01*
G01X-2964050Y-5492710D01*
G01X-2976684Y-5523210D01*
G01X-2992653Y-5552103D01*
G01X-3011756Y-5579027D01*
G01X-3033754Y-5603643D01*
G01X-3058370Y-5625641D01*
G01X-3085294Y-5644744D01*
G01X-3114187Y-5660713D01*
G01X-3144687Y-5673347D01*
G01X-3176409Y-5682486D01*
G01X-3208956Y-5688016D01*
G01X-3241916Y-5689867D01*
G01X-11712816Y-5689867D01*
G01X-11745777Y-5688016D01*
G01X-11778323Y-5682486D01*
G01X-11810046Y-5673347D01*
G01X-11840546Y-5660713D01*
G01X-11869439Y-5644744D01*
G01X-11896363Y-5625641D01*
G01X-11920979Y-5603643D01*
G01X-11942977Y-5579027D01*
G01X-11962080Y-5552103D01*
G01X-11978049Y-5523210D01*
G01X-11990682Y-5492710D01*
G01X-11999821Y-5460988D01*
G01X-12005351Y-5428441D01*
G01X-12007202Y-5395481D01*
G01X-12007202Y-5370081D01*
G01X-11835130Y-5370081D01*
G01X-11833239Y-5396525D01*
G01X-11827603Y-5422431D01*
G01X-11818339Y-5447271D01*
G01X-11805633Y-5470539D01*
G01X-11789745Y-5491763D01*
G01X-11770999Y-5510510D01*
G01X-11749775Y-5526397D01*
G01X-11726506Y-5539103D01*
G01X-11701666Y-5548368D01*
G01X-11675760Y-5554003D01*
G01X-11649316Y-5555895D01*
G01X-11622872Y-5554003D01*
G01X-11596966Y-5548368D01*
G01X-11572126Y-5539103D01*
G01X-11548858Y-5526397D01*
G01X-11527634Y-5510510D01*
G01X-11508887Y-5491763D01*
G01X-11493000Y-5470539D01*
G01X-11480294Y-5447271D01*
G01X-11471029Y-5422431D01*
G01X-11467915Y-5408113D01*
G01X-10173729Y-5408113D01*
G01X-10173729Y-5498113D01*
G01X-10171853Y-5515955D01*
G01X-10166310Y-5533017D01*
G01X-10157340Y-5548553D01*
G01X-10145336Y-5561885D01*
G01X-10130822Y-5572430D01*
G01X-10114433Y-5579727D01*
G01X-10096885Y-5583457D01*
G01X-10078945Y-5583457D01*
G01X-10061397Y-5579727D01*
G01X-10045008Y-5572430D01*
G01X-10030494Y-5561885D01*
G01X-10018490Y-5548553D01*
G01X-10009520Y-5533017D01*
G01X-10003976Y-5515955D01*
G01X-10002101Y-5498113D01*
G01X-10002101Y-5408113D01*
G01X-9308732Y-5408113D01*
G01X-9308732Y-5498113D01*
G01X-9306856Y-5515955D01*
G01X-9301313Y-5533017D01*
G01X-9292343Y-5548553D01*
G01X-9280339Y-5561885D01*
G01X-9265825Y-5572430D01*
G01X-9249436Y-5579727D01*
G01X-9231888Y-5583457D01*
G01X-9213948Y-5583457D01*
G01X-9196400Y-5579727D01*
G01X-9180011Y-5572430D01*
G01X-9165497Y-5561885D01*
G01X-9153493Y-5548553D01*
G01X-9144523Y-5533017D01*
G01X-9138979Y-5515955D01*
G01X-9137104Y-5498113D01*
G01X-9137104Y-5408113D01*
G01X-9138979Y-5390272D01*
G01X-9144523Y-5373210D01*
G01X-9147357Y-5368300D01*
G01X-5932409Y-5368300D01*
G01X-5932409Y-5528300D01*
G01X-5930656Y-5539367D01*
G01X-5925569Y-5549351D01*
G01X-5917646Y-5557274D01*
G01X-5907662Y-5562361D01*
G01X-5896595Y-5564114D01*
G01X-5736595Y-5564114D01*
G01X-5725528Y-5562361D01*
G01X-5715544Y-5557274D01*
G01X-5707621Y-5549351D01*
G01X-5702534Y-5539367D01*
G01X-5700781Y-5528300D01*
G01X-5700781Y-5368300D01*
G01X-5700781Y-5368300D01*
G01X-5702534Y-5357233D01*
G01X-5707621Y-5347249D01*
G01X-5710189Y-5344681D01*
G01X-3491230Y-5344681D01*
G01X-3489339Y-5371125D01*
G01X-3483703Y-5397031D01*
G01X-3474439Y-5421871D01*
G01X-3461733Y-5445139D01*
G01X-3445845Y-5466363D01*
G01X-3427099Y-5485110D01*
G01X-3405875Y-5500997D01*
G01X-3382606Y-5513703D01*
G01X-3357766Y-5522968D01*
G01X-3331860Y-5528603D01*
G01X-3305416Y-5530495D01*
G01X-3278972Y-5528603D01*
G01X-3253066Y-5522968D01*
G01X-3228226Y-5513703D01*
G01X-3204958Y-5500997D01*
G01X-3183734Y-5485110D01*
G01X-3164987Y-5466363D01*
G01X-3149100Y-5445139D01*
G01X-3136394Y-5421871D01*
G01X-3127129Y-5397031D01*
G01X-3121494Y-5371125D01*
G01X-3119602Y-5344681D01*
G01X-3121494Y-5318237D01*
G01X-3127129Y-5292331D01*
G01X-3136394Y-5267491D01*
G01X-3149100Y-5244222D01*
G01X-3164987Y-5222998D01*
G01X-3183734Y-5204252D01*
G01X-3204958Y-5188364D01*
G01X-3228226Y-5175658D01*
G01X-3253066Y-5166394D01*
G01X-3278972Y-5160758D01*
G01X-3305416Y-5158867D01*
G01X-3331860Y-5160758D01*
G01X-3357766Y-5166394D01*
G01X-3382606Y-5175658D01*
G01X-3405875Y-5188364D01*
G01X-3427099Y-5204252D01*
G01X-3445845Y-5222998D01*
G01X-3461733Y-5244222D01*
G01X-3474439Y-5267491D01*
G01X-3483703Y-5292331D01*
G01X-3489339Y-5318237D01*
G01X-3491230Y-5344681D01*
G01X-3491230Y-5344681D01*
G01X-5710189Y-5344681D01*
G01X-5715544Y-5339326D01*
G01X-5725528Y-5334239D01*
G01X-5736595Y-5332486D01*
G01X-5896595Y-5332486D01*
G01X-5907662Y-5334239D01*
G01X-5917646Y-5339326D01*
G01X-5925569Y-5347249D01*
G01X-5930656Y-5357233D01*
G01X-5932409Y-5368300D01*
G01X-9147357Y-5368300D01*
G01X-9153493Y-5357673D01*
G01X-9165497Y-5344341D01*
G01X-9180011Y-5333796D01*
G01X-9196400Y-5326500D01*
G01X-9213948Y-5322770D01*
G01X-9231888Y-5322770D01*
G01X-9249436Y-5326500D01*
G01X-9265825Y-5333796D01*
G01X-9280339Y-5344341D01*
G01X-9292343Y-5357673D01*
G01X-9301313Y-5373210D01*
G01X-9306856Y-5390272D01*
G01X-9308732Y-5408113D01*
G01X-9308732Y-5408113D01*
G01X-10002101Y-5408113D01*
G01X-10003976Y-5390272D01*
G01X-10009520Y-5373210D01*
G01X-10018490Y-5357673D01*
G01X-10030494Y-5344341D01*
G01X-10045008Y-5333796D01*
G01X-10061397Y-5326500D01*
G01X-10078945Y-5322770D01*
G01X-10096885Y-5322770D01*
G01X-10114433Y-5326500D01*
G01X-10130822Y-5333796D01*
G01X-10145336Y-5344341D01*
G01X-10157340Y-5357673D01*
G01X-10166310Y-5373210D01*
G01X-10171853Y-5390272D01*
G01X-10173729Y-5408113D01*
G01X-10173729Y-5408113D01*
G01X-11467915Y-5408113D01*
G01X-11465394Y-5396525D01*
G01X-11463502Y-5370081D01*
G01X-11465394Y-5343637D01*
G01X-11471029Y-5317731D01*
G01X-11480294Y-5292891D01*
G01X-11493000Y-5269622D01*
G01X-11508887Y-5248398D01*
G01X-11527634Y-5229652D01*
G01X-11548858Y-5213764D01*
G01X-11572126Y-5201058D01*
G01X-11596966Y-5191794D01*
G01X-11622872Y-5186158D01*
G01X-11649316Y-5184267D01*
G01X-11675760Y-5186158D01*
G01X-11701666Y-5191794D01*
G01X-11726506Y-5201058D01*
G01X-11749775Y-5213764D01*
G01X-11770999Y-5229652D01*
G01X-11789745Y-5248398D01*
G01X-11805633Y-5269622D01*
G01X-11818339Y-5292891D01*
G01X-11827603Y-5317731D01*
G01X-11833239Y-5343637D01*
G01X-11835130Y-5370081D01*
G01X-11835130Y-5370081D01*
G01X-12007202Y-5370081D01*
G01X-12007202Y-4356100D01*
G01X-11220826Y-4356100D01*
G01X-11219090Y-4371171D01*
G01X-11213975Y-4385453D01*
G01X-11205748Y-4398200D01*
G01X-11194840Y-4408742D01*
G01X-11181820Y-4416530D01*
G01X-11167372Y-4421155D01*
G01X-11152250Y-4422376D01*
G01X-11137247Y-4420127D01*
G01X-11123148Y-4414528D01*
G01X-11110689Y-4405871D01*
G01X-11100525Y-4394609D01*
G01X-11093186Y-4381332D01*
G01X-11089056Y-4366735D01*
G01X-11086119Y-4378213D01*
G01X-11081185Y-4388986D01*
G01X-11074414Y-4398709D01*
G01X-11074414Y-4569107D01*
G01X-11072683Y-4582259D01*
G01X-11067606Y-4594514D01*
G01X-11059531Y-4605038D01*
G01X-10695960Y-4968609D01*
G01X-10692962Y-4983318D01*
G01X-10686733Y-4996977D01*
G01X-10677591Y-5008884D01*
G01X-10666006Y-5018430D01*
G01X-10652570Y-5025126D01*
G01X-10637973Y-5028628D01*
G01X-10622962Y-5028757D01*
G01X-10608306Y-5025507D01*
G01X-10594757Y-5019043D01*
G01X-10583009Y-5009698D01*
G01X-10573664Y-4997950D01*
G01X-10567200Y-4984401D01*
G01X-10565808Y-4978124D01*
G01X-10173729Y-4978124D01*
G01X-10173729Y-5088124D01*
G01X-10171961Y-5105454D01*
G01X-10166730Y-5122069D01*
G01X-10158251Y-5137286D01*
G01X-10146874Y-5150477D01*
G01X-10133068Y-5161098D01*
G01X-10117401Y-5168713D01*
G01X-10100519Y-5173007D01*
G01X-10083118Y-5173804D01*
G01X-10065915Y-5171070D01*
G01X-10049618Y-5164918D01*
G01X-10034899Y-5155602D01*
G01X-10022364Y-5143506D01*
G01X-10012531Y-5129128D01*
G01X-10005804Y-5113060D01*
G01X-9996956Y-5126759D01*
G01X-9985114Y-5137970D01*
G01X-9970952Y-5146056D01*
G01X-9955277Y-5150554D01*
G01X-9938982Y-5151209D01*
G01X-9922997Y-5147984D01*
G01X-9908231Y-5141061D01*
G01X-9895527Y-5130837D01*
G01X-9885608Y-5117892D01*
G01X-9879040Y-5102966D01*
G01X-9876197Y-5086908D01*
G01X-9877241Y-5070634D01*
G01X-9882112Y-5055070D01*
G01X-9890533Y-5041105D01*
G01X-9902024Y-5029534D01*
G01X-9915930Y-5021016D01*
G01X-9931459Y-5016036D01*
G01X-9947725Y-5014879D01*
G01X-9963803Y-5017610D01*
G01X-9978774Y-5024074D01*
G01X-9991788Y-5033902D01*
G01X-10002101Y-5046535D01*
G01X-10002101Y-4978124D01*
G01X-10002101Y-4978124D01*
G01X-10003976Y-4960283D01*
G01X-10009520Y-4943221D01*
G01X-10018490Y-4927684D01*
G01X-10030494Y-4914352D01*
G01X-10045008Y-4903807D01*
G01X-10061397Y-4896511D01*
G01X-10078945Y-4892781D01*
G01X-10096885Y-4892781D01*
G01X-10114433Y-4896511D01*
G01X-10130822Y-4903807D01*
G01X-10145336Y-4914352D01*
G01X-10157340Y-4927684D01*
G01X-10166310Y-4943221D01*
G01X-10171853Y-4960283D01*
G01X-10173729Y-4978124D01*
G01X-10565808Y-4978124D01*
G01X-10563950Y-4969745D01*
G01X-10564079Y-4954734D01*
G01X-10567581Y-4940137D01*
G01X-10574277Y-4926701D01*
G01X-10583823Y-4915116D01*
G01X-10595730Y-4905974D01*
G01X-10609389Y-4899745D01*
G01X-10624098Y-4896747D01*
G01X-10642397Y-4878448D01*
G01X-10626942Y-4876573D01*
G01X-10612350Y-4871147D01*
G01X-10599425Y-4862467D01*
G01X-10588879Y-4851014D01*
G01X-10581295Y-4837418D01*
G01X-10577090Y-4822428D01*
G01X-10576495Y-4806871D01*
G01X-10579544Y-4791603D01*
G01X-10586069Y-4777468D01*
G01X-10595709Y-4765243D01*
G01X-10607934Y-4755603D01*
G01X-10622069Y-4749078D01*
G01X-10637336Y-4746029D01*
G01X-10652894Y-4746624D01*
G01X-10667884Y-4750829D01*
G01X-10681480Y-4758414D01*
G01X-10692933Y-4768959D01*
G01X-10701612Y-4781884D01*
G01X-10707039Y-4796476D01*
G01X-10708914Y-4811931D01*
G01X-10972786Y-4548059D01*
G01X-10972786Y-4398709D01*
G01X-10966450Y-4389737D01*
G01X-10956918Y-4402253D01*
G01X-10944706Y-4412171D01*
G01X-10930500Y-4418934D01*
G01X-10915102Y-4422160D01*
G01X-10767431Y-4569831D01*
G01X-10756907Y-4577906D01*
G01X-10744652Y-4582983D01*
G01X-10731500Y-4584714D01*
G01X-10183163Y-4584714D01*
G01X-10187322Y-4599257D01*
G01X-10188077Y-4614365D01*
G01X-10185389Y-4629251D01*
G01X-10179397Y-4643140D01*
G01X-10170414Y-4655310D01*
G01X-10170414Y-4737100D01*
G01X-10168761Y-4749656D01*
G01X-10163914Y-4761357D01*
G01X-10156205Y-4771405D01*
G01X-9844179Y-5083430D01*
G01X-9838378Y-5097464D01*
G01X-9829536Y-5109811D01*
G01X-9818117Y-5119822D01*
G01X-9804720Y-5126973D01*
G01X-9790048Y-5130889D01*
G01X-9774869Y-5131364D01*
G01X-9759980Y-5128374D01*
G01X-9746162Y-5122075D01*
G01X-9734140Y-5112797D01*
G01X-9724543Y-5101028D01*
G01X-9717875Y-5087384D01*
G01X-9714486Y-5072581D01*
G01X-9714553Y-5057395D01*
G01X-9718074Y-5042623D01*
G01X-9724863Y-5029039D01*
G01X-9734564Y-5017355D01*
G01X-9746668Y-5008185D01*
G01X-9760542Y-5002009D01*
G01X-9775456Y-4999151D01*
G01X-9790630Y-4999761D01*
G01X-9953710Y-4836681D01*
G01X-9569330Y-4836681D01*
G01X-9567403Y-4852551D01*
G01X-9561734Y-4867498D01*
G01X-9552653Y-4880655D01*
G01X-9540687Y-4891256D01*
G01X-9526532Y-4898685D01*
G01X-9511010Y-4902511D01*
G01X-9495023Y-4902511D01*
G01X-9479501Y-4898685D01*
G01X-9465346Y-4891256D01*
G01X-9453380Y-4880655D01*
G01X-9444298Y-4867498D01*
G01X-9438629Y-4852551D01*
G01X-9436702Y-4836681D01*
G01X-9438629Y-4820811D01*
G01X-9444298Y-4805863D01*
G01X-9453380Y-4792706D01*
G01X-9465346Y-4782105D01*
G01X-9479501Y-4774676D01*
G01X-9495023Y-4770850D01*
G01X-9511010Y-4770850D01*
G01X-9526532Y-4774676D01*
G01X-9540687Y-4782105D01*
G01X-9552653Y-4792706D01*
G01X-9561734Y-4805863D01*
G01X-9567403Y-4820811D01*
G01X-9569330Y-4836681D01*
G01X-9569330Y-4836681D01*
G01X-9953710Y-4836681D01*
G01X-10073386Y-4717005D01*
G01X-10073386Y-4655310D01*
G01X-10064403Y-4643140D01*
G01X-10058411Y-4629251D01*
G01X-10055723Y-4614365D01*
G01X-10056478Y-4599257D01*
G01X-10060637Y-4584714D01*
G01X-9768465Y-4584714D01*
G01X-9782850Y-4591007D01*
G01X-9795352Y-4600505D01*
G01X-9805270Y-4612676D01*
G01X-9812050Y-4626838D01*
G01X-9815309Y-4642197D01*
G01X-9814866Y-4657892D01*
G01X-9810746Y-4673043D01*
G01X-9803180Y-4686800D01*
G01X-9792591Y-4698393D01*
G01X-9779573Y-4707171D01*
G01X-9764857Y-4712643D01*
G01X-9749266Y-4714502D01*
G01X-9733676Y-4712643D01*
G01X-9718959Y-4707171D01*
G01X-9705942Y-4698393D01*
G01X-9695353Y-4686800D01*
G01X-9687786Y-4673043D01*
G01X-9683666Y-4657892D01*
G01X-9683223Y-4642197D01*
G01X-9686483Y-4626838D01*
G01X-9693262Y-4612676D01*
G01X-9703181Y-4600505D01*
G01X-9715683Y-4591007D01*
G01X-9730067Y-4584714D01*
G01X-9393648Y-4584714D01*
G01X-9253496Y-4724866D01*
G01X-9265947Y-4730407D01*
G01X-9277003Y-4738377D01*
G01X-9286195Y-4748439D01*
G01X-9293137Y-4760167D01*
G01X-9297534Y-4773067D01*
G01X-9299201Y-4786593D01*
G01X-9298068Y-4800175D01*
G01X-9294183Y-4813238D01*
G01X-9492653Y-5011708D01*
G01X-9508019Y-5014073D01*
G01X-9522412Y-5019951D01*
G01X-9535041Y-5029019D01*
G01X-9545212Y-5040778D01*
G01X-9552365Y-5054582D01*
G01X-9556108Y-5069673D01*
G01X-9556234Y-5085219D01*
G01X-9552737Y-5100368D01*
G01X-9545809Y-5114287D01*
G01X-9535830Y-5126209D01*
G01X-9523350Y-5135481D01*
G01X-9509054Y-5141592D01*
G01X-9493728Y-5144207D01*
G01X-9478215Y-5143181D01*
G01X-9463367Y-5138572D01*
G01X-9450000Y-5130632D01*
G01X-9438849Y-5119797D01*
G01X-9430527Y-5106665D01*
G01X-9423336Y-5120864D01*
G01X-9413054Y-5133015D01*
G01X-9400240Y-5142456D01*
G01X-9385589Y-5148675D01*
G01X-9369896Y-5151335D01*
G01X-9354014Y-5150292D01*
G01X-9338804Y-5145602D01*
G01X-9325092Y-5137519D01*
G01X-9313623Y-5126483D01*
G01X-9305019Y-5113092D01*
G01X-9298287Y-5129155D01*
G01X-9288450Y-5143528D01*
G01X-9275913Y-5155619D01*
G01X-9261194Y-5164929D01*
G01X-9244897Y-5171076D01*
G01X-9227695Y-5173805D01*
G01X-9210297Y-5173005D01*
G01X-9193418Y-5168708D01*
G01X-9177755Y-5161092D01*
G01X-9163952Y-5150470D01*
G01X-9152578Y-5137280D01*
G01X-9144101Y-5122065D01*
G01X-9138871Y-5105451D01*
G01X-9137104Y-5088124D01*
G01X-9137104Y-4978124D01*
G01X-9139122Y-4959623D01*
G01X-9145082Y-4941991D01*
G01X-9154703Y-4926059D01*
G01X-9167533Y-4912576D01*
G01X-9182968Y-4902177D01*
G01X-9200282Y-4895350D01*
G01X-9218661Y-4892416D01*
G01X-9237241Y-4893514D01*
G01X-9198595Y-4854869D01*
G01X-9191525Y-4845896D01*
G01X-9186749Y-4835519D01*
G01X-9176660Y-4823037D01*
G01X-9169866Y-4808496D01*
G01X-8875131Y-5103231D01*
G01X-8864607Y-5111306D01*
G01X-8852352Y-5116383D01*
G01X-8839200Y-5118114D01*
G01X-5903822Y-5118114D01*
G01X-5915817Y-5134569D01*
G01X-5924745Y-5152871D01*
G01X-5930330Y-5172454D01*
G01X-5932398Y-5192712D01*
G01X-5930886Y-5213019D01*
G01X-5925841Y-5232748D01*
G01X-5917418Y-5251288D01*
G01X-5905878Y-5268066D01*
G01X-5891578Y-5282563D01*
G01X-5874960Y-5294332D01*
G01X-5856537Y-5303008D01*
G01X-5836880Y-5308324D01*
G01X-5816595Y-5310114D01*
G01X-5796310Y-5308324D01*
G01X-5776653Y-5303008D01*
G01X-5758230Y-5294332D01*
G01X-5741612Y-5282563D01*
G01X-5727312Y-5268066D01*
G01X-5715772Y-5251288D01*
G01X-5707349Y-5232748D01*
G01X-5702304Y-5213019D01*
G01X-5700792Y-5192712D01*
G01X-5702860Y-5172454D01*
G01X-5708445Y-5152871D01*
G01X-5717373Y-5134569D01*
G01X-5729368Y-5118114D01*
G01X-5715000Y-5118114D01*
G01X-5701848Y-5116383D01*
G01X-5689593Y-5111306D01*
G01X-5679069Y-5103231D01*
G01X-5590169Y-5014331D01*
G01X-5582094Y-5003807D01*
G01X-5577017Y-4991552D01*
G01X-5575286Y-4978400D01*
G01X-5575286Y-4646181D01*
G01X-5521730Y-4646181D01*
G01X-5519895Y-4667160D01*
G01X-5514444Y-4687501D01*
G01X-5505544Y-4706588D01*
G01X-5493465Y-4723838D01*
G01X-5478574Y-4738729D01*
G01X-5461323Y-4750809D01*
G01X-5442237Y-4759709D01*
G01X-5421895Y-4765159D01*
G01X-5400916Y-4766995D01*
G01X-5379937Y-4765159D01*
G01X-5359596Y-4759709D01*
G01X-5340509Y-4750809D01*
G01X-5323259Y-4738729D01*
G01X-5308368Y-4723838D01*
G01X-5296288Y-4706588D01*
G01X-5287388Y-4687501D01*
G01X-5281938Y-4667160D01*
G01X-5280102Y-4646181D01*
G01X-5281938Y-4625202D01*
G01X-5287388Y-4604860D01*
G01X-5296288Y-4585774D01*
G01X-5308368Y-4568523D01*
G01X-5323259Y-4553632D01*
G01X-5340509Y-4541553D01*
G01X-5359596Y-4532653D01*
G01X-5379937Y-4527202D01*
G01X-5400916Y-4525367D01*
G01X-5400916Y-4525367D01*
G01X-5421895Y-4527202D01*
G01X-5442237Y-4532653D01*
G01X-5461323Y-4541553D01*
G01X-5478574Y-4553632D01*
G01X-5493465Y-4568523D01*
G01X-5505544Y-4585774D01*
G01X-5514444Y-4604860D01*
G01X-5519895Y-4625202D01*
G01X-5521730Y-4646181D01*
G01X-5575286Y-4646181D01*
G01X-5575286Y-4533900D01*
G01X-5577017Y-4520748D01*
G01X-5582094Y-4508493D01*
G01X-5590169Y-4497969D01*
G01X-5691769Y-4396369D01*
G01X-5697039Y-4392181D01*
G01X-5521730Y-4392181D01*
G01X-5519895Y-4413160D01*
G01X-5514444Y-4433501D01*
G01X-5505544Y-4452588D01*
G01X-5493465Y-4469838D01*
G01X-5478574Y-4484729D01*
G01X-5461323Y-4496809D01*
G01X-5442237Y-4505709D01*
G01X-5421895Y-4511159D01*
G01X-5400916Y-4512995D01*
G01X-5379937Y-4511159D01*
G01X-5359596Y-4505709D01*
G01X-5340509Y-4496809D01*
G01X-5323259Y-4484729D01*
G01X-5308368Y-4469838D01*
G01X-5296288Y-4452588D01*
G01X-5287388Y-4433501D01*
G01X-5281938Y-4413160D01*
G01X-5280102Y-4392181D01*
G01X-5281938Y-4371202D01*
G01X-5287388Y-4350860D01*
G01X-5296288Y-4331774D01*
G01X-5308368Y-4314523D01*
G01X-5323259Y-4299632D01*
G01X-5340509Y-4287553D01*
G01X-5359596Y-4278653D01*
G01X-5379937Y-4273202D01*
G01X-5400916Y-4271367D01*
G01X-5400916Y-4271367D01*
G01X-5421895Y-4273202D01*
G01X-5442237Y-4278653D01*
G01X-5461323Y-4287553D01*
G01X-5478574Y-4299632D01*
G01X-5493465Y-4314523D01*
G01X-5505544Y-4331774D01*
G01X-5514444Y-4350860D01*
G01X-5519895Y-4371202D01*
G01X-5521730Y-4392181D01*
G01X-5697039Y-4392181D01*
G01X-5700805Y-4389187D01*
G01X-5711228Y-4384230D01*
G01X-5721854Y-4365689D01*
G01X-5735706Y-4349416D01*
G01X-5752312Y-4335965D01*
G01X-5771106Y-4325794D01*
G01X-5791450Y-4319249D01*
G01X-5812649Y-4316553D01*
G01X-5833983Y-4317799D01*
G01X-5854725Y-4322943D01*
G01X-5874168Y-4331810D01*
G01X-5891651Y-4344099D01*
G01X-5906579Y-4359391D01*
G01X-5918443Y-4377166D01*
G01X-5926839Y-4396817D01*
G01X-5931482Y-4417677D01*
G01X-5932213Y-4439035D01*
G01X-5929007Y-4460163D01*
G01X-5921974Y-4480343D01*
G01X-5911353Y-4498887D01*
G01X-5897505Y-4515163D01*
G01X-5880903Y-4528619D01*
G01X-5862111Y-4538795D01*
G01X-5841770Y-4545345D01*
G01X-5820571Y-4548046D01*
G01X-5799237Y-4546806D01*
G01X-5778494Y-4541667D01*
G01X-5759048Y-4532805D01*
G01X-5741561Y-4520520D01*
G01X-5726630Y-4505232D01*
G01X-5676914Y-4554948D01*
G01X-5676914Y-4957352D01*
G01X-5714456Y-4994895D01*
G01X-5706552Y-4976402D01*
G01X-5701966Y-4956821D01*
G01X-5700836Y-4936742D01*
G01X-5703197Y-4916770D01*
G01X-5708977Y-4897508D01*
G01X-5718002Y-4879536D01*
G01X-5730000Y-4863396D01*
G01X-5744610Y-4849575D01*
G01X-5761390Y-4838490D01*
G01X-5779834Y-4830475D01*
G01X-5799387Y-4825772D01*
G01X-5819460Y-4824522D01*
G01X-5839445Y-4826763D01*
G01X-5858742Y-4832427D01*
G01X-5876768Y-4841345D01*
G01X-5892979Y-4853246D01*
G01X-5906887Y-4867773D01*
G01X-5918072Y-4884486D01*
G01X-7609581Y-4884486D01*
G01X-7789143Y-4704924D01*
G01X-7584449Y-4704924D01*
G01X-7581062Y-4720704D01*
G01X-7573963Y-4735198D01*
G01X-7563573Y-4747549D01*
G01X-7550507Y-4757023D01*
G01X-7535539Y-4763061D01*
G01X-7519556Y-4765304D01*
G01X-7503505Y-4763620D01*
G01X-7488336Y-4758108D01*
G01X-7474948Y-4749094D01*
G01X-7464133Y-4737114D01*
G01X-5920666Y-4737114D01*
G01X-5909945Y-4754846D01*
G01X-5896236Y-4770384D01*
G01X-5879977Y-4783231D01*
G01X-5861689Y-4792974D01*
G01X-5841958Y-4799302D01*
G01X-5821415Y-4802013D01*
G01X-5800718Y-4801020D01*
G01X-5780528Y-4796355D01*
G01X-5761494Y-4788166D01*
G01X-5744223Y-4776716D01*
G01X-5729269Y-4762372D01*
G01X-5717110Y-4745593D01*
G01X-5708137Y-4726916D01*
G01X-5702635Y-4706938D01*
G01X-5700781Y-4686300D01*
G01X-5702635Y-4665662D01*
G01X-5708137Y-4645684D01*
G01X-5717110Y-4627007D01*
G01X-5729269Y-4610228D01*
G01X-5744223Y-4595884D01*
G01X-5761494Y-4584434D01*
G01X-5780528Y-4576245D01*
G01X-5800718Y-4571580D01*
G01X-5821415Y-4570587D01*
G01X-5841958Y-4573298D01*
G01X-5861689Y-4579626D01*
G01X-5879977Y-4589369D01*
G01X-5896236Y-4602216D01*
G01X-5909945Y-4617754D01*
G01X-5920666Y-4635486D01*
G01X-7499334Y-4635486D01*
G01X-7499334Y-4635486D01*
G01X-7515241Y-4632761D01*
G01X-7531336Y-4633960D01*
G01X-7546665Y-4639011D01*
G01X-7560319Y-4647616D01*
G01X-7571491Y-4659264D01*
G01X-7579517Y-4673266D01*
G01X-7583924Y-4688793D01*
G01X-7584449Y-4704924D01*
G01X-7789143Y-4704924D01*
G01X-8706876Y-3787191D01*
G01X-8691333Y-3784010D01*
G01X-8676991Y-3777228D01*
G01X-8664670Y-3767233D01*
G01X-8655076Y-3754599D01*
G01X-8648757Y-3740046D01*
G01X-8646076Y-3724410D01*
G01X-8647185Y-3708584D01*
G01X-8652021Y-3693474D01*
G01X-8660308Y-3679946D01*
G01X-8671571Y-3668773D01*
G01X-8685166Y-3660595D01*
G01X-6260838Y-3660595D01*
G01X-6084666Y-3836766D01*
G01X-6073107Y-3845636D01*
G01X-6059646Y-3851212D01*
G01X-6045200Y-3853114D01*
G01X-5907948Y-3853114D01*
G01X-5919540Y-3871242D01*
G01X-5927578Y-3891202D01*
G01X-5931786Y-3912304D01*
G01X-5932017Y-3933820D01*
G01X-5928263Y-3955008D01*
G01X-5920655Y-3975136D01*
G01X-5909455Y-3993508D01*
G01X-5895050Y-4009492D01*
G01X-5877936Y-4022535D01*
G01X-5858704Y-4032187D01*
G01X-5838019Y-4038115D01*
G01X-5816595Y-4040114D01*
G01X-5795170Y-4038115D01*
G01X-5774485Y-4032187D01*
G01X-5755254Y-4022535D01*
G01X-5738140Y-4009492D01*
G01X-5723735Y-3993508D01*
G01X-5712534Y-3975136D01*
G01X-5704926Y-3955008D01*
G01X-5701173Y-3933820D01*
G01X-5701404Y-3912304D01*
G01X-5705611Y-3891202D01*
G01X-5713650Y-3871242D01*
G01X-5725242Y-3853114D01*
G01X-5523616Y-3853114D01*
G01X-5518836Y-3857894D01*
G01X-5521606Y-3878712D01*
G01X-5520730Y-3899696D01*
G01X-5516233Y-3920210D01*
G01X-5508251Y-3939636D01*
G01X-5497025Y-3957386D01*
G01X-5651495Y-3957386D01*
G01X-5665941Y-3959288D01*
G01X-5679402Y-3964864D01*
G01X-5690961Y-3973734D01*
G01X-5784306Y-4067078D01*
G01X-5804269Y-4063144D01*
G01X-5824613Y-4062764D01*
G01X-5844709Y-4065950D01*
G01X-5863938Y-4072605D01*
G01X-5881705Y-4082521D01*
G01X-5897462Y-4095394D01*
G01X-5910723Y-4110826D01*
G01X-5921079Y-4128341D01*
G01X-5928210Y-4147398D01*
G01X-5931895Y-4167409D01*
G01X-5932022Y-4187755D01*
G01X-5928586Y-4207810D01*
G01X-5921693Y-4226955D01*
G01X-5911556Y-4244597D01*
G01X-5898488Y-4260193D01*
G01X-5882892Y-4273261D01*
G01X-5865249Y-4283398D01*
G01X-5846105Y-4290291D01*
G01X-5826050Y-4293727D01*
G01X-5805704Y-4293601D01*
G01X-5785693Y-4289915D01*
G01X-5766636Y-4282784D01*
G01X-5749121Y-4272428D01*
G01X-5733689Y-4259167D01*
G01X-5720816Y-4243410D01*
G01X-5710900Y-4225643D01*
G01X-5704245Y-4206414D01*
G01X-5701059Y-4186318D01*
G01X-5701439Y-4165974D01*
G01X-5705373Y-4146011D01*
G01X-5628376Y-4069014D01*
G01X-5499972Y-4069014D01*
G01X-5510839Y-4088052D01*
G01X-5518088Y-4108740D01*
G01X-5521479Y-4130397D01*
G01X-5520901Y-4152311D01*
G01X-5516373Y-4173759D01*
G01X-5508043Y-4194036D01*
G01X-5496187Y-4212474D01*
G01X-5481194Y-4228467D01*
G01X-5463558Y-4241486D01*
G01X-5443859Y-4251105D01*
G01X-5422747Y-4257006D01*
G01X-5400916Y-4258995D01*
G01X-5379085Y-4257006D01*
G01X-5357973Y-4251105D01*
G01X-5338275Y-4241486D01*
G01X-5320639Y-4228467D01*
G01X-5305646Y-4212474D01*
G01X-5293790Y-4194036D01*
G01X-5285460Y-4173759D01*
G01X-5280932Y-4152311D01*
G01X-5280353Y-4130397D01*
G01X-5283745Y-4108740D01*
G01X-5290993Y-4088052D01*
G01X-5301861Y-4069014D01*
G01X-5207000Y-4069014D01*
G01X-5192554Y-4067112D01*
G01X-5179093Y-4061536D01*
G01X-5167534Y-4052666D01*
G01X-4913534Y-3798666D01*
G01X-4904664Y-3787107D01*
G01X-4899088Y-3773646D01*
G01X-4897186Y-3759200D01*
G01X-4897186Y-3530600D01*
G01X-4899088Y-3516154D01*
G01X-4904664Y-3502693D01*
G01X-4913534Y-3491134D01*
G01X-5067953Y-3336714D01*
G01X-5079512Y-3327844D01*
G01X-5092974Y-3322269D01*
G01X-5107419Y-3320367D01*
G01X-5293768Y-3320367D01*
G01X-5305083Y-3302615D01*
G01X-5319307Y-3287097D01*
G01X-5336010Y-3274283D01*
G01X-5354683Y-3264563D01*
G01X-5374760Y-3258232D01*
G01X-5395631Y-3255483D01*
G01X-5416662Y-3256397D01*
G01X-5437215Y-3260949D01*
G01X-5544886Y-3153278D01*
G01X-5544886Y-3122181D01*
G01X-5521730Y-3122181D01*
G01X-5519895Y-3143160D01*
G01X-5514444Y-3163501D01*
G01X-5505544Y-3182588D01*
G01X-5493465Y-3199838D01*
G01X-5478574Y-3214729D01*
G01X-5461323Y-3226809D01*
G01X-5442237Y-3235709D01*
G01X-5421895Y-3241159D01*
G01X-5400916Y-3242995D01*
G01X-5379937Y-3241159D01*
G01X-5359596Y-3235709D01*
G01X-5340509Y-3226809D01*
G01X-5323259Y-3214729D01*
G01X-5308368Y-3199838D01*
G01X-5296288Y-3182588D01*
G01X-5287388Y-3163501D01*
G01X-5281938Y-3143160D01*
G01X-5280102Y-3122181D01*
G01X-5281938Y-3101202D01*
G01X-5287388Y-3080860D01*
G01X-5296288Y-3061774D01*
G01X-5308368Y-3044523D01*
G01X-5323259Y-3029632D01*
G01X-5340509Y-3017553D01*
G01X-5359596Y-3008653D01*
G01X-5379937Y-3003202D01*
G01X-5400916Y-3001367D01*
G01X-5400916Y-3001367D01*
G01X-5421895Y-3003202D01*
G01X-5442237Y-3008653D01*
G01X-5461323Y-3017553D01*
G01X-5478574Y-3029632D01*
G01X-5493465Y-3044523D01*
G01X-5505544Y-3061774D01*
G01X-5514444Y-3080860D01*
G01X-5519895Y-3101202D01*
G01X-5521730Y-3122181D01*
G01X-5544886Y-3122181D01*
G01X-5544886Y-2984500D01*
G01X-4790714Y-2984500D01*
G01X-4788787Y-3000370D01*
G01X-4783118Y-3015318D01*
G01X-4774037Y-3028474D01*
G01X-4762071Y-3039075D01*
G01X-4747915Y-3046505D01*
G01X-4732393Y-3050331D01*
G01X-4716407Y-3050331D01*
G01X-4700885Y-3046505D01*
G01X-4686729Y-3039075D01*
G01X-4674763Y-3028474D01*
G01X-4665682Y-3015318D01*
G01X-4660013Y-3000370D01*
G01X-4658086Y-2984500D01*
G01X-4660013Y-2968630D01*
G01X-4665682Y-2953682D01*
G01X-4674763Y-2940526D01*
G01X-4686729Y-2929925D01*
G01X-4700885Y-2922495D01*
G01X-4716407Y-2918669D01*
G01X-4732393Y-2918669D01*
G01X-4747915Y-2922495D01*
G01X-4762071Y-2929925D01*
G01X-4774037Y-2940526D01*
G01X-4783118Y-2953682D01*
G01X-4788787Y-2968630D01*
G01X-4790714Y-2984500D01*
G01X-4790714Y-2984500D01*
G01X-5544886Y-2984500D01*
G01X-5544886Y-2946921D01*
G01X-5521730Y-2946921D01*
G01X-5519977Y-2957988D01*
G01X-5514890Y-2967972D01*
G01X-5506967Y-2975895D01*
G01X-5496983Y-2980982D01*
G01X-5485916Y-2982735D01*
G01X-5315916Y-2982735D01*
G01X-5304849Y-2980982D01*
G01X-5294866Y-2975895D01*
G01X-5286942Y-2967972D01*
G01X-5281855Y-2957988D01*
G01X-5280102Y-2946921D01*
G01X-5280102Y-2789441D01*
G01X-5281855Y-2778374D01*
G01X-5286942Y-2768390D01*
G01X-5294866Y-2760467D01*
G01X-5304849Y-2755380D01*
G01X-5315916Y-2753627D01*
G01X-5485916Y-2753627D01*
G01X-5496983Y-2755380D01*
G01X-5506967Y-2760467D01*
G01X-5514890Y-2768390D01*
G01X-5519977Y-2778374D01*
G01X-5521730Y-2789441D01*
G01X-5521730Y-2946921D01*
G01X-5521730Y-2946921D01*
G01X-5544886Y-2946921D01*
G01X-5544886Y-2870195D01*
G01X-5546788Y-2855749D01*
G01X-5552364Y-2842288D01*
G01X-5561234Y-2830728D01*
G01X-5705373Y-2686589D01*
G01X-5703955Y-2679700D01*
G01X-5184414Y-2679700D01*
G01X-5182487Y-2695570D01*
G01X-5176818Y-2710518D01*
G01X-5167737Y-2723674D01*
G01X-5155771Y-2734275D01*
G01X-5141615Y-2741705D01*
G01X-5126093Y-2745531D01*
G01X-5110107Y-2745531D01*
G01X-5094585Y-2741705D01*
G01X-5080429Y-2734275D01*
G01X-5068463Y-2723674D01*
G01X-5059382Y-2710518D01*
G01X-5053713Y-2695570D01*
G01X-5051786Y-2679700D01*
G01X-5053713Y-2663830D01*
G01X-5059382Y-2648882D01*
G01X-5068463Y-2635726D01*
G01X-5080429Y-2625125D01*
G01X-5094585Y-2617695D01*
G01X-5110107Y-2613869D01*
G01X-5126093Y-2613869D01*
G01X-5141615Y-2617695D01*
G01X-5155771Y-2625125D01*
G01X-5167737Y-2635726D01*
G01X-5176818Y-2648882D01*
G01X-5182487Y-2663830D01*
G01X-5184414Y-2679700D01*
G01X-5184414Y-2679700D01*
G01X-5703955Y-2679700D01*
G01X-5701665Y-2668580D01*
G01X-5700853Y-2650211D01*
G01X-5702959Y-2631945D01*
G01X-5707929Y-2614243D01*
G01X-5620986Y-2527300D01*
G01X-5527314Y-2527300D01*
G01X-5525387Y-2543170D01*
G01X-5519718Y-2558118D01*
G01X-5510637Y-2571274D01*
G01X-5498671Y-2581875D01*
G01X-5484515Y-2589305D01*
G01X-5468993Y-2593131D01*
G01X-5453007Y-2593131D01*
G01X-5437485Y-2589305D01*
G01X-5423329Y-2581875D01*
G01X-5411363Y-2571274D01*
G01X-5402282Y-2558118D01*
G01X-5396613Y-2543170D01*
G01X-5394686Y-2527300D01*
G01X-5396613Y-2511430D01*
G01X-5402282Y-2496482D01*
G01X-5411363Y-2483326D01*
G01X-5423329Y-2472725D01*
G01X-5437485Y-2465295D01*
G01X-5453007Y-2461469D01*
G01X-5468993Y-2461469D01*
G01X-5484515Y-2465295D01*
G01X-5498671Y-2472725D01*
G01X-5510637Y-2483326D01*
G01X-5519718Y-2496482D01*
G01X-5525387Y-2511430D01*
G01X-5527314Y-2527300D01*
G01X-5527314Y-2527300D01*
G01X-5620986Y-2527300D01*
G01X-5540995Y-2447310D01*
G01X-5533286Y-2437262D01*
G01X-5528439Y-2425561D01*
G01X-5526786Y-2413005D01*
G01X-5526786Y-1544841D01*
G01X-5382030Y-1544841D01*
G01X-5382030Y-1702321D01*
G01X-5380277Y-1713388D01*
G01X-5375190Y-1723372D01*
G01X-5367267Y-1731295D01*
G01X-5357283Y-1736382D01*
G01X-5346216Y-1738135D01*
G01X-5176216Y-1738135D01*
G01X-5165149Y-1736382D01*
G01X-5155166Y-1731295D01*
G01X-5147242Y-1723372D01*
G01X-5142155Y-1713388D01*
G01X-5140402Y-1702321D01*
G01X-5140402Y-1544841D01*
G01X-5140402Y-1544841D01*
G01X-5142155Y-1533774D01*
G01X-5147242Y-1523790D01*
G01X-5155166Y-1515867D01*
G01X-5165149Y-1510780D01*
G01X-5176216Y-1509027D01*
G01X-5346216Y-1509027D01*
G01X-5357283Y-1510780D01*
G01X-5367267Y-1515867D01*
G01X-5375190Y-1523790D01*
G01X-5380277Y-1533774D01*
G01X-5382030Y-1544841D01*
G01X-5526786Y-1544841D01*
G01X-5526786Y-1449760D01*
G01X-5446607Y-1369581D01*
G01X-5382030Y-1369581D01*
G01X-5380195Y-1390560D01*
G01X-5374744Y-1410901D01*
G01X-5365844Y-1429988D01*
G01X-5353765Y-1447238D01*
G01X-5338874Y-1462129D01*
G01X-5321623Y-1474209D01*
G01X-5302537Y-1483109D01*
G01X-5282195Y-1488559D01*
G01X-5261216Y-1490395D01*
G01X-5261216Y-1490395D01*
G01X-5240237Y-1488559D01*
G01X-5219896Y-1483109D01*
G01X-5200809Y-1474209D01*
G01X-5183559Y-1462129D01*
G01X-5168668Y-1447238D01*
G01X-5156588Y-1429988D01*
G01X-5147688Y-1410901D01*
G01X-5142238Y-1390560D01*
G01X-5140402Y-1369581D01*
G01X-5142238Y-1348602D01*
G01X-5147688Y-1328260D01*
G01X-5156588Y-1309174D01*
G01X-5168668Y-1291923D01*
G01X-5183559Y-1277032D01*
G01X-5200809Y-1264953D01*
G01X-5219896Y-1256053D01*
G01X-5240237Y-1250602D01*
G01X-5261216Y-1248767D01*
G01X-5282195Y-1250602D01*
G01X-5302537Y-1256053D01*
G01X-5321623Y-1264953D01*
G01X-5338874Y-1277032D01*
G01X-5353765Y-1291923D01*
G01X-5365844Y-1309174D01*
G01X-5374744Y-1328260D01*
G01X-5380195Y-1348602D01*
G01X-5382030Y-1369581D01*
G01X-5446607Y-1369581D01*
G01X-5305150Y-1228123D01*
G01X-5284067Y-1234214D01*
G01X-5262231Y-1236390D01*
G01X-5240361Y-1234581D01*
G01X-5219179Y-1228845D01*
G01X-5199384Y-1219372D01*
G01X-5181629Y-1206475D01*
G01X-5166500Y-1190579D01*
G01X-5154496Y-1172209D01*
G01X-5146013Y-1151970D01*
G01X-5141331Y-1130530D01*
G01X-5140604Y-1108598D01*
G01X-5143857Y-1086895D01*
G01X-5150982Y-1066139D01*
G01X-5161744Y-1047015D01*
G01X-5175788Y-1030152D01*
G01X-5192650Y-1016109D01*
G01X-5211775Y-1005347D01*
G01X-5232531Y-998222D01*
G01X-5254233Y-994969D01*
G01X-5276166Y-995695D01*
G01X-5297605Y-1000377D01*
G01X-5317844Y-1008860D01*
G01X-5336215Y-1020864D01*
G01X-5352111Y-1035993D01*
G01X-5365008Y-1053748D01*
G01X-5374481Y-1073543D01*
G01X-5380216Y-1094725D01*
G01X-5382026Y-1116595D01*
G01X-5379849Y-1138432D01*
G01X-5373759Y-1159514D01*
G01X-5609605Y-1395360D01*
G01X-5617314Y-1405407D01*
G01X-5622161Y-1417108D01*
G01X-5623814Y-1429664D01*
G01X-5623814Y-2392910D01*
G01X-5776538Y-2545634D01*
G01X-5795693Y-2540388D01*
G01X-5815463Y-2538492D01*
G01X-5835265Y-2540001D01*
G01X-5854519Y-2544872D01*
G01X-5872658Y-2552960D01*
G01X-5889148Y-2564029D01*
G01X-5903504Y-2577752D01*
G01X-5915305Y-2593726D01*
G01X-5924203Y-2611482D01*
G01X-5929936Y-2630496D01*
G01X-5932337Y-2650211D01*
G01X-5931333Y-2670046D01*
G01X-5926956Y-2689418D01*
G01X-5919333Y-2707757D01*
G01X-5908689Y-2724524D01*
G01X-5895337Y-2739227D01*
G01X-5879669Y-2751431D01*
G01X-5862147Y-2760779D01*
G01X-5843285Y-2766997D01*
G01X-5823638Y-2769900D01*
G01X-5803783Y-2769403D01*
G01X-5784306Y-2765522D01*
G01X-5656514Y-2893314D01*
G01X-5656514Y-2996519D01*
G01X-5707075Y-2945958D01*
G01X-5702006Y-2925099D01*
G01X-5700874Y-2903662D01*
G01X-5703718Y-2882385D01*
G01X-5710440Y-2861998D01*
G01X-5720808Y-2843202D01*
G01X-5734468Y-2826642D01*
G01X-5750949Y-2812888D01*
G01X-5769686Y-2802411D01*
G01X-5790034Y-2795573D01*
G01X-5811295Y-2792607D01*
G01X-5832738Y-2793617D01*
G01X-5853626Y-2798566D01*
G01X-5873242Y-2807285D01*
G01X-5890912Y-2819475D01*
G01X-5906028Y-2834717D01*
G01X-5918072Y-2852486D01*
G01X-6273800Y-2852486D01*
G01X-6287472Y-2854186D01*
G01X-6284121Y-2839680D01*
G01X-6284090Y-2824791D01*
G01X-6287382Y-2810271D01*
G01X-6293830Y-2796851D01*
G01X-6303110Y-2785208D01*
G01X-6314754Y-2775928D01*
G01X-6328174Y-2769481D01*
G01X-6342694Y-2766190D01*
G01X-6357583Y-2766221D01*
G01X-5980976Y-2389614D01*
G01X-5931915Y-2389614D01*
G01X-5931915Y-2410986D01*
G01X-5927988Y-2431994D01*
G01X-5920267Y-2451923D01*
G01X-5909016Y-2470093D01*
G01X-5894618Y-2485887D01*
G01X-5877563Y-2498767D01*
G01X-5858432Y-2508293D01*
G01X-5837876Y-2514142D01*
G01X-5816595Y-2516114D01*
G01X-5816595Y-2516114D01*
G01X-5795314Y-2514142D01*
G01X-5774758Y-2508293D01*
G01X-5755627Y-2498767D01*
G01X-5738572Y-2485887D01*
G01X-5724173Y-2470093D01*
G01X-5712923Y-2451923D01*
G01X-5705202Y-2431994D01*
G01X-5701275Y-2410986D01*
G01X-5701275Y-2389614D01*
G01X-5705202Y-2368606D01*
G01X-5712923Y-2348677D01*
G01X-5724173Y-2330507D01*
G01X-5738572Y-2314713D01*
G01X-5755627Y-2301833D01*
G01X-5774758Y-2292307D01*
G01X-5795314Y-2286458D01*
G01X-5816595Y-2284486D01*
G01X-5837876Y-2286458D01*
G01X-5858432Y-2292307D01*
G01X-5877563Y-2301833D01*
G01X-5894618Y-2314713D01*
G01X-5909016Y-2330507D01*
G01X-5920267Y-2348677D01*
G01X-5927988Y-2368606D01*
G01X-5931915Y-2389614D01*
G01X-5980976Y-2389614D01*
G01X-5848884Y-2257522D01*
G01X-5828921Y-2261456D01*
G01X-5808577Y-2261836D01*
G01X-5788481Y-2258650D01*
G01X-5769252Y-2251995D01*
G01X-5751485Y-2242079D01*
G01X-5735728Y-2229206D01*
G01X-5722467Y-2213774D01*
G01X-5712111Y-2196259D01*
G01X-5704980Y-2177202D01*
G01X-5701294Y-2157191D01*
G01X-5701168Y-2136845D01*
G01X-5704604Y-2116790D01*
G01X-5711497Y-2097645D01*
G01X-5721634Y-2080003D01*
G01X-5734702Y-2064407D01*
G01X-5750298Y-2051339D01*
G01X-5767940Y-2041202D01*
G01X-5787084Y-2034309D01*
G01X-5807139Y-2030873D01*
G01X-5827486Y-2030999D01*
G01X-5847497Y-2034685D01*
G01X-5866554Y-2041816D01*
G01X-5884069Y-2052172D01*
G01X-5899501Y-2065433D01*
G01X-5912374Y-2081190D01*
G01X-5922290Y-2098957D01*
G01X-5928945Y-2118186D01*
G01X-5932131Y-2138282D01*
G01X-5931751Y-2158626D01*
G01X-5927817Y-2178589D01*
G01X-6487414Y-2738186D01*
G01X-8915400Y-2738186D01*
G01X-8929846Y-2740088D01*
G01X-8943307Y-2745664D01*
G01X-8954866Y-2754534D01*
G01X-9101600Y-2901267D01*
G01X-9206992Y-2901267D01*
G01X-9216881Y-2893581D01*
G01X-9209048Y-2887718D01*
G01X-9202036Y-2880895D01*
G01X-9180081Y-2880895D01*
G01X-9166929Y-2879163D01*
G01X-9154674Y-2874087D01*
G01X-9144150Y-2866012D01*
G01X-8983252Y-2705114D01*
G01X-6642100Y-2705114D01*
G01X-6628948Y-2703383D01*
G01X-6616693Y-2698306D01*
G01X-6606169Y-2690231D01*
G01X-5817148Y-1901210D01*
G01X-5802439Y-1898212D01*
G01X-5788780Y-1891983D01*
G01X-5776873Y-1882841D01*
G01X-5767327Y-1871256D01*
G01X-5760631Y-1857820D01*
G01X-5757129Y-1843223D01*
G01X-5757000Y-1828212D01*
G01X-5760250Y-1813556D01*
G01X-5766714Y-1800007D01*
G01X-5776059Y-1788259D01*
G01X-5787807Y-1778914D01*
G01X-5801356Y-1772450D01*
G01X-5816012Y-1769200D01*
G01X-5831023Y-1769329D01*
G01X-5845620Y-1772831D01*
G01X-5859056Y-1779527D01*
G01X-5870641Y-1789073D01*
G01X-5879783Y-1800980D01*
G01X-5886012Y-1814639D01*
G01X-5889010Y-1829348D01*
G01X-6663148Y-2603486D01*
G01X-9004300Y-2603486D01*
G01X-9017452Y-2605217D01*
G01X-9029707Y-2610294D01*
G01X-9040231Y-2618369D01*
G01X-9201129Y-2779267D01*
G01X-9202036Y-2779267D01*
G01X-9209048Y-2772444D01*
G01X-9216881Y-2766581D01*
G01X-9204622Y-2756619D01*
G01X-9194692Y-2744334D01*
G01X-9187524Y-2730257D01*
G01X-9183429Y-2715001D01*
G01X-9182584Y-2699227D01*
G01X-8997971Y-2514614D01*
G01X-6807200Y-2514614D01*
G01X-6794048Y-2512883D01*
G01X-6781793Y-2507806D01*
G01X-6771269Y-2499731D01*
G01X-5933069Y-1661531D01*
G01X-5924994Y-1651007D01*
G01X-5919917Y-1638752D01*
G01X-5918186Y-1625600D01*
G01X-5918186Y-861581D01*
G01X-5382030Y-861581D01*
G01X-5380195Y-882560D01*
G01X-5374744Y-902901D01*
G01X-5365844Y-921988D01*
G01X-5353765Y-939238D01*
G01X-5338874Y-954129D01*
G01X-5321623Y-966209D01*
G01X-5302537Y-975109D01*
G01X-5282195Y-980559D01*
G01X-5261216Y-982395D01*
G01X-5261216Y-982395D01*
G01X-5240237Y-980559D01*
G01X-5219896Y-975109D01*
G01X-5200809Y-966209D01*
G01X-5183559Y-954129D01*
G01X-5168668Y-939238D01*
G01X-5156588Y-921988D01*
G01X-5147688Y-902901D01*
G01X-5142238Y-882560D01*
G01X-5140402Y-861581D01*
G01X-5142238Y-840602D01*
G01X-5147688Y-820260D01*
G01X-5156588Y-801174D01*
G01X-5168668Y-783923D01*
G01X-5183559Y-769032D01*
G01X-5200809Y-756953D01*
G01X-5219896Y-748053D01*
G01X-5240237Y-742602D01*
G01X-5261216Y-740767D01*
G01X-5282195Y-742602D01*
G01X-5302537Y-748053D01*
G01X-5321623Y-756953D01*
G01X-5338874Y-769032D01*
G01X-5353765Y-783923D01*
G01X-5365844Y-801174D01*
G01X-5374744Y-820260D01*
G01X-5380195Y-840602D01*
G01X-5382030Y-861581D01*
G01X-5918186Y-861581D01*
G01X-5918186Y-828412D01*
G01X-5697354Y-607581D01*
G01X-5382030Y-607581D01*
G01X-5380195Y-628560D01*
G01X-5374744Y-648901D01*
G01X-5365844Y-667988D01*
G01X-5353765Y-685238D01*
G01X-5338874Y-700129D01*
G01X-5321623Y-712209D01*
G01X-5302537Y-721109D01*
G01X-5282195Y-726559D01*
G01X-5261216Y-728395D01*
G01X-5261216Y-728395D01*
G01X-5240237Y-726559D01*
G01X-5219896Y-721109D01*
G01X-5200809Y-712209D01*
G01X-5183559Y-700129D01*
G01X-5168668Y-685238D01*
G01X-5156588Y-667988D01*
G01X-5147688Y-648901D01*
G01X-5142238Y-628560D01*
G01X-5140402Y-607581D01*
G01X-5142238Y-586602D01*
G01X-5147688Y-566260D01*
G01X-5156588Y-547174D01*
G01X-5168668Y-529923D01*
G01X-5183559Y-515032D01*
G01X-5200809Y-502953D01*
G01X-5219896Y-494053D01*
G01X-5240237Y-488602D01*
G01X-5261216Y-486767D01*
G01X-5282195Y-488602D01*
G01X-5302537Y-494053D01*
G01X-5321623Y-502953D01*
G01X-5338874Y-515032D01*
G01X-5353765Y-529923D01*
G01X-5365844Y-547174D01*
G01X-5374744Y-566260D01*
G01X-5380195Y-586602D01*
G01X-5382030Y-607581D01*
G01X-5697354Y-607581D01*
G01X-5443354Y-353581D01*
G01X-5382030Y-353581D01*
G01X-5380195Y-374560D01*
G01X-5374744Y-394901D01*
G01X-5365844Y-413988D01*
G01X-5353765Y-431238D01*
G01X-5338874Y-446129D01*
G01X-5321623Y-458209D01*
G01X-5302537Y-467109D01*
G01X-5282195Y-472559D01*
G01X-5261216Y-474395D01*
G01X-5261216Y-474395D01*
G01X-5240237Y-472559D01*
G01X-5219896Y-467109D01*
G01X-5200809Y-458209D01*
G01X-5183559Y-446129D01*
G01X-5168668Y-431238D01*
G01X-5156588Y-413988D01*
G01X-5147688Y-394901D01*
G01X-5142238Y-374560D01*
G01X-5140402Y-353581D01*
G01X-5142238Y-332602D01*
G01X-5147688Y-312260D01*
G01X-5156588Y-293174D01*
G01X-5168668Y-275923D01*
G01X-5183559Y-261032D01*
G01X-5200809Y-248953D01*
G01X-5219896Y-240053D01*
G01X-5240237Y-234602D01*
G01X-5261216Y-232767D01*
G01X-5282195Y-234602D01*
G01X-5302537Y-240053D01*
G01X-5321623Y-248953D01*
G01X-5338874Y-261032D01*
G01X-5353765Y-275923D01*
G01X-5365844Y-293174D01*
G01X-5374744Y-312260D01*
G01X-5380195Y-332602D01*
G01X-5382030Y-353581D01*
G01X-5443354Y-353581D01*
G01X-5302790Y-213016D01*
G01X-5281751Y-218637D01*
G01X-5260044Y-220389D01*
G01X-5238375Y-218216D01*
G01X-5217449Y-212188D01*
G01X-5197945Y-202501D01*
G01X-5180496Y-189471D01*
G01X-5165670Y-173520D01*
G01X-5153949Y-155166D01*
G01X-5145713Y-135006D01*
G01X-5141230Y-113695D01*
G01X-5140645Y-91926D01*
G01X-5143978Y-70405D01*
G01X-5151120Y-49833D01*
G01X-5161840Y-30876D01*
G01X-5175788Y-14152D01*
G01X-5192512Y-204D01*
G01X-5211468Y10515D01*
G01X-5232041Y17657D01*
G01X-5253562Y20990D01*
G01X-5275331Y20406D01*
G01X-5296642Y15923D01*
G01X-5316802Y7687D01*
G01X-5335155Y-4035D01*
G01X-5351106Y-18861D01*
G01X-5364137Y-36309D01*
G01X-5373824Y-55813D01*
G01X-5379851Y-76740D01*
G01X-5382024Y-98408D01*
G01X-5380272Y-120115D01*
G01X-5374652Y-141154D01*
G01X-6004931Y-771433D01*
G01X-6013006Y-781957D01*
G01X-6018083Y-794213D01*
G01X-6019814Y-807364D01*
G01X-6019814Y-1604552D01*
G01X-6828248Y-2412986D01*
G01X-9019019Y-2412986D01*
G01X-9032171Y-2414717D01*
G01X-9044426Y-2419794D01*
G01X-9054950Y-2427869D01*
G01X-9254446Y-2627365D01*
G01X-9270903Y-2628322D01*
G01X-9286765Y-2632813D01*
G01X-9301281Y-2640627D01*
G01X-9313764Y-2651394D01*
G01X-9323625Y-2664605D01*
G01X-9330397Y-2679635D01*
G01X-9333761Y-2695773D01*
G01X-9333557Y-2712257D01*
G01X-9329794Y-2728307D01*
G01X-9322651Y-2743165D01*
G01X-9312465Y-2756127D01*
G01X-9299719Y-2766581D01*
G01X-9311431Y-2775999D01*
G01X-9321055Y-2787542D01*
G01X-9328214Y-2800758D01*
G01X-9332624Y-2815125D01*
G01X-9334114Y-2830081D01*
G01X-9332624Y-2845036D01*
G01X-9328214Y-2859404D01*
G01X-9321055Y-2872619D01*
G01X-9311431Y-2884163D01*
G01X-9299719Y-2893581D01*
G01X-9311431Y-2902999D01*
G01X-9321055Y-2914542D01*
G01X-9328214Y-2927758D01*
G01X-9332624Y-2942125D01*
G01X-9334114Y-2957081D01*
G01X-9332624Y-2972036D01*
G01X-9328214Y-2986404D01*
G01X-9321055Y-2999619D01*
G01X-9311431Y-3011163D01*
G01X-9299719Y-3020581D01*
G01X-9312611Y-3031184D01*
G01X-9322871Y-3044352D01*
G01X-9330000Y-3059446D01*
G01X-9333653Y-3075734D01*
G01X-9333653Y-3092427D01*
G01X-9330000Y-3108715D01*
G01X-9322871Y-3123809D01*
G01X-9312611Y-3136977D01*
G01X-9299719Y-3147581D01*
G01X-9311969Y-3157533D01*
G01X-9321894Y-3169806D01*
G01X-9329062Y-3183868D01*
G01X-9333163Y-3199110D01*
G01X-9334019Y-3214871D01*
G01X-9331593Y-3230467D01*
G01X-9516981Y-3230467D01*
G01X-9530132Y-3232198D01*
G01X-9542388Y-3237275D01*
G01X-9552912Y-3245350D01*
G01X-9920986Y-3613424D01*
G01X-9920986Y-2915695D01*
G01X-8463505Y-1458214D01*
G01X-8001000Y-1458214D01*
G01X-7988444Y-1456561D01*
G01X-7976743Y-1451714D01*
G01X-7966695Y-1444005D01*
G01X-7611095Y-1088405D01*
G01X-7603386Y-1078357D01*
G01X-7598539Y-1066656D01*
G01X-7596886Y-1054100D01*
G01X-7596886Y-794510D01*
G01X-7587788Y-782139D01*
G01X-7581779Y-768006D01*
G01X-7579182Y-752871D01*
G01X-7580136Y-737544D01*
G01X-7584590Y-722847D01*
G01X-7592306Y-709569D01*
G01X-7602868Y-698422D01*
G01X-7615711Y-690003D01*
G01X-7630147Y-684764D01*
G01X-7645400Y-682986D01*
G01X-7660653Y-684764D01*
G01X-7675089Y-690003D01*
G01X-7687932Y-698422D01*
G01X-7698494Y-709569D01*
G01X-7706210Y-722847D01*
G01X-7710664Y-737544D01*
G01X-7711618Y-752871D01*
G01X-7709021Y-768006D01*
G01X-7703012Y-782139D01*
G01X-7693914Y-794510D01*
G01X-7693914Y-1034005D01*
G01X-8021095Y-1361186D01*
G01X-8483600Y-1361186D01*
G01X-8496156Y-1362839D01*
G01X-8507857Y-1367686D01*
G01X-8517905Y-1375395D01*
G01X-10003805Y-2861295D01*
G01X-10003805Y-2861295D01*
G01X-10011514Y-2871343D01*
G01X-10016361Y-2883044D01*
G01X-10018014Y-2895600D01*
G01X-10018014Y-3211619D01*
G01X-10024095Y-3204195D01*
G01X-10632186Y-2596105D01*
G01X-10632186Y-2166110D01*
G01X-10622981Y-2153552D01*
G01X-10616959Y-2139193D01*
G01X-10614451Y-2123826D01*
G01X-10615594Y-2108297D01*
G01X-10620328Y-2093464D01*
G01X-10628389Y-2080143D01*
G01X-10639335Y-2069069D01*
G01X-10652561Y-2060852D01*
G01X-10667338Y-2055946D01*
G01X-10682852Y-2054621D01*
G01X-10698248Y-2056950D01*
G01X-10712676Y-2062804D01*
G01X-10725341Y-2071862D01*
G01X-10735545Y-2083622D01*
G01X-10742725Y-2097438D01*
G01X-10746486Y-2112548D01*
G01X-10746486Y-2001010D01*
G01X-10737388Y-1988639D01*
G01X-10731379Y-1974506D01*
G01X-10728782Y-1959371D01*
G01X-10729736Y-1944044D01*
G01X-10734190Y-1929347D01*
G01X-10741906Y-1916069D01*
G01X-10752468Y-1904922D01*
G01X-10765311Y-1896503D01*
G01X-10779747Y-1891264D01*
G01X-10795000Y-1889486D01*
G01X-10810253Y-1891264D01*
G01X-10824689Y-1896503D01*
G01X-10837532Y-1904922D01*
G01X-10848094Y-1916069D01*
G01X-10855810Y-1929347D01*
G01X-10860264Y-1944044D01*
G01X-10861218Y-1959371D01*
G01X-10858621Y-1974506D01*
G01X-10852612Y-1988639D01*
G01X-10843514Y-2001010D01*
G01X-10843514Y-3822700D01*
G01X-10842044Y-3834552D01*
G01X-10837724Y-3845685D01*
G01X-10830814Y-3855426D01*
G01X-10830814Y-3916324D01*
G01X-10836861Y-3930095D01*
G01X-10839650Y-3944874D01*
G01X-10839036Y-3959902D01*
G01X-10835052Y-3974405D01*
G01X-10827902Y-3987638D01*
G01X-10817954Y-3998918D01*
G01X-10805720Y-4007667D01*
G01X-10791829Y-4013434D01*
G01X-10776995Y-4015922D01*
G01X-10761983Y-4015004D01*
G01X-10747564Y-4010727D01*
G01X-10734479Y-4003310D01*
G01X-10723402Y-3993135D01*
G01X-10714903Y-3980726D01*
G01X-10709419Y-3966721D01*
G01X-10707232Y-3951841D01*
G01X-10702528Y-3965393D01*
G01X-10695020Y-3977617D01*
G01X-10685058Y-3987940D01*
G01X-10673109Y-3995879D01*
G01X-10659733Y-4001063D01*
G01X-10645554Y-4003248D01*
G01X-10631238Y-4002333D01*
G01X-10617453Y-3998361D01*
G01X-10604845Y-3991517D01*
G01X-10594004Y-3982122D01*
G01X-10585437Y-3970615D01*
G01X-10579545Y-3957535D01*
G01X-10581879Y-3972931D01*
G01X-10580557Y-3988447D01*
G01X-10575654Y-4003227D01*
G01X-10567439Y-4016456D01*
G01X-10556365Y-4027405D01*
G01X-10543044Y-4035469D01*
G01X-10528209Y-4040204D01*
G01X-10512679Y-4041350D01*
G01X-10497310Y-4038842D01*
G01X-10482950Y-4032819D01*
G01X-10470390Y-4023614D01*
G01X-10325100Y-4023614D01*
G01X-10312544Y-4021961D01*
G01X-10300843Y-4017114D01*
G01X-10290795Y-4009405D01*
G01X-10045714Y-3764323D01*
G01X-10045714Y-3918287D01*
G01X-10057761Y-3927576D01*
G01X-10067374Y-3939365D01*
G01X-10074047Y-3953035D01*
G01X-10077430Y-3967866D01*
G01X-10077344Y-3983078D01*
G01X-10073794Y-3997870D01*
G01X-10066966Y-4011464D01*
G01X-10057220Y-4023144D01*
G01X-10045069Y-4032296D01*
G01X-10031153Y-4038439D01*
G01X-10016202Y-4041248D01*
G01X-10001005Y-4040576D01*
G01X-9986361Y-4036459D01*
G01X-9973040Y-4029114D01*
G01X-9961743Y-4018926D01*
G01X-9953066Y-4006431D01*
G01X-9947464Y-3992288D01*
G01X-9945232Y-3977241D01*
G01X-9939980Y-3991923D01*
G01X-9931444Y-4004973D01*
G01X-9920097Y-4015669D01*
G01X-9906566Y-4023419D01*
G01X-9891599Y-4027795D01*
G01X-9876025Y-4028556D01*
G01X-9860703Y-4025659D01*
G01X-9846481Y-4019263D01*
G01X-9834146Y-4009724D01*
G01X-9824379Y-3997568D01*
G01X-9817721Y-3983468D01*
G01X-9814540Y-3968202D01*
G01X-9757952Y-3911614D01*
G01X-8911048Y-3911614D01*
G01X-8575060Y-4247602D01*
G01X-8573045Y-4258997D01*
G01X-8569081Y-4269869D01*
G01X-8563286Y-4279886D01*
G01X-10095903Y-4279886D01*
G01X-10109212Y-4271210D01*
G01X-10124202Y-4265948D01*
G01X-10140014Y-4264403D01*
G01X-10155740Y-4266663D01*
G01X-10170477Y-4272599D01*
G01X-10183379Y-4281869D01*
G01X-10193706Y-4293942D01*
G01X-10203057Y-4282784D01*
G01X-10214618Y-4273935D01*
G01X-10227831Y-4267822D01*
G01X-10242060Y-4264740D01*
G01X-10256618Y-4264837D01*
G01X-10270805Y-4268108D01*
G01X-10283935Y-4274396D01*
G01X-10295377Y-4283398D01*
G01X-10304579Y-4294680D01*
G01X-10311097Y-4307698D01*
G01X-10314617Y-4321825D01*
G01X-10314970Y-4336379D01*
G01X-10326452Y-4324898D01*
G01X-10329365Y-4310451D01*
G01X-10335396Y-4297004D01*
G01X-10344249Y-4285222D01*
G01X-10355485Y-4275685D01*
G01X-10368550Y-4268866D01*
G01X-10382799Y-4265101D01*
G01X-10397527Y-4264576D01*
G01X-10412008Y-4267317D01*
G01X-10425525Y-4273188D01*
G01X-10437412Y-4281900D01*
G01X-10447082Y-4293022D01*
G01X-10454056Y-4306005D01*
G01X-10461204Y-4292770D01*
G01X-10471151Y-4281488D01*
G01X-10483385Y-4272737D01*
G01X-10497276Y-4266968D01*
G01X-10512110Y-4264478D01*
G01X-10527123Y-4265395D01*
G01X-10541544Y-4269672D01*
G01X-10554630Y-4277088D01*
G01X-10565707Y-4287263D01*
G01X-10574207Y-4299672D01*
G01X-10579692Y-4313678D01*
G01X-10581880Y-4328559D01*
G01X-10587215Y-4313710D01*
G01X-10595908Y-4300542D01*
G01X-10607465Y-4289800D01*
G01X-10621233Y-4282093D01*
G01X-10636433Y-4277856D01*
G01X-10652202Y-4277331D01*
G01X-10667650Y-4280545D01*
G01X-10681901Y-4287318D01*
G01X-10694148Y-4297266D01*
G01X-10703699Y-4309826D01*
G01X-10710012Y-4324287D01*
G01X-10715575Y-4311138D01*
G01X-10723823Y-4299484D01*
G01X-10734376Y-4289866D01*
G01X-10746742Y-4282729D01*
G01X-10760349Y-4278405D01*
G01X-10774567Y-4277094D01*
G01X-10788735Y-4278857D01*
G01X-10802198Y-4283612D01*
G01X-10814331Y-4291138D01*
G01X-10824572Y-4301087D01*
G01X-10832446Y-4312998D01*
G01X-10837588Y-4326318D01*
G01X-10839759Y-4340429D01*
G01X-10838859Y-4354679D01*
G01X-10843240Y-4350298D01*
G01X-10845904Y-4336644D01*
G01X-10851358Y-4323846D01*
G01X-10859362Y-4312468D01*
G01X-10869564Y-4303010D01*
G01X-10881514Y-4295888D01*
G01X-10894687Y-4291416D01*
G01X-10908503Y-4289791D01*
G01X-10922354Y-4291084D01*
G01X-10935631Y-4295238D01*
G01X-10947749Y-4302070D01*
G01X-10958175Y-4311281D01*
G01X-10966450Y-4322463D01*
G01X-10976309Y-4309612D01*
G01X-10988989Y-4299535D01*
G01X-11003733Y-4292832D01*
G01X-11019663Y-4289903D01*
G01X-11035828Y-4290923D01*
G01X-11051263Y-4295831D01*
G01X-11065048Y-4304335D01*
G01X-11076360Y-4315927D01*
G01X-11084525Y-4329915D01*
G01X-11089056Y-4345465D01*
G01X-11093186Y-4330868D01*
G01X-11100525Y-4317591D01*
G01X-11110689Y-4306329D01*
G01X-11123148Y-4297672D01*
G01X-11137247Y-4292073D01*
G01X-11152250Y-4289824D01*
G01X-11167372Y-4291045D01*
G01X-11181820Y-4295670D01*
G01X-11194840Y-4303458D01*
G01X-11205748Y-4314000D01*
G01X-11213975Y-4326747D01*
G01X-11219090Y-4341029D01*
G01X-11220826Y-4356100D01*
G01X-12007202Y-4356100D01*
G01X-12007202Y-4317136D01*
G01X-11417812Y-4317136D01*
G01X-11412605Y-4315741D01*
G01X-11408793Y-4311929D01*
G01X-11407398Y-4306722D01*
G01X-11407398Y-4152900D01*
G01X-9299214Y-4152900D01*
G01X-9297287Y-4168770D01*
G01X-9291618Y-4183718D01*
G01X-9282537Y-4196874D01*
G01X-9270571Y-4207475D01*
G01X-9256415Y-4214905D01*
G01X-9240893Y-4218731D01*
G01X-9224907Y-4218731D01*
G01X-9209385Y-4214905D01*
G01X-9195229Y-4207475D01*
G01X-9183263Y-4196874D01*
G01X-9174182Y-4183718D01*
G01X-9168513Y-4168770D01*
G01X-9166586Y-4152900D01*
G01X-9168513Y-4137030D01*
G01X-9174182Y-4122082D01*
G01X-9183263Y-4108926D01*
G01X-9195229Y-4098325D01*
G01X-9209385Y-4090895D01*
G01X-9224907Y-4087069D01*
G01X-9240893Y-4087069D01*
G01X-9256415Y-4090895D01*
G01X-9270571Y-4098325D01*
G01X-9282537Y-4108926D01*
G01X-9291618Y-4122082D01*
G01X-9297287Y-4137030D01*
G01X-9299214Y-4152900D01*
G01X-9299214Y-4152900D01*
G01X-11407398Y-4152900D01*
G01X-11407398Y-2236622D01*
G01X-11408793Y-2231415D01*
G01X-11412605Y-2227604D01*
G01X-11417812Y-2226208D01*
G37*
G36*
G01X-10211444Y-3792835D02*
G01X-10345195Y-3926586D01*
G01X-10470390Y-3926586D01*
G01X-10482233Y-3917792D01*
G01X-10495727Y-3911834D01*
G01X-10510204Y-3909006D01*
G01X-10524949Y-3909448D01*
G01X-10539231Y-3913139D01*
G01X-10552343Y-3919896D01*
G01X-10563638Y-3929384D01*
G01X-10572555Y-3941134D01*
G01X-10578655Y-3954565D01*
G01X-10576358Y-3940087D01*
G01X-10577298Y-3925458D01*
G01X-10581429Y-3911393D01*
G01X-10588550Y-3898580D01*
G01X-10482805Y-3792835D01*
G01X-10211444Y-3792835D01*
G37*
G36*
G01X-9308732Y-4978124D02*
G01X-9308732Y-5046495D01*
G01X-9318301Y-5034604D01*
G01X-9330271Y-5025136D01*
G01X-9344044Y-5018561D01*
G01X-9358934Y-5015208D01*
G01X-9307528Y-4963802D01*
G01X-9308732Y-4978124D01*
G37*
G36*
G01X-9313424Y-4521214D02*
G01X-8885648Y-4521214D01*
G01X-8417931Y-4988931D01*
G01X-8407407Y-4997006D01*
G01X-8395152Y-5002083D01*
G01X-8382000Y-5003814D01*
G01X-7827709Y-5003814D01*
G01X-7816627Y-5011340D01*
G01X-7804259Y-5016486D01*
G01X-8818152Y-5016486D01*
G01X-9313424Y-4521214D01*
G37*
G54D10*
G01X-11417812Y-2226208D02*
G01X-12007202Y-2226208D01*
G01X-12007202Y1576819D01*
G02X-11712816Y1871205I294386J0D01*
G01X-3241916Y1871205D01*
G02X-2947530Y1576819I0J-294386D01*
G01X-2947530Y-5395481D01*
G02X-3241916Y-5689867I-294386J0D01*
G01X-11712816Y-5689867D01*
G02X-12007202Y-5395481I0J294386D01*
G01X-12007202Y-4317136D01*
G01X-11417812Y-4317136D01*
G03X-11407398Y-4306722I0J10414D01*
G01X-11407398Y-2236622D01*
G03X-11417812Y-2226208I-10414J0D01*
G01X-11835130Y1538719D02*
G03X-11463502Y1538719I185814J0D01*
G03X-11835130Y1538719I-185814J0D01*
G01X-11835130Y-5370081D02*
G03X-11463502Y-5370081I185814J0D01*
G03X-11835130Y-5370081I-185814J0D01*
G01X-11605260Y-673354D02*
G03X-11569446Y-637540I0J35814D01*
G01X-11569446Y-480060D01*
G03X-11605260Y-444246I-35814J0D01*
G01X-11762740Y-444246D01*
G03X-11798554Y-480060I0J-35814D01*
G01X-11798554Y-637540D01*
G03X-11762740Y-673354I35814J0D01*
G01X-11605260Y-673354D01*
G01X-11275314Y-2679700D02*
G03X-11261105Y-2714005I48514J0D01*
G01X-11084814Y-2890295D01*
G01X-11084814Y-3879090D01*
G03X-11036300Y-3990614I48514J-45210D01*
G03X-10987786Y-3879090I0J66314D01*
G01X-10987786Y-2870200D01*
G03X-11001995Y-2835895I-48514J0D01*
G01X-11178286Y-2659605D01*
G01X-11178286Y-1811752D01*
G03X-11084361Y-1863448I65786J8352D01*
G03X-11063986Y-1758190I-28139J60048D01*
G01X-11063986Y-1524000D01*
G03X-11078195Y-1489695I-48514J0D01*
G01X-11342689Y-1225202D01*
G03X-11246289Y-1049787I-11111J120302D01*
G03X-11444986Y-1025647I-107511J-55113D01*
G01X-11444986Y-934210D01*
G03X-11493500Y-822686I-48514J45210D01*
G03X-11542014Y-934210I0J-66314D01*
G01X-11542014Y-984086D01*
G01X-11692800Y-984086D01*
G03X-11728614Y-1019900I0J-35814D01*
G01X-11728614Y-1189900D01*
G03X-11692800Y-1225714I35814J0D01*
G01X-11568295Y-1225714D01*
G01X-11275314Y-1518695D01*
G01X-11275314Y-2679700D01*
G01X-11544554Y-558800D02*
G03X-11315446Y-558800I114554J0D01*
G03X-11544554Y-558800I-114554J0D01*
G01X-11290554Y-558800D02*
G03X-11061446Y-558800I114554J0D01*
G03X-11290554Y-558800I-114554J0D01*
G01X-10784395Y1204214D02*
G03X-10818700Y1190005I0J-48514D01*
G01X-11035719Y972986D01*
G03X-11219766Y922638I-62927J-131537D01*
G03X-11196409Y733263I121120J-81189D01*
G01X-11208646Y733263D01*
G03X-11244460Y697449I0J-35814D01*
G01X-11244460Y477449D01*
G03X-11208646Y441635I35814J0D01*
G01X-10988646Y441635D01*
G03X-10952832Y477449I0J35814D01*
G01X-10952832Y697449D01*
G03X-10988646Y733263I-35814J0D01*
G01X-11000884Y733263D01*
G03X-10967110Y904377I-97763J108186D01*
G01X-10764300Y1107186D01*
G01X-9530153Y1107186D01*
G01X-9530153Y1052357D01*
G03X-9560402Y1026882I77937J-123238D01*
G01X-9560402Y1039119D01*
G03X-9596216Y1074933I-35814J0D01*
G01X-9816216Y1074933D01*
G03X-9852030Y1039119I0J-35814D01*
G01X-9852030Y819119D01*
G03X-9816216Y783305I35814J0D01*
G01X-9662401Y783305D01*
G01X-9662401Y754664D01*
G03X-9797030Y675119I-43815J-79545D01*
G03X-9662401Y595574I90814J0D01*
G01X-9662401Y460389D01*
G03X-9739701Y344305I48514J-116084D01*
G01X-9739701Y264305D01*
G03X-9488073Y264305I125814J0D01*
G01X-9488073Y344305D01*
G03X-9565373Y460389I-125814J0D01*
G01X-9565373Y800916D01*
G03X-9560402Y819119I-30843J18203D01*
G01X-9560402Y831357D01*
G03X-9330857Y848288I108186J97763D01*
G03X-9403702Y1066626I-121359J80831D01*
G01X-9403702Y1106789D01*
G01X-9377905Y1132586D01*
G01X-7982995Y1132586D01*
G01X-7938042Y1087633D01*
G01X-8127116Y1087633D01*
G03X-8162930Y1051819I0J-35814D01*
G01X-8162930Y831819D01*
G03X-8127116Y796005I35814J0D01*
G01X-7947914Y796005D01*
G01X-7947914Y746626D01*
G03X-8107930Y687819I-69202J-58807D01*
G03X-7947914Y629013I90814J0D01*
G01X-7947914Y421460D01*
G03X-7958971Y369886I114757J-51574D01*
G01X-7958971Y289886D01*
G03X-7707343Y289886I125814J0D01*
G01X-7707343Y369886D01*
G03X-7850886Y494445I-125814J0D01*
G01X-7850886Y664503D01*
G03X-7672302Y687819I87770J23317D01*
G03X-7850886Y711136I-90814J0D01*
G01X-7850886Y824103D01*
G01X-7850903Y825393D01*
G03X-7620393Y911958I87787J116427D01*
G03X-7796865Y1083674I-142724J29861D01*
G01X-7928595Y1215405D01*
G03X-7962900Y1229614I-34305J-34305D01*
G01X-9398000Y1229614D01*
G03X-9432305Y1215405I0J-48514D01*
G01X-9461500Y1186209D01*
G01X-9465295Y1190005D01*
G03X-9499600Y1204214I-34305J-34305D01*
G01X-10784395Y1204214D01*
G01X-10003805Y-2861295D02*
G03X-10018014Y-2895600I34305J-34305D01*
G01X-10018014Y-3211619D01*
G03X-10024095Y-3204195I-40386J-26881D01*
G01X-10632186Y-2596105D01*
G01X-10632186Y-2166110D01*
G03X-10652561Y-2060852I-48514J45210D01*
G03X-10746486Y-2112548I-28139J-60048D01*
G01X-10746486Y-2001010D01*
G03X-10795000Y-1889486I-48514J45210D01*
G03X-10843514Y-2001010I0J-66314D01*
G01X-10843514Y-3822700D01*
G03X-10830814Y-3855426I48514J0D01*
G01X-10830814Y-3916324D01*
G03X-10791829Y-4013434I57302J-33376D01*
G03X-10707232Y-3951841I18317J63734D01*
G03X-10645554Y-4003248I64632J14841D01*
G03X-10579545Y-3957535I2954J66248D01*
G03X-10470390Y-4023614I63945J-17565D01*
G01X-10325100Y-4023614D01*
G03X-10290795Y-4009405I0J48514D01*
G01X-10045714Y-3764323D01*
G01X-10045714Y-3918287D01*
G03X-10045069Y-4032296I34202J-56813D01*
G03X-9945232Y-3977241I33558J57196D01*
G03X-9814540Y-3968202I64632J14841D01*
G01X-9757952Y-3911614D01*
G01X-8911048Y-3911614D01*
G01X-8575060Y-4247602D01*
G03X-8563286Y-4279886I66060J5802D01*
G01X-10095903Y-4279886D01*
G03X-10193706Y-4293942I-42609J-50814D01*
G03X-10270805Y-4268108I-55194J-36758D01*
G03X-10314970Y-4336379I21905J-62592D01*
G01X-10326452Y-4324898D01*
G03X-10382799Y-4265101I-66060J-5802D01*
G03X-10454056Y-4306005I-9713J-65599D01*
G03X-10581880Y-4328559I-61544J-24695D01*
G03X-10710012Y-4324287I-64632J-14841D01*
G03X-10788735Y-4278857I-63500J-19113D01*
G03X-10838859Y-4354679I15224J-64543D01*
G01X-10843240Y-4350298D01*
G03X-10894687Y-4291416I-66060J-5802D01*
G03X-10966450Y-4322463I-14613J-64684D01*
G03X-11035828Y-4290923I-57150J-33637D01*
G03X-11089056Y-4345465I12228J-65177D01*
G03X-11220826Y-4356100I-65456J-10635D01*
G03X-11089056Y-4366735I66314J0D01*
G03X-11074414Y-4398709I65456J10635D01*
G01X-11074414Y-4569107D01*
G03X-11059531Y-4605038I50814J0D01*
G01X-10695960Y-4968609D01*
G03X-10583009Y-5009698I66060J5802D01*
G03X-10624098Y-4896747I-46891J46891D01*
G01X-10642397Y-4878448D01*
G03X-10595709Y-4765243I-203J66314D01*
G03X-10708914Y-4811931I-46891J-46891D01*
G01X-10972786Y-4548059D01*
G01X-10972786Y-4398709D01*
G03X-10966450Y-4389737I-50814J42609D01*
G03X-10915102Y-4422160I57150J33637D01*
G01X-10767431Y-4569831D01*
G03X-10731500Y-4584714I35931J35931D01*
G01X-10183163Y-4584714D01*
G03X-10170414Y-4655310I61263J-25386D01*
G01X-10170414Y-4737100D01*
G03X-10156205Y-4771405I48514J0D01*
G01X-9844179Y-5083430D01*
G03X-9724543Y-5101028I63782J18149D01*
G03X-9790630Y-4999761I-55854J35747D01*
G01X-10073386Y-4717005D01*
G01X-10073386Y-4655310D01*
G03X-10060637Y-4584714I-48514J45210D01*
G01X-9768465Y-4584714D01*
G03X-9749266Y-4714502I19199J-63474D01*
G03X-9730067Y-4584714I0J66314D01*
G01X-9393648Y-4584714D01*
G01X-9253496Y-4724866D01*
G03X-9293137Y-4760167I20596J-63034D01*
G03X-9294183Y-4813238I60237J-27733D01*
G01X-9492653Y-5011708D01*
G03X-9545809Y-5114287I2336J-66273D01*
G03X-9430527Y-5106665I55493J36306D01*
G03X-9369896Y-5151335I64124J23553D01*
G03X-9305019Y-5113092I3494J68224D01*
G03X-9137104Y-5088124I82101J24968D01*
G01X-9137104Y-4978124D01*
G03X-9237241Y-4893514I-85814J0D01*
G01X-9198595Y-4854869D01*
G03X-9186749Y-4835519I-34305J34305D01*
G03X-9169866Y-4808496I-46151J47619D01*
G01X-8875131Y-5103231D01*
G03X-8839200Y-5118114I35931J35931D01*
G01X-5903822Y-5118114D01*
G03X-5816595Y-5310114I87227J-76186D01*
G03X-5729368Y-5118114I0J115814D01*
G01X-5715000Y-5118114D01*
G03X-5679069Y-5103231I0J50814D01*
G01X-5590169Y-5014331D01*
G03X-5575286Y-4978400I-35931J35931D01*
G01X-5575286Y-4533900D01*
G03X-5590169Y-4497969I-50814J0D01*
G01X-5691769Y-4396369D01*
G03X-5711228Y-4384230I-35931J-35931D01*
G03X-5931482Y-4417677I-105366J-48070D01*
G03X-5726630Y-4505232I114887J-14623D01*
G01X-5676914Y-4554948D01*
G01X-5676914Y-4957352D01*
G01X-5714456Y-4994895D01*
G03X-5761390Y-4838490I-102139J54595D01*
G03X-5918072Y-4884486I-55205J-101810D01*
G01X-7609581Y-4884486D01*
G01X-8706876Y-3787191D01*
G03X-8685166Y-3660595I-5431J66091D01*
G01X-6260838Y-3660595D01*
G01X-6084666Y-3836766D01*
G03X-6045200Y-3853114I39466J39466D01*
G01X-5907948Y-3853114D01*
G03X-5816595Y-4040114I91353J-71186D01*
G03X-5725242Y-3853114I0J115814D01*
G01X-5523616Y-3853114D01*
G01X-5518836Y-3857894D01*
G03X-5497025Y-3957386I117919J-26287D01*
G01X-5651495Y-3957386D01*
G03X-5690961Y-3973734I0J-55814D01*
G01X-5784306Y-4067078D01*
G03X-5898488Y-4260193I-32289J-111222D01*
G03X-5705373Y-4146011I81893J81893D01*
G01X-5628376Y-4069014D01*
G01X-5499972Y-4069014D01*
G03X-5400916Y-4258995I99055J-69167D01*
G03X-5301861Y-4069014I0J120814D01*
G01X-5207000Y-4069014D01*
G03X-5167534Y-4052666I0J55814D01*
G01X-4913534Y-3798666D01*
G03X-4897186Y-3759200I-39466J39466D01*
G01X-4897186Y-3530600D01*
G03X-4913534Y-3491134I-55814J0D01*
G01X-5067953Y-3336714D01*
G03X-5107419Y-3320367I-39466J-39466D01*
G01X-5293768Y-3320367D01*
G03X-5437215Y-3260949I-107148J-55814D01*
G01X-5544886Y-3153278D01*
G01X-5544886Y-2870195D01*
G03X-5561234Y-2830728I-55814J0D01*
G01X-5705373Y-2686589D01*
G03X-5707929Y-2614243I-111222J32289D01*
G01X-5540995Y-2447310D01*
G03X-5526786Y-2413005I-34305J34305D01*
G01X-5526786Y-1449760D01*
G01X-5305150Y-1228123D01*
G03X-5175788Y-1030152I43933J112543D01*
G03X-5373759Y-1159514I-85428J-85428D01*
G01X-5609605Y-1395360D01*
G03X-5623814Y-1429664I34305J-34305D01*
G01X-5623814Y-2392910D01*
G01X-5776538Y-2545634D01*
G03X-5932337Y-2650211I-40057J-108666D01*
G03X-5784306Y-2765522I115742J-4089D01*
G01X-5656514Y-2893314D01*
G01X-5656514Y-2996519D01*
G01X-5707075Y-2945958D01*
G03X-5769686Y-2802411I-109520J37658D01*
G03X-5918072Y-2852486I-46909J-105889D01*
G01X-6273800Y-2852486D01*
G03X-6287472Y-2854186I0J-55814D01*
G03X-6357583Y-2766221I-62528J22086D01*
G01X-5848884Y-2257522D01*
G03X-5734702Y-2064407I32289J111222D01*
G03X-5927817Y-2178589I-81893J-81893D01*
G01X-6487414Y-2738186D01*
G01X-8915400Y-2738186D01*
G03X-8954866Y-2754534I0J-55814D01*
G01X-9101600Y-2901267D01*
G01X-9206992Y-2901267D01*
G03X-9216881Y-2893581I-51308J-55814D01*
G03X-9202036Y-2880895I-41419J63500D01*
G01X-9180081Y-2880895D01*
G03X-9144150Y-2866012I0J50814D01*
G01X-8983252Y-2705114D01*
G01X-6642100Y-2705114D01*
G03X-6606169Y-2690231I0J50814D01*
G01X-5817148Y-1901210D01*
G03X-5776059Y-1788259I-5802J66060D01*
G03X-5889010Y-1829348I-46891J-46891D01*
G01X-6663148Y-2603486D01*
G01X-9004300Y-2603486D01*
G03X-9040231Y-2618369I0J-50814D01*
G01X-9201129Y-2779267D01*
G01X-9202036Y-2779267D01*
G03X-9216881Y-2766581I-56264J-50814D01*
G03X-9182584Y-2699227I-41419J63500D01*
G01X-8997971Y-2514614D01*
G01X-6807200Y-2514614D01*
G03X-6771269Y-2499731I0J50814D01*
G01X-5933069Y-1661531D01*
G03X-5918186Y-1625600I-35931J35931D01*
G01X-5918186Y-828412D01*
G01X-5302790Y-213016D01*
G03X-5175788Y-14152I41574J113435D01*
G03X-5374652Y-141154I-85428J-85428D01*
G01X-6004931Y-771433D01*
G03X-6019814Y-807364I35931J-35931D01*
G01X-6019814Y-1604552D01*
G01X-6828248Y-2412986D01*
G01X-9019019Y-2412986D01*
G03X-9054950Y-2427869I0J-50814D01*
G01X-9254446Y-2627365D01*
G03X-9330397Y-2679635I-3854J-75716D01*
G03X-9299719Y-2766581I72097J-23446D01*
G03X-9334114Y-2830081I41419J-63500D01*
G03X-9299719Y-2893581I75814J0D01*
G03X-9334114Y-2957081I41419J-63500D01*
G03X-9299719Y-3020581I75814J0D01*
G03X-9299719Y-3147581I41419J-63500D01*
G03X-9331593Y-3230467I41419J-63500D01*
G01X-9516981Y-3230467D01*
G03X-9552912Y-3245350I0J-50814D01*
G01X-9920986Y-3613424D01*
G01X-9920986Y-2915695D01*
G01X-8463505Y-1458214D01*
G01X-8001000Y-1458214D01*
G03X-7966695Y-1444005I0J48514D01*
G01X-7611095Y-1088405D01*
G03X-7596886Y-1054100I-34305J34305D01*
G01X-7596886Y-794510D01*
G03X-7645400Y-682986I-48514J45210D01*
G03X-7693914Y-794510I0J-66314D01*
G01X-7693914Y-1034005D01*
G01X-8021095Y-1361186D01*
G01X-8483600Y-1361186D01*
G03X-8517905Y-1375395I0J-48514D01*
G01X-10003805Y-2861295D01*
G01X-11220614Y-1104900D02*
G03X-10978986Y-1104900I120814J0D01*
G03X-11220614Y-1104900I-120814J0D01*
G01X-10966614Y-1104900D02*
G03X-10724986Y-1104900I120814J0D01*
G03X-10966614Y-1104900I-120814J0D01*
G01X-10844646Y496635D02*
G03X-10844646Y678263I0J90814D01*
G03X-10844646Y496635I0J-90814D01*
G01X-10844646Y750635D02*
G03X-10844646Y932263I0J90814D01*
G03X-10844646Y750635I0J-90814D01*
G01X-10002101Y-4978124D02*
G03X-10173729Y-4978124I-85814J0D01*
G01X-10173729Y-5088124D01*
G03X-10005804Y-5113060I85814J0D01*
G03X-9876197Y-5086908I61399J29948D01*
G03X-10002101Y-5046535I-68208J3796D01*
G01X-10002101Y-4978124D01*
G01X-10173729Y-5408113D02*
G01X-10173729Y-5498113D01*
G03X-10002101Y-5498113I85814J0D01*
G01X-10002101Y-5408113D01*
G03X-10173729Y-5408113I-85814J0D01*
G01X-9742099Y265295D02*
G01X-9742099Y345295D01*
G03X-9993727Y345295I-125814J0D01*
G01X-9993727Y265295D01*
G03X-9742099Y265295I125814J0D01*
G01X-9569330Y-4836681D02*
G03X-9436702Y-4836681I66314J0D01*
G03X-9569330Y-4836681I-66314J0D01*
G01X-9543030Y675119D02*
G03X-9361402Y675119I90814J0D01*
G03X-9543030Y675119I-90814J0D01*
G01X-9449887Y470118D02*
G03X-9485701Y434304I0J-35814D01*
G01X-9485701Y174305D01*
G03X-9449887Y138491I35814J0D01*
G01X-9269887Y138491D01*
G03X-9234073Y174305I0J35814D01*
G01X-9234073Y434304D01*
G03X-9269887Y470118I-35814J0D01*
G01X-9449887Y470118D01*
G01X-9308732Y-5408113D02*
G01X-9308732Y-5498113D01*
G03X-9137104Y-5498113I85814J0D01*
G01X-9137104Y-5408113D01*
G03X-9308732Y-5408113I-85814J0D01*
G01X-9299214Y-4152900D02*
G03X-9166586Y-4152900I66314J0D01*
G03X-9299214Y-4152900I-66314J0D01*
G01X-7961368Y290877D02*
G01X-7961368Y370877D01*
G03X-8212996Y370877I-125814J0D01*
G01X-8212996Y290877D01*
G03X-7961368Y290877I125814J0D01*
G01X-7669157Y495700D02*
G03X-7704971Y459886I0J-35814D01*
G01X-7704971Y199887D01*
G03X-7669157Y164073I35814J0D01*
G01X-7489157Y164073D01*
G03X-7453343Y199887I0J35814D01*
G01X-7453343Y459886D01*
G03X-7489157Y495700I-35814J0D01*
G01X-7669157Y495700D01*
G01X-7499334Y-4635486D02*
G03X-7581062Y-4720704I-19066J-63514D01*
G03X-7464133Y-4737114I62662J21704D01*
G01X-5920666Y-4737114D01*
G03X-5700781Y-4686300I104071J50814D01*
G03X-5920666Y-4635486I-115814J0D01*
G01X-7499334Y-4635486D01*
G01X-5700781Y-5368300D02*
G03X-5736595Y-5332486I-35814J0D01*
G01X-5896595Y-5332486D01*
G03X-5932409Y-5368300I0J-35814D01*
G01X-5932409Y-5528300D01*
G03X-5896595Y-5564114I35814J0D01*
G01X-5736595Y-5564114D01*
G03X-5700781Y-5528300I0J35814D01*
G01X-5700781Y-5368300D01*
G01X-5816595Y-2516114D02*
G03X-5816595Y-2284486I0J115814D01*
G03X-5816595Y-2516114I0J-115814D01*
G01X-5527314Y-2527300D02*
G03X-5394686Y-2527300I66314J0D01*
G03X-5527314Y-2527300I-66314J0D01*
G01X-5521730Y-2946921D02*
G03X-5485916Y-2982735I35814J0D01*
G01X-5315916Y-2982735D01*
G03X-5280102Y-2946921I0J35814D01*
G01X-5280102Y-2789441D01*
G03X-5315916Y-2753627I-35814J0D01*
G01X-5485916Y-2753627D01*
G03X-5521730Y-2789441I0J-35814D01*
G01X-5521730Y-2946921D01*
G01X-5400916Y-3001367D02*
G03X-5400916Y-3242995I0J-120814D01*
G03X-5400916Y-3001367I0J120814D01*
G01X-5400916Y-4525367D02*
G03X-5400916Y-4766995I0J-120814D01*
G03X-5400916Y-4525367I0J120814D01*
G01X-5400916Y-4271367D02*
G03X-5400916Y-4512995I0J-120814D01*
G03X-5400916Y-4271367I0J120814D01*
G01X-5261216Y33605D02*
G03X-5261216Y275233I0J120814D01*
G03X-5261216Y33605I0J-120814D01*
G01X-5261216Y-474395D02*
G03X-5261216Y-232767I0J120814D01*
G03X-5261216Y-474395I0J-120814D01*
G01X-5261216Y-982395D02*
G03X-5261216Y-740767I0J120814D01*
G03X-5261216Y-982395I0J-120814D01*
G01X-5261216Y-728395D02*
G03X-5261216Y-486767I0J120814D01*
G03X-5261216Y-728395I0J-120814D01*
G01X-5261216Y-1490395D02*
G03X-5261216Y-1248767I0J120814D01*
G03X-5261216Y-1490395I0J-120814D01*
G01X-5140402Y-1544841D02*
G03X-5176216Y-1509027I-35814J0D01*
G01X-5346216Y-1509027D01*
G03X-5382030Y-1544841I0J-35814D01*
G01X-5382030Y-1702321D01*
G03X-5346216Y-1738135I35814J0D01*
G01X-5176216Y-1738135D01*
G03X-5140402Y-1702321I0J35814D01*
G01X-5140402Y-1544841D01*
G01X-5184414Y-2679700D02*
G03X-5051786Y-2679700I66314J0D01*
G03X-5184414Y-2679700I-66314J0D01*
G01X-4790714Y-2984500D02*
G03X-4658086Y-2984500I66314J0D01*
G03X-4790714Y-2984500I-66314J0D01*
G01X-3491230Y1526019D02*
G03X-3119602Y1526019I185814J0D01*
G03X-3491230Y1526019I-185814J0D01*
G01X-3491230Y-5344681D02*
G03X-3119602Y-5344681I185814J0D01*
G03X-3491230Y-5344681I-185814J0D01*
G01X-10211444Y-3792835D02*
G01X-10345195Y-3926586D01*
G01X-10470390Y-3926586D01*
G03X-10578655Y-3954565I-45210J-48514D01*
G03X-10588550Y-3898580I-63945J17565D01*
G01X-10482805Y-3792835D01*
G01X-10211444Y-3792835D01*
G01X-9308732Y-4978124D02*
G01X-9308732Y-5046495D01*
G03X-9358934Y-5015208I-57671J-36617D01*
G01X-9307528Y-4963802D01*
G03X-9308732Y-4978124I84610J-14323D01*
G01X-9313424Y-4521214D02*
G01X-8885648Y-4521214D01*
G01X-8417931Y-4988931D01*
G03X-8382000Y-5003814I35931J35931D01*
G01X-7827709Y-5003814D01*
G03X-7804259Y-5016486I42609J50814D01*
G01X-8818152Y-5016486D01*
G01X-9313424Y-4521214D01*
G54D11*
G01X-10137661Y-5453113D02*
G01X-10163569Y-5453113D01*
G01X-10038169Y-5453113D02*
G01X-10012261Y-5453113D01*
G01X-10087915Y-5358367D02*
G01X-10087915Y-5332459D01*
G01X-10087915Y-5547859D02*
G01X-10087915Y-5573767D01*
G01X-9778167Y305295D02*
G01X-9752259Y305295D01*
G01X-9957659Y305295D02*
G01X-9983567Y305295D01*
G01X-9867913Y175550D02*
G01X-9867913Y149642D01*
G01X-9867913Y435041D02*
G01X-9867913Y460949D01*
G01X-11098646Y477703D02*
G01X-11098646Y451795D01*
G01X-11208392Y587449D02*
G01X-11234300Y587449D01*
G01X-10988900Y587449D02*
G01X-10962992Y587449D01*
G01X-10137661Y-5033124D02*
G01X-10163569Y-5033124D01*
G01X-10038169Y-5033124D02*
G01X-10012261Y-5033124D01*
G01X-10087915Y-4928379D02*
G01X-10087915Y-4902471D01*
G01X-10087915Y-5137870D02*
G01X-10087915Y-5163778D01*
G01X-11254486Y-558800D02*
G01X-11280394Y-558800D01*
G01X-11097514Y-558800D02*
G01X-11071606Y-558800D01*
G01X-11176000Y-480314D02*
G01X-11176000Y-454406D01*
G01X-11176000Y-637286D02*
G01X-11176000Y-663194D01*
G01X-11269054Y-1104900D02*
G01X-11243146Y-1104900D01*
G01X-11353800Y-1020154D02*
G01X-11353800Y-994246D01*
G01X-9272664Y-5033124D02*
G01X-9298572Y-5033124D01*
G01X-9173172Y-5033124D02*
G01X-9147264Y-5033124D01*
G01X-9222918Y-4928379D02*
G01X-9222918Y-4902471D01*
G01X-9222918Y-5137870D02*
G01X-9222918Y-5163778D01*
G01X-9272664Y-5453113D02*
G01X-9298572Y-5453113D01*
G01X-9173172Y-5453113D02*
G01X-9147264Y-5453113D01*
G01X-9222918Y-5358367D02*
G01X-9222918Y-5332459D01*
G01X-9222918Y-5547859D02*
G01X-9222918Y-5573767D01*
G01X-7997436Y330877D02*
G01X-7971528Y330877D01*
G01X-8176928Y330877D02*
G01X-8202836Y330877D01*
G01X-8087182Y201131D02*
G01X-8087182Y175223D01*
G01X-8087182Y460623D02*
G01X-8087182Y486531D01*
G01X-5816595Y-5274046D02*
G01X-5816595Y-5299954D01*
G01X-5896341Y-5194300D02*
G01X-5922249Y-5194300D01*
G01X-5736849Y-5194300D02*
G01X-5710941Y-5194300D01*
G01X-5400916Y-3037435D02*
G01X-5400916Y-3011527D01*
G01X-5400916Y-3206927D02*
G01X-5400916Y-3232835D01*
G01X-5316170Y-3122181D02*
G01X-5290262Y-3122181D01*
G01X-5485662Y-3122181D02*
G01X-5511570Y-3122181D01*
G01X-5261216Y-438327D02*
G01X-5261216Y-464235D01*
G01X-5261216Y-268835D02*
G01X-5261216Y-242927D01*
G01X-5345962Y-353581D02*
G01X-5371870Y-353581D01*
G01X-5176470Y-353581D02*
G01X-5150562Y-353581D01*
G04 Copper End*

G04 Pad Start*
G54D12*
G01X-5400916Y-4646181D03*
G01X-5400916Y-4392181D03*
G01X-5400916Y-4138181D03*
G01X-5400916Y-3884181D03*
G01X-5400916Y-3630181D03*
G01X-5400916Y-3376181D03*
G01X-5400916Y-3122181D03*
G54D13*
G01X-5400916Y-2868181D03*
G54D12*
G01X-5261216Y154419D03*
G01X-5261216Y-99581D03*
G01X-5261216Y-353581D03*
G01X-5261216Y-607581D03*
G01X-5261216Y-861581D03*
G01X-5261216Y-1115581D03*
G01X-5261216Y-1369581D03*
G54D13*
G01X-5261216Y-1623581D03*
G54D14*
G01X-9222918Y-5453113D03*
G01X-10087915Y-5453113D03*
G54D15*
G01X-9222918Y-5033124D03*
G01X-10087915Y-5033124D03*
G54D16*
G01X-8017116Y687819D03*
G01X-7763116Y687819D03*
G54D17*
G01X-8017116Y941819D03*
G54D19*
G01X-7763116Y941819D03*
G54D16*
G01X-9706216Y675119D03*
G01X-9452216Y675119D03*
G54D17*
G01X-9706216Y929119D03*
G54D19*
G01X-9452216Y929119D03*
G54D16*
G01X-10844646Y587449D03*
G01X-10844646Y841449D03*
G54D17*
G01X-11098646Y587449D03*
G54D19*
G01X-11098646Y841449D03*
G54D20*
G01X-5816595Y-5448300D03*
G54D21*
G01X-5816595Y-5194300D03*
G01X-5816595Y-4940300D03*
G01X-5816595Y-4686300D03*
G01X-5816595Y-4432300D03*
G01X-5816595Y-4178300D03*
G01X-5816595Y-3924300D03*
G01X-5816595Y-3670300D03*
G01X-5816595Y-3416300D03*
G01X-5816595Y-3162300D03*
G01X-5816595Y-2908300D03*
G01X-5816595Y-2654300D03*
G01X-5816595Y-2400300D03*
G01X-5816595Y-2146300D03*
G54D22*
G01X-7579157Y329886D03*
G54D23*
G01X-8087182Y330877D03*
G01X-7833157Y329886D03*
G54D22*
G01X-9359887Y304305D03*
G54D23*
G01X-9867913Y305295D03*
G01X-9613887Y304305D03*
G54D24*
G01X-11176000Y-558800D03*
G01X-11430000Y-558800D03*
G54D25*
G01X-11684000Y-558800D03*
G54D26*
G01X-11607800Y-1104900D03*
G54D12*
G01X-11353800Y-1104900D03*
G01X-11099800Y-1104900D03*
G01X-10845800Y-1104900D03*
G04 Pad End*

G04 Via Start*
G54D27*
G01X-9749266Y-4648188D03*
G01X-9680694Y-4686119D03*
G01X-9503016Y-4836681D03*
G01X-9780397Y-5065281D03*
G01X-9490316Y-5077981D03*
G54D28*
G01X-9258300Y-2703081D03*
G01X-9258300Y-2830081D03*
G01X-9258300Y-2957081D03*
G01X-9258300Y-3084081D03*
G01X-9258300Y-3211081D03*
G01X-9258300Y-3352800D03*
G01X-9245600Y-3465081D03*
G01X-9258300Y-3592081D03*
G01X-9258300Y-3708400D03*
G01X-8605415Y-4506472D03*
G54D27*
G01X-10909300Y-4356100D03*
G01X-10773512Y-4343400D03*
G01X-10646512Y-4343400D03*
G01X-10515600Y-4330700D03*
G01X-10392512Y-4330700D03*
G01X-10248900Y-4330700D03*
G01X-10138512Y-4330700D03*
G01X-7518400Y-4699000D03*
G01X-7785100Y-4953000D03*
G01X-8235950Y-4578350D03*
G01X-7988300Y-4724400D03*
G01X-10121900Y-4610100D03*
G01X-9232900Y-4787900D03*
G01X-9385300Y-4737100D03*
G01X-8930364Y-4785526D03*
G01X-11154512Y-4356100D03*
G01X-11023600Y-4356100D03*
G01X-10629900Y-4962807D03*
G01X-10642600Y-4812134D03*
G01X-10011512Y-3975100D03*
G01X-9880600Y-3962400D03*
G01X-8509000Y-4241800D03*
G01X-9232900Y-4152900D03*
G01X-8712307Y-3721100D03*
G01X-9931400Y-4711700D03*
G01X-7899400Y-3200400D03*
G01X-6350000Y-2832100D03*
G01X-5822950Y-1835150D03*
G01X-5461000Y-2527300D03*
G01X-5118100Y-2679700D03*
G01X-4724400Y-2984500D03*
G01X-10795000Y-1955800D03*
G01X-10680700Y-2120900D03*
G01X-7645400Y-749300D03*
G01X-10773512Y-3949700D03*
G01X-10642600Y-3937000D03*
G01X-11036300Y-3924300D03*
G01X-10515600Y-3975100D03*
G01X-11811000Y-5118100D03*
G01X-11671300Y-5054600D03*
G01X-11531600Y-5080000D03*
G01X-11430000Y-5168900D03*
G01X-11353800Y-5295900D03*
G01X-11353800Y-5447947D03*
G01X-11417300Y-5562600D03*
G01X-11531600Y-5638800D03*
G01X-3086100Y-5080000D03*
G01X-3238500Y-5016500D03*
G01X-3383888Y-5016500D03*
G01X-3517900Y-5080000D03*
G01X-3581400Y-5194300D03*
G01X-3619500Y-5334000D03*
G01X-3581400Y-5486400D03*
G01X-3492500Y-5588000D03*
G01X-3365500Y-5651500D03*
G01X-9575800Y-495300D03*
G01X-9575800Y-622300D03*
G01X-9575800Y-758511D03*
G01X-9575800Y-882333D03*
G01X-9575800Y-1027690D03*
G01X-9575800Y-1168400D03*
G01X-9575800Y-1291485D03*
G01X-9588500Y-1397000D03*
G01X-10265510Y-2229574D03*
G01X-10261600Y-2108200D03*
G01X-10172700Y-1993900D03*
G01X-10083800Y-1917700D03*
G01X-9994900Y-1841500D03*
G01X-9906000Y-1765300D03*
G01X-9829800Y-1676400D03*
G01X-9740900Y-1587500D03*
G01X-9664700Y-1498600D03*
G01X-9334500Y-495300D03*
G01X-9334500Y-615800D03*
G01X-9334500Y-749300D03*
G01X-9334500Y-876300D03*
G01X-9334500Y-1014185D03*
G01X-9334500Y-1143000D03*
G01X-9334500Y-1264522D03*
G01X-9334500Y-1375782D03*
G01X-9334500Y-1490632D03*
G01X-9410700Y-1574800D03*
G01X-9486900Y-1651000D03*
G01X-9575800Y-1739900D03*
G01X-9677400Y-1854200D03*
G01X-9779000Y-1930400D03*
G01X-9867900Y-2019300D03*
G01X-9931400Y-2095500D03*
G01X-9994900Y-2159000D03*
G01X-10045700Y-2222500D03*
G01X-7759700Y-381000D03*
G01X-7759700Y-546100D03*
G01X-7759700Y-455975D03*
G01X-7759700Y-633633D03*
G01X-7759700Y-719770D03*
G01X-7759700Y-805908D03*
G01X-7543800Y-393700D03*
G01X-7543800Y-488277D03*
G01X-7543800Y-601332D03*
G01X-7543800Y-698500D03*
G01X-7543800Y-822059D03*
G01X-11493500Y-889000D03*
G01X-11112500Y-1803400D03*
G04 Via End*

G04 Track Start*
G54D29*
G01X-9258300Y-2957081D02*
G01X-9078481Y-2957081D01*
G01X-8915400Y-2794000D01*
G01X-6464295Y-2794000D01*
G01X-5816595Y-2146300D01*
G01X-9258300Y-3084081D02*
G01X-6449581Y-3084081D01*
G01X-6273800Y-2908300D02*
G01X-5816595Y-2908300D01*
G01X-6449581Y-3084081D02*
G01X-6273800Y-2908300D01*
G01X-9258300Y-3352800D02*
G01X-5880095Y-3352800D01*
G01X-5816595Y-3416300D01*
G01X-9245600Y-3465081D02*
G01X-6021814Y-3465081D01*
G01X-5816595Y-3670300D01*
G01X-9258300Y-3708400D02*
G01X-8864600Y-3708400D01*
G01X-7632700Y-4940300D02*
G01X-5816595Y-4940300D01*
G01X-8864600Y-3708400D02*
G01X-7632700Y-4940300D01*
G01X-5816595Y-4178300D02*
G01X-5651495Y-4013200D01*
G01X-5207000Y-4013200D01*
G01X-4953000Y-3759200D01*
G01X-4953000Y-3530600D01*
G01X-5107419Y-3376181D02*
G01X-5400916Y-3376181D01*
G01X-4953000Y-3530600D02*
G01X-5107419Y-3376181D01*
G01X-5400916Y-3376181D02*
G01X-5600700Y-3176397D01*
G01X-5600700Y-2870195D02*
G01X-5816595Y-2654300D01*
G01X-5600700Y-3176397D02*
G01X-5600700Y-2870195D01*
G54D30*
G01X-5816595Y-4432300D02*
G01X-5727700Y-4432300D01*
G01X-5626100Y-4533900D01*
G01X-5626100Y-4978400D01*
G01X-5715000Y-5067300D01*
G01X-8839200Y-5067300D01*
G01X-9372600Y-4533900D01*
G01X-10731500Y-4533900D01*
G01X-10909300Y-4356100D01*
G54D29*
G01X-9245600Y-3604781D02*
G01X-6237719Y-3604781D01*
G01X-6045200Y-3797300D01*
G01X-5500497Y-3797300D01*
G01X-5413616Y-3884181D01*
G01X-9258300Y-3592081D02*
G01X-9245600Y-3604781D01*
G01X-5413616Y-3884181D02*
G01X-5400916Y-3884181D01*
G54D30*
G01X-5816595Y-4686300D02*
G01X-7505700Y-4686300D01*
G01X-7518400Y-4699000D01*
G01X-8382000Y-4953000D02*
G01X-7785100Y-4953000D01*
G01X-10248900Y-4330700D02*
G01X-10172700Y-4406900D01*
G01X-8407400Y-4406900D01*
G01X-8235950Y-4578350D01*
G01X-10392512Y-4330700D02*
G01X-10252812Y-4470400D01*
G01X-8864600Y-4470400D01*
G01X-8382000Y-4953000D01*
G01X-10138512Y-4330700D02*
G01X-8382000Y-4330700D01*
G01X-7988300Y-4724400D01*
G54D11*
G01X-9490316Y-5077981D02*
G01X-9232900Y-4820564D01*
G01X-9232900Y-4787900D01*
G01X-10121900Y-4610100D02*
G01X-10121900Y-4737100D01*
G01X-9793719Y-5065281D01*
G01X-9780397Y-5065281D01*
G01X-9680694Y-4686119D02*
G01X-9655113Y-4711700D01*
G01X-9410700Y-4711700D01*
G01X-9385300Y-4737100D01*
G54D30*
G01X-11023600Y-4356100D02*
G01X-11023600Y-4569107D01*
G01X-10629900Y-4962807D01*
G01X-9994900Y-3958488D02*
G01X-10011512Y-3975100D01*
G01X-9994900Y-3759200D02*
G01X-9994900Y-3958488D01*
G01X-9516981Y-3281281D02*
G01X-9994900Y-3759200D01*
G01X-5816595Y-3162300D02*
G01X-5935576Y-3281281D01*
G01X-9516981Y-3281281D01*
G01X-9779000Y-3860800D02*
G01X-8890000Y-3860800D01*
G01X-8509000Y-4241800D01*
G01X-9880600Y-3962400D02*
G01X-9779000Y-3860800D01*
G54D11*
G01X-9680694Y-4686119D02*
G01X-9769774Y-4775200D01*
G01X-9867900Y-4775200D02*
G01X-9931400Y-4711700D01*
G01X-9769774Y-4775200D02*
G01X-9867900Y-4775200D01*
G54D30*
G01X-9258300Y-3211081D02*
G01X-7910081Y-3211081D01*
G01X-7899400Y-3200400D01*
G01X-5816595Y-2908300D02*
G01X-5676900Y-3047995D01*
G01X-5676900Y-3354197D02*
G01X-5400916Y-3630181D01*
G01X-5676900Y-3047995D02*
G01X-5676900Y-3354197D01*
G01X-9258300Y-2703081D02*
G01X-9019019Y-2463800D01*
G01X-6807200Y-2463800D02*
G01X-5969000Y-1625600D01*
G01X-5969000Y-807364D02*
G01X-5261216Y-99581D01*
G01X-9019019Y-2463800D02*
G01X-6807200Y-2463800D01*
G01X-5969000Y-1625600D02*
G01X-5969000Y-807364D01*
G54D11*
G01X-5816595Y-2654300D02*
G01X-5575300Y-2413005D01*
G01X-5575300Y-1429664D02*
G01X-5261216Y-1115581D01*
G01X-5575300Y-2413005D02*
G01X-5575300Y-1429664D01*
G54D30*
G01X-9258300Y-2830081D02*
G01X-9180081Y-2830081D01*
G01X-9004300Y-2654300D01*
G01X-6642100Y-2654300D01*
G01X-5822950Y-1835150D01*
G54D11*
G01X-10795000Y-1955800D02*
G01X-10795000Y-3822700D01*
G01X-10782300Y-3835400D01*
G01X-10782300Y-3940912D01*
G01X-10773512Y-3949700D01*
G01X-10642600Y-3884021D02*
G01X-10502900Y-3744321D01*
G01X-10210800Y-3744321D01*
G01X-10642600Y-3937000D02*
G01X-10642600Y-3884021D01*
G01X-10210800Y-3744321D02*
G01X-10058400Y-3591921D01*
G01X-10058400Y-3238500D01*
G01X-10680700Y-2616200D01*
G01X-10680700Y-2120900D01*
G01X-10515600Y-3975100D02*
G01X-10325100Y-3975100D01*
G01X-8483600Y-1409700D02*
G01X-8001000Y-1409700D01*
G01X-10325100Y-3975100D02*
G01X-9969500Y-3619500D01*
G01X-9969500Y-2895600D01*
G01X-8483600Y-1409700D01*
G01X-8001000Y-1409700D02*
G01X-7645400Y-1054100D01*
G01X-7645400Y-749300D01*
G01X-11036300Y-3924300D02*
G01X-11036300Y-2870200D01*
G01X-11226800Y-1498600D02*
G01X-11633200Y-1092200D01*
G01X-11036300Y-2870200D02*
G01X-11226800Y-2679700D01*
G01X-11226800Y-1498600D01*
G01X-8087182Y330877D02*
G01X-8456159Y-38100D01*
G01X-9524517Y-38100D02*
G01X-9867913Y305295D01*
G01X-8456159Y-38100D02*
G01X-9524517Y-38100D01*
G01X-11098646Y841449D02*
G01X-10784395Y1155700D01*
G01X-9499600Y1155700D01*
G01X-9481639Y1137739D01*
G01X-9481639Y958542D01*
G01X-9452216Y929119D01*
G01X-9452216Y1126884D01*
G01X-9398000Y1181100D01*
G01X-7962900Y1181100D01*
G01X-7763116Y981316D01*
G01X-7763116Y941819D01*
G01X-9706216Y929119D02*
G01X-9613887Y836790D01*
G01X-9613887Y304305D01*
G01X-8017116Y941819D02*
G01X-7899400Y824103D01*
G01X-7899400Y396130D02*
G01X-7833157Y329886D01*
G01X-7899400Y824103D02*
G01X-7899400Y396130D01*
G01X-11098646Y587449D02*
G01X-11098646Y-481446D01*
G01X-11176000Y-558800D01*
G01X-11112500Y-1524000D02*
G01X-11112500Y-1803400D01*
G01X-11493500Y-889000D02*
G01X-11493500Y-1143000D01*
G01X-11112500Y-1524000D01*
G04 Track End*

M02*

