G04 Layer: BottomSolderMaskLayer*
G04 EasyEDA Pro v2.2.47.7, 2026-04-24 13:10:02*
G04 Gerber Generator version 0.3*
G04 Scale: 100 percent, Rotated: No, Reflected: No*
G04 Dimensions in millimeters*
G04 Leading zeros omitted, absolute positions, 4 integers and 5 decimals*
G04 Generated by one-click*
G04 Object Configs: Pad,Via,Track,Text,Image,Dimension,BoardOutline,BoardCutout,CopperFilled,SolidRegion,FPCStiffener,Line,PlaneZone,ComponentProperty,ComponentSilkscreen,TearDrop*
G04 Layer Configs: 1,15,16,2,3,4,5,6,7,8,9,10,11,13,14,56*
G04 Copper Areas: 0*
%FSLAX45Y45*%
%MOMM*%
%AMRoundRect*1,1,$1,$2,$3*1,1,$1,$4,$5*1,1,$1,0-$2,0-$3*1,1,$1,0-$4,0-$5*20,1,$1,$2,$3,$4,$5,0*20,1,$1,$4,$5,0-$2,0-$3,0*20,1,$1,0-$2,0-$3,0-$4,0-$5,0*20,1,$1,0-$4,0-$5,$2,$3,0*4,1,4,$2,$3,$4,$5,0-$2,0-$3,0-$4,0-$5,$2,$3,0*%
%ADD10C,1.8016*%
%ADD11RoundRect,0.09579X-0.8529X-0.7903X-0.8529X0.7903*%
%ADD12O,1.1016X2.0016*%
%ADD13O,1.1016X2.2016*%
%ADD14C,1.1*%
%ADD15R,2.2X2.2*%
%ADD16C,2.2*%
%ADD17RoundRect,0.09444X-0.80278X-0.80278X-0.80278X0.80278*%
%ADD18C,1.7*%
%ADD19RoundRect,0.1004X-0.90257X1.30257X0.90257X1.30257*%
%ADD20RoundRect,0.09645X-0.90257X1.30257X0.90257X1.30257*%
%ADD21O,1.9016X2.70159*%
%ADD22C,1.6764*%
%ADD23RoundRect,0.09579X-0.7903X0.7903X0.7903X0.7903*%
%ADD24RoundRect,0.09618X-0.85271X0.85271X0.85271X0.85271*%
G75*


G04 Pad Start*
G54D10*
G01X-5400916Y-4646181D03*
G01X-5400916Y-4392181D03*
G01X-5400916Y-4138181D03*
G01X-5400916Y-3884181D03*
G01X-5400916Y-3630181D03*
G01X-5400916Y-3376181D03*
G01X-5400916Y-3122181D03*
G54D11*
G01X-5400916Y-2868181D03*
G54D10*
G01X-5261216Y154419D03*
G01X-5261216Y-99581D03*
G01X-5261216Y-353581D03*
G01X-5261216Y-607581D03*
G01X-5261216Y-861581D03*
G01X-5261216Y-1115581D03*
G01X-5261216Y-1369581D03*
G54D11*
G01X-5261216Y-1623581D03*
G54D12*
G01X-9222918Y-5453113D03*
G01X-10087915Y-5453113D03*
G54D13*
G01X-9222918Y-5033124D03*
G01X-10087915Y-5033124D03*
G54D14*
G01X-8017116Y687819D03*
G01X-7763116Y687819D03*
G54D15*
G01X-8017116Y941819D03*
G54D16*
G01X-7763116Y941819D03*
G54D14*
G01X-9706216Y675119D03*
G01X-9452216Y675119D03*
G54D15*
G01X-9706216Y929119D03*
G54D16*
G01X-9452216Y929119D03*
G54D14*
G01X-10844646Y587449D03*
G01X-10844646Y841449D03*
G54D15*
G01X-11098646Y587449D03*
G54D16*
G01X-11098646Y841449D03*
G54D17*
G01X-5816595Y-5448300D03*
G54D18*
G01X-5816595Y-5194300D03*
G01X-5816595Y-4940300D03*
G01X-5816595Y-4686300D03*
G01X-5816595Y-4432300D03*
G01X-5816595Y-4178300D03*
G01X-5816595Y-3924300D03*
G01X-5816595Y-3670300D03*
G01X-5816595Y-3416300D03*
G01X-5816595Y-3162300D03*
G01X-5816595Y-2908300D03*
G01X-5816595Y-2654300D03*
G01X-5816595Y-2400300D03*
G01X-5816595Y-2146300D03*
G54D20*
G01X-7579157Y329886D03*
G54D21*
G01X-8087182Y330877D03*
G01X-7833157Y329886D03*
G54D20*
G01X-9359887Y304305D03*
G54D21*
G01X-9867913Y305295D03*
G01X-9613887Y304305D03*
G54D22*
G01X-11176000Y-558800D03*
G01X-11430000Y-558800D03*
G54D23*
G01X-11684000Y-558800D03*
G54D24*
G01X-11607800Y-1104900D03*
G54D10*
G01X-11353800Y-1104900D03*
G01X-11099800Y-1104900D03*
G01X-10845800Y-1104900D03*
G04 Pad End*

M02*

