G04 Layer: TopLayer*
G04 EasyEDA Pro v2.2.47.7, 2026-04-24 13:10:02*
G04 Gerber Generator version 0.3*
G04 Scale: 100 percent, Rotated: No, Reflected: No*
G04 Dimensions in millimeters*
G04 Leading zeros omitted, absolute positions, 4 integers and 5 decimals*
G04 Generated by one-click*
G04 Object Configs: Pad,Via,Track,Text,Image,Dimension,BoardOutline,BoardCutout,CopperFilled,SolidRegion,FPCStiffener,Line,PlaneZone,ComponentProperty,ComponentSilkscreen,TearDrop*
G04 Layer Configs: 1,15,16,2,3,4,5,6,7,8,9,10,11,13,14,56*
G04 Copper Areas: 125*
%FSLAX45Y45*%
%MOMM*%
%ADD10C,0.2032*%
%ADD11C,0.254*%
%ADD12R,0.9X1.5*%
%ADD13R,1.5X0.9*%
%ADD14R,0.9X0.9*%
%ADD15C,1.7*%
%ADD16R,1.7X1.5748*%
%ADD17R,0.6063X1.15001*%
%ADD18R,0.6X1.15001*%
%ADD19R,0.3X1.15001*%
%ADD20O,1.0X1.9*%
%ADD21O,1.0X2.1*%
%ADD22R,0.532X1.07201*%
%ADD23C,1.1*%
%ADD24R,2.2X2.2*%
%ADD25C,2.2*%
%ADD26R,1.6X1.6*%
%ADD27C,1.6*%
%ADD28R,0.8X0.9*%
%ADD29R,0.9X0.8*%
%ADD30R,2.0X2.0*%
%ADD31R,1.0X1.25001*%
%ADD32R,0.86401X0.80648*%
%ADD33R,0.80648X0.86401*%
%ADD34R,1.35999X1.23*%
%ADD35R,1.1X2.49999*%
%ADD36R,3.59999X2.34*%
%ADD37R,1.8X2.59999*%
%ADD38O,1.8X2.59999*%
%ADD39R,1.62001X2.04638*%
%ADD40C,1.5748*%
%ADD41R,1.5748X1.5748*%
%ADD42R,1.7X1.7*%
%ADD43C,0.61*%
%ADD44C,0.8*%
%ADD45C,0.508*%
%ADD46C,0.5*%
%ADD47C,0.7*%
%ADD48C,1.0*%
%ADD49C,0.3*%
%ADD50C,0.4*%
G75*


G04 Copper Start*
G36*
G01X-11417812Y-2226208D02*
G01X-12007202Y-2226208D01*
G01X-12007202Y-1686071D01*
G01X-11832443Y-1686071D01*
G01X-11830690Y-1697138D01*
G01X-11825603Y-1707122D01*
G01X-11817680Y-1715045D01*
G01X-11807696Y-1720132D01*
G01X-11796629Y-1721885D01*
G01X-11696629Y-1721885D01*
G01X-11685562Y-1720132D01*
G01X-11675578Y-1715045D01*
G01X-11667655Y-1707122D01*
G01X-11662568Y-1697138D01*
G01X-11660815Y-1686071D01*
G01X-11660815Y-1561070D01*
G01X-11660815Y-1561070D01*
G01X-11662568Y-1550003D01*
G01X-11667655Y-1540019D01*
G01X-11675578Y-1532096D01*
G01X-11685562Y-1527009D01*
G01X-11696629Y-1525256D01*
G01X-11796629Y-1525256D01*
G01X-11807696Y-1527009D01*
G01X-11817680Y-1532096D01*
G01X-11825603Y-1540019D01*
G01X-11830690Y-1550003D01*
G01X-11832443Y-1561070D01*
G01X-11832443Y-1686071D01*
G01X-12007202Y-1686071D01*
G01X-12007202Y-637540D01*
G01X-11798554Y-637540D01*
G01X-11796801Y-648607D01*
G01X-11791714Y-658591D01*
G01X-11783791Y-666514D01*
G01X-11773807Y-671601D01*
G01X-11762740Y-673354D01*
G01X-11693550Y-673354D01*
G01X-11693550Y-683935D01*
G01X-11704558Y-688566D01*
G01X-11713431Y-696559D01*
G01X-11719183Y-707025D01*
G01X-11721174Y-718800D01*
G01X-11721174Y-720367D01*
G01X-11729052Y-729053D01*
G01X-11734941Y-739193D01*
G01X-11738582Y-750339D01*
G01X-11739814Y-762000D01*
G01X-11739814Y-762000D01*
G01X-11739814Y-1028700D01*
G01X-11738530Y-1040601D01*
G01X-11734739Y-1051954D01*
G01X-11728614Y-1062238D01*
G01X-11728614Y-1189900D01*
G01X-11726861Y-1200967D01*
G01X-11721774Y-1210951D01*
G01X-11713851Y-1218874D01*
G01X-11703867Y-1223961D01*
G01X-11692800Y-1225714D01*
G01X-11522800Y-1225714D01*
G01X-11511733Y-1223961D01*
G01X-11501749Y-1218874D01*
G01X-11493826Y-1210951D01*
G01X-11488739Y-1200967D01*
G01X-11486986Y-1189900D01*
G01X-11486986Y-1104900D01*
G01X-11474614Y-1104900D01*
G01X-11472778Y-1125879D01*
G01X-11467328Y-1146221D01*
G01X-11458428Y-1165307D01*
G01X-11446349Y-1182558D01*
G01X-11431458Y-1197449D01*
G01X-11414207Y-1209528D01*
G01X-11395121Y-1218428D01*
G01X-11374779Y-1223878D01*
G01X-11353800Y-1225714D01*
G01X-11332821Y-1223878D01*
G01X-11312479Y-1218428D01*
G01X-11293393Y-1209528D01*
G01X-11276142Y-1197449D01*
G01X-11261251Y-1182558D01*
G01X-11249172Y-1165307D01*
G01X-11240272Y-1146221D01*
G01X-11234822Y-1125879D01*
G01X-11232986Y-1104900D01*
G01X-11234822Y-1083921D01*
G01X-11240272Y-1063579D01*
G01X-11249172Y-1044493D01*
G01X-11261251Y-1027242D01*
G01X-11276142Y-1012351D01*
G01X-11293393Y-1000272D01*
G01X-11312479Y-991372D01*
G01X-11332821Y-985922D01*
G01X-11353800Y-984086D01*
G01X-11374779Y-985922D01*
G01X-11395121Y-991372D01*
G01X-11414207Y-1000272D01*
G01X-11431458Y-1012351D01*
G01X-11446349Y-1027242D01*
G01X-11458428Y-1044493D01*
G01X-11467328Y-1063579D01*
G01X-11472778Y-1083921D01*
G01X-11474614Y-1104900D01*
G01X-11474614Y-1104900D01*
G01X-11486986Y-1104900D01*
G01X-11486986Y-1019900D01*
G01X-11488739Y-1008833D01*
G01X-11493826Y-998849D01*
G01X-11501749Y-990926D01*
G01X-11511733Y-985839D01*
G01X-11522800Y-984086D01*
G01X-11628186Y-984086D01*
G01X-11628186Y-841014D01*
G01X-11604713Y-841014D01*
G01X-11595099Y-839700D01*
G01X-11586191Y-835853D01*
G01X-11578642Y-829756D01*
G01X-11573007Y-821856D01*
G01X-11569700Y-812734D01*
G01X-11566115Y-822375D01*
G01X-11559937Y-830599D01*
G01X-11551676Y-836729D01*
G01X-11542014Y-840257D01*
G01X-11542014Y-843790D01*
G01X-11551112Y-856161D01*
G01X-11557121Y-870294D01*
G01X-11559718Y-885429D01*
G01X-11558764Y-900756D01*
G01X-11554310Y-915453D01*
G01X-11546594Y-928731D01*
G01X-11536032Y-939878D01*
G01X-11523189Y-948297D01*
G01X-11508753Y-953536D01*
G01X-11493500Y-955314D01*
G01X-11478247Y-953536D01*
G01X-11463811Y-948297D01*
G01X-11450968Y-939878D01*
G01X-11440406Y-928731D01*
G01X-11432690Y-915453D01*
G01X-11428236Y-900756D01*
G01X-11427282Y-885429D01*
G01X-11429879Y-870294D01*
G01X-11435888Y-856161D01*
G01X-11444986Y-843790D01*
G01X-11444986Y-839851D01*
G01X-11434282Y-835071D01*
G01X-11425695Y-827091D01*
G01X-11420144Y-816765D01*
G01X-11418226Y-805200D01*
G01X-11418226Y-754471D01*
G01X-11395695Y-731941D01*
G01X-11387986Y-721893D01*
G01X-11383139Y-710193D01*
G01X-11381486Y-697636D01*
G01X-11381486Y-662574D01*
G01X-11363665Y-652193D01*
G01X-11347993Y-638785D01*
G01X-11334980Y-622784D01*
G01X-11325048Y-604709D01*
G01X-11318517Y-585145D01*
G01X-11315599Y-564728D01*
G01X-11315827Y-558800D01*
G01X-11290554Y-558800D01*
G01X-11288604Y-579849D01*
G01X-11282818Y-600182D01*
G01X-11273396Y-619105D01*
G01X-11260656Y-635975D01*
G01X-11245034Y-650216D01*
G01X-11227061Y-661345D01*
G01X-11207349Y-668981D01*
G01X-11186570Y-672865D01*
G01X-11165430Y-672865D01*
G01X-11144651Y-668981D01*
G01X-11124939Y-661345D01*
G01X-11106966Y-650216D01*
G01X-11091344Y-635975D01*
G01X-11078604Y-619105D01*
G01X-11069182Y-600182D01*
G01X-11063396Y-579849D01*
G01X-11061446Y-558800D01*
G01X-11063396Y-537751D01*
G01X-11069182Y-517418D01*
G01X-11078604Y-498495D01*
G01X-11091344Y-481625D01*
G01X-11106966Y-467384D01*
G01X-11124939Y-456255D01*
G01X-11144651Y-448619D01*
G01X-11165430Y-444735D01*
G01X-11186570Y-444735D01*
G01X-11207349Y-448619D01*
G01X-11227061Y-456255D01*
G01X-11245034Y-467384D01*
G01X-11260656Y-481625D01*
G01X-11273396Y-498495D01*
G01X-11282818Y-517418D01*
G01X-11288604Y-537751D01*
G01X-11290554Y-558800D01*
G01X-11290554Y-558800D01*
G01X-11315827Y-558800D01*
G01X-11316391Y-544119D01*
G01X-11320864Y-523986D01*
G01X-11328876Y-504981D01*
G01X-11340165Y-487720D01*
G01X-11354367Y-472764D01*
G01X-11371020Y-460597D01*
G01X-11389584Y-451612D01*
G01X-11409459Y-446103D01*
G01X-11430000Y-444246D01*
G01X-11450541Y-446103D01*
G01X-11470416Y-451612D01*
G01X-11488980Y-460597D01*
G01X-11505633Y-472764D01*
G01X-11519835Y-487720D01*
G01X-11531124Y-504981D01*
G01X-11539136Y-523986D01*
G01X-11543609Y-544119D01*
G01X-11544401Y-564728D01*
G01X-11541483Y-585145D01*
G01X-11534952Y-604709D01*
G01X-11525020Y-622784D01*
G01X-11512007Y-638785D01*
G01X-11496335Y-652193D01*
G01X-11478514Y-662574D01*
G01X-11478514Y-677541D01*
G01X-11483958Y-682986D01*
G01X-11534687Y-682986D01*
G01X-11544301Y-684300D01*
G01X-11553209Y-688147D01*
G01X-11560758Y-694244D01*
G01X-11566393Y-702144D01*
G01X-11569700Y-711266D01*
G01X-11573180Y-701819D01*
G01X-11579152Y-693714D01*
G01X-11587143Y-687592D01*
G01X-11596522Y-683935D01*
G01X-11596522Y-672272D01*
G01X-11585707Y-667545D01*
G01X-11577015Y-659559D01*
G01X-11571391Y-649182D01*
G01X-11569446Y-637540D01*
G01X-11569446Y-480060D01*
G01X-11571199Y-468993D01*
G01X-11576286Y-459009D01*
G01X-11584209Y-451086D01*
G01X-11594193Y-445999D01*
G01X-11605260Y-444246D01*
G01X-11762740Y-444246D01*
G01X-11773807Y-445999D01*
G01X-11783791Y-451086D01*
G01X-11791714Y-459009D01*
G01X-11796801Y-468993D01*
G01X-11798554Y-480060D01*
G01X-11798554Y-637540D01*
G01X-12007202Y-637540D01*
G01X-12007202Y-22860D01*
G01X-9497314Y-22860D01*
G01X-9497314Y-64822D01*
G01X-9507093Y-67761D01*
G01X-9515645Y-73341D01*
G01X-9522275Y-81107D01*
G01X-9526444Y-90428D01*
G01X-9529498Y-80908D01*
G01X-9535065Y-72602D01*
G01X-9542710Y-66160D01*
G01X-9551839Y-62081D01*
G01X-9561740Y-60686D01*
G01X-9642387Y-60686D01*
G01X-9652001Y-62000D01*
G01X-9660909Y-65847D01*
G01X-9668458Y-71944D01*
G01X-9674093Y-79844D01*
G01X-9677400Y-88966D01*
G01X-9680707Y-79844D01*
G01X-9686342Y-71944D01*
G01X-9693891Y-65847D01*
G01X-9702799Y-62000D01*
G01X-9712413Y-60686D01*
G01X-9793060Y-60686D01*
G01X-9804127Y-62439D01*
G01X-9814111Y-67526D01*
G01X-9822034Y-75449D01*
G01X-9827121Y-85433D01*
G01X-9828874Y-96500D01*
G01X-9828874Y-182900D01*
G01X-9827121Y-193967D01*
G01X-9822034Y-203951D01*
G01X-9814111Y-211874D01*
G01X-9804127Y-216961D01*
G01X-9793060Y-218714D01*
G01X-9712413Y-218714D01*
G01X-9702799Y-217400D01*
G01X-9693891Y-213553D01*
G01X-9686342Y-207456D01*
G01X-9680707Y-199556D01*
G01X-9677400Y-190434D01*
G01X-9674093Y-199556D01*
G01X-9668458Y-207456D01*
G01X-9660909Y-213553D01*
G01X-9652001Y-217400D01*
G01X-9642387Y-218714D01*
G01X-9561740Y-218714D01*
G01X-9552040Y-217376D01*
G01X-9543066Y-213460D01*
G01X-9535487Y-207261D01*
G01X-9529870Y-199240D01*
G01X-9526636Y-189998D01*
G01X-9522853Y-199073D01*
G01X-9516745Y-206778D01*
G01X-9508772Y-212532D01*
G01X-9499534Y-215900D01*
G01X-9508656Y-219207D01*
G01X-9516556Y-224842D01*
G01X-9522653Y-232391D01*
G01X-9526500Y-241299D01*
G01X-9527814Y-250913D01*
G01X-9527814Y-331560D01*
G01X-9526376Y-341608D01*
G01X-9522176Y-350849D01*
G01X-9515553Y-358540D01*
G01X-9507037Y-364065D01*
G01X-9497314Y-366978D01*
G01X-9497314Y-1415005D01*
G01X-10182216Y-2099907D01*
G01X-10189926Y-2109955D01*
G01X-10194773Y-2121655D01*
G01X-10196426Y-2134212D01*
G01X-10196426Y-2291172D01*
G01X-10202012Y-2293910D01*
G01X-10210910Y-2290073D01*
G01X-10220512Y-2288762D01*
G01X-10310512Y-2288762D01*
G01X-10320113Y-2290073D01*
G01X-10329012Y-2293910D01*
G01X-10337910Y-2290073D01*
G01X-10347512Y-2288762D01*
G01X-10437512Y-2288762D01*
G01X-10447113Y-2290073D01*
G01X-10456012Y-2293910D01*
G01X-10464910Y-2290073D01*
G01X-10474512Y-2288762D01*
G01X-10564512Y-2288762D01*
G01X-10574113Y-2290073D01*
G01X-10583012Y-2293910D01*
G01X-10591910Y-2290073D01*
G01X-10601512Y-2288762D01*
G01X-10691512Y-2288762D01*
G01X-10701113Y-2290073D01*
G01X-10710012Y-2293910D01*
G01X-10718910Y-2290073D01*
G01X-10728512Y-2288762D01*
G01X-10818512Y-2288762D01*
G01X-10828113Y-2290073D01*
G01X-10837012Y-2293910D01*
G01X-10845910Y-2290073D01*
G01X-10855512Y-2288762D01*
G01X-10945512Y-2288762D01*
G01X-10955113Y-2290073D01*
G01X-10964012Y-2293910D01*
G01X-10972910Y-2290073D01*
G01X-10982512Y-2288762D01*
G01X-10997168Y-2288762D01*
G01X-10997168Y-2035765D01*
G01X-10885266Y-2147666D01*
G01X-10873707Y-2156536D01*
G01X-10860246Y-2162112D01*
G01X-10845800Y-2164014D01*
G01X-10731086Y-2164014D01*
G01X-10718994Y-2175040D01*
G01X-10704569Y-2182769D01*
G01X-10688691Y-2186731D01*
G01X-10672327Y-2186683D01*
G01X-10656472Y-2182630D01*
G01X-10642093Y-2174817D01*
G01X-10630065Y-2163721D01*
G01X-10621120Y-2150017D01*
G01X-10615804Y-2134540D01*
G01X-10614440Y-2118232D01*
G01X-10617111Y-2102087D01*
G01X-10623654Y-2087087D01*
G01X-10633671Y-2074147D01*
G01X-10646553Y-2064054D01*
G01X-10661514Y-2057422D01*
G01X-10677643Y-2054656D01*
G01X-10685440Y-2052957D01*
G01X-10693400Y-2052386D01*
G01X-10822681Y-2052386D01*
G01X-10955086Y-1919981D01*
G01X-10955086Y-1181100D01*
G01X-10956939Y-1166838D01*
G01X-10962374Y-1153524D01*
G01X-10971031Y-1142040D01*
G01X-10982335Y-1133149D01*
G01X-10979217Y-1112364D01*
G01X-10979463Y-1102617D01*
G01X-10966592Y-1102617D01*
G01X-10965200Y-1123327D01*
G01X-10960284Y-1143493D01*
G01X-10951988Y-1162520D01*
G01X-10940558Y-1179846D01*
G01X-10926330Y-1194960D01*
G01X-10909726Y-1207416D01*
G01X-10891235Y-1216845D01*
G01X-10871402Y-1222970D01*
G01X-10850814Y-1225610D01*
G01X-10850814Y-1919990D01*
G01X-10850814Y-1919990D01*
G01X-10857681Y-1934153D01*
G01X-10861017Y-1949535D01*
G01X-10860634Y-1965270D01*
G01X-10856554Y-1980472D01*
G01X-10849005Y-1994284D01*
G01X-10838414Y-2005928D01*
G01X-10825377Y-2014747D01*
G01X-10810629Y-2020246D01*
G01X-10795000Y-2022114D01*
G01X-10779371Y-2020246D01*
G01X-10764623Y-2014747D01*
G01X-10751586Y-2005928D01*
G01X-10740995Y-1994284D01*
G01X-10733446Y-1980472D01*
G01X-10729366Y-1965270D01*
G01X-10728983Y-1949535D01*
G01X-10732319Y-1934153D01*
G01X-10739186Y-1919990D01*
G01X-10739186Y-1161728D01*
G01X-10731032Y-1142640D01*
G01X-10726266Y-1122438D01*
G01X-10725028Y-1101718D01*
G01X-10727355Y-1081092D01*
G01X-10733179Y-1061169D01*
G01X-10742326Y-1042537D01*
G01X-10754528Y-1025745D01*
G01X-10769425Y-1011290D01*
G01X-10786575Y-999599D01*
G01X-10805474Y-991015D01*
G01X-10825563Y-985793D01*
G01X-10846250Y-984087D01*
G01X-10866923Y-985947D01*
G01X-10886973Y-991318D01*
G01X-10905807Y-1000042D01*
G01X-10922870Y-1011862D01*
G01X-10937658Y-1026427D01*
G01X-10949735Y-1043309D01*
G01X-10958744Y-1062009D01*
G01X-10964419Y-1081975D01*
G01X-10966592Y-1102617D01*
G01X-10979463Y-1102617D01*
G01X-10979748Y-1091352D01*
G01X-10983913Y-1070750D01*
G01X-10991585Y-1051182D01*
G01X-11002533Y-1033240D01*
G01X-11016425Y-1017467D01*
G01X-11032840Y-1004340D01*
G01X-11051282Y-994257D01*
G01X-11071192Y-987522D01*
G01X-11091968Y-984340D01*
G01X-11112981Y-984807D01*
G01X-11133595Y-988909D01*
G01X-11153187Y-996522D01*
G01X-11171162Y-1007415D01*
G01X-11186978Y-1021258D01*
G01X-11200155Y-1037633D01*
G01X-11210295Y-1056044D01*
G01X-11217090Y-1075933D01*
G01X-11220335Y-1096700D01*
G01X-11219932Y-1117714D01*
G01X-11215893Y-1138341D01*
G01X-11208341Y-1157955D01*
G01X-11197503Y-1175964D01*
G01X-11183708Y-1191822D01*
G01X-11167373Y-1205049D01*
G01X-11148994Y-1215245D01*
G01X-11129125Y-1222101D01*
G01X-11108369Y-1225410D01*
G01X-11087353Y-1225071D01*
G01X-11066714Y-1221095D01*
G01X-11066714Y-1755429D01*
G01X-11078299Y-1746586D01*
G01X-11091535Y-1740487D01*
G01X-11105784Y-1737427D01*
G01X-11120358Y-1737553D01*
G01X-11134552Y-1740860D01*
G01X-11147681Y-1747187D01*
G01X-11159110Y-1756230D01*
G01X-11168289Y-1767551D01*
G01X-11174772Y-1780603D01*
G01X-11178248Y-1794757D01*
G01X-11178549Y-1809328D01*
G01X-11175659Y-1823612D01*
G01X-11169718Y-1836921D01*
G01X-11161014Y-1848610D01*
G01X-11161014Y-1910238D01*
G01X-11440800Y-1630452D01*
G01X-11440800Y-1561070D01*
G01X-11442553Y-1550003D01*
G01X-11447640Y-1540019D01*
G01X-11455563Y-1532096D01*
G01X-11465547Y-1527009D01*
G01X-11476614Y-1525256D01*
G01X-11576614Y-1525256D01*
G01X-11587681Y-1527009D01*
G01X-11597665Y-1532096D01*
G01X-11605588Y-1540019D01*
G01X-11610675Y-1550003D01*
G01X-11612428Y-1561070D01*
G01X-11612428Y-1686071D01*
G01X-11610675Y-1697138D01*
G01X-11605588Y-1707122D01*
G01X-11597665Y-1715045D01*
G01X-11587681Y-1720132D01*
G01X-11576614Y-1721885D01*
G01X-11507232Y-1721885D01*
G01X-11210326Y-2018792D01*
G01X-11210326Y-2290434D01*
G01X-11218012Y-2293910D01*
G01X-11226910Y-2290073D01*
G01X-11236512Y-2288762D01*
G01X-11326512Y-2288762D01*
G01X-11337579Y-2290515D01*
G01X-11347562Y-2295602D01*
G01X-11355486Y-2303525D01*
G01X-11360573Y-2313509D01*
G01X-11362326Y-2324576D01*
G01X-11362326Y-2474576D01*
G01X-11360573Y-2485643D01*
G01X-11355486Y-2495627D01*
G01X-11347562Y-2503550D01*
G01X-11337579Y-2508637D01*
G01X-11326512Y-2510390D01*
G01X-11236512Y-2510390D01*
G01X-11226910Y-2509079D01*
G01X-11218012Y-2505242D01*
G01X-11209113Y-2509079D01*
G01X-11199512Y-2510390D01*
G01X-11109512Y-2510390D01*
G01X-11099910Y-2509079D01*
G01X-11091012Y-2505242D01*
G01X-11082113Y-2509079D01*
G01X-11072512Y-2510390D01*
G01X-10982512Y-2510390D01*
G01X-10972910Y-2509079D01*
G01X-10964012Y-2505242D01*
G01X-10955113Y-2509079D01*
G01X-10945512Y-2510390D01*
G01X-10855512Y-2510390D01*
G01X-10845910Y-2509079D01*
G01X-10837012Y-2505242D01*
G01X-10828113Y-2509079D01*
G01X-10818512Y-2510390D01*
G01X-10728512Y-2510390D01*
G01X-10718910Y-2509079D01*
G01X-10710012Y-2505242D01*
G01X-10701113Y-2509079D01*
G01X-10691512Y-2510390D01*
G01X-10601512Y-2510390D01*
G01X-10591910Y-2509079D01*
G01X-10583012Y-2505242D01*
G01X-10574113Y-2509079D01*
G01X-10564512Y-2510390D01*
G01X-10474512Y-2510390D01*
G01X-10464910Y-2509079D01*
G01X-10456012Y-2505242D01*
G01X-10447113Y-2509079D01*
G01X-10437512Y-2510390D01*
G01X-10347512Y-2510390D01*
G01X-10337910Y-2509079D01*
G01X-10329012Y-2505242D01*
G01X-10320113Y-2509079D01*
G01X-10310512Y-2510390D01*
G01X-10220512Y-2510390D01*
G01X-10210910Y-2509079D01*
G01X-10202012Y-2505242D01*
G01X-10193113Y-2509079D01*
G01X-10183512Y-2510390D01*
G01X-10093512Y-2510390D01*
G01X-10083910Y-2509079D01*
G01X-10075012Y-2505242D01*
G01X-10066113Y-2509079D01*
G01X-10056512Y-2510390D01*
G01X-9966512Y-2510390D01*
G01X-9956910Y-2509079D01*
G01X-9948012Y-2505242D01*
G01X-9939113Y-2509079D01*
G01X-9929512Y-2510390D01*
G01X-9839512Y-2510390D01*
G01X-9829910Y-2509079D01*
G01X-9821012Y-2505242D01*
G01X-9812113Y-2509079D01*
G01X-9802512Y-2510390D01*
G01X-9712512Y-2510390D01*
G01X-9702910Y-2509079D01*
G01X-9694012Y-2505242D01*
G01X-9685113Y-2509079D01*
G01X-9675512Y-2510390D01*
G01X-9609750Y-2510390D01*
G01X-9614647Y-2520225D01*
G01X-9616332Y-2531081D01*
G01X-9616332Y-2621081D01*
G01X-9614594Y-2632102D01*
G01X-9609549Y-2642054D01*
G01X-9612375Y-2649847D01*
G01X-9613335Y-2658081D01*
G01X-9613335Y-2748081D01*
G01X-9612024Y-2757682D01*
G01X-9608187Y-2766581D01*
G01X-9612024Y-2775479D01*
G01X-9613335Y-2785081D01*
G01X-9613335Y-2875081D01*
G01X-9612024Y-2884682D01*
G01X-9608187Y-2893581D01*
G01X-9612024Y-2902479D01*
G01X-9613335Y-2912081D01*
G01X-9613335Y-3002081D01*
G01X-9612024Y-3011682D01*
G01X-9608187Y-3020581D01*
G01X-9612024Y-3029479D01*
G01X-9613335Y-3039081D01*
G01X-9613335Y-3129081D01*
G01X-9612024Y-3138682D01*
G01X-9608187Y-3147581D01*
G01X-9612024Y-3156479D01*
G01X-9613335Y-3166081D01*
G01X-9613335Y-3256081D01*
G01X-9612024Y-3265682D01*
G01X-9608187Y-3274581D01*
G01X-9612024Y-3283479D01*
G01X-9613335Y-3293081D01*
G01X-9613335Y-3383081D01*
G01X-9612024Y-3392682D01*
G01X-9608187Y-3401581D01*
G01X-9612024Y-3410479D01*
G01X-9613335Y-3420081D01*
G01X-9613335Y-3510081D01*
G01X-9612024Y-3519682D01*
G01X-9608187Y-3528581D01*
G01X-9612024Y-3537479D01*
G01X-9613335Y-3547081D01*
G01X-9613335Y-3637081D01*
G01X-9612024Y-3646682D01*
G01X-9608187Y-3655581D01*
G01X-9612024Y-3664479D01*
G01X-9613335Y-3674081D01*
G01X-9613335Y-3764081D01*
G01X-9612024Y-3773682D01*
G01X-9608187Y-3782581D01*
G01X-9612024Y-3791479D01*
G01X-9613335Y-3801081D01*
G01X-9613335Y-3891081D01*
G01X-9612024Y-3900682D01*
G01X-9608187Y-3909581D01*
G01X-9612024Y-3918479D01*
G01X-9613335Y-3928081D01*
G01X-9613335Y-4018081D01*
G01X-9611650Y-4028937D01*
G01X-9606753Y-4038771D01*
G01X-9675512Y-4038771D01*
G01X-9685113Y-4040083D01*
G01X-9694012Y-4043920D01*
G01X-9702910Y-4040083D01*
G01X-9712512Y-4038771D01*
G01X-9802512Y-4038771D01*
G01X-9812113Y-4040083D01*
G01X-9821012Y-4043920D01*
G01X-9823698Y-4042452D01*
G01X-9823698Y-3996454D01*
G01X-9817472Y-3982709D01*
G01X-9814515Y-3967912D01*
G01X-9814980Y-3952830D01*
G01X-9818842Y-3938243D01*
G01X-9825902Y-3924907D01*
G01X-9835794Y-3913513D01*
G01X-9848006Y-3904649D01*
G01X-9861905Y-3898776D01*
G01X-9876772Y-3896196D01*
G01X-9891838Y-3897045D01*
G01X-9906321Y-3901277D01*
G01X-9919473Y-3908675D01*
G01X-9930612Y-3918853D01*
G01X-9939162Y-3931287D01*
G01X-9944680Y-3945331D01*
G01X-9946880Y-3960259D01*
G01X-9952188Y-3945465D01*
G01X-9960828Y-3932336D01*
G01X-9972316Y-3921609D01*
G01X-9986006Y-3913887D01*
G01X-10001129Y-3909604D01*
G01X-10016835Y-3909000D01*
G01X-10032241Y-3912109D01*
G01X-10046484Y-3918757D01*
G01X-10058761Y-3928570D01*
G01X-10068385Y-3940997D01*
G01X-10074813Y-3955340D01*
G01X-10077686Y-3970793D01*
G01X-10076841Y-3986488D01*
G01X-10072326Y-4001543D01*
G01X-10072326Y-4042452D01*
G01X-10075012Y-4043920D01*
G01X-10083910Y-4040083D01*
G01X-10093512Y-4038771D01*
G01X-10183512Y-4038771D01*
G01X-10193113Y-4040083D01*
G01X-10202012Y-4043920D01*
G01X-10210910Y-4040083D01*
G01X-10220512Y-4038771D01*
G01X-10310512Y-4038771D01*
G01X-10320113Y-4040083D01*
G01X-10329012Y-4043920D01*
G01X-10337910Y-4040083D01*
G01X-10347512Y-4038771D01*
G01X-10437512Y-4038771D01*
G01X-10447113Y-4040083D01*
G01X-10456012Y-4043920D01*
G01X-10467086Y-4039550D01*
G01X-10467086Y-4020310D01*
G01X-10458270Y-4008429D01*
G01X-10452308Y-3994890D01*
G01X-10449495Y-3980366D01*
G01X-10449973Y-3965579D01*
G01X-10453717Y-3951267D01*
G01X-10460541Y-3938140D01*
G01X-10470105Y-3926853D01*
G01X-10481933Y-3917968D01*
G01X-10495437Y-3911925D01*
G01X-10509945Y-3909028D01*
G01X-10524734Y-3909418D01*
G01X-10539068Y-3913077D01*
G01X-10552235Y-3919824D01*
G01X-10563578Y-3929321D01*
G01X-10572533Y-3941097D01*
G01X-10578655Y-3954565D01*
G01X-10576310Y-3938779D01*
G01X-10577804Y-3922891D01*
G01X-10583051Y-3907819D01*
G01X-10591747Y-3894437D01*
G01X-10603389Y-3883521D01*
G01X-10617301Y-3875702D01*
G01X-10632678Y-3871432D01*
G01X-10648630Y-3870961D01*
G01X-10664233Y-3874314D01*
G01X-10678583Y-3881297D01*
G01X-10690849Y-3891507D01*
G01X-10700320Y-3904351D01*
G01X-10706449Y-3919087D01*
G01X-10708880Y-3934859D01*
G01X-10713939Y-3920567D01*
G01X-10722113Y-3907798D01*
G01X-10732974Y-3897219D01*
G01X-10745953Y-3889384D01*
G01X-10760373Y-3884701D01*
G01X-10775479Y-3883415D01*
G01X-10790483Y-3885594D01*
G01X-10804600Y-3891125D01*
G01X-10817091Y-3899716D01*
G01X-10827305Y-3910921D01*
G01X-10834707Y-3924152D01*
G01X-10838910Y-3938719D01*
G01X-10839695Y-3953860D01*
G01X-10837020Y-3968784D01*
G01X-10831026Y-3982710D01*
G01X-10822026Y-3994910D01*
G01X-10822026Y-4038944D01*
G01X-10829796Y-4040596D01*
G01X-10837012Y-4043920D01*
G01X-10845910Y-4040083D01*
G01X-10855512Y-4038771D01*
G01X-10945512Y-4038771D01*
G01X-10955113Y-4040083D01*
G01X-10964012Y-4043920D01*
G01X-10972910Y-4040083D01*
G01X-10982512Y-4038771D01*
G01X-11072512Y-4038771D01*
G01X-11084083Y-4040692D01*
G01X-11033964Y-3990573D01*
G01X-11018782Y-3988259D01*
G01X-11004541Y-3982514D01*
G01X-10992002Y-3973648D01*
G01X-10981839Y-3962136D01*
G01X-10974596Y-3948594D01*
G01X-10970663Y-3933750D01*
G01X-10970249Y-3918399D01*
G01X-10973378Y-3903364D01*
G01X-10979880Y-3889452D01*
G01X-10989409Y-3877409D01*
G01X-11001452Y-3867880D01*
G01X-11015364Y-3861378D01*
G01X-11030399Y-3858249D01*
G01X-11045750Y-3858663D01*
G01X-11060594Y-3862596D01*
G01X-11074136Y-3869839D01*
G01X-11085648Y-3880002D01*
G01X-11094514Y-3892541D01*
G01X-11100259Y-3906782D01*
G01X-11102573Y-3921964D01*
G01X-11188816Y-4008207D01*
G01X-11195916Y-4017228D01*
G01X-11200698Y-4027664D01*
G01X-11202893Y-4038931D01*
G01X-11210733Y-4040575D01*
G01X-11218012Y-4043920D01*
G01X-11226910Y-4040083D01*
G01X-11236512Y-4038771D01*
G01X-11326512Y-4038771D01*
G01X-11337579Y-4040524D01*
G01X-11347562Y-4045611D01*
G01X-11355486Y-4053535D01*
G01X-11360573Y-4063518D01*
G01X-11362326Y-4074585D01*
G01X-11362326Y-4224585D01*
G01X-11360573Y-4235652D01*
G01X-11355486Y-4245636D01*
G01X-11347562Y-4253559D01*
G01X-11337579Y-4258646D01*
G01X-11326512Y-4260399D01*
G01X-11236512Y-4260399D01*
G01X-11226910Y-4259088D01*
G01X-11218012Y-4255251D01*
G01X-11215326Y-4256719D01*
G01X-11215326Y-4329657D01*
G01X-11219892Y-4345014D01*
G01X-11220643Y-4361018D01*
G01X-11217534Y-4376735D01*
G01X-11210745Y-4391247D01*
G01X-11200675Y-4403708D01*
G01X-11187910Y-4413390D01*
G01X-11173195Y-4419728D01*
G01X-11157390Y-4422352D01*
G01X-11141417Y-4421108D01*
G01X-11126208Y-4416070D01*
G01X-11112651Y-4407532D01*
G01X-11101538Y-4395992D01*
G01X-11093517Y-4382123D01*
G01X-11089056Y-4366735D01*
G01X-11084525Y-4382285D01*
G01X-11076360Y-4396273D01*
G01X-11065048Y-4407865D01*
G01X-11051263Y-4416369D01*
G01X-11035828Y-4421277D01*
G01X-11019663Y-4422297D01*
G01X-11003733Y-4419368D01*
G01X-10988989Y-4412665D01*
G01X-10976309Y-4402588D01*
G01X-10966450Y-4389737D01*
G01X-10956961Y-4402208D01*
G01X-10944811Y-4412104D01*
G01X-10930678Y-4418874D01*
G01X-10915351Y-4422137D01*
G01X-10899687Y-4421714D01*
G01X-10884559Y-4417626D01*
G01X-10870812Y-4410102D01*
G01X-10859215Y-4399563D01*
G01X-10850415Y-4386597D01*
G01X-10844903Y-4371928D01*
G01X-10841034Y-4359991D01*
G01X-10839698Y-4347513D01*
G01X-10836974Y-4362638D01*
G01X-10830842Y-4376729D01*
G01X-10821631Y-4389030D01*
G01X-10809835Y-4398881D01*
G01X-10796089Y-4405752D01*
G01X-10781131Y-4409275D01*
G01X-10765763Y-4409260D01*
G01X-10750812Y-4405708D01*
G01X-10737079Y-4398810D01*
G01X-10725303Y-4388936D01*
G01X-10716116Y-4376616D01*
G01X-10710012Y-4362513D01*
G01X-10703824Y-4376759D01*
G01X-10694494Y-4389174D01*
G01X-10682531Y-4399079D01*
G01X-10668592Y-4405930D01*
G01X-10653442Y-4409351D01*
G01X-10637912Y-4409154D01*
G01X-10622854Y-4405351D01*
G01X-10609094Y-4398149D01*
G01X-10597386Y-4387944D01*
G01X-10588372Y-4375296D01*
G01X-10582548Y-4360898D01*
G01X-10580232Y-4345541D01*
G01X-10575685Y-4358759D01*
G01X-10568468Y-4370731D01*
G01X-10558902Y-4380924D01*
G01X-10547412Y-4388886D01*
G01X-10534508Y-4394261D01*
G01X-10520764Y-4396813D01*
G01X-10506790Y-4396426D01*
G01X-10493208Y-4393119D01*
G01X-10480621Y-4387038D01*
G01X-10469588Y-4378454D01*
G01X-10460600Y-4367748D01*
G01X-10454056Y-4355395D01*
G01X-10446940Y-4368582D01*
G01X-10437046Y-4379835D01*
G01X-10424878Y-4388579D01*
G01X-10411057Y-4394368D01*
G01X-10396290Y-4396906D01*
G01X-10381329Y-4396064D01*
G01X-10366940Y-4391885D01*
G01X-10353856Y-4384582D01*
G01X-10342746Y-4374528D01*
G01X-10334176Y-4362237D01*
G01X-10328585Y-4348335D01*
G01X-10326258Y-4333532D01*
G01X-10327313Y-4318586D01*
G01X-10331698Y-4304257D01*
G01X-10331698Y-4256719D01*
G01X-10329012Y-4255251D01*
G01X-10320113Y-4259088D01*
G01X-10310512Y-4260399D01*
G01X-10309714Y-4260399D01*
G01X-10309714Y-4304257D01*
G01X-10314334Y-4319930D01*
G01X-10314981Y-4336256D01*
G01X-10311617Y-4352245D01*
G01X-10304445Y-4366926D01*
G01X-10293901Y-4379408D01*
G01X-10280625Y-4388933D01*
G01X-10265423Y-4394923D01*
G01X-10249218Y-4397013D01*
G01X-10232994Y-4395078D01*
G01X-10217736Y-4389235D01*
G01X-10204369Y-4379838D01*
G01X-10193706Y-4367458D01*
G01X-10183043Y-4379838D01*
G01X-10169676Y-4389235D01*
G01X-10154417Y-4395078D01*
G01X-10138193Y-4397013D01*
G01X-10121988Y-4394923D01*
G01X-10106787Y-4388933D01*
G01X-10093511Y-4379408D01*
G01X-10082967Y-4366926D01*
G01X-10075795Y-4352245D01*
G01X-10072431Y-4336256D01*
G01X-10073078Y-4319930D01*
G01X-10077698Y-4304257D01*
G01X-10077698Y-4256719D01*
G01X-10075012Y-4255251D01*
G01X-10066113Y-4259088D01*
G01X-10056512Y-4260399D01*
G01X-9966512Y-4260399D01*
G01X-9956910Y-4259088D01*
G01X-9948012Y-4255251D01*
G01X-9939113Y-4259088D01*
G01X-9929512Y-4260399D01*
G01X-9839512Y-4260399D01*
G01X-9829910Y-4259088D01*
G01X-9821012Y-4255251D01*
G01X-9817551Y-4257088D01*
G01X-9817551Y-4287766D01*
G01X-9823604Y-4287766D01*
G01X-9833217Y-4289081D01*
G01X-9842126Y-4292928D01*
G01X-9849674Y-4299025D01*
G01X-9855309Y-4306924D01*
G01X-9858616Y-4316047D01*
G01X-9861924Y-4306924D01*
G01X-9867558Y-4299025D01*
G01X-9875107Y-4292928D01*
G01X-9884015Y-4289081D01*
G01X-9893629Y-4287766D01*
G01X-9974276Y-4287766D01*
G01X-9985344Y-4289519D01*
G01X-9995327Y-4294606D01*
G01X-10003251Y-4302529D01*
G01X-10008338Y-4312513D01*
G01X-10010090Y-4323580D01*
G01X-10010090Y-4409981D01*
G01X-10008099Y-4421756D01*
G01X-10002348Y-4432222D01*
G01X-9993474Y-4440215D01*
G01X-9982467Y-4444846D01*
G01X-9982467Y-4463120D01*
G01X-9980814Y-4475676D01*
G01X-9975967Y-4487377D01*
G01X-9968257Y-4497425D01*
G01X-9876326Y-4589356D01*
G01X-9876326Y-4610271D01*
G01X-9874358Y-4621981D01*
G01X-9868670Y-4632403D01*
G01X-9859886Y-4640393D01*
G01X-9859886Y-4702769D01*
G01X-9868670Y-4710758D01*
G01X-9874358Y-4721181D01*
G01X-9876326Y-4732890D01*
G01X-9876326Y-4840091D01*
G01X-9875318Y-4848530D01*
G01X-9872349Y-4856494D01*
G01X-9867588Y-4863534D01*
G01X-9925408Y-4863534D01*
G01X-9935413Y-4864959D01*
G01X-9945418Y-4863534D01*
G01X-10005418Y-4863534D01*
G01X-10016485Y-4865286D01*
G01X-10026469Y-4870373D01*
G01X-10034392Y-4878297D01*
G01X-10039479Y-4888280D01*
G01X-10041232Y-4899348D01*
G01X-10041232Y-4906119D01*
G01X-10057637Y-4897829D01*
G01X-10075431Y-4893223D01*
G01X-10093797Y-4892512D01*
G01X-10111894Y-4895729D01*
G01X-10128890Y-4902725D01*
G01X-10144007Y-4913181D01*
G01X-10156551Y-4926616D01*
G01X-10165945Y-4942414D01*
G01X-10171760Y-4959850D01*
G01X-10173729Y-4978124D01*
G01X-10173729Y-5088124D01*
G01X-10171961Y-5105454D01*
G01X-10166730Y-5122069D01*
G01X-10158251Y-5137286D01*
G01X-10146874Y-5150477D01*
G01X-10133068Y-5161098D01*
G01X-10117401Y-5168713D01*
G01X-10100519Y-5173007D01*
G01X-10083118Y-5173804D01*
G01X-10065915Y-5171070D01*
G01X-10049618Y-5164918D01*
G01X-10034899Y-5155602D01*
G01X-10022364Y-5143506D01*
G01X-10012531Y-5129128D01*
G01X-10005804Y-5113060D01*
G01X-9998614Y-5124681D01*
G01X-9989255Y-5134639D01*
G01X-9978102Y-5142536D01*
G01X-9965600Y-5148054D01*
G01X-9952249Y-5150973D01*
G01X-9938585Y-5151176D01*
G01X-9925154Y-5148656D01*
G01X-9912493Y-5143513D01*
G01X-9880221Y-5175785D01*
G01X-9870173Y-5183495D01*
G01X-9858473Y-5188342D01*
G01X-9845916Y-5189995D01*
G01X-9464916Y-5189995D01*
G01X-9452360Y-5188342D01*
G01X-9440659Y-5183495D01*
G01X-9430612Y-5175785D01*
G01X-9398331Y-5143504D01*
G01X-9385673Y-5148650D01*
G01X-9372245Y-5151175D01*
G01X-9358583Y-5150976D01*
G01X-9345233Y-5148062D01*
G01X-9332731Y-5142550D01*
G01X-9321576Y-5134660D01*
G01X-9312213Y-5124708D01*
G01X-9305019Y-5113092D01*
G01X-9298287Y-5129155D01*
G01X-9288450Y-5143528D01*
G01X-9275913Y-5155619D01*
G01X-9261194Y-5164929D01*
G01X-9244897Y-5171076D01*
G01X-9227695Y-5173805D01*
G01X-9210297Y-5173005D01*
G01X-9193418Y-5168708D01*
G01X-9177755Y-5161092D01*
G01X-9163952Y-5150470D01*
G01X-9152578Y-5137280D01*
G01X-9144101Y-5122065D01*
G01X-9138871Y-5105451D01*
G01X-9137104Y-5088124D01*
G01X-9137104Y-4978124D01*
G01X-9139072Y-4959850D01*
G01X-9144887Y-4942414D01*
G01X-9154282Y-4926616D01*
G01X-9166825Y-4913181D01*
G01X-9181942Y-4902725D01*
G01X-9198939Y-4895729D01*
G01X-9217035Y-4892512D01*
G01X-9235402Y-4893223D01*
G01X-9253196Y-4897829D01*
G01X-9269600Y-4906119D01*
G01X-9269600Y-4899348D01*
G01X-9271353Y-4888280D01*
G01X-9276440Y-4878297D01*
G01X-9284364Y-4870373D01*
G01X-9294347Y-4865286D01*
G01X-9305414Y-4863534D01*
G01X-9354210Y-4863534D01*
G01X-9354210Y-4860773D01*
G01X-9355387Y-4848830D01*
G01X-9358870Y-4837347D01*
G01X-9364527Y-4826764D01*
G01X-9372140Y-4817488D01*
G01X-9379272Y-4810355D01*
G01X-9345516Y-4810355D01*
G01X-9334449Y-4808602D01*
G01X-9324465Y-4803515D01*
G01X-9316542Y-4795592D01*
G01X-9311455Y-4785608D01*
G01X-9309702Y-4774541D01*
G01X-9309702Y-4693893D01*
G01X-9311016Y-4684280D01*
G01X-9314863Y-4675371D01*
G01X-9320960Y-4667823D01*
G01X-9328860Y-4662188D01*
G01X-9337982Y-4658881D01*
G01X-9330196Y-4656240D01*
G01X-9323217Y-4651893D01*
G01X-9281414Y-4693695D01*
G01X-9281414Y-4742690D01*
G01X-9290512Y-4755061D01*
G01X-9296521Y-4769194D01*
G01X-9299118Y-4784329D01*
G01X-9298164Y-4799656D01*
G01X-9293710Y-4814353D01*
G01X-9285994Y-4827631D01*
G01X-9275432Y-4838778D01*
G01X-9262589Y-4847197D01*
G01X-9248153Y-4852436D01*
G01X-9232900Y-4854214D01*
G01X-9217647Y-4852436D01*
G01X-9203211Y-4847197D01*
G01X-9190368Y-4838778D01*
G01X-9179806Y-4827631D01*
G01X-9172090Y-4814353D01*
G01X-9167636Y-4799656D01*
G01X-9166682Y-4784329D01*
G01X-9169279Y-4769194D01*
G01X-9175288Y-4755061D01*
G01X-9184386Y-4742690D01*
G01X-9184386Y-4673600D01*
G01X-9185175Y-4664886D01*
G01X-9176327Y-4669671D01*
G01X-9166710Y-4672618D01*
G01X-9156700Y-4673614D01*
G01X-9147353Y-4673614D01*
G01X-9143236Y-4684794D01*
G01X-9135679Y-4694004D01*
G01X-9125519Y-4700226D01*
G01X-9113881Y-4702771D01*
G01X-9113881Y-4705735D01*
G01X-9124775Y-4710423D01*
G01X-9133541Y-4718412D01*
G01X-9139217Y-4728826D01*
G01X-9141181Y-4740523D01*
G01X-9141181Y-4830522D01*
G01X-9139217Y-4842219D01*
G01X-9133541Y-4852633D01*
G01X-9124775Y-4860622D01*
G01X-9113881Y-4865310D01*
G01X-9113881Y-5043140D01*
G01X-9112228Y-5055696D01*
G01X-9107381Y-5067397D01*
G01X-9099671Y-5077444D01*
G01X-9048030Y-5129085D01*
G01X-9048030Y-5225790D01*
G01X-9046277Y-5236857D01*
G01X-9041190Y-5246841D01*
G01X-9033267Y-5254764D01*
G01X-9023283Y-5259851D01*
G01X-9012216Y-5261604D01*
G01X-8876217Y-5261604D01*
G01X-8865150Y-5259851D01*
G01X-8855166Y-5254764D01*
G01X-8847243Y-5246841D01*
G01X-8842156Y-5236857D01*
G01X-8840403Y-5225790D01*
G01X-8840403Y-5183614D01*
G01X-5931915Y-5183614D01*
G01X-5931915Y-5204986D01*
G01X-5927988Y-5225994D01*
G01X-5920267Y-5245923D01*
G01X-5909016Y-5264093D01*
G01X-5894618Y-5279887D01*
G01X-5877563Y-5292767D01*
G01X-5858432Y-5302293D01*
G01X-5837876Y-5308142D01*
G01X-5816595Y-5310114D01*
G01X-5816595Y-5310114D01*
G01X-5795314Y-5308142D01*
G01X-5774758Y-5302293D01*
G01X-5755627Y-5292767D01*
G01X-5738572Y-5279887D01*
G01X-5724173Y-5264093D01*
G01X-5712923Y-5245923D01*
G01X-5705202Y-5225994D01*
G01X-5701275Y-5204986D01*
G01X-5701275Y-5183614D01*
G01X-5705202Y-5162606D01*
G01X-5712923Y-5142677D01*
G01X-5724173Y-5124507D01*
G01X-5738572Y-5108713D01*
G01X-5755627Y-5095833D01*
G01X-5774758Y-5086307D01*
G01X-5795314Y-5080458D01*
G01X-5816595Y-5078486D01*
G01X-5837876Y-5080458D01*
G01X-5858432Y-5086307D01*
G01X-5877563Y-5095833D01*
G01X-5894618Y-5108713D01*
G01X-5909016Y-5124507D01*
G01X-5920267Y-5142677D01*
G01X-5927988Y-5162606D01*
G01X-5931915Y-5183614D01*
G01X-8840403Y-5183614D01*
G01X-8840403Y-5102790D01*
G01X-8842156Y-5091723D01*
G01X-8847243Y-5081739D01*
G01X-8855166Y-5073816D01*
G01X-8865150Y-5068729D01*
G01X-8876217Y-5066976D01*
G01X-8972921Y-5066976D01*
G01X-9016853Y-5023044D01*
G01X-9016853Y-4865310D01*
G01X-9008478Y-4862105D01*
G01X-9001163Y-4856920D01*
G01X-8995364Y-4850080D01*
G01X-8987379Y-4858770D01*
G01X-8977002Y-4864392D01*
G01X-8965362Y-4866336D01*
G01X-8885362Y-4866336D01*
G01X-8874295Y-4864584D01*
G01X-8864311Y-4859497D01*
G01X-8856388Y-4851573D01*
G01X-8851301Y-4841590D01*
G01X-8849548Y-4830522D01*
G01X-8849548Y-4740523D01*
G01X-8851301Y-4729456D01*
G01X-8856388Y-4719472D01*
G01X-8864311Y-4711549D01*
G01X-8874295Y-4706462D01*
G01X-8885362Y-4704709D01*
G01X-8965362Y-4704709D01*
G01X-8977002Y-4706653D01*
G01X-8987379Y-4712276D01*
G01X-8995364Y-4720965D01*
G01X-9001163Y-4714126D01*
G01X-9008478Y-4708941D01*
G01X-9016853Y-4705735D01*
G01X-9016853Y-4699677D01*
G01X-9007518Y-4693590D01*
G01X-9000506Y-4684929D01*
G01X-8996496Y-4674532D01*
G01X-8993188Y-4683655D01*
G01X-8987553Y-4691554D01*
G01X-8980005Y-4697651D01*
G01X-8971097Y-4701498D01*
G01X-8961483Y-4702813D01*
G01X-8880835Y-4702813D01*
G01X-8869768Y-4701060D01*
G01X-8859784Y-4695973D01*
G01X-8851861Y-4688049D01*
G01X-8846774Y-4678066D01*
G01X-8845021Y-4666999D01*
G01X-8845021Y-4585170D01*
G01X-8762530Y-4585170D01*
G01X-8760777Y-4596237D01*
G01X-8755690Y-4606221D01*
G01X-8747767Y-4614144D01*
G01X-8737783Y-4619231D01*
G01X-8726716Y-4620984D01*
G01X-8526716Y-4620984D01*
G01X-8515649Y-4619231D01*
G01X-8505666Y-4614144D01*
G01X-8497742Y-4606221D01*
G01X-8492655Y-4596237D01*
G01X-8490902Y-4585170D01*
G01X-8490902Y-4385170D01*
G01X-8492655Y-4374103D01*
G01X-8497742Y-4364119D01*
G01X-8505666Y-4356196D01*
G01X-8515649Y-4351109D01*
G01X-8526716Y-4349356D01*
G01X-8726716Y-4349356D01*
G01X-8726716Y-4349356D01*
G01X-8737783Y-4351109D01*
G01X-8747767Y-4356196D01*
G01X-8755690Y-4364119D01*
G01X-8760777Y-4374103D01*
G01X-8762530Y-4385170D01*
G01X-8762530Y-4585170D01*
G01X-8845021Y-4585170D01*
G01X-8845021Y-4580598D01*
G01X-8846774Y-4569531D01*
G01X-8851861Y-4559547D01*
G01X-8859784Y-4551624D01*
G01X-8869768Y-4546537D01*
G01X-8880835Y-4544784D01*
G01X-8931564Y-4544784D01*
G01X-8982270Y-4494079D01*
G01X-8973726Y-4490909D01*
G01X-8966259Y-4485685D01*
G01X-8960352Y-4478747D01*
G01X-8952367Y-4487436D01*
G01X-8941990Y-4493059D01*
G01X-8930350Y-4495003D01*
G01X-8850350Y-4495003D01*
G01X-8839283Y-4493250D01*
G01X-8829299Y-4488163D01*
G01X-8821376Y-4480240D01*
G01X-8816289Y-4470256D01*
G01X-8814536Y-4459189D01*
G01X-8814536Y-4369189D01*
G01X-8816319Y-4358030D01*
G01X-8821491Y-4347981D01*
G01X-8829536Y-4340045D01*
G01X-8829536Y-4310534D01*
G01X-8821491Y-4302597D01*
G01X-8816319Y-4292549D01*
G01X-8814536Y-4281389D01*
G01X-8814536Y-4191389D01*
G01X-8816319Y-4180230D01*
G01X-8821491Y-4170181D01*
G01X-8829536Y-4162245D01*
G01X-8829536Y-4139594D01*
G01X-8823029Y-4133621D01*
G01X-8818182Y-4126238D01*
G01X-8762530Y-4126238D01*
G01X-8762530Y-4145191D01*
G01X-8760777Y-4156258D01*
G01X-8755690Y-4166242D01*
G01X-8747767Y-4174165D01*
G01X-8737783Y-4179252D01*
G01X-8726716Y-4181005D01*
G01X-8535487Y-4181005D01*
G01X-8548974Y-4188888D01*
G01X-8560242Y-4199708D01*
G01X-8568667Y-4212863D01*
G01X-8573781Y-4227624D01*
G01X-8575300Y-4243172D01*
G01X-8573139Y-4258644D01*
G01X-8567419Y-4273181D01*
G01X-8558457Y-4285977D01*
G01X-8546750Y-4296320D01*
G01X-8532948Y-4303639D01*
G01X-8517818Y-4307525D01*
G01X-8502198Y-4307764D01*
G01X-8407414Y-4402548D01*
G01X-8407414Y-4775200D01*
G01X-8405683Y-4788352D01*
G01X-8400606Y-4800607D01*
G01X-8392531Y-4811131D01*
G01X-8125831Y-5077831D01*
G01X-8115307Y-5085906D01*
G01X-8103052Y-5090983D01*
G01X-8089900Y-5092714D01*
G01X-6324600Y-5092714D01*
G01X-6311448Y-5090983D01*
G01X-6299193Y-5085906D01*
G01X-6288669Y-5077831D01*
G01X-6081302Y-4870464D01*
G01X-5908984Y-4870464D01*
G01X-5920245Y-4888634D01*
G01X-5927975Y-4908563D01*
G01X-5931911Y-4929574D01*
G01X-5931918Y-4950951D01*
G01X-5927996Y-4971964D01*
G01X-5920279Y-4991899D01*
G01X-5909030Y-5010076D01*
G01X-5894631Y-5025875D01*
G01X-5877574Y-5038760D01*
G01X-5858440Y-5048290D01*
G01X-5837880Y-5054141D01*
G01X-5816595Y-5056114D01*
G01X-5795310Y-5054141D01*
G01X-5774750Y-5048290D01*
G01X-5755615Y-5038760D01*
G01X-5738558Y-5025875D01*
G01X-5724160Y-5010076D01*
G01X-5712911Y-4991899D01*
G01X-5705194Y-4971964D01*
G01X-5701272Y-4950951D01*
G01X-5701279Y-4929574D01*
G01X-5705214Y-4908563D01*
G01X-5712944Y-4888634D01*
G01X-5724206Y-4870464D01*
G01X-5587086Y-4870464D01*
G01X-5573934Y-4868733D01*
G01X-5561679Y-4863656D01*
G01X-5551155Y-4855581D01*
G01X-5451479Y-4755905D01*
G01X-5430972Y-4763196D01*
G01X-5409489Y-4766690D01*
G01X-5387729Y-4766273D01*
G01X-5366396Y-4761958D01*
G01X-5346184Y-4753886D01*
G01X-5327748Y-4742318D01*
G01X-5311686Y-4727630D01*
G01X-5298521Y-4710299D01*
G01X-5288678Y-4690887D01*
G01X-5282479Y-4670024D01*
G01X-5280123Y-4648387D01*
G01X-5281687Y-4626679D01*
G01X-5287121Y-4605603D01*
G01X-5296248Y-4585845D01*
G01X-5308771Y-4568044D01*
G01X-5324286Y-4552780D01*
G01X-5342287Y-4540547D01*
G01X-5362191Y-4531741D01*
G01X-5383352Y-4526650D01*
G01X-5405083Y-4525439D01*
G01X-5426678Y-4528146D01*
G01X-5447438Y-4534683D01*
G01X-5466688Y-4544839D01*
G01X-5483803Y-4558284D01*
G01X-5498228Y-4574582D01*
G01X-5509495Y-4593203D01*
G01X-5517238Y-4613544D01*
G01X-5521206Y-4634944D01*
G01X-5521271Y-4656708D01*
G01X-5517429Y-4678131D01*
G01X-5608133Y-4768836D01*
G01X-5735351Y-4768836D01*
G01X-5722699Y-4754097D01*
G01X-5712689Y-4737451D01*
G01X-5705602Y-4719367D01*
G01X-5701637Y-4700352D01*
G01X-5700905Y-4680942D01*
G01X-5703428Y-4661682D01*
G01X-5709134Y-4643115D01*
G01X-5717862Y-4625763D01*
G01X-5729368Y-4610114D01*
G01X-5568036Y-4610114D01*
G01X-5554884Y-4608383D01*
G01X-5542629Y-4603306D01*
G01X-5532105Y-4595231D01*
G01X-5442490Y-4505616D01*
G01X-5421451Y-4511237D01*
G01X-5399744Y-4512989D01*
G01X-5378075Y-4510816D01*
G01X-5357149Y-4504788D01*
G01X-5337645Y-4495101D01*
G01X-5320196Y-4482071D01*
G01X-5305370Y-4466120D01*
G01X-5293649Y-4447766D01*
G01X-5285413Y-4427606D01*
G01X-5280930Y-4406295D01*
G01X-5280345Y-4384526D01*
G01X-5283678Y-4363005D01*
G01X-5290820Y-4342433D01*
G01X-5301540Y-4323476D01*
G01X-5315488Y-4306752D01*
G01X-5332212Y-4292804D01*
G01X-5351168Y-4282085D01*
G01X-5371741Y-4274943D01*
G01X-5393262Y-4271610D01*
G01X-5415031Y-4272194D01*
G01X-5436342Y-4276677D01*
G01X-5456502Y-4284913D01*
G01X-5474855Y-4296635D01*
G01X-5490806Y-4311461D01*
G01X-5503837Y-4328909D01*
G01X-5513524Y-4348413D01*
G01X-5519551Y-4369340D01*
G01X-5521724Y-4391008D01*
G01X-5519972Y-4412715D01*
G01X-5514352Y-4433754D01*
G01X-5589083Y-4508486D01*
G01X-5729368Y-4508486D01*
G01X-5717168Y-4491690D01*
G01X-5708163Y-4472986D01*
G01X-5702642Y-4452975D01*
G01X-5700781Y-4432300D01*
G01X-5702642Y-4411625D01*
G01X-5708163Y-4391614D01*
G01X-5717168Y-4372910D01*
G01X-5729368Y-4356114D01*
G01X-5568036Y-4356114D01*
G01X-5554884Y-4354383D01*
G01X-5542629Y-4349306D01*
G01X-5532105Y-4341231D01*
G01X-5442490Y-4251616D01*
G01X-5421451Y-4257237D01*
G01X-5399744Y-4258989D01*
G01X-5378075Y-4256816D01*
G01X-5357149Y-4250788D01*
G01X-5337645Y-4241101D01*
G01X-5320196Y-4228071D01*
G01X-5305370Y-4212120D01*
G01X-5293649Y-4193766D01*
G01X-5285413Y-4173606D01*
G01X-5280930Y-4152295D01*
G01X-5280345Y-4130526D01*
G01X-5283678Y-4109005D01*
G01X-5290820Y-4088433D01*
G01X-5301540Y-4069476D01*
G01X-5315488Y-4052752D01*
G01X-5332212Y-4038804D01*
G01X-5351168Y-4028085D01*
G01X-5371741Y-4020943D01*
G01X-5393262Y-4017610D01*
G01X-5415031Y-4018194D01*
G01X-5436342Y-4022677D01*
G01X-5456502Y-4030913D01*
G01X-5474855Y-4042635D01*
G01X-5490806Y-4057461D01*
G01X-5503837Y-4074909D01*
G01X-5513524Y-4094413D01*
G01X-5519551Y-4115340D01*
G01X-5521724Y-4137008D01*
G01X-5519972Y-4158715D01*
G01X-5514352Y-4179754D01*
G01X-5589083Y-4254486D01*
G01X-5729368Y-4254486D01*
G01X-5717373Y-4238031D01*
G01X-5708445Y-4219729D01*
G01X-5702860Y-4200146D01*
G01X-5700792Y-4179888D01*
G01X-5702304Y-4159581D01*
G01X-5707349Y-4139852D01*
G01X-5715772Y-4121312D01*
G01X-5727312Y-4104534D01*
G01X-5741612Y-4090037D01*
G01X-5758230Y-4078268D01*
G01X-5776653Y-4069592D01*
G01X-5796310Y-4064276D01*
G01X-5816595Y-4062486D01*
G01X-5836880Y-4064276D01*
G01X-5856537Y-4069592D01*
G01X-5874960Y-4078268D01*
G01X-5891578Y-4090037D01*
G01X-5905878Y-4104534D01*
G01X-5917418Y-4121312D01*
G01X-5925841Y-4139852D01*
G01X-5930886Y-4159581D01*
G01X-5932398Y-4179888D01*
G01X-5930330Y-4200146D01*
G01X-5924745Y-4219729D01*
G01X-5915817Y-4238031D01*
G01X-5903822Y-4254486D01*
G01X-7569200Y-4254486D01*
G01X-7582352Y-4256217D01*
G01X-7594607Y-4261294D01*
G01X-7605131Y-4269369D01*
G01X-7863298Y-4527536D01*
G01X-8193341Y-4527536D01*
G01X-8205862Y-4519255D01*
G01X-8219925Y-4514001D01*
G01X-8234808Y-4512046D01*
G01X-8249751Y-4513488D01*
G01X-8263986Y-4518254D01*
G01X-8276784Y-4526099D01*
G01X-8287490Y-4536622D01*
G01X-8295555Y-4549284D01*
G01X-8300565Y-4563435D01*
G01X-8302264Y-4578350D01*
G01X-8300565Y-4593265D01*
G01X-8295555Y-4607416D01*
G01X-8287490Y-4620078D01*
G01X-8276784Y-4630601D01*
G01X-8263986Y-4638446D01*
G01X-8249751Y-4643212D01*
G01X-8234808Y-4644654D01*
G01X-8219925Y-4642699D01*
G01X-8205862Y-4637445D01*
G01X-8193341Y-4629164D01*
G01X-7842250Y-4629164D01*
G01X-7829098Y-4627433D01*
G01X-7816843Y-4622356D01*
G01X-7806319Y-4614281D01*
G01X-7548152Y-4356114D01*
G01X-5903822Y-4356114D01*
G01X-5916021Y-4372910D01*
G01X-5925027Y-4391614D01*
G01X-5930548Y-4411625D01*
G01X-5932409Y-4432300D01*
G01X-5930548Y-4452975D01*
G01X-5925027Y-4472986D01*
G01X-5916021Y-4491690D01*
G01X-5903822Y-4508486D01*
G01X-7607300Y-4508486D01*
G01X-7620452Y-4510217D01*
G01X-7632707Y-4515294D01*
G01X-7643231Y-4523369D01*
G01X-7793448Y-4673586D01*
G01X-7945691Y-4673586D01*
G01X-7958212Y-4665305D01*
G01X-7972275Y-4660051D01*
G01X-7987158Y-4658096D01*
G01X-8002101Y-4659538D01*
G01X-8016336Y-4664304D01*
G01X-8029134Y-4672149D01*
G01X-8039840Y-4682672D01*
G01X-8047905Y-4695334D01*
G01X-8052915Y-4709485D01*
G01X-8054614Y-4724400D01*
G01X-8052915Y-4739315D01*
G01X-8047905Y-4753466D01*
G01X-8039840Y-4766128D01*
G01X-8029134Y-4776651D01*
G01X-8016336Y-4784496D01*
G01X-8002101Y-4789262D01*
G01X-7987158Y-4790704D01*
G01X-7972275Y-4788749D01*
G01X-7958212Y-4783495D01*
G01X-7945691Y-4775214D01*
G01X-7772400Y-4775214D01*
G01X-7759248Y-4773483D01*
G01X-7746993Y-4768406D01*
G01X-7736469Y-4760331D01*
G01X-7586252Y-4610114D01*
G01X-5903822Y-4610114D01*
G01X-5915328Y-4625763D01*
G01X-5924056Y-4643115D01*
G01X-5929762Y-4661682D01*
G01X-5932285Y-4680942D01*
G01X-5931553Y-4700352D01*
G01X-5927588Y-4719367D01*
G01X-5920501Y-4737451D01*
G01X-5910491Y-4754097D01*
G01X-5897839Y-4768836D01*
G01X-6102350Y-4768836D01*
G01X-6115502Y-4770567D01*
G01X-6127757Y-4775644D01*
G01X-6138281Y-4783719D01*
G01X-6345648Y-4991086D01*
G01X-7730814Y-4991086D01*
G01X-7726128Y-4983329D01*
G01X-7722543Y-4975005D01*
G01X-7512598Y-4765060D01*
G01X-7497889Y-4762062D01*
G01X-7484230Y-4755833D01*
G01X-7472323Y-4746691D01*
G01X-7462777Y-4735106D01*
G01X-7456081Y-4721670D01*
G01X-7452579Y-4707073D01*
G01X-7452450Y-4692062D01*
G01X-7455700Y-4677406D01*
G01X-7462164Y-4663857D01*
G01X-7471509Y-4652109D01*
G01X-7483257Y-4642764D01*
G01X-7496806Y-4636300D01*
G01X-7511462Y-4633050D01*
G01X-7526473Y-4633179D01*
G01X-7541070Y-4636681D01*
G01X-7554506Y-4643377D01*
G01X-7566091Y-4652923D01*
G01X-7575233Y-4664830D01*
G01X-7581462Y-4678489D01*
G01X-7584460Y-4693198D01*
G01X-7778298Y-4887036D01*
G01X-7793419Y-4887210D01*
G01X-7808107Y-4890805D01*
G01X-7821599Y-4897634D01*
G01X-7833193Y-4907343D01*
G01X-7842287Y-4919425D01*
G01X-7848406Y-4933254D01*
G01X-7851233Y-4948109D01*
G01X-7850622Y-4963219D01*
G01X-7846603Y-4977797D01*
G01X-7839386Y-4991086D01*
G01X-8068852Y-4991086D01*
G01X-8305786Y-4754152D01*
G01X-8305786Y-4381500D01*
G01X-8307517Y-4368348D01*
G01X-8312594Y-4356093D01*
G01X-8320669Y-4345569D01*
G01X-8446443Y-4219795D01*
G01X-8453554Y-4205422D01*
G01X-8463907Y-4193177D01*
G01X-8476896Y-4183775D01*
G01X-8491763Y-4177765D01*
G01X-8507637Y-4175500D01*
G01X-8498704Y-4167505D01*
G01X-8492909Y-4157010D01*
G01X-8490902Y-4145191D01*
G01X-8490902Y-3945191D01*
G01X-8492507Y-3934593D01*
G01X-8496846Y-3925626D01*
G01X-5932401Y-3925626D01*
G01X-5930328Y-3946155D01*
G01X-5924645Y-3965990D01*
G01X-5915532Y-3984502D01*
G01X-5903279Y-4001103D01*
G01X-5888275Y-4015266D01*
G01X-5870995Y-4026542D01*
G01X-5851989Y-4034573D01*
G01X-5831859Y-4039104D01*
G01X-5811245Y-4039990D01*
G01X-5790801Y-4037205D01*
G01X-5771175Y-4030836D01*
G01X-5752991Y-4021085D01*
G01X-5736826Y-4008263D01*
G01X-5723192Y-3992775D01*
G01X-5712524Y-3975114D01*
G01X-5695036Y-3975114D01*
G01X-5681884Y-3973383D01*
G01X-5669629Y-3968306D01*
G01X-5659105Y-3960231D01*
G01X-5583054Y-3884181D01*
G01X-5521730Y-3884181D01*
G01X-5519895Y-3905160D01*
G01X-5514444Y-3925501D01*
G01X-5505544Y-3944588D01*
G01X-5493465Y-3961838D01*
G01X-5478574Y-3976729D01*
G01X-5461323Y-3988809D01*
G01X-5442237Y-3997709D01*
G01X-5421895Y-4003159D01*
G01X-5400916Y-4004995D01*
G01X-5379937Y-4003159D01*
G01X-5359596Y-3997709D01*
G01X-5340509Y-3988809D01*
G01X-5323259Y-3976729D01*
G01X-5308368Y-3961838D01*
G01X-5296288Y-3944588D01*
G01X-5287388Y-3925501D01*
G01X-5281938Y-3905160D01*
G01X-5280102Y-3884181D01*
G01X-5281938Y-3863202D01*
G01X-5287388Y-3842860D01*
G01X-5296288Y-3823774D01*
G01X-5308368Y-3806523D01*
G01X-5323259Y-3791632D01*
G01X-5340509Y-3779553D01*
G01X-5359596Y-3770653D01*
G01X-5379937Y-3765202D01*
G01X-5400916Y-3763367D01*
G01X-5400916Y-3763367D01*
G01X-5421895Y-3765202D01*
G01X-5442237Y-3770653D01*
G01X-5461323Y-3779553D01*
G01X-5478574Y-3791632D01*
G01X-5493465Y-3806523D01*
G01X-5505544Y-3823774D01*
G01X-5514444Y-3842860D01*
G01X-5519895Y-3863202D01*
G01X-5521730Y-3884181D01*
G01X-5583054Y-3884181D01*
G01X-5442490Y-3743616D01*
G01X-5421451Y-3749237D01*
G01X-5399744Y-3750989D01*
G01X-5378075Y-3748816D01*
G01X-5357149Y-3742788D01*
G01X-5337645Y-3733101D01*
G01X-5320196Y-3720071D01*
G01X-5305370Y-3704120D01*
G01X-5293649Y-3685766D01*
G01X-5285413Y-3665606D01*
G01X-5280930Y-3644295D01*
G01X-5280345Y-3622526D01*
G01X-5283678Y-3601005D01*
G01X-5290820Y-3580433D01*
G01X-5301540Y-3561476D01*
G01X-5315488Y-3544752D01*
G01X-5332212Y-3530804D01*
G01X-5351168Y-3520085D01*
G01X-5371741Y-3512943D01*
G01X-5393262Y-3509610D01*
G01X-5415031Y-3510194D01*
G01X-5436342Y-3514677D01*
G01X-5456502Y-3522913D01*
G01X-5474855Y-3534635D01*
G01X-5490806Y-3549461D01*
G01X-5503837Y-3566909D01*
G01X-5513524Y-3586413D01*
G01X-5519551Y-3607340D01*
G01X-5521724Y-3629008D01*
G01X-5519972Y-3650715D01*
G01X-5514352Y-3671754D01*
G01X-5713714Y-3871117D01*
G01X-5724784Y-3853705D01*
G01X-5738769Y-3838533D01*
G01X-5755223Y-3826084D01*
G01X-5773626Y-3816752D01*
G01X-5793392Y-3810834D01*
G01X-5813895Y-3808518D01*
G01X-5834483Y-3809876D01*
G01X-5854504Y-3814866D01*
G01X-5873322Y-3823330D01*
G01X-5890338Y-3834999D01*
G01X-5905015Y-3849502D01*
G01X-5916884Y-3866379D01*
G01X-5925571Y-3885095D01*
G01X-5930799Y-3905055D01*
G01X-5932401Y-3925626D01*
G01X-5932401Y-3925626D01*
G01X-8496846Y-3925626D01*
G01X-8497176Y-3924944D01*
G01X-8504491Y-3917108D01*
G01X-8513797Y-3911789D01*
G01X-8509373Y-3904915D01*
G01X-8506622Y-3897216D01*
G01X-8505689Y-3889094D01*
G01X-8505689Y-3659614D01*
G01X-5931915Y-3659614D01*
G01X-5931915Y-3680986D01*
G01X-5927988Y-3701994D01*
G01X-5920267Y-3721923D01*
G01X-5909016Y-3740093D01*
G01X-5894618Y-3755887D01*
G01X-5877563Y-3768767D01*
G01X-5858432Y-3778293D01*
G01X-5837876Y-3784142D01*
G01X-5816595Y-3786114D01*
G01X-5816595Y-3786114D01*
G01X-5795314Y-3784142D01*
G01X-5774758Y-3778293D01*
G01X-5755627Y-3768767D01*
G01X-5738572Y-3755887D01*
G01X-5724173Y-3740093D01*
G01X-5712923Y-3721923D01*
G01X-5705202Y-3701994D01*
G01X-5701275Y-3680986D01*
G01X-5701275Y-3659614D01*
G01X-5705202Y-3638606D01*
G01X-5712923Y-3618677D01*
G01X-5724173Y-3600507D01*
G01X-5738572Y-3584713D01*
G01X-5755627Y-3571833D01*
G01X-5774758Y-3562307D01*
G01X-5795314Y-3556458D01*
G01X-5816595Y-3554486D01*
G01X-5837876Y-3556458D01*
G01X-5858432Y-3562307D01*
G01X-5877563Y-3571833D01*
G01X-5894618Y-3584713D01*
G01X-5909016Y-3600507D01*
G01X-5920267Y-3618677D01*
G01X-5927988Y-3638606D01*
G01X-5931915Y-3659614D01*
G01X-8505689Y-3659614D01*
G01X-8505689Y-3639095D01*
G01X-8507442Y-3628028D01*
G01X-8512529Y-3618044D01*
G01X-8520452Y-3610121D01*
G01X-8530436Y-3605034D01*
G01X-8541503Y-3603281D01*
G01X-8651503Y-3603281D01*
G01X-8662570Y-3605034D01*
G01X-8672554Y-3610121D01*
G01X-8680477Y-3618044D01*
G01X-8685564Y-3628028D01*
G01X-8687317Y-3639095D01*
G01X-8687317Y-3659675D01*
G01X-8699151Y-3656104D01*
G01X-8711442Y-3654792D01*
G01X-8723763Y-3655783D01*
G01X-8735686Y-3659044D01*
G01X-8735686Y-3639095D01*
G01X-8736836Y-3630094D01*
G01X-8740210Y-3621672D01*
G01X-8745593Y-3614367D01*
G01X-8752639Y-3608650D01*
G01X-8752639Y-3322917D01*
G01X-8646500Y-3322917D01*
G01X-8635433Y-3321164D01*
G01X-8625449Y-3316077D01*
G01X-8617526Y-3308154D01*
G01X-8612439Y-3298170D01*
G01X-8610686Y-3287103D01*
G01X-8610686Y-3200400D01*
G01X-7965714Y-3200400D01*
G01X-7964015Y-3215315D01*
G01X-7959005Y-3229466D01*
G01X-7950940Y-3242128D01*
G01X-7940234Y-3252651D01*
G01X-7927436Y-3260496D01*
G01X-7913201Y-3265262D01*
G01X-7898258Y-3266704D01*
G01X-7883375Y-3264749D01*
G01X-7869312Y-3259495D01*
G01X-7856791Y-3251214D01*
G01X-6362695Y-3251214D01*
G01X-6349543Y-3249483D01*
G01X-6337288Y-3244406D01*
G01X-6326764Y-3236331D01*
G01X-5854253Y-2763820D01*
G01X-5834735Y-2768684D01*
G01X-5814668Y-2770098D01*
G01X-5794660Y-2768018D01*
G01X-5775314Y-2762507D01*
G01X-5757213Y-2753732D01*
G01X-5740904Y-2741957D01*
G01X-5726878Y-2727537D01*
G01X-5715559Y-2710909D01*
G01X-5707288Y-2692572D01*
G01X-5702314Y-2673081D01*
G01X-5702314Y-2889519D01*
G01X-5707765Y-2868691D01*
G01X-5716977Y-2849231D01*
G01X-5729632Y-2831813D01*
G01X-5745292Y-2817038D01*
G01X-5763416Y-2805417D01*
G01X-5783378Y-2797352D01*
G01X-5804488Y-2793121D01*
G01X-5826016Y-2792870D01*
G01X-5847219Y-2796608D01*
G01X-5867364Y-2804207D01*
G01X-5885754Y-2815403D01*
G01X-5901754Y-2829809D01*
G01X-5914810Y-2846928D01*
G01X-5924473Y-2866167D01*
G01X-5930408Y-2886863D01*
G01X-5932409Y-2908300D01*
G01X-5930408Y-2929737D01*
G01X-5924473Y-2950433D01*
G01X-5914810Y-2969672D01*
G01X-5901754Y-2986791D01*
G01X-5885754Y-3001197D01*
G01X-5867364Y-3012393D01*
G01X-5847219Y-3019992D01*
G01X-5826016Y-3023730D01*
G01X-5804488Y-3023479D01*
G01X-5783378Y-3019248D01*
G01X-5763416Y-3011183D01*
G01X-5745292Y-2999562D01*
G01X-5729632Y-2984787D01*
G01X-5716977Y-2967369D01*
G01X-5707765Y-2947909D01*
G01X-5702314Y-2927081D01*
G01X-5702314Y-3143519D01*
G01X-5707765Y-3122691D01*
G01X-5716977Y-3103231D01*
G01X-5729632Y-3085813D01*
G01X-5745292Y-3071038D01*
G01X-5763416Y-3059417D01*
G01X-5783378Y-3051352D01*
G01X-5804488Y-3047121D01*
G01X-5826016Y-3046870D01*
G01X-5847219Y-3050608D01*
G01X-5867364Y-3058207D01*
G01X-5885754Y-3069403D01*
G01X-5901754Y-3083809D01*
G01X-5914810Y-3100928D01*
G01X-5924473Y-3120167D01*
G01X-5930408Y-3140863D01*
G01X-5932409Y-3162300D01*
G01X-5930408Y-3183737D01*
G01X-5924473Y-3204433D01*
G01X-5914810Y-3223672D01*
G01X-5901754Y-3240791D01*
G01X-5885754Y-3255197D01*
G01X-5867364Y-3266393D01*
G01X-5847219Y-3273992D01*
G01X-5826016Y-3277730D01*
G01X-5804488Y-3277479D01*
G01X-5783378Y-3273248D01*
G01X-5763416Y-3265183D01*
G01X-5745292Y-3253562D01*
G01X-5729632Y-3238787D01*
G01X-5716977Y-3221369D01*
G01X-5707765Y-3201909D01*
G01X-5702314Y-3181081D01*
G01X-5702314Y-3230157D01*
G01X-5778936Y-3306780D01*
G01X-5799056Y-3301822D01*
G01X-5819737Y-3300529D01*
G01X-5840317Y-3302942D01*
G01X-5860138Y-3308983D01*
G01X-5878565Y-3318461D01*
G01X-5895008Y-3331070D01*
G01X-5908941Y-3346408D01*
G01X-5919918Y-3363983D01*
G01X-5927588Y-3383232D01*
G01X-5931704Y-3403541D01*
G01X-5932135Y-3424258D01*
G01X-5928868Y-3444720D01*
G01X-5922006Y-3464272D01*
G01X-5911770Y-3482289D01*
G01X-5898488Y-3498193D01*
G01X-5882583Y-3511475D01*
G01X-5864567Y-3521711D01*
G01X-5845015Y-3528573D01*
G01X-5824552Y-3531840D01*
G01X-5803836Y-3531409D01*
G01X-5783527Y-3527293D01*
G01X-5764277Y-3519623D01*
G01X-5746702Y-3508647D01*
G01X-5731365Y-3494713D01*
G01X-5718756Y-3478270D01*
G01X-5709278Y-3459843D01*
G01X-5703237Y-3440022D01*
G01X-5700824Y-3419442D01*
G01X-5702117Y-3398761D01*
G01X-5707075Y-3378642D01*
G01X-5704614Y-3376181D01*
G01X-5521730Y-3376181D01*
G01X-5519895Y-3397160D01*
G01X-5514444Y-3417501D01*
G01X-5505544Y-3436588D01*
G01X-5493465Y-3453838D01*
G01X-5478574Y-3468729D01*
G01X-5461323Y-3480809D01*
G01X-5442237Y-3489709D01*
G01X-5421895Y-3495159D01*
G01X-5400916Y-3496995D01*
G01X-5379937Y-3495159D01*
G01X-5359596Y-3489709D01*
G01X-5340509Y-3480809D01*
G01X-5323259Y-3468729D01*
G01X-5308368Y-3453838D01*
G01X-5296288Y-3436588D01*
G01X-5287388Y-3417501D01*
G01X-5281938Y-3397160D01*
G01X-5280102Y-3376181D01*
G01X-5281938Y-3355202D01*
G01X-5287388Y-3334860D01*
G01X-5296288Y-3315774D01*
G01X-5308368Y-3298523D01*
G01X-5323259Y-3283632D01*
G01X-5340509Y-3271553D01*
G01X-5359596Y-3262653D01*
G01X-5379937Y-3257202D01*
G01X-5400916Y-3255367D01*
G01X-5400916Y-3255367D01*
G01X-5421895Y-3257202D01*
G01X-5442237Y-3262653D01*
G01X-5461323Y-3271553D01*
G01X-5478574Y-3283632D01*
G01X-5493465Y-3298523D01*
G01X-5505544Y-3315774D01*
G01X-5514444Y-3334860D01*
G01X-5519895Y-3355202D01*
G01X-5521730Y-3376181D01*
G01X-5704614Y-3376181D01*
G01X-5615569Y-3287136D01*
G01X-5607494Y-3276612D01*
G01X-5602417Y-3264357D01*
G01X-5600686Y-3251205D01*
G01X-5600686Y-3122181D01*
G01X-5521730Y-3122181D01*
G01X-5519895Y-3143160D01*
G01X-5514444Y-3163501D01*
G01X-5505544Y-3182588D01*
G01X-5493465Y-3199838D01*
G01X-5478574Y-3214729D01*
G01X-5461323Y-3226809D01*
G01X-5442237Y-3235709D01*
G01X-5421895Y-3241159D01*
G01X-5400916Y-3242995D01*
G01X-5379937Y-3241159D01*
G01X-5359596Y-3235709D01*
G01X-5340509Y-3226809D01*
G01X-5323259Y-3214729D01*
G01X-5308368Y-3199838D01*
G01X-5296288Y-3182588D01*
G01X-5287388Y-3163501D01*
G01X-5281938Y-3143160D01*
G01X-5280102Y-3122181D01*
G01X-5281938Y-3101202D01*
G01X-5287388Y-3080860D01*
G01X-5296288Y-3061774D01*
G01X-5308368Y-3044523D01*
G01X-5323259Y-3029632D01*
G01X-5340509Y-3017553D01*
G01X-5359596Y-3008653D01*
G01X-5379937Y-3003202D01*
G01X-5400916Y-3001367D01*
G01X-5400916Y-3001367D01*
G01X-5421895Y-3003202D01*
G01X-5442237Y-3008653D01*
G01X-5461323Y-3017553D01*
G01X-5478574Y-3029632D01*
G01X-5493465Y-3044523D01*
G01X-5505544Y-3061774D01*
G01X-5514444Y-3080860D01*
G01X-5519895Y-3101202D01*
G01X-5521730Y-3122181D01*
G01X-5600686Y-3122181D01*
G01X-5600686Y-2565395D01*
G01X-5602417Y-2552243D01*
G01X-5607494Y-2539988D01*
G01X-5615569Y-2529464D01*
G01X-5707075Y-2437958D01*
G01X-5702365Y-2419390D01*
G01X-5700781Y-2400300D01*
G01X-5702365Y-2381210D01*
G01X-5707075Y-2362642D01*
G01X-5640969Y-2296536D01*
G01X-5632894Y-2286012D01*
G01X-5627817Y-2273757D01*
G01X-5626086Y-2260605D01*
G01X-5626086Y-1620164D01*
G01X-5560314Y-1620164D01*
G01X-5560314Y-1854200D01*
G01X-5558661Y-1866756D01*
G01X-5553814Y-1878457D01*
G01X-5546105Y-1888505D01*
G01X-5509514Y-1925095D01*
G01X-5509514Y-2482090D01*
G01X-5518612Y-2494461D01*
G01X-5524621Y-2508594D01*
G01X-5527218Y-2523729D01*
G01X-5526264Y-2539056D01*
G01X-5521810Y-2553753D01*
G01X-5514094Y-2567031D01*
G01X-5503532Y-2578178D01*
G01X-5490689Y-2586597D01*
G01X-5476253Y-2591836D01*
G01X-5461000Y-2593614D01*
G01X-5445747Y-2591836D01*
G01X-5431311Y-2586597D01*
G01X-5418468Y-2578178D01*
G01X-5407906Y-2567031D01*
G01X-5400190Y-2553753D01*
G01X-5395736Y-2539056D01*
G01X-5394782Y-2523729D01*
G01X-5397379Y-2508594D01*
G01X-5403388Y-2494461D01*
G01X-5412486Y-2482090D01*
G01X-5412486Y-1905000D01*
G01X-5414139Y-1892444D01*
G01X-5418986Y-1880743D01*
G01X-5426695Y-1870695D01*
G01X-5463286Y-1834105D01*
G01X-5463286Y-1640260D01*
G01X-5382030Y-1559004D01*
G01X-5382030Y-1702321D01*
G01X-5380277Y-1713388D01*
G01X-5375190Y-1723372D01*
G01X-5367267Y-1731295D01*
G01X-5357283Y-1736382D01*
G01X-5346216Y-1738135D01*
G01X-5176216Y-1738135D01*
G01X-5165149Y-1736382D01*
G01X-5155166Y-1731295D01*
G01X-5147242Y-1723372D01*
G01X-5142155Y-1713388D01*
G01X-5140402Y-1702321D01*
G01X-5140402Y-1544841D01*
G01X-5142155Y-1533774D01*
G01X-5147242Y-1523790D01*
G01X-5155166Y-1515867D01*
G01X-5165149Y-1510780D01*
G01X-5176216Y-1509027D01*
G01X-5332053Y-1509027D01*
G01X-5305150Y-1482123D01*
G01X-5284067Y-1488214D01*
G01X-5262231Y-1490390D01*
G01X-5240361Y-1488581D01*
G01X-5219179Y-1482845D01*
G01X-5199384Y-1473372D01*
G01X-5181629Y-1460475D01*
G01X-5166500Y-1444579D01*
G01X-5154496Y-1426209D01*
G01X-5146013Y-1405970D01*
G01X-5141331Y-1384530D01*
G01X-5140604Y-1362598D01*
G01X-5143857Y-1340895D01*
G01X-5150982Y-1320139D01*
G01X-5161744Y-1301015D01*
G01X-5175788Y-1284152D01*
G01X-5192650Y-1270109D01*
G01X-5211775Y-1259347D01*
G01X-5232531Y-1252222D01*
G01X-5254233Y-1248969D01*
G01X-5276166Y-1249695D01*
G01X-5297605Y-1254377D01*
G01X-5317844Y-1262860D01*
G01X-5336215Y-1274864D01*
G01X-5352111Y-1289993D01*
G01X-5365008Y-1307748D01*
G01X-5374481Y-1327543D01*
G01X-5380216Y-1348725D01*
G01X-5382026Y-1370595D01*
G01X-5379849Y-1392432D01*
G01X-5373759Y-1413514D01*
G01X-5546105Y-1585860D01*
G01X-5546105Y-1585860D01*
G01X-5553814Y-1595907D01*
G01X-5558661Y-1607608D01*
G01X-5560314Y-1620164D01*
G01X-5626086Y-1620164D01*
G01X-5626086Y-1298312D01*
G01X-5443354Y-1115581D01*
G01X-5382030Y-1115581D01*
G01X-5380195Y-1136560D01*
G01X-5374744Y-1156901D01*
G01X-5365844Y-1175988D01*
G01X-5353765Y-1193238D01*
G01X-5338874Y-1208129D01*
G01X-5321623Y-1220209D01*
G01X-5302537Y-1229109D01*
G01X-5282195Y-1234559D01*
G01X-5261216Y-1236395D01*
G01X-5261216Y-1236395D01*
G01X-5240237Y-1234559D01*
G01X-5219896Y-1229109D01*
G01X-5200809Y-1220209D01*
G01X-5183559Y-1208129D01*
G01X-5168668Y-1193238D01*
G01X-5156588Y-1175988D01*
G01X-5147688Y-1156901D01*
G01X-5142238Y-1136560D01*
G01X-5140402Y-1115581D01*
G01X-5142238Y-1094602D01*
G01X-5147688Y-1074260D01*
G01X-5156588Y-1055174D01*
G01X-5168668Y-1037923D01*
G01X-5183559Y-1023032D01*
G01X-5200809Y-1010953D01*
G01X-5219896Y-1002053D01*
G01X-5240237Y-996602D01*
G01X-5261216Y-994767D01*
G01X-5282195Y-996602D01*
G01X-5302537Y-1002053D01*
G01X-5321623Y-1010953D01*
G01X-5338874Y-1023032D01*
G01X-5353765Y-1037923D01*
G01X-5365844Y-1055174D01*
G01X-5374744Y-1074260D01*
G01X-5380195Y-1094602D01*
G01X-5382030Y-1115581D01*
G01X-5443354Y-1115581D01*
G01X-5302790Y-975016D01*
G01X-5281751Y-980637D01*
G01X-5260044Y-982389D01*
G01X-5238375Y-980216D01*
G01X-5217449Y-974188D01*
G01X-5197945Y-964501D01*
G01X-5180496Y-951471D01*
G01X-5165670Y-935520D01*
G01X-5153949Y-917166D01*
G01X-5145713Y-897006D01*
G01X-5141230Y-875695D01*
G01X-5140645Y-853926D01*
G01X-5143978Y-832405D01*
G01X-5151120Y-811833D01*
G01X-5161840Y-792876D01*
G01X-5175788Y-776152D01*
G01X-5192512Y-762204D01*
G01X-5211468Y-751485D01*
G01X-5232041Y-744343D01*
G01X-5253562Y-741010D01*
G01X-5275331Y-741594D01*
G01X-5296642Y-746077D01*
G01X-5316802Y-754313D01*
G01X-5335155Y-766035D01*
G01X-5351106Y-780861D01*
G01X-5364137Y-798309D01*
G01X-5373824Y-817813D01*
G01X-5379851Y-838740D01*
G01X-5382024Y-860408D01*
G01X-5380272Y-882115D01*
G01X-5374652Y-903154D01*
G01X-5712831Y-1241333D01*
G01X-5720906Y-1251857D01*
G01X-5725983Y-1264113D01*
G01X-5727714Y-1277264D01*
G01X-5727714Y-2072050D01*
G01X-5741971Y-2057733D01*
G01X-5758500Y-2046111D01*
G01X-5776798Y-2037539D01*
G01X-5796306Y-2032277D01*
G01X-5816432Y-2030486D01*
G01X-5836563Y-2032221D01*
G01X-5856087Y-2037427D01*
G01X-5874408Y-2045948D01*
G01X-5890969Y-2057523D01*
G01X-5905267Y-2071801D01*
G01X-5916866Y-2088346D01*
G01X-5925412Y-2106655D01*
G01X-5930646Y-2126171D01*
G01X-5932409Y-2146300D01*
G01X-5930646Y-2166429D01*
G01X-5925412Y-2185945D01*
G01X-5916866Y-2204254D01*
G01X-5905267Y-2220799D01*
G01X-5890969Y-2235077D01*
G01X-5874408Y-2246652D01*
G01X-5856087Y-2255173D01*
G01X-5836563Y-2260379D01*
G01X-5816432Y-2262114D01*
G01X-5796306Y-2260323D01*
G01X-5776798Y-2255061D01*
G01X-5758500Y-2246489D01*
G01X-5741971Y-2234867D01*
G01X-5727714Y-2220550D01*
G01X-5727714Y-2239557D01*
G01X-5778936Y-2290780D01*
G01X-5798341Y-2285934D01*
G01X-5818289Y-2284499D01*
G01X-5838187Y-2286517D01*
G01X-5857441Y-2291928D01*
G01X-5875477Y-2300572D01*
G01X-5891757Y-2312189D01*
G01X-5905796Y-2326435D01*
G01X-5917174Y-2342883D01*
G01X-5925553Y-2361043D01*
G01X-5930682Y-2380375D01*
G01X-5932409Y-2400300D01*
G01X-5930682Y-2420225D01*
G01X-5925553Y-2439557D01*
G01X-5917174Y-2457717D01*
G01X-5905796Y-2474165D01*
G01X-5891757Y-2488411D01*
G01X-5875477Y-2500028D01*
G01X-5857441Y-2508672D01*
G01X-5838187Y-2514083D01*
G01X-5818289Y-2516101D01*
G01X-5798341Y-2514666D01*
G01X-5778936Y-2509820D01*
G01X-5702314Y-2586443D01*
G01X-5702314Y-2635519D01*
G01X-5707675Y-2614940D01*
G01X-5716708Y-2595688D01*
G01X-5729109Y-2578412D01*
G01X-5744460Y-2563694D01*
G01X-5762243Y-2552032D01*
G01X-5781859Y-2543818D01*
G01X-5802646Y-2539329D01*
G01X-5823904Y-2538717D01*
G01X-5844915Y-2542002D01*
G01X-5864971Y-2549073D01*
G01X-5883396Y-2559693D01*
G01X-5899568Y-2573502D01*
G01X-5912943Y-2590036D01*
G01X-5923069Y-2608737D01*
G01X-5929606Y-2628973D01*
G01X-5932331Y-2650064D01*
G01X-5931155Y-2671298D01*
G01X-5926115Y-2691958D01*
G01X-6383743Y-3149586D01*
G01X-6383743Y-3149586D01*
G01X-7856791Y-3149586D01*
G01X-7869312Y-3141305D01*
G01X-7883375Y-3136051D01*
G01X-7898258Y-3134096D01*
G01X-7913201Y-3135538D01*
G01X-7927436Y-3140304D01*
G01X-7940234Y-3148149D01*
G01X-7950940Y-3158672D01*
G01X-7959005Y-3171334D01*
G01X-7964015Y-3185485D01*
G01X-7965714Y-3200400D01*
G01X-8610686Y-3200400D01*
G01X-8610686Y-3053103D01*
G01X-8611241Y-3046827D01*
G01X-8612886Y-3040745D01*
G01X-8612886Y-2963197D01*
G01X-8556316Y-2963197D01*
G01X-8545186Y-2961424D01*
G01X-8535158Y-2956279D01*
G01X-8527226Y-2948272D01*
G01X-8522174Y-2938197D01*
G01X-6405283Y-2938197D01*
G01X-6392131Y-2936466D01*
G01X-6379876Y-2931389D01*
G01X-6369352Y-2923314D01*
G01X-6344198Y-2898160D01*
G01X-6329489Y-2895162D01*
G01X-6315830Y-2888933D01*
G01X-6303923Y-2879791D01*
G01X-6294377Y-2868206D01*
G01X-6287681Y-2854770D01*
G01X-6284179Y-2840173D01*
G01X-6284050Y-2825162D01*
G01X-6287300Y-2810506D01*
G01X-6293764Y-2796957D01*
G01X-6303109Y-2785209D01*
G01X-6314857Y-2775864D01*
G01X-6328406Y-2769400D01*
G01X-6343062Y-2766150D01*
G01X-6358073Y-2766279D01*
G01X-6372670Y-2769781D01*
G01X-6386106Y-2776477D01*
G01X-6397691Y-2786023D01*
G01X-6406833Y-2797930D01*
G01X-6413062Y-2811589D01*
G01X-6416060Y-2826298D01*
G01X-6426331Y-2836569D01*
G01X-8522174Y-2836569D01*
G01X-8525516Y-2829107D01*
G01X-8530464Y-2822598D01*
G01X-8536759Y-2817381D01*
G01X-8528069Y-2809395D01*
G01X-8522447Y-2799019D01*
G01X-8520502Y-2787378D01*
G01X-8520502Y-2707378D01*
G01X-8522255Y-2696311D01*
G01X-8527342Y-2686327D01*
G01X-8535265Y-2678404D01*
G01X-8545249Y-2673317D01*
G01X-8556316Y-2671564D01*
G01X-8646316Y-2671564D01*
G01X-8657383Y-2673317D01*
G01X-8667367Y-2678404D01*
G01X-8675290Y-2686327D01*
G01X-8680377Y-2696311D01*
G01X-8682130Y-2707378D01*
G01X-8682130Y-2787378D01*
G01X-8680186Y-2799019D01*
G01X-8674563Y-2809395D01*
G01X-8665874Y-2817381D01*
G01X-8671097Y-2821527D01*
G01X-8675461Y-2826569D01*
G01X-8701507Y-2826569D01*
G01X-8706383Y-2820272D01*
G01X-8712529Y-2815208D01*
G01X-8703840Y-2807222D01*
G01X-8698217Y-2796846D01*
G01X-8696273Y-2785206D01*
G01X-8696273Y-2705206D01*
G01X-8698026Y-2694139D01*
G01X-8703113Y-2684155D01*
G01X-8711036Y-2676232D01*
G01X-8721020Y-2671145D01*
G01X-8732087Y-2669392D01*
G01X-8822087Y-2669392D01*
G01X-8833154Y-2671145D01*
G01X-8843138Y-2676232D01*
G01X-8851061Y-2684155D01*
G01X-8856148Y-2694139D01*
G01X-8857901Y-2705206D01*
G01X-8857901Y-2785206D01*
G01X-8855956Y-2796846D01*
G01X-8850334Y-2807222D01*
G01X-8841644Y-2815208D01*
G01X-8847791Y-2820272D01*
G01X-8852667Y-2826569D01*
G01X-8882772Y-2826569D01*
G01X-8887136Y-2821527D01*
G01X-8892359Y-2817381D01*
G01X-8883669Y-2809395D01*
G01X-8878047Y-2799019D01*
G01X-8876102Y-2787378D01*
G01X-8876102Y-2707378D01*
G01X-8877855Y-2696311D01*
G01X-8882942Y-2686327D01*
G01X-8890865Y-2678404D01*
G01X-8900849Y-2673317D01*
G01X-8911916Y-2671564D01*
G01X-9001916Y-2671564D01*
G01X-9012983Y-2673317D01*
G01X-9022967Y-2678404D01*
G01X-9030890Y-2686327D01*
G01X-9035977Y-2696311D01*
G01X-9037730Y-2707378D01*
G01X-9037730Y-2787378D01*
G01X-9035786Y-2799019D01*
G01X-9030163Y-2809395D01*
G01X-9021474Y-2817381D01*
G01X-9030163Y-2825366D01*
G01X-9035786Y-2835743D01*
G01X-9037730Y-2847383D01*
G01X-9037730Y-2927383D01*
G01X-9036773Y-2935606D01*
G01X-9033954Y-2943390D01*
G01X-9033954Y-3030105D01*
G01X-9038513Y-3037047D01*
G01X-9041351Y-3044853D01*
G01X-9042314Y-3053103D01*
G01X-9042314Y-3287103D01*
G01X-9040561Y-3298170D01*
G01X-9035474Y-3308154D01*
G01X-9027551Y-3316077D01*
G01X-9017567Y-3321164D01*
G01X-9006500Y-3322917D01*
G01X-8894267Y-3322917D01*
G01X-8894267Y-3605634D01*
G01X-8903629Y-3610936D01*
G01X-8910995Y-3618780D01*
G01X-8915698Y-3628457D01*
G01X-8917314Y-3639095D01*
G01X-8917314Y-3889094D01*
G01X-8915561Y-3900161D01*
G01X-8910474Y-3910145D01*
G01X-8902551Y-3918068D01*
G01X-8892567Y-3923155D01*
G01X-8881500Y-3924908D01*
G01X-8771500Y-3924908D01*
G01X-8760433Y-3923155D01*
G01X-8750449Y-3918068D01*
G01X-8742526Y-3910145D01*
G01X-8737439Y-3900161D01*
G01X-8735686Y-3889094D01*
G01X-8735686Y-3812609D01*
G01X-8724900Y-3812609D01*
G01X-8712344Y-3810956D01*
G01X-8700643Y-3806109D01*
G01X-8690595Y-3798399D01*
G01X-8687317Y-3795121D01*
G01X-8687317Y-3889094D01*
G01X-8685733Y-3899626D01*
G01X-8685733Y-3909377D01*
G01X-8726716Y-3909377D01*
G01X-8737783Y-3911130D01*
G01X-8747767Y-3916217D01*
G01X-8755690Y-3924141D01*
G01X-8760777Y-3934124D01*
G01X-8762530Y-3945191D01*
G01X-8762530Y-4004610D01*
G01X-8818182Y-4004610D01*
G01X-8823764Y-3996389D01*
G01X-8831391Y-3990019D01*
G01X-8840474Y-3985989D01*
G01X-8850316Y-3984611D01*
G01X-8930315Y-3984611D01*
G01X-8941956Y-3986555D01*
G01X-8952332Y-3992177D01*
G01X-8960318Y-4000867D01*
G01X-8968303Y-3992177D01*
G01X-8978680Y-3986555D01*
G01X-8990320Y-3984611D01*
G01X-9070320Y-3984611D01*
G01X-9081387Y-3986363D01*
G01X-9091371Y-3991450D01*
G01X-9099294Y-3999374D01*
G01X-9104381Y-4009357D01*
G01X-9106134Y-4020425D01*
G01X-9106134Y-4110424D01*
G01X-9104381Y-4121491D01*
G01X-9099294Y-4131475D01*
G01X-9091371Y-4139398D01*
G01X-9081387Y-4144485D01*
G01X-9070320Y-4146238D01*
G01X-8990320Y-4146238D01*
G01X-8978680Y-4144294D01*
G01X-8968303Y-4138671D01*
G01X-8960318Y-4129982D01*
G01X-8956187Y-4135190D01*
G01X-8951164Y-4139544D01*
G01X-8951164Y-4162245D01*
G01X-8956206Y-4166609D01*
G01X-8960352Y-4171832D01*
G01X-8968338Y-4163142D01*
G01X-8978714Y-4157520D01*
G01X-8990355Y-4155575D01*
G01X-9070355Y-4155575D01*
G01X-9081422Y-4157328D01*
G01X-9091406Y-4162415D01*
G01X-9099329Y-4170338D01*
G01X-9104416Y-4180322D01*
G01X-9106169Y-4191389D01*
G01X-9106169Y-4281389D01*
G01X-9104416Y-4292456D01*
G01X-9099329Y-4302440D01*
G01X-9091406Y-4310363D01*
G01X-9081422Y-4315450D01*
G01X-9070355Y-4317203D01*
G01X-8990355Y-4317203D01*
G01X-8978714Y-4315259D01*
G01X-8968338Y-4309636D01*
G01X-8960352Y-4300947D01*
G01X-8956206Y-4306170D01*
G01X-8951164Y-4310534D01*
G01X-8951164Y-4340045D01*
G01X-8956206Y-4344409D01*
G01X-8960352Y-4349632D01*
G01X-8968338Y-4340942D01*
G01X-8978714Y-4335320D01*
G01X-8990355Y-4333375D01*
G01X-9070355Y-4333375D01*
G01X-9081422Y-4335128D01*
G01X-9091406Y-4340215D01*
G01X-9099329Y-4348138D01*
G01X-9104416Y-4358122D01*
G01X-9106169Y-4369189D01*
G01X-9106169Y-4459189D01*
G01X-9106160Y-4459986D01*
G01X-9111205Y-4459986D01*
G01X-9184386Y-4386805D01*
G01X-9184386Y-4198110D01*
G01X-9175525Y-4186152D01*
G01X-9169554Y-4172518D01*
G01X-9166774Y-4157896D01*
G01X-9167326Y-4143023D01*
G01X-9171180Y-4128647D01*
G01X-9178144Y-4115493D01*
G01X-9187866Y-4104223D01*
G01X-9199856Y-4095405D01*
G01X-9213511Y-4089484D01*
G01X-9228143Y-4086757D01*
G01X-9243014Y-4087362D01*
G01X-9257376Y-4091268D01*
G01X-9270505Y-4098279D01*
G01X-9281740Y-4108042D01*
G01X-9290514Y-4120064D01*
G01X-9296386Y-4133741D01*
G01X-9296386Y-4085048D01*
G01X-9133469Y-3922131D01*
G01X-9130808Y-3919256D01*
G01X-9121557Y-3923466D01*
G01X-9111497Y-3924908D01*
G01X-9001497Y-3924908D01*
G01X-8990430Y-3923155D01*
G01X-8980446Y-3918068D01*
G01X-8972523Y-3910145D01*
G01X-8967436Y-3900161D01*
G01X-8965683Y-3889094D01*
G01X-8965683Y-3639095D01*
G01X-8967436Y-3628028D01*
G01X-8972523Y-3618044D01*
G01X-8980446Y-3610121D01*
G01X-8990430Y-3605034D01*
G01X-9001497Y-3603281D01*
G01X-9111497Y-3603281D01*
G01X-9118586Y-3603989D01*
G01X-9118586Y-2590800D01*
G01X-9120317Y-2577648D01*
G01X-9125394Y-2565393D01*
G01X-9133469Y-2554869D01*
G01X-9324693Y-2363645D01*
G01X-9335217Y-2355570D01*
G01X-9347472Y-2350494D01*
G01X-9360624Y-2348762D01*
G01X-9549698Y-2348762D01*
G01X-9549698Y-2324576D01*
G01X-9551451Y-2313509D01*
G01X-9556538Y-2303525D01*
G01X-9564461Y-2295602D01*
G01X-9574445Y-2290515D01*
G01X-9585512Y-2288762D01*
G01X-9675512Y-2288762D01*
G01X-9685113Y-2290073D01*
G01X-9694012Y-2293910D01*
G01X-9702910Y-2290073D01*
G01X-9712512Y-2288762D01*
G01X-9802512Y-2288762D01*
G01X-9812113Y-2290073D01*
G01X-9821012Y-2293910D01*
G01X-9829910Y-2290073D01*
G01X-9839512Y-2288762D01*
G01X-9929512Y-2288762D01*
G01X-9939113Y-2290073D01*
G01X-9948012Y-2293910D01*
G01X-9956910Y-2290073D01*
G01X-9966512Y-2288762D01*
G01X-10056512Y-2288762D01*
G01X-10066113Y-2290073D01*
G01X-10075012Y-2293910D01*
G01X-10083910Y-2290073D01*
G01X-10093512Y-2288762D01*
G01X-10099398Y-2288762D01*
G01X-10099398Y-2154307D01*
G01X-9780241Y-1835150D01*
G01X-5889264Y-1835150D01*
G01X-5887337Y-1851020D01*
G01X-5881668Y-1865968D01*
G01X-5872587Y-1879124D01*
G01X-5860621Y-1889725D01*
G01X-5846465Y-1897155D01*
G01X-5830943Y-1900981D01*
G01X-5814957Y-1900981D01*
G01X-5799435Y-1897155D01*
G01X-5785279Y-1889725D01*
G01X-5773313Y-1879124D01*
G01X-5764232Y-1865968D01*
G01X-5758563Y-1851020D01*
G01X-5756636Y-1835150D01*
G01X-5758563Y-1819280D01*
G01X-5764232Y-1804332D01*
G01X-5773313Y-1791176D01*
G01X-5785279Y-1780575D01*
G01X-5799435Y-1773145D01*
G01X-5814957Y-1769319D01*
G01X-5830943Y-1769319D01*
G01X-5846465Y-1773145D01*
G01X-5860621Y-1780575D01*
G01X-5872587Y-1791176D01*
G01X-5881668Y-1804332D01*
G01X-5887337Y-1819280D01*
G01X-5889264Y-1835150D01*
G01X-5889264Y-1835150D01*
G01X-9780241Y-1835150D01*
G01X-9414495Y-1469405D01*
G01X-9406786Y-1459357D01*
G01X-9401939Y-1447656D01*
G01X-9400286Y-1435100D01*
G01X-9400286Y-366978D01*
G01X-9390563Y-364065D01*
G01X-9382047Y-358540D01*
G01X-9375424Y-350849D01*
G01X-9371224Y-341608D01*
G01X-9369786Y-331560D01*
G01X-9369786Y-250913D01*
G01X-9371100Y-241299D01*
G01X-9374947Y-232391D01*
G01X-9381044Y-224842D01*
G01X-9388944Y-219207D01*
G01X-9398066Y-215900D01*
G01X-9388944Y-212593D01*
G01X-9381044Y-206958D01*
G01X-9374947Y-199409D01*
G01X-9371100Y-190501D01*
G01X-9369786Y-180887D01*
G01X-9369786Y-100240D01*
G01X-9371224Y-90192D01*
G01X-9375424Y-80951D01*
G01X-9382047Y-73260D01*
G01X-9390563Y-67735D01*
G01X-9400286Y-64822D01*
G01X-9400286Y-22860D01*
G01X-7693914Y-22860D01*
G01X-7693914Y-52122D01*
G01X-7703637Y-55035D01*
G01X-7712153Y-60560D01*
G01X-7718776Y-68251D01*
G01X-7722976Y-77492D01*
G01X-7724414Y-87540D01*
G01X-7724414Y-91186D01*
G01X-7735622Y-91186D01*
G01X-7738535Y-81463D01*
G01X-7744060Y-72947D01*
G01X-7751751Y-66324D01*
G01X-7760992Y-62124D01*
G01X-7771040Y-60686D01*
G01X-7851687Y-60686D01*
G01X-7861301Y-62000D01*
G01X-7870209Y-65847D01*
G01X-7877758Y-71944D01*
G01X-7883393Y-79844D01*
G01X-7886700Y-88966D01*
G01X-7890007Y-79844D01*
G01X-7895642Y-71944D01*
G01X-7903191Y-65847D01*
G01X-7912099Y-62000D01*
G01X-7921713Y-60686D01*
G01X-8002360Y-60686D01*
G01X-8013427Y-62439D01*
G01X-8023411Y-67526D01*
G01X-8031334Y-75449D01*
G01X-8036421Y-85433D01*
G01X-8038174Y-96500D01*
G01X-8038174Y-182900D01*
G01X-8036421Y-193967D01*
G01X-8031334Y-203951D01*
G01X-8023411Y-211874D01*
G01X-8013427Y-216961D01*
G01X-8002360Y-218714D01*
G01X-7921713Y-218714D01*
G01X-7912099Y-217400D01*
G01X-7903191Y-213553D01*
G01X-7895642Y-207456D01*
G01X-7890007Y-199556D01*
G01X-7886700Y-190434D01*
G01X-7883393Y-199556D01*
G01X-7877758Y-207456D01*
G01X-7870209Y-213553D01*
G01X-7861301Y-217400D01*
G01X-7851687Y-218714D01*
G01X-7771040Y-218714D01*
G01X-7760992Y-217276D01*
G01X-7751751Y-213076D01*
G01X-7744060Y-206453D01*
G01X-7738535Y-197937D01*
G01X-7735622Y-188214D01*
G01X-7718292Y-188214D01*
G01X-7712276Y-195059D01*
G01X-7704727Y-200165D01*
G01X-7696134Y-203200D01*
G01X-7705256Y-206507D01*
G01X-7713156Y-212142D01*
G01X-7719253Y-219691D01*
G01X-7723100Y-228599D01*
G01X-7724414Y-238213D01*
G01X-7724414Y-318860D01*
G01X-7722976Y-328908D01*
G01X-7718776Y-338149D01*
G01X-7712153Y-345840D01*
G01X-7703637Y-351365D01*
G01X-7693914Y-354278D01*
G01X-7693914Y-704090D01*
G01X-7703012Y-716461D01*
G01X-7709021Y-730594D01*
G01X-7711618Y-745729D01*
G01X-7710664Y-761056D01*
G01X-7706210Y-775753D01*
G01X-7698494Y-789031D01*
G01X-7687932Y-800178D01*
G01X-7675089Y-808597D01*
G01X-7660653Y-813836D01*
G01X-7645400Y-815614D01*
G01X-7630147Y-813836D01*
G01X-7615711Y-808597D01*
G01X-7602868Y-800178D01*
G01X-7592306Y-789031D01*
G01X-7584590Y-775753D01*
G01X-7580136Y-761056D01*
G01X-7579182Y-745729D01*
G01X-7581779Y-730594D01*
G01X-7587788Y-716461D01*
G01X-7596886Y-704090D01*
G01X-7596886Y-607581D01*
G01X-5382030Y-607581D01*
G01X-5380195Y-628560D01*
G01X-5374744Y-648901D01*
G01X-5365844Y-667988D01*
G01X-5353765Y-685238D01*
G01X-5338874Y-700129D01*
G01X-5321623Y-712209D01*
G01X-5302537Y-721109D01*
G01X-5282195Y-726559D01*
G01X-5261216Y-728395D01*
G01X-5261216Y-728395D01*
G01X-5240237Y-726559D01*
G01X-5219896Y-721109D01*
G01X-5200809Y-712209D01*
G01X-5183559Y-700129D01*
G01X-5168668Y-685238D01*
G01X-5156588Y-667988D01*
G01X-5147688Y-648901D01*
G01X-5142238Y-628560D01*
G01X-5140402Y-607581D01*
G01X-5142238Y-586602D01*
G01X-5147688Y-566260D01*
G01X-5156588Y-547174D01*
G01X-5168668Y-529923D01*
G01X-5183559Y-515032D01*
G01X-5200809Y-502953D01*
G01X-5219896Y-494053D01*
G01X-5240237Y-488602D01*
G01X-5261216Y-486767D01*
G01X-5282195Y-488602D01*
G01X-5302537Y-494053D01*
G01X-5321623Y-502953D01*
G01X-5338874Y-515032D01*
G01X-5353765Y-529923D01*
G01X-5365844Y-547174D01*
G01X-5374744Y-566260D01*
G01X-5380195Y-586602D01*
G01X-5382030Y-607581D01*
G01X-7596886Y-607581D01*
G01X-7596886Y-354278D01*
G01X-7594559Y-353581D01*
G01X-5382030Y-353581D01*
G01X-5380195Y-374560D01*
G01X-5374744Y-394901D01*
G01X-5365844Y-413988D01*
G01X-5353765Y-431238D01*
G01X-5338874Y-446129D01*
G01X-5321623Y-458209D01*
G01X-5302537Y-467109D01*
G01X-5282195Y-472559D01*
G01X-5261216Y-474395D01*
G01X-5261216Y-474395D01*
G01X-5240237Y-472559D01*
G01X-5219896Y-467109D01*
G01X-5200809Y-458209D01*
G01X-5183559Y-446129D01*
G01X-5168668Y-431238D01*
G01X-5156588Y-413988D01*
G01X-5147688Y-394901D01*
G01X-5142238Y-374560D01*
G01X-5140402Y-353581D01*
G01X-5142238Y-332602D01*
G01X-5147688Y-312260D01*
G01X-5156588Y-293174D01*
G01X-5168668Y-275923D01*
G01X-5183559Y-261032D01*
G01X-5200809Y-248953D01*
G01X-5219896Y-240053D01*
G01X-5240237Y-234602D01*
G01X-5261216Y-232767D01*
G01X-5282195Y-234602D01*
G01X-5302537Y-240053D01*
G01X-5321623Y-248953D01*
G01X-5338874Y-261032D01*
G01X-5353765Y-275923D01*
G01X-5365844Y-293174D01*
G01X-5374744Y-312260D01*
G01X-5380195Y-332602D01*
G01X-5382030Y-353581D01*
G01X-7594559Y-353581D01*
G01X-7587163Y-351365D01*
G01X-7578647Y-345840D01*
G01X-7572024Y-338149D01*
G01X-7567824Y-328908D01*
G01X-7566386Y-318860D01*
G01X-7566386Y-238213D01*
G01X-7567700Y-228599D01*
G01X-7571547Y-219691D01*
G01X-7577644Y-212142D01*
G01X-7585544Y-206507D01*
G01X-7594666Y-203200D01*
G01X-7585544Y-199893D01*
G01X-7577644Y-194258D01*
G01X-7571547Y-186709D01*
G01X-7567700Y-177801D01*
G01X-7566386Y-168187D01*
G01X-7566386Y-87540D01*
G01X-7567824Y-77492D01*
G01X-7572024Y-68251D01*
G01X-7578647Y-60560D01*
G01X-7587163Y-55035D01*
G01X-7596886Y-52122D01*
G01X-7596886Y-22860D01*
G01X-5354543Y-22860D01*
G01X-5366402Y-40150D01*
G01X-5375093Y-59230D01*
G01X-5380354Y-79525D01*
G01X-5382027Y-100424D01*
G01X-5380062Y-121298D01*
G01X-5374518Y-141517D01*
G01X-5365562Y-160474D01*
G01X-5353463Y-177597D01*
G01X-5338586Y-192370D01*
G01X-5321380Y-204349D01*
G01X-5302361Y-213173D01*
G01X-5282103Y-218575D01*
G01X-5261216Y-220395D01*
G01X-5240329Y-218575D01*
G01X-5220072Y-213173D01*
G01X-5201053Y-204349D01*
G01X-5183846Y-192370D01*
G01X-5168969Y-177597D01*
G01X-5156871Y-160474D01*
G01X-5147914Y-141517D01*
G01X-5142370Y-121298D01*
G01X-5140405Y-100424D01*
G01X-5142079Y-79525D01*
G01X-5147340Y-59230D01*
G01X-5156031Y-40150D01*
G01X-5167889Y-22860D01*
G01X-5162870Y-22860D01*
G01X-4907214Y-278516D01*
G01X-4907214Y-2295546D01*
G01X-5365295Y-2753627D01*
G01X-5485916Y-2753627D01*
G01X-5496983Y-2755380D01*
G01X-5506967Y-2760467D01*
G01X-5514890Y-2768390D01*
G01X-5519977Y-2778374D01*
G01X-5521730Y-2789441D01*
G01X-5521730Y-2946921D01*
G01X-5519977Y-2957988D01*
G01X-5514890Y-2967972D01*
G01X-5506967Y-2975895D01*
G01X-5496983Y-2980982D01*
G01X-5485916Y-2982735D01*
G01X-5315916Y-2982735D01*
G01X-5304849Y-2980982D01*
G01X-5294866Y-2975895D01*
G01X-5286942Y-2967972D01*
G01X-5281855Y-2957988D01*
G01X-5280102Y-2946921D01*
G01X-5280102Y-2826300D01*
G01X-5172056Y-2718253D01*
G01X-5161197Y-2730100D01*
G01X-5147808Y-2738987D01*
G01X-5132674Y-2744393D01*
G01X-5116684Y-2745999D01*
G01X-5100777Y-2743712D01*
G01X-5085888Y-2737665D01*
G01X-5072890Y-2728214D01*
G01X-5049295Y-2728214D01*
G01X-4790673Y-2986836D01*
G01X-4788359Y-3002018D01*
G01X-4782614Y-3016259D01*
G01X-4773748Y-3028798D01*
G01X-4762236Y-3038961D01*
G01X-4748694Y-3046204D01*
G01X-4733850Y-3050137D01*
G01X-4718499Y-3050551D01*
G01X-4703464Y-3047422D01*
G01X-4689552Y-3040920D01*
G01X-4677509Y-3031391D01*
G01X-4667980Y-3019348D01*
G01X-4661478Y-3005436D01*
G01X-4658349Y-2990401D01*
G01X-4658763Y-2975050D01*
G01X-4662696Y-2960206D01*
G01X-4669939Y-2946664D01*
G01X-4680102Y-2935152D01*
G01X-4692641Y-2926286D01*
G01X-4706882Y-2920541D01*
G01X-4722064Y-2918227D01*
G01X-4994895Y-2645395D01*
G01X-5004943Y-2637686D01*
G01X-5016644Y-2632839D01*
G01X-5029200Y-2631186D01*
G01X-5072890Y-2631186D01*
G01X-5079547Y-2625744D01*
G01X-4811934Y-2358131D01*
G01X-4803064Y-2346571D01*
G01X-4797488Y-2333110D01*
G01X-4795586Y-2318664D01*
G01X-4795586Y-255397D01*
G01X-4797488Y-240951D01*
G01X-4803064Y-227490D01*
G01X-4811934Y-215931D01*
G01X-5005004Y-22860D01*
G01X-2947530Y-22860D01*
G01X-2947530Y-5395481D01*
G01X-2949381Y-5428441D01*
G01X-2954911Y-5460988D01*
G01X-2964050Y-5492710D01*
G01X-2976684Y-5523210D01*
G01X-2992653Y-5552103D01*
G01X-3011756Y-5579027D01*
G01X-3033754Y-5603643D01*
G01X-3058370Y-5625641D01*
G01X-3085294Y-5644744D01*
G01X-3114187Y-5660713D01*
G01X-3144687Y-5673347D01*
G01X-3176409Y-5682486D01*
G01X-3208956Y-5688016D01*
G01X-3241916Y-5689867D01*
G01X-8852797Y-5689867D01*
G01X-8846104Y-5682159D01*
G01X-8841858Y-5672875D01*
G01X-8840403Y-5662771D01*
G01X-8840403Y-5539772D01*
G01X-8842156Y-5528705D01*
G01X-8847243Y-5518721D01*
G01X-8855166Y-5510798D01*
G01X-8865150Y-5505711D01*
G01X-8876217Y-5503958D01*
G01X-9012216Y-5503958D01*
G01X-9023283Y-5505711D01*
G01X-9033267Y-5510798D01*
G01X-9041190Y-5518721D01*
G01X-9046277Y-5528705D01*
G01X-9048030Y-5539772D01*
G01X-9048030Y-5662771D01*
G01X-9046575Y-5672875D01*
G01X-9042329Y-5682159D01*
G01X-9035636Y-5689867D01*
G01X-11712816Y-5689867D01*
G01X-11745777Y-5688016D01*
G01X-11778323Y-5682486D01*
G01X-11810046Y-5673347D01*
G01X-11840546Y-5660713D01*
G01X-11869439Y-5644744D01*
G01X-11896363Y-5625641D01*
G01X-11920979Y-5603643D01*
G01X-11942977Y-5579027D01*
G01X-11962080Y-5552103D01*
G01X-11978049Y-5523210D01*
G01X-11990682Y-5492710D01*
G01X-11999821Y-5460988D01*
G01X-12005351Y-5428441D01*
G01X-12007202Y-5395481D01*
G01X-12007202Y-5370081D01*
G01X-11835130Y-5370081D01*
G01X-11833239Y-5396525D01*
G01X-11827603Y-5422431D01*
G01X-11818339Y-5447271D01*
G01X-11805633Y-5470539D01*
G01X-11789745Y-5491763D01*
G01X-11770999Y-5510510D01*
G01X-11749775Y-5526397D01*
G01X-11726506Y-5539103D01*
G01X-11701666Y-5548368D01*
G01X-11675760Y-5554003D01*
G01X-11649316Y-5555895D01*
G01X-11622872Y-5554003D01*
G01X-11596966Y-5548368D01*
G01X-11572126Y-5539103D01*
G01X-11550093Y-5527072D01*
G01X-10483130Y-5527072D01*
G01X-10483130Y-5650071D01*
G01X-10481377Y-5661138D01*
G01X-10476290Y-5671122D01*
G01X-10468367Y-5679045D01*
G01X-10458383Y-5684132D01*
G01X-10447316Y-5685885D01*
G01X-10311317Y-5685885D01*
G01X-10300250Y-5684132D01*
G01X-10290266Y-5679045D01*
G01X-10282343Y-5671122D01*
G01X-10277256Y-5661138D01*
G01X-10275503Y-5650071D01*
G01X-10275503Y-5527072D01*
G01X-10277256Y-5516005D01*
G01X-10282343Y-5506021D01*
G01X-10290266Y-5498098D01*
G01X-10300250Y-5493011D01*
G01X-10311317Y-5491258D01*
G01X-10447316Y-5491258D01*
G01X-10447316Y-5491258D01*
G01X-10458383Y-5493011D01*
G01X-10468367Y-5498098D01*
G01X-10476290Y-5506021D01*
G01X-10481377Y-5516005D01*
G01X-10483130Y-5527072D01*
G01X-11550093Y-5527072D01*
G01X-11548858Y-5526397D01*
G01X-11527634Y-5510510D01*
G01X-11508887Y-5491763D01*
G01X-11493000Y-5470539D01*
G01X-11480294Y-5447271D01*
G01X-11471029Y-5422431D01*
G01X-11467915Y-5408113D01*
G01X-10173729Y-5408113D01*
G01X-10173729Y-5498113D01*
G01X-10171853Y-5515955D01*
G01X-10166310Y-5533017D01*
G01X-10157340Y-5548553D01*
G01X-10145336Y-5561885D01*
G01X-10130822Y-5572430D01*
G01X-10114433Y-5579727D01*
G01X-10096885Y-5583457D01*
G01X-10078945Y-5583457D01*
G01X-10061397Y-5579727D01*
G01X-10045008Y-5572430D01*
G01X-10030494Y-5561885D01*
G01X-10018490Y-5548553D01*
G01X-10009520Y-5533017D01*
G01X-10003976Y-5515955D01*
G01X-10002101Y-5498113D01*
G01X-10002101Y-5408113D01*
G01X-9308732Y-5408113D01*
G01X-9308732Y-5498113D01*
G01X-9306856Y-5515955D01*
G01X-9301313Y-5533017D01*
G01X-9292343Y-5548553D01*
G01X-9280339Y-5561885D01*
G01X-9265825Y-5572430D01*
G01X-9249436Y-5579727D01*
G01X-9231888Y-5583457D01*
G01X-9213948Y-5583457D01*
G01X-9196400Y-5579727D01*
G01X-9180011Y-5572430D01*
G01X-9165497Y-5561885D01*
G01X-9153493Y-5548553D01*
G01X-9144523Y-5533017D01*
G01X-9138979Y-5515955D01*
G01X-9137104Y-5498113D01*
G01X-9137104Y-5408113D01*
G01X-9138979Y-5390272D01*
G01X-9144523Y-5373210D01*
G01X-9147357Y-5368300D01*
G01X-5932409Y-5368300D01*
G01X-5932409Y-5528300D01*
G01X-5930656Y-5539367D01*
G01X-5925569Y-5549351D01*
G01X-5917646Y-5557274D01*
G01X-5907662Y-5562361D01*
G01X-5896595Y-5564114D01*
G01X-5736595Y-5564114D01*
G01X-5725528Y-5562361D01*
G01X-5715544Y-5557274D01*
G01X-5707621Y-5549351D01*
G01X-5702534Y-5539367D01*
G01X-5700781Y-5528300D01*
G01X-5700781Y-5368300D01*
G01X-5700781Y-5368300D01*
G01X-5702534Y-5357233D01*
G01X-5707621Y-5347249D01*
G01X-5710189Y-5344681D01*
G01X-3491230Y-5344681D01*
G01X-3489339Y-5371125D01*
G01X-3483703Y-5397031D01*
G01X-3474439Y-5421871D01*
G01X-3461733Y-5445139D01*
G01X-3445845Y-5466363D01*
G01X-3427099Y-5485110D01*
G01X-3405875Y-5500997D01*
G01X-3382606Y-5513703D01*
G01X-3357766Y-5522968D01*
G01X-3331860Y-5528603D01*
G01X-3305416Y-5530495D01*
G01X-3278972Y-5528603D01*
G01X-3253066Y-5522968D01*
G01X-3228226Y-5513703D01*
G01X-3204958Y-5500997D01*
G01X-3183734Y-5485110D01*
G01X-3164987Y-5466363D01*
G01X-3149100Y-5445139D01*
G01X-3136394Y-5421871D01*
G01X-3127129Y-5397031D01*
G01X-3121494Y-5371125D01*
G01X-3119602Y-5344681D01*
G01X-3121494Y-5318237D01*
G01X-3127129Y-5292331D01*
G01X-3136394Y-5267491D01*
G01X-3149100Y-5244222D01*
G01X-3164987Y-5222998D01*
G01X-3183734Y-5204252D01*
G01X-3204958Y-5188364D01*
G01X-3228226Y-5175658D01*
G01X-3253066Y-5166394D01*
G01X-3278972Y-5160758D01*
G01X-3305416Y-5158867D01*
G01X-3331860Y-5160758D01*
G01X-3357766Y-5166394D01*
G01X-3382606Y-5175658D01*
G01X-3405875Y-5188364D01*
G01X-3427099Y-5204252D01*
G01X-3445845Y-5222998D01*
G01X-3461733Y-5244222D01*
G01X-3474439Y-5267491D01*
G01X-3483703Y-5292331D01*
G01X-3489339Y-5318237D01*
G01X-3491230Y-5344681D01*
G01X-3491230Y-5344681D01*
G01X-5710189Y-5344681D01*
G01X-5715544Y-5339326D01*
G01X-5725528Y-5334239D01*
G01X-5736595Y-5332486D01*
G01X-5896595Y-5332486D01*
G01X-5907662Y-5334239D01*
G01X-5917646Y-5339326D01*
G01X-5925569Y-5347249D01*
G01X-5930656Y-5357233D01*
G01X-5932409Y-5368300D01*
G01X-9147357Y-5368300D01*
G01X-9153493Y-5357673D01*
G01X-9165497Y-5344341D01*
G01X-9180011Y-5333796D01*
G01X-9196400Y-5326500D01*
G01X-9213948Y-5322770D01*
G01X-9231888Y-5322770D01*
G01X-9249436Y-5326500D01*
G01X-9265825Y-5333796D01*
G01X-9280339Y-5344341D01*
G01X-9292343Y-5357673D01*
G01X-9301313Y-5373210D01*
G01X-9306856Y-5390272D01*
G01X-9308732Y-5408113D01*
G01X-9308732Y-5408113D01*
G01X-10002101Y-5408113D01*
G01X-10003976Y-5390272D01*
G01X-10009520Y-5373210D01*
G01X-10018490Y-5357673D01*
G01X-10030494Y-5344341D01*
G01X-10045008Y-5333796D01*
G01X-10061397Y-5326500D01*
G01X-10078945Y-5322770D01*
G01X-10096885Y-5322770D01*
G01X-10114433Y-5326500D01*
G01X-10130822Y-5333796D01*
G01X-10145336Y-5344341D01*
G01X-10157340Y-5357673D01*
G01X-10166310Y-5373210D01*
G01X-10171853Y-5390272D01*
G01X-10173729Y-5408113D01*
G01X-10173729Y-5408113D01*
G01X-11467915Y-5408113D01*
G01X-11465394Y-5396525D01*
G01X-11463502Y-5370081D01*
G01X-11465394Y-5343637D01*
G01X-11471029Y-5317731D01*
G01X-11480294Y-5292891D01*
G01X-11493000Y-5269622D01*
G01X-11508887Y-5248398D01*
G01X-11527634Y-5229652D01*
G01X-11548858Y-5213764D01*
G01X-11572126Y-5201058D01*
G01X-11596966Y-5191794D01*
G01X-11622872Y-5186158D01*
G01X-11649316Y-5184267D01*
G01X-11675760Y-5186158D01*
G01X-11701666Y-5191794D01*
G01X-11726506Y-5201058D01*
G01X-11749775Y-5213764D01*
G01X-11770999Y-5229652D01*
G01X-11789745Y-5248398D01*
G01X-11805633Y-5269622D01*
G01X-11818339Y-5292891D01*
G01X-11827603Y-5317731D01*
G01X-11833239Y-5343637D01*
G01X-11835130Y-5370081D01*
G01X-11835130Y-5370081D01*
G01X-12007202Y-5370081D01*
G01X-12007202Y-4812134D01*
G01X-10708914Y-4812134D01*
G01X-10707136Y-4827388D01*
G01X-10701897Y-4841823D01*
G01X-10693478Y-4854666D01*
G01X-10682331Y-4865229D01*
G01X-10669053Y-4872944D01*
G01X-10654356Y-4877398D01*
G01X-10639029Y-4878352D01*
G01X-10623894Y-4875755D01*
G01X-10609761Y-4869746D01*
G01X-10597390Y-4860648D01*
G01X-10543612Y-4860648D01*
G01X-10539955Y-4870028D01*
G01X-10533832Y-4878019D01*
G01X-10525728Y-4883991D01*
G01X-10516281Y-4887471D01*
G01X-10525728Y-4890951D01*
G01X-10533832Y-4896922D01*
G01X-10539955Y-4904913D01*
G01X-10543612Y-4914293D01*
G01X-10543612Y-4914293D01*
G01X-10584690Y-4914293D01*
G01X-10597061Y-4905195D01*
G01X-10611194Y-4899186D01*
G01X-10626329Y-4896589D01*
G01X-10641656Y-4897543D01*
G01X-10656353Y-4901997D01*
G01X-10669631Y-4909712D01*
G01X-10680778Y-4920275D01*
G01X-10689197Y-4933118D01*
G01X-10694436Y-4947554D01*
G01X-10696214Y-4962807D01*
G01X-10694436Y-4978060D01*
G01X-10689197Y-4992496D01*
G01X-10680778Y-5005339D01*
G01X-10669631Y-5015901D01*
G01X-10656353Y-5023617D01*
G01X-10641656Y-5028071D01*
G01X-10626329Y-5029025D01*
G01X-10611194Y-5026428D01*
G01X-10597061Y-5020419D01*
G01X-10584690Y-5011321D01*
G01X-10543612Y-5011321D01*
G01X-10538981Y-5022329D01*
G01X-10530988Y-5031202D01*
G01X-10520522Y-5036954D01*
G01X-10508747Y-5038945D01*
G01X-10422346Y-5038945D01*
G01X-10410571Y-5036954D01*
G01X-10400106Y-5031202D01*
G01X-10392113Y-5022329D01*
G01X-10387482Y-5011321D01*
G01X-10378475Y-5011321D01*
G01X-10373610Y-5019597D01*
G01X-10366720Y-5026284D01*
G01X-10358303Y-5030900D01*
G01X-10348961Y-5033114D01*
G01X-10348961Y-5052625D01*
G01X-10350612Y-5054276D01*
G01X-10447316Y-5054276D01*
G01X-10458383Y-5056029D01*
G01X-10468367Y-5061116D01*
G01X-10476290Y-5069039D01*
G01X-10481377Y-5079023D01*
G01X-10483130Y-5090090D01*
G01X-10483130Y-5213090D01*
G01X-10481377Y-5224157D01*
G01X-10476290Y-5234141D01*
G01X-10468367Y-5242064D01*
G01X-10458383Y-5247151D01*
G01X-10447316Y-5248904D01*
G01X-10311317Y-5248904D01*
G01X-10300250Y-5247151D01*
G01X-10290266Y-5242064D01*
G01X-10282343Y-5234141D01*
G01X-10277256Y-5224157D01*
G01X-10275503Y-5213090D01*
G01X-10275503Y-5116385D01*
G01X-10266142Y-5107025D01*
G01X-10258432Y-5096977D01*
G01X-10253586Y-5085277D01*
G01X-10251933Y-5072720D01*
G01X-10251933Y-5033114D01*
G01X-10241739Y-5030560D01*
G01X-10232725Y-5025156D01*
G01X-10225668Y-5017369D01*
G01X-10221175Y-5007868D01*
G01X-10219633Y-4997473D01*
G01X-10219633Y-4917473D01*
G01X-10221577Y-4905833D01*
G01X-10227200Y-4895456D01*
G01X-10235889Y-4887471D01*
G01X-10227200Y-4879485D01*
G01X-10221577Y-4869108D01*
G01X-10219633Y-4857468D01*
G01X-10219633Y-4777468D01*
G01X-10221386Y-4766401D01*
G01X-10226473Y-4756417D01*
G01X-10234396Y-4748494D01*
G01X-10244380Y-4743407D01*
G01X-10255447Y-4741654D01*
G01X-10345447Y-4741654D01*
G01X-10356514Y-4743407D01*
G01X-10366498Y-4748494D01*
G01X-10374421Y-4756417D01*
G01X-10379508Y-4766401D01*
G01X-10381261Y-4777468D01*
G01X-10381261Y-4857468D01*
G01X-10379316Y-4869108D01*
G01X-10373694Y-4879485D01*
G01X-10365004Y-4887471D01*
G01X-10373029Y-4894629D01*
G01X-10378567Y-4903847D01*
G01X-10381119Y-4914293D01*
G01X-10387482Y-4914293D01*
G01X-10391138Y-4904913D01*
G01X-10397261Y-4896922D01*
G01X-10405366Y-4890951D01*
G01X-10414813Y-4887471D01*
G01X-10405690Y-4884163D01*
G01X-10397791Y-4878528D01*
G01X-10391694Y-4870980D01*
G01X-10387847Y-4862072D01*
G01X-10386532Y-4852458D01*
G01X-10386532Y-4771810D01*
G01X-10388285Y-4760743D01*
G01X-10393372Y-4750759D01*
G01X-10401295Y-4742836D01*
G01X-10411279Y-4737749D01*
G01X-10422346Y-4735996D01*
G01X-10508747Y-4735996D01*
G01X-10520522Y-4737987D01*
G01X-10530988Y-4743739D01*
G01X-10538981Y-4752612D01*
G01X-10543612Y-4763620D01*
G01X-10597390Y-4763620D01*
G01X-10609761Y-4754522D01*
G01X-10623894Y-4748513D01*
G01X-10639029Y-4745916D01*
G01X-10654356Y-4746870D01*
G01X-10669053Y-4751325D01*
G01X-10682331Y-4759040D01*
G01X-10693478Y-4769602D01*
G01X-10701897Y-4782445D01*
G01X-10707136Y-4796881D01*
G01X-10708914Y-4812134D01*
G01X-12007202Y-4812134D01*
G01X-12007202Y-4609756D01*
G01X-10188213Y-4609756D01*
G01X-10186354Y-4625695D01*
G01X-10180721Y-4640720D01*
G01X-10171644Y-4653953D01*
G01X-10159654Y-4664618D01*
G01X-10145454Y-4672090D01*
G01X-10129874Y-4675933D01*
G01X-10113827Y-4675921D01*
G01X-10098253Y-4672055D01*
G01X-10084064Y-4664561D01*
G01X-10078052Y-4674525D01*
G01X-10069162Y-4682036D01*
G01X-10058334Y-4686300D01*
G01X-10067456Y-4689607D01*
G01X-10075356Y-4695242D01*
G01X-10081453Y-4702791D01*
G01X-10085300Y-4711699D01*
G01X-10086614Y-4721313D01*
G01X-10086614Y-4721313D01*
G01X-10086614Y-4801960D01*
G01X-10084861Y-4813027D01*
G01X-10079774Y-4823011D01*
G01X-10071851Y-4830934D01*
G01X-10061867Y-4836021D01*
G01X-10050800Y-4837774D01*
G01X-9964400Y-4837774D01*
G01X-9953333Y-4836021D01*
G01X-9943349Y-4830934D01*
G01X-9935426Y-4823011D01*
G01X-9930339Y-4813027D01*
G01X-9928586Y-4801960D01*
G01X-9928586Y-4721313D01*
G01X-9929900Y-4711699D01*
G01X-9933747Y-4702791D01*
G01X-9939844Y-4695242D01*
G01X-9947744Y-4689607D01*
G01X-9956866Y-4686300D01*
G01X-9947744Y-4682993D01*
G01X-9939844Y-4677358D01*
G01X-9933747Y-4669809D01*
G01X-9929900Y-4660901D01*
G01X-9928586Y-4651287D01*
G01X-9928586Y-4570640D01*
G01X-9930339Y-4559573D01*
G01X-9935426Y-4549589D01*
G01X-9943349Y-4541666D01*
G01X-9953333Y-4536579D01*
G01X-9964400Y-4534826D01*
G01X-10050800Y-4534826D01*
G01X-10060962Y-4536298D01*
G01X-10070288Y-4540592D01*
G01X-10078013Y-4547357D01*
G01X-10083501Y-4556035D01*
G01X-10097612Y-4548394D01*
G01X-10113145Y-4544366D01*
G01X-10129191Y-4544188D01*
G01X-10144809Y-4547869D01*
G01X-10159087Y-4555194D01*
G01X-10171187Y-4565734D01*
G01X-10180401Y-4578871D01*
G01X-10186189Y-4593838D01*
G01X-10188213Y-4609756D01*
G01X-12007202Y-4609756D01*
G01X-12007202Y-4328414D01*
G01X-11417300Y-4328414D01*
G01X-11412093Y-4327019D01*
G01X-11408281Y-4323207D01*
G01X-11406886Y-4318000D01*
G01X-11406886Y-3329588D01*
G01X-10730323Y-3329588D01*
G01X-10729141Y-3338712D01*
G01X-10725674Y-3347233D01*
G01X-10720151Y-3354591D01*
G01X-10725674Y-3361948D01*
G01X-10729141Y-3370470D01*
G01X-10730323Y-3379593D01*
G01X-10730323Y-3469593D01*
G01X-10729141Y-3478717D01*
G01X-10725674Y-3487238D01*
G01X-10720151Y-3494595D01*
G01X-10725674Y-3501953D01*
G01X-10729141Y-3510474D01*
G01X-10730323Y-3519598D01*
G01X-10730323Y-3609598D01*
G01X-10728570Y-3620665D01*
G01X-10723483Y-3630649D01*
G01X-10715560Y-3638572D01*
G01X-10705576Y-3643659D01*
G01X-10694509Y-3645412D01*
G01X-10604509Y-3645412D01*
G01X-10595385Y-3644230D01*
G01X-10586864Y-3640763D01*
G01X-10579506Y-3635240D01*
G01X-10572149Y-3640763D01*
G01X-10563628Y-3644230D01*
G01X-10554504Y-3645412D01*
G01X-10464504Y-3645412D01*
G01X-10455380Y-3644230D01*
G01X-10446859Y-3640763D01*
G01X-10439502Y-3635240D01*
G01X-10432144Y-3640763D01*
G01X-10423623Y-3644230D01*
G01X-10414499Y-3645412D01*
G01X-10414499Y-3645412D01*
G01X-10324499Y-3645412D01*
G01X-10313432Y-3643659D01*
G01X-10303448Y-3638572D01*
G01X-10295525Y-3630649D01*
G01X-10290438Y-3620665D01*
G01X-10288685Y-3609598D01*
G01X-10288685Y-3519598D01*
G01X-10289867Y-3510474D01*
G01X-10293334Y-3501953D01*
G01X-10298857Y-3494595D01*
G01X-10293334Y-3487238D01*
G01X-10289867Y-3478717D01*
G01X-10288685Y-3469593D01*
G01X-10288685Y-3379593D01*
G01X-10289867Y-3370470D01*
G01X-10293334Y-3361948D01*
G01X-10298857Y-3354591D01*
G01X-10293334Y-3347233D01*
G01X-10289867Y-3338712D01*
G01X-10288685Y-3329588D01*
G01X-10288685Y-3239588D01*
G01X-10290438Y-3228521D01*
G01X-10295525Y-3218537D01*
G01X-10303448Y-3210614D01*
G01X-10313432Y-3205527D01*
G01X-10324499Y-3203774D01*
G01X-10414499Y-3203774D01*
G01X-10423623Y-3204956D01*
G01X-10432144Y-3208423D01*
G01X-10439502Y-3213946D01*
G01X-10446859Y-3208423D01*
G01X-10455380Y-3204956D01*
G01X-10464504Y-3203774D01*
G01X-10554504Y-3203774D01*
G01X-10563628Y-3204956D01*
G01X-10572149Y-3208423D01*
G01X-10579506Y-3213946D01*
G01X-10586864Y-3208423D01*
G01X-10595385Y-3204956D01*
G01X-10604509Y-3203774D01*
G01X-10694509Y-3203774D01*
G01X-10705576Y-3205527D01*
G01X-10715560Y-3210614D01*
G01X-10723483Y-3218537D01*
G01X-10728570Y-3228521D01*
G01X-10730323Y-3239588D01*
G01X-10730323Y-3329588D01*
G01X-11406886Y-3329588D01*
G01X-11406886Y-2247900D01*
G01X-11407398Y-2244675D01*
G01X-11407398Y-2236622D01*
G01X-11408793Y-2231415D01*
G01X-11412605Y-2227604D01*
G01X-11417812Y-2226208D01*
G37*
G36*
G01X-10837012Y-4255251D02*
G01X-10834326Y-4256719D01*
G01X-10834326Y-4316957D01*
G01X-10837985Y-4327885D01*
G01X-10839698Y-4339281D01*
G01X-10839698Y-4256719D01*
G01X-10837012Y-4255251D01*
G37*
G36*
G01X-10579545Y-3957535D02*
G01X-10581776Y-3970830D01*
G01X-10581272Y-3984302D01*
G01X-10578054Y-3997394D01*
G01X-10572255Y-4009564D01*
G01X-10564114Y-4020310D01*
G01X-10564114Y-4038771D01*
G01X-10564512Y-4038771D01*
G01X-10574113Y-4040083D01*
G01X-10583012Y-4043920D01*
G01X-10594086Y-4039550D01*
G01X-10594086Y-3982210D01*
G01X-10585468Y-3970667D01*
G01X-10579545Y-3957535D01*
G37*
G36*
G01X-9671418Y-4639356D02*
G01X-9669894Y-4640393D01*
G01X-9669894Y-4702769D01*
G01X-9671418Y-4703805D01*
G01X-9681339Y-4698800D01*
G01X-9692316Y-4697076D01*
G01X-9704461Y-4697076D01*
G01X-9695691Y-4687267D01*
G01X-9689029Y-4675920D01*
G01X-9684740Y-4663482D01*
G01X-9682990Y-4650441D01*
G01X-9677311Y-4642791D01*
G01X-9671418Y-4639356D01*
G37*
G36*
G01X-9549698Y-4224585D02*
G01X-9549698Y-4074585D01*
G01X-9551383Y-4063729D01*
G01X-9556279Y-4053895D01*
G01X-9427521Y-4053895D01*
G01X-9416454Y-4052142D01*
G01X-9406470Y-4047055D01*
G01X-9398547Y-4039132D01*
G01X-9393460Y-4029148D01*
G01X-9391707Y-4018081D01*
G01X-9391707Y-3928081D01*
G01X-9393018Y-3918479D01*
G01X-9396855Y-3909581D01*
G01X-9393018Y-3900682D01*
G01X-9391707Y-3891081D01*
G01X-9391707Y-3801081D01*
G01X-9393018Y-3791479D01*
G01X-9396855Y-3782581D01*
G01X-9395388Y-3779895D01*
G01X-9283524Y-3779895D01*
G01X-9267587Y-3783643D01*
G01X-9251216Y-3783882D01*
G01X-9235176Y-3780601D01*
G01X-9220214Y-3773953D01*
G01X-9220214Y-3865152D01*
G01X-9383131Y-4028069D01*
G01X-9391206Y-4038593D01*
G01X-9396283Y-4050848D01*
G01X-9398014Y-4064000D01*
G01X-9398014Y-4432300D01*
G01X-9396283Y-4445452D01*
G01X-9391206Y-4457707D01*
G01X-9383131Y-4468231D01*
G01X-9343920Y-4507442D01*
G01X-9345516Y-4507407D01*
G01X-9431917Y-4507407D01*
G01X-9442984Y-4509159D01*
G01X-9452968Y-4514246D01*
G01X-9460891Y-4522170D01*
G01X-9465978Y-4532153D01*
G01X-9467731Y-4543221D01*
G01X-9467731Y-4623868D01*
G01X-9466416Y-4633482D01*
G01X-9462569Y-4642390D01*
G01X-9456472Y-4649939D01*
G01X-9448573Y-4655573D01*
G01X-9439450Y-4658881D01*
G01X-9448573Y-4662188D01*
G01X-9456472Y-4667823D01*
G01X-9462569Y-4675371D01*
G01X-9466416Y-4684280D01*
G01X-9467731Y-4693893D01*
G01X-9467731Y-4774541D01*
G01X-9467719Y-4775467D01*
G01X-9477513Y-4775467D01*
G01X-9493176Y-4771101D01*
G01X-9509430Y-4770678D01*
G01X-9525299Y-4774222D01*
G01X-9539828Y-4781522D01*
G01X-9552144Y-4792138D01*
G01X-9561506Y-4805432D01*
G01X-9561506Y-4732890D01*
G01X-9563474Y-4721181D01*
G01X-9569163Y-4710758D01*
G01X-9577946Y-4702769D01*
G01X-9577946Y-4640393D01*
G01X-9569163Y-4632403D01*
G01X-9563474Y-4621981D01*
G01X-9561506Y-4610271D01*
G01X-9561506Y-4562866D01*
G01X-9456012Y-4457372D01*
G01X-9451302Y-4451902D01*
G01X-9447455Y-4445795D01*
G01X-9438156Y-4445795D01*
G01X-9427089Y-4444042D01*
G01X-9417105Y-4438955D01*
G01X-9409182Y-4431032D01*
G01X-9404095Y-4421048D01*
G01X-9402342Y-4409981D01*
G01X-9402342Y-4323580D01*
G01X-9404095Y-4312513D01*
G01X-9409182Y-4302529D01*
G01X-9417105Y-4294606D01*
G01X-9427089Y-4289519D01*
G01X-9438156Y-4287766D01*
G01X-9518804Y-4287766D01*
G01X-9528417Y-4289081D01*
G01X-9537326Y-4292928D01*
G01X-9544874Y-4299025D01*
G01X-9550509Y-4306924D01*
G01X-9553816Y-4316047D01*
G01X-9557296Y-4306600D01*
G01X-9563268Y-4298495D01*
G01X-9571259Y-4292372D01*
G01X-9580639Y-4288715D01*
G01X-9580639Y-4260066D01*
G01X-9570799Y-4257237D01*
G01X-9562161Y-4251740D01*
G01X-9555432Y-4244024D01*
G01X-9551161Y-4234718D01*
G01X-9549698Y-4224585D01*
G37*
G36*
G01X-9903714Y23114D02*
G01X-12007202Y23114D01*
G01X-12007202Y1538719D01*
G01X-11835130Y1538719D01*
G01X-11833239Y1512275D01*
G01X-11827603Y1486369D01*
G01X-11818339Y1461529D01*
G01X-11805633Y1438261D01*
G01X-11789745Y1417037D01*
G01X-11770999Y1398290D01*
G01X-11749775Y1382403D01*
G01X-11726506Y1369697D01*
G01X-11701666Y1360432D01*
G01X-11675760Y1354797D01*
G01X-11649316Y1352905D01*
G01X-11622872Y1354797D01*
G01X-11596966Y1360432D01*
G01X-11572126Y1369697D01*
G01X-11548858Y1382403D01*
G01X-11527634Y1398290D01*
G01X-11508887Y1417037D01*
G01X-11493000Y1438261D01*
G01X-11480294Y1461529D01*
G01X-11471029Y1486369D01*
G01X-11465394Y1512275D01*
G01X-11464411Y1526019D01*
G01X-3491230Y1526019D01*
G01X-3489339Y1499575D01*
G01X-3483703Y1473669D01*
G01X-3474439Y1448829D01*
G01X-3461733Y1425561D01*
G01X-3445845Y1404337D01*
G01X-3427099Y1385590D01*
G01X-3405875Y1369703D01*
G01X-3382606Y1356997D01*
G01X-3357766Y1347732D01*
G01X-3331860Y1342097D01*
G01X-3305416Y1340205D01*
G01X-3278972Y1342097D01*
G01X-3253066Y1347732D01*
G01X-3228226Y1356997D01*
G01X-3204958Y1369703D01*
G01X-3183734Y1385590D01*
G01X-3164987Y1404337D01*
G01X-3149100Y1425561D01*
G01X-3136394Y1448829D01*
G01X-3127129Y1473669D01*
G01X-3121494Y1499575D01*
G01X-3119602Y1526019D01*
G01X-3121494Y1552463D01*
G01X-3127129Y1578369D01*
G01X-3136394Y1603209D01*
G01X-3149100Y1626478D01*
G01X-3164987Y1647702D01*
G01X-3183734Y1666448D01*
G01X-3204958Y1682336D01*
G01X-3228226Y1695042D01*
G01X-3253066Y1704306D01*
G01X-3278972Y1709942D01*
G01X-3305416Y1711833D01*
G01X-3331860Y1709942D01*
G01X-3357766Y1704306D01*
G01X-3382606Y1695042D01*
G01X-3405875Y1682336D01*
G01X-3427099Y1666448D01*
G01X-3445845Y1647702D01*
G01X-3461733Y1626478D01*
G01X-3474439Y1603209D01*
G01X-3483703Y1578369D01*
G01X-3489339Y1552463D01*
G01X-3491230Y1526019D01*
G01X-3491230Y1526019D01*
G01X-11464411Y1526019D01*
G01X-11463502Y1538719D01*
G01X-11465394Y1565163D01*
G01X-11471029Y1591069D01*
G01X-11480294Y1615909D01*
G01X-11493000Y1639178D01*
G01X-11508887Y1660402D01*
G01X-11527634Y1679148D01*
G01X-11548858Y1695036D01*
G01X-11572126Y1707742D01*
G01X-11596966Y1717006D01*
G01X-11622872Y1722642D01*
G01X-11649316Y1724533D01*
G01X-11675760Y1722642D01*
G01X-11701666Y1717006D01*
G01X-11726506Y1707742D01*
G01X-11749775Y1695036D01*
G01X-11770999Y1679148D01*
G01X-11789745Y1660402D01*
G01X-11805633Y1639178D01*
G01X-11818339Y1615909D01*
G01X-11827603Y1591069D01*
G01X-11833239Y1565163D01*
G01X-11835130Y1538719D01*
G01X-11835130Y1538719D01*
G01X-12007202Y1538719D01*
G01X-12007202Y1576819D01*
G01X-12005351Y1609780D01*
G01X-11999821Y1642326D01*
G01X-11990682Y1674049D01*
G01X-11978049Y1704549D01*
G01X-11962080Y1733442D01*
G01X-11942977Y1760366D01*
G01X-11920979Y1784982D01*
G01X-11896363Y1806980D01*
G01X-11869439Y1826083D01*
G01X-11840546Y1842052D01*
G01X-11810046Y1854685D01*
G01X-11778323Y1863824D01*
G01X-11745777Y1869354D01*
G01X-11712816Y1871205D01*
G01X-3241916Y1871205D01*
G01X-3208956Y1869354D01*
G01X-3176409Y1863824D01*
G01X-3144687Y1854685D01*
G01X-3114187Y1842052D01*
G01X-3085294Y1826083D01*
G01X-3058370Y1806980D01*
G01X-3033754Y1784982D01*
G01X-3011756Y1760366D01*
G01X-2992653Y1733442D01*
G01X-2976684Y1704549D01*
G01X-2964050Y1674049D01*
G01X-2954911Y1642326D01*
G01X-2949381Y1609780D01*
G01X-2947530Y1576819D01*
G01X-2947530Y23114D01*
G01X-5050978Y23114D01*
G01X-5145984Y118120D01*
G01X-5141387Y139028D01*
G01X-5140552Y160419D01*
G01X-5143505Y181621D01*
G01X-5150154Y201970D01*
G01X-5160290Y220825D01*
G01X-5173594Y237596D01*
G01X-5189650Y251755D01*
G01X-5207953Y262858D01*
G01X-5227928Y270557D01*
G01X-5248948Y274609D01*
G01X-5270353Y274887D01*
G01X-5291472Y271383D01*
G01X-5311640Y264207D01*
G01X-5330226Y253584D01*
G01X-5346645Y239848D01*
G01X-5360381Y223429D01*
G01X-5371004Y204843D01*
G01X-5378180Y184675D01*
G01X-5381684Y163556D01*
G01X-5381406Y142151D01*
G01X-5377354Y121131D01*
G01X-5369655Y101156D01*
G01X-5358552Y82853D01*
G01X-5344393Y66797D01*
G01X-5327622Y53493D01*
G01X-5308767Y43357D01*
G01X-5288418Y36708D01*
G01X-5267216Y33755D01*
G01X-5245825Y34590D01*
G01X-5224917Y39187D01*
G01X-5208844Y23114D01*
G01X-7596886Y23114D01*
G01X-7596886Y164073D01*
G01X-7489157Y164073D01*
G01X-7478090Y165825D01*
G01X-7468106Y170912D01*
G01X-7460183Y178836D01*
G01X-7455096Y188819D01*
G01X-7453343Y199887D01*
G01X-7453343Y459886D01*
G01X-7455096Y470953D01*
G01X-7460183Y480937D01*
G01X-7468106Y488860D01*
G01X-7478090Y493947D01*
G01X-7489157Y495700D01*
G01X-7669157Y495700D01*
G01X-7680224Y493947D01*
G01X-7690208Y488860D01*
G01X-7698131Y480937D01*
G01X-7703218Y470953D01*
G01X-7704971Y459886D01*
G01X-7704971Y199887D01*
G01X-7703681Y190362D01*
G01X-7699905Y181524D01*
G01X-7693914Y174008D01*
G01X-7693914Y23114D01*
G01X-8038668Y23114D01*
G01X-8038668Y174793D01*
G01X-8019957Y184529D01*
G01X-8003135Y197254D01*
G01X-7988675Y212611D01*
G01X-7976985Y230168D01*
G01X-7968391Y249431D01*
G01X-7963136Y269858D01*
G01X-7961368Y290877D01*
G01X-7961368Y369886D01*
G01X-7958971Y369886D01*
G01X-7958971Y289886D01*
G01X-7957059Y268039D01*
G01X-7951383Y246856D01*
G01X-7942115Y226979D01*
G01X-7929536Y209015D01*
G01X-7914028Y193507D01*
G01X-7896064Y180928D01*
G01X-7876188Y171660D01*
G01X-7855004Y165984D01*
G01X-7833157Y164073D01*
G01X-7811309Y165984D01*
G01X-7790126Y171660D01*
G01X-7770250Y180928D01*
G01X-7752285Y193507D01*
G01X-7736778Y209015D01*
G01X-7724199Y226979D01*
G01X-7714930Y246856D01*
G01X-7709254Y268039D01*
G01X-7707343Y289886D01*
G01X-7707343Y369886D01*
G01X-7709111Y390905D01*
G01X-7714366Y411333D01*
G01X-7722959Y430596D01*
G01X-7734650Y448152D01*
G01X-7749110Y463509D01*
G01X-7765931Y476234D01*
G01X-7784643Y485970D01*
G01X-7784643Y490648D01*
G01X-7765005Y510286D01*
G01X-7475050Y510286D01*
G01X-7467219Y502993D01*
G01X-7457582Y498339D01*
G01X-7447001Y496740D01*
G01X-7284999Y496740D01*
G01X-7273932Y498493D01*
G01X-7263948Y503580D01*
G01X-7256025Y511503D01*
G01X-7250938Y521487D01*
G01X-7249185Y532554D01*
G01X-7249185Y737192D01*
G01X-7250938Y748259D01*
G01X-7256025Y758243D01*
G01X-7263948Y766166D01*
G01X-7273932Y771253D01*
G01X-7284999Y773006D01*
G01X-7447001Y773006D01*
G01X-7458068Y771253D01*
G01X-7468052Y766166D01*
G01X-7475975Y758243D01*
G01X-7481062Y748259D01*
G01X-7482815Y737192D01*
G01X-7482815Y607314D01*
G01X-7721092Y607314D01*
G01X-7705444Y617669D01*
G01X-7692258Y631019D01*
G01X-7682097Y646794D01*
G01X-7675395Y664320D01*
G01X-7672438Y682850D01*
G01X-7673353Y701591D01*
G01X-7678099Y719745D01*
G01X-7686475Y736536D01*
G01X-7698123Y751247D01*
G01X-7712546Y763250D01*
G01X-7729127Y772033D01*
G01X-7747160Y777220D01*
G01X-7765874Y778591D01*
G01X-7784470Y776087D01*
G01X-7802154Y769815D01*
G01X-7818172Y760041D01*
G01X-7831840Y747185D01*
G01X-7842573Y731794D01*
G01X-7849915Y714526D01*
G01X-7853550Y696118D01*
G01X-7853325Y677355D01*
G01X-7849249Y659039D01*
G01X-7841496Y641952D01*
G01X-7830397Y626823D01*
G01X-7816425Y614298D01*
G01X-7800177Y604912D01*
G01X-7810487Y600141D01*
G01X-7819405Y593105D01*
G01X-7867461Y545048D01*
G01X-7875171Y535000D01*
G01X-7880018Y523300D01*
G01X-7881671Y510743D01*
G01X-7881671Y485970D01*
G01X-7881671Y485970D01*
G01X-7900382Y476234D01*
G01X-7917204Y463509D01*
G01X-7931664Y448152D01*
G01X-7943354Y430596D01*
G01X-7951948Y411333D01*
G01X-7957203Y390905D01*
G01X-7958971Y369886D01*
G01X-7961368Y369886D01*
G01X-7961368Y370877D01*
G01X-7963280Y392724D01*
G01X-7968956Y413908D01*
G01X-7978224Y433784D01*
G01X-7990803Y451748D01*
G01X-8006311Y467256D01*
G01X-8024275Y479835D01*
G01X-8044151Y489103D01*
G01X-8065335Y494779D01*
G01X-8087182Y496691D01*
G01X-8109030Y494779D01*
G01X-8130213Y489103D01*
G01X-8150089Y479835D01*
G01X-8168054Y467256D01*
G01X-8183561Y451748D01*
G01X-8196140Y433784D01*
G01X-8205409Y413908D01*
G01X-8211085Y392724D01*
G01X-8212996Y370877D01*
G01X-8212996Y290877D01*
G01X-8211228Y269858D01*
G01X-8205973Y249431D01*
G01X-8197380Y230168D01*
G01X-8185689Y212611D01*
G01X-8171229Y197254D01*
G01X-8154408Y184529D01*
G01X-8135696Y174793D01*
G01X-8135696Y23114D01*
G01X-9400286Y23114D01*
G01X-9400286Y138491D01*
G01X-9269887Y138491D01*
G01X-9258820Y140244D01*
G01X-9248837Y145331D01*
G01X-9240913Y153254D01*
G01X-9235826Y163238D01*
G01X-9234073Y174305D01*
G01X-9234073Y434304D01*
G01X-9235826Y445372D01*
G01X-9240913Y455355D01*
G01X-9248837Y463279D01*
G01X-9258820Y468366D01*
G01X-9269887Y470118D01*
G01X-9449887Y470118D01*
G01X-9460954Y468366D01*
G01X-9470938Y463279D01*
G01X-9478861Y455355D01*
G01X-9483948Y445372D01*
G01X-9485701Y434304D01*
G01X-9485701Y246887D01*
G01X-9490362Y240416D01*
G01X-9488647Y252306D01*
G01X-9488073Y264305D01*
G01X-9488073Y344305D01*
G01X-9489482Y363077D01*
G01X-9493676Y381430D01*
G01X-9500561Y398951D01*
G01X-9509983Y415249D01*
G01X-9521732Y429958D01*
G01X-9466805Y484886D01*
G01X-9207373Y484886D01*
G01X-9195933Y486254D01*
G01X-9185138Y490281D01*
G01X-9175598Y496740D01*
G01X-9024899Y496740D01*
G01X-9013832Y498493D01*
G01X-9003848Y503580D01*
G01X-8995925Y511503D01*
G01X-8990838Y521487D01*
G01X-8989085Y532554D01*
G01X-8989085Y687819D01*
G01X-8107930Y687819D01*
G01X-8105946Y668938D01*
G01X-8100079Y650882D01*
G01X-8090586Y634440D01*
G01X-8077883Y620331D01*
G01X-8062523Y609172D01*
G01X-8045179Y601450D01*
G01X-8026609Y597503D01*
G01X-8007624Y597503D01*
G01X-7989053Y601450D01*
G01X-7971709Y609172D01*
G01X-7956350Y620331D01*
G01X-7943646Y634440D01*
G01X-7934154Y650882D01*
G01X-7928287Y668938D01*
G01X-7926302Y687819D01*
G01X-7928287Y706701D01*
G01X-7934154Y724757D01*
G01X-7943646Y741198D01*
G01X-7956350Y755307D01*
G01X-7971709Y766467D01*
G01X-7989053Y774189D01*
G01X-8007624Y778136D01*
G01X-8026609Y778136D01*
G01X-8045179Y774189D01*
G01X-8062523Y766467D01*
G01X-8077883Y755307D01*
G01X-8090586Y741198D01*
G01X-8100079Y724757D01*
G01X-8105946Y706701D01*
G01X-8107930Y687819D01*
G01X-8107930Y687819D01*
G01X-8989085Y687819D01*
G01X-8989085Y737192D01*
G01X-8990838Y748259D01*
G01X-8995925Y758243D01*
G01X-9003848Y766166D01*
G01X-9013832Y771253D01*
G01X-9024899Y773006D01*
G01X-9186901Y773006D01*
G01X-9197968Y771253D01*
G01X-9207952Y766166D01*
G01X-9215875Y758243D01*
G01X-9220962Y748259D01*
G01X-9222715Y737192D01*
G01X-9222715Y586668D01*
G01X-9227468Y581914D01*
G01X-9486900Y581914D01*
G01X-9499456Y580261D01*
G01X-9511157Y575414D01*
G01X-9521205Y567705D01*
G01X-9618890Y470019D01*
G01X-9640101Y467357D01*
G01X-9660554Y461143D01*
G01X-9679661Y451556D01*
G01X-9696869Y438873D01*
G01X-9711681Y423460D01*
G01X-9723670Y405761D01*
G01X-9732489Y386289D01*
G01X-9737885Y365604D01*
G01X-9739701Y344305D01*
G01X-9739701Y264305D01*
G01X-9737839Y242736D01*
G01X-9732306Y221806D01*
G01X-9723267Y202134D01*
G01X-9710990Y184304D01*
G01X-9695838Y168841D01*
G01X-9678259Y156206D01*
G01X-9658774Y146771D01*
G01X-9637960Y140815D01*
G01X-9616434Y138517D01*
G01X-9594832Y139942D01*
G01X-9573794Y145050D01*
G01X-9553944Y153689D01*
G01X-9535868Y165603D01*
G01X-9520102Y180439D01*
G01X-9507113Y197758D01*
G01X-9497286Y217048D01*
G01X-9497314Y215392D01*
G01X-9497314Y23114D01*
G01X-9806686Y23114D01*
G01X-9806686Y155384D01*
G01X-9788281Y167890D01*
G01X-9772367Y183442D01*
G01X-9759441Y201554D01*
G01X-9749908Y221660D01*
G01X-9744067Y243131D01*
G01X-9742099Y265295D01*
G01X-9742099Y345295D01*
G01X-9743929Y366676D01*
G01X-9749366Y387435D01*
G01X-9758252Y406968D01*
G01X-9770328Y424707D01*
G01X-9785242Y440136D01*
G01X-9802562Y452805D01*
G01X-9821783Y462347D01*
G01X-9842346Y468484D01*
G01X-9863653Y471037D01*
G01X-9885084Y469932D01*
G01X-9906015Y465201D01*
G01X-9925838Y456981D01*
G01X-9943975Y445513D01*
G01X-9959900Y431129D01*
G01X-9973149Y414248D01*
G01X-9983336Y395361D01*
G01X-9990165Y375017D01*
G01X-9993438Y353809D01*
G01X-10796397Y353809D01*
G01X-10952832Y510244D01*
G01X-10952832Y596942D01*
G01X-10934963Y596942D01*
G01X-10934963Y577957D01*
G01X-10931015Y559386D01*
G01X-10923293Y542042D01*
G01X-10912134Y526683D01*
G01X-10898025Y513979D01*
G01X-10881583Y504486D01*
G01X-10863527Y498620D01*
G01X-10844646Y496635D01*
G01X-10844646Y496635D01*
G01X-10825765Y498620D01*
G01X-10807709Y504486D01*
G01X-10791267Y513979D01*
G01X-10777158Y526683D01*
G01X-10765999Y542042D01*
G01X-10758277Y559386D01*
G01X-10754330Y577957D01*
G01X-10754330Y596942D01*
G01X-10758277Y615512D01*
G01X-10765999Y632856D01*
G01X-10777158Y648216D01*
G01X-10791267Y660919D01*
G01X-10807709Y670412D01*
G01X-10822197Y675119D01*
G01X-9797030Y675119D01*
G01X-9795046Y656238D01*
G01X-9789179Y638182D01*
G01X-9779686Y621740D01*
G01X-9766983Y607631D01*
G01X-9751623Y596472D01*
G01X-9734279Y588750D01*
G01X-9715709Y584803D01*
G01X-9696724Y584803D01*
G01X-9678153Y588750D01*
G01X-9660809Y596472D01*
G01X-9645450Y607631D01*
G01X-9632746Y621740D01*
G01X-9623254Y638182D01*
G01X-9617387Y656238D01*
G01X-9615402Y675119D01*
G01X-9543030Y675119D01*
G01X-9541046Y656238D01*
G01X-9535179Y638182D01*
G01X-9525686Y621740D01*
G01X-9512983Y607631D01*
G01X-9497623Y596472D01*
G01X-9480279Y588750D01*
G01X-9461709Y584803D01*
G01X-9442724Y584803D01*
G01X-9424153Y588750D01*
G01X-9406809Y596472D01*
G01X-9391450Y607631D01*
G01X-9378746Y621740D01*
G01X-9369254Y638182D01*
G01X-9363387Y656238D01*
G01X-9361402Y675119D01*
G01X-9363387Y694001D01*
G01X-9369254Y712057D01*
G01X-9378746Y728498D01*
G01X-9391450Y742607D01*
G01X-9406809Y753767D01*
G01X-9424153Y761489D01*
G01X-9442724Y765436D01*
G01X-9461709Y765436D01*
G01X-9480279Y761489D01*
G01X-9497623Y753767D01*
G01X-9512983Y742607D01*
G01X-9525686Y728498D01*
G01X-9535179Y712057D01*
G01X-9541046Y694001D01*
G01X-9543030Y675119D01*
G01X-9543030Y675119D01*
G01X-9615402Y675119D01*
G01X-9617387Y694001D01*
G01X-9623254Y712057D01*
G01X-9632746Y728498D01*
G01X-9645450Y742607D01*
G01X-9660809Y753767D01*
G01X-9678153Y761489D01*
G01X-9696724Y765436D01*
G01X-9715709Y765436D01*
G01X-9734279Y761489D01*
G01X-9751623Y753767D01*
G01X-9766983Y742607D01*
G01X-9779686Y728498D01*
G01X-9789179Y712057D01*
G01X-9795046Y694001D01*
G01X-9797030Y675119D01*
G01X-9797030Y675119D01*
G01X-10822197Y675119D01*
G01X-10825765Y676279D01*
G01X-10844646Y678263D01*
G01X-10863527Y676279D01*
G01X-10881583Y670412D01*
G01X-10898025Y660919D01*
G01X-10912134Y648216D01*
G01X-10923293Y632856D01*
G01X-10931015Y615512D01*
G01X-10934963Y596942D01*
G01X-10952832Y596942D01*
G01X-10952832Y697449D01*
G01X-10954585Y708516D01*
G01X-10959672Y718500D01*
G01X-10967595Y726423D01*
G01X-10977579Y731510D01*
G01X-10988646Y733263D01*
G01X-11000884Y733263D01*
G01X-10984855Y750272D01*
G01X-10971750Y769622D01*
G01X-10961905Y790818D01*
G01X-10955572Y813315D01*
G01X-10952915Y836534D01*
G01X-10953586Y850942D01*
G01X-10934963Y850942D01*
G01X-10934963Y831957D01*
G01X-10931015Y813386D01*
G01X-10923293Y796042D01*
G01X-10912134Y780683D01*
G01X-10898025Y767979D01*
G01X-10881583Y758486D01*
G01X-10863527Y752620D01*
G01X-10844646Y750635D01*
G01X-10844646Y750635D01*
G01X-10825765Y752620D01*
G01X-10807709Y758486D01*
G01X-10791267Y767979D01*
G01X-10777158Y780683D01*
G01X-10765999Y796042D01*
G01X-10758277Y813386D01*
G01X-10757058Y819119D01*
G01X-9852030Y819119D01*
G01X-9850277Y808052D01*
G01X-9845190Y798068D01*
G01X-9837267Y790145D01*
G01X-9827283Y785058D01*
G01X-9816216Y783305D01*
G01X-9596216Y783305D01*
G01X-9585149Y785058D01*
G01X-9575165Y790145D01*
G01X-9567242Y798068D01*
G01X-9562155Y808052D01*
G01X-9560402Y819119D01*
G01X-9560402Y831357D01*
G01X-9543394Y815328D01*
G01X-9524043Y802223D01*
G01X-9502847Y792378D01*
G01X-9480351Y786045D01*
G01X-9457131Y783388D01*
G01X-9433786Y784475D01*
G01X-9410913Y789277D01*
G01X-9389102Y797672D01*
G01X-9368913Y809444D01*
G01X-9350863Y824290D01*
G01X-9344232Y831819D01*
G01X-8162930Y831819D01*
G01X-8161177Y820752D01*
G01X-8156090Y810768D01*
G01X-8148167Y802845D01*
G01X-8138183Y797758D01*
G01X-8127116Y796005D01*
G01X-7907116Y796005D01*
G01X-7896049Y797758D01*
G01X-7886065Y802845D01*
G01X-7878142Y810768D01*
G01X-7873055Y820752D01*
G01X-7871302Y831819D01*
G01X-7871302Y844057D01*
G01X-7854294Y828028D01*
G01X-7834943Y814923D01*
G01X-7813747Y805078D01*
G01X-7791251Y798745D01*
G01X-7768031Y796088D01*
G01X-7744686Y797175D01*
G01X-7721813Y801977D01*
G01X-7700002Y810372D01*
G01X-7679813Y822144D01*
G01X-7661763Y836990D01*
G01X-7646317Y854529D01*
G01X-7633871Y874311D01*
G01X-7624746Y895826D01*
G01X-7619175Y918524D01*
G01X-7617302Y941819D01*
G01X-7619134Y964608D01*
G01X-7482815Y964608D01*
G01X-7481062Y953541D01*
G01X-7475975Y943557D01*
G01X-7468052Y935634D01*
G01X-7458068Y930547D01*
G01X-7447001Y928794D01*
G01X-7284999Y928794D01*
G01X-7284999Y928794D01*
G01X-7273932Y930547D01*
G01X-7263948Y935634D01*
G01X-7256025Y943557D01*
G01X-7250938Y953541D01*
G01X-7249185Y964608D01*
G01X-7249185Y1169246D01*
G01X-7250938Y1180313D01*
G01X-7256025Y1190297D01*
G01X-7263948Y1198220D01*
G01X-7273932Y1203307D01*
G01X-7284999Y1205060D01*
G01X-7447001Y1205060D01*
G01X-7458068Y1203307D01*
G01X-7468052Y1198220D01*
G01X-7475975Y1190297D01*
G01X-7481062Y1180313D01*
G01X-7482815Y1169246D01*
G01X-7482815Y964608D01*
G01X-7619134Y964608D01*
G01X-7619175Y965115D01*
G01X-7624746Y987812D01*
G01X-7633871Y1009328D01*
G01X-7646317Y1029110D01*
G01X-7661763Y1046649D01*
G01X-7679813Y1061495D01*
G01X-7700002Y1073266D01*
G01X-7721813Y1081661D01*
G01X-7744686Y1086464D01*
G01X-7768031Y1087550D01*
G01X-7791251Y1084893D01*
G01X-7813747Y1078561D01*
G01X-7834943Y1068715D01*
G01X-7854294Y1055610D01*
G01X-7871302Y1039582D01*
G01X-7871302Y1051819D01*
G01X-7871302Y1051819D01*
G01X-7873055Y1062886D01*
G01X-7878142Y1072870D01*
G01X-7886065Y1080793D01*
G01X-7896049Y1085880D01*
G01X-7907116Y1087633D01*
G01X-8127116Y1087633D01*
G01X-8138183Y1085880D01*
G01X-8148167Y1080793D01*
G01X-8156090Y1072870D01*
G01X-8161177Y1062886D01*
G01X-8162930Y1051819D01*
G01X-8162930Y831819D01*
G01X-9344232Y831819D01*
G01X-9335417Y841829D01*
G01X-9322971Y861611D01*
G01X-9313846Y883126D01*
G01X-9308275Y905824D01*
G01X-9306402Y929119D01*
G01X-9308275Y952415D01*
G01X-9311268Y964608D01*
G01X-9222715Y964608D01*
G01X-9220962Y953541D01*
G01X-9215875Y943557D01*
G01X-9207952Y935634D01*
G01X-9197968Y930547D01*
G01X-9186901Y928794D01*
G01X-9024899Y928794D01*
G01X-9024899Y928794D01*
G01X-9013832Y930547D01*
G01X-9003848Y935634D01*
G01X-8995925Y943557D01*
G01X-8990838Y953541D01*
G01X-8989085Y964608D01*
G01X-8989085Y1169246D01*
G01X-8990838Y1180313D01*
G01X-8995925Y1190297D01*
G01X-9003848Y1198220D01*
G01X-9013832Y1203307D01*
G01X-9024899Y1205060D01*
G01X-9186901Y1205060D01*
G01X-9197968Y1203307D01*
G01X-9207952Y1198220D01*
G01X-9215875Y1190297D01*
G01X-9220962Y1180313D01*
G01X-9222715Y1169246D01*
G01X-9222715Y964608D01*
G01X-9311268Y964608D01*
G01X-9313846Y975112D01*
G01X-9322971Y996628D01*
G01X-9335417Y1016410D01*
G01X-9350863Y1033949D01*
G01X-9368913Y1048795D01*
G01X-9389102Y1060566D01*
G01X-9410913Y1068961D01*
G01X-9433786Y1073764D01*
G01X-9457131Y1074850D01*
G01X-9480351Y1072193D01*
G01X-9502847Y1065861D01*
G01X-9524043Y1056015D01*
G01X-9543394Y1042910D01*
G01X-9560402Y1026882D01*
G01X-9560402Y1039119D01*
G01X-9560402Y1039119D01*
G01X-9562155Y1050186D01*
G01X-9567242Y1060170D01*
G01X-9575165Y1068093D01*
G01X-9585149Y1073180D01*
G01X-9596216Y1074933D01*
G01X-9816216Y1074933D01*
G01X-9827283Y1073180D01*
G01X-9837267Y1068093D01*
G01X-9845190Y1060170D01*
G01X-9850277Y1050186D01*
G01X-9852030Y1039119D01*
G01X-9852030Y819119D01*
G01X-10757058Y819119D01*
G01X-10754330Y831957D01*
G01X-10754330Y850942D01*
G01X-10758277Y869512D01*
G01X-10765999Y886856D01*
G01X-10777158Y902216D01*
G01X-10791267Y914919D01*
G01X-10807709Y924412D01*
G01X-10825765Y930279D01*
G01X-10844646Y932263D01*
G01X-10863527Y930279D01*
G01X-10881583Y924412D01*
G01X-10898025Y914919D01*
G01X-10912134Y902216D01*
G01X-10923293Y886856D01*
G01X-10931015Y869512D01*
G01X-10934963Y850942D01*
G01X-10953586Y850942D01*
G01X-10954002Y859880D01*
G01X-10958804Y882752D01*
G01X-10967199Y904563D01*
G01X-10978971Y924753D01*
G01X-10993817Y942803D01*
G01X-11011356Y958249D01*
G01X-11031137Y970694D01*
G01X-11052653Y979820D01*
G01X-11075350Y985390D01*
G01X-11098646Y987263D01*
G01X-11121942Y985390D01*
G01X-11144639Y979820D01*
G01X-11166155Y970694D01*
G01X-11185936Y958249D01*
G01X-11203475Y942803D01*
G01X-11218321Y924753D01*
G01X-11230093Y904563D01*
G01X-11238488Y882752D01*
G01X-11243291Y859880D01*
G01X-11244377Y836534D01*
G01X-11241720Y813315D01*
G01X-11235388Y790818D01*
G01X-11225542Y769622D01*
G01X-11212437Y750272D01*
G01X-11196409Y733263D01*
G01X-11208646Y733263D01*
G01X-11219713Y731510D01*
G01X-11229697Y726423D01*
G01X-11237620Y718500D01*
G01X-11242707Y708516D01*
G01X-11244460Y697449D01*
G01X-11244460Y477449D01*
G01X-11242707Y466382D01*
G01X-11237620Y456398D01*
G01X-11229697Y448475D01*
G01X-11219713Y443388D01*
G01X-11208646Y441635D01*
G01X-11021441Y441635D01*
G01X-10850797Y270991D01*
G01X-10840749Y263281D01*
G01X-10829049Y258434D01*
G01X-10816492Y256781D01*
G01X-9993438Y256781D01*
G01X-9990084Y235239D01*
G01X-9983061Y214599D01*
G01X-9972580Y195482D01*
G01X-9958956Y178461D01*
G01X-9942599Y164048D01*
G01X-9923998Y152674D01*
G01X-9903714Y144683D01*
G01X-9903714Y23114D01*
G37*
G54D10*
G01X-11417812Y-2226208D02*
G01X-12007202Y-2226208D01*
G01X-12007202Y-22860D01*
G01X-9497314Y-22860D01*
G01X-9497314Y-64822D01*
G03X-9526444Y-90428I5314J-35418D01*
G03X-9561740Y-60686I-35296J-6071D01*
G01X-9642387Y-60686D01*
G03X-9677400Y-88966I0J-35814D01*
G03X-9712413Y-60686I-35013J-7534D01*
G01X-9793060Y-60686D01*
G03X-9828874Y-96500I0J-35814D01*
G01X-9828874Y-182900D01*
G03X-9793060Y-218714I35814J0D01*
G01X-9712413Y-218714D01*
G03X-9677400Y-190434I0J35814D01*
G03X-9642387Y-218714I35013J7534D01*
G01X-9561740Y-218714D01*
G03X-9526636Y-189998I0J35814D01*
G03X-9499534Y-215900I34636J9110D01*
G03X-9527814Y-250913I7534J-35013D01*
G01X-9527814Y-331560D01*
G03X-9497314Y-366978I35814J0D01*
G01X-9497314Y-1415005D01*
G01X-10182216Y-2099907D01*
G03X-10196426Y-2134212I34305J-34305D01*
G01X-10196426Y-2291172D01*
G03X-10202012Y-2293910I12914J-33404D01*
G03X-10220512Y-2288762I-18500J-30666D01*
G01X-10310512Y-2288762D01*
G03X-10329012Y-2293910I0J-35814D01*
G03X-10347512Y-2288762I-18500J-30666D01*
G01X-10437512Y-2288762D01*
G03X-10456012Y-2293910I0J-35814D01*
G03X-10474512Y-2288762I-18500J-30666D01*
G01X-10564512Y-2288762D01*
G03X-10583012Y-2293910I0J-35814D01*
G03X-10601512Y-2288762I-18500J-30666D01*
G01X-10691512Y-2288762D01*
G03X-10710012Y-2293910I0J-35814D01*
G03X-10728512Y-2288762I-18500J-30666D01*
G01X-10818512Y-2288762D01*
G03X-10837012Y-2293910I0J-35814D01*
G03X-10855512Y-2288762I-18500J-30666D01*
G01X-10945512Y-2288762D01*
G03X-10964012Y-2293910I0J-35814D01*
G03X-10982512Y-2288762I-18500J-30666D01*
G01X-10997168Y-2288762D01*
G01X-10997168Y-2035765D01*
G01X-10885266Y-2147666D01*
G03X-10845800Y-2164014I39466J39466D01*
G01X-10731086Y-2164014D01*
G03X-10621120Y-2150017I50386J43114D01*
G03X-10677643Y-2054656I-59580J29117D01*
G03X-10693400Y-2052386I-15757J-53544D01*
G01X-10822681Y-2052386D01*
G01X-10955086Y-1919981D01*
G01X-10955086Y-1181100D01*
G03X-10982335Y-1133149I-55814J0D01*
G03X-11186978Y-1021258I-117465J28249D01*
G03X-11066714Y-1221095I87178J-83642D01*
G01X-11066714Y-1755429D01*
G03X-11159110Y-1756230I-45786J-47971D01*
G03X-11161014Y-1848610I46610J-47170D01*
G01X-11161014Y-1910238D01*
G01X-11440800Y-1630452D01*
G01X-11440800Y-1561070D01*
G03X-11476614Y-1525256I-35814J0D01*
G01X-11576614Y-1525256D01*
G03X-11612428Y-1561070I0J-35814D01*
G01X-11612428Y-1686071D01*
G03X-11576614Y-1721885I35814J0D01*
G01X-11507232Y-1721885D01*
G01X-11210326Y-2018792D01*
G01X-11210326Y-2290434D01*
G03X-11218012Y-2293910I10814J-34142D01*
G03X-11236512Y-2288762I-18500J-30666D01*
G01X-11326512Y-2288762D01*
G03X-11362326Y-2324576I0J-35814D01*
G01X-11362326Y-2474576D01*
G03X-11326512Y-2510390I35814J0D01*
G01X-11236512Y-2510390D01*
G03X-11218012Y-2505242I0J35814D01*
G03X-11199512Y-2510390I18500J30666D01*
G01X-11109512Y-2510390D01*
G03X-11091012Y-2505242I0J35814D01*
G03X-11072512Y-2510390I18500J30666D01*
G01X-10982512Y-2510390D01*
G03X-10964012Y-2505242I0J35814D01*
G03X-10945512Y-2510390I18500J30666D01*
G01X-10855512Y-2510390D01*
G03X-10837012Y-2505242I0J35814D01*
G03X-10818512Y-2510390I18500J30666D01*
G01X-10728512Y-2510390D01*
G03X-10710012Y-2505242I0J35814D01*
G03X-10691512Y-2510390I18500J30666D01*
G01X-10601512Y-2510390D01*
G03X-10583012Y-2505242I0J35814D01*
G03X-10564512Y-2510390I18500J30666D01*
G01X-10474512Y-2510390D01*
G03X-10456012Y-2505242I0J35814D01*
G03X-10437512Y-2510390I18500J30666D01*
G01X-10347512Y-2510390D01*
G03X-10329012Y-2505242I0J35814D01*
G03X-10310512Y-2510390I18500J30666D01*
G01X-10220512Y-2510390D01*
G03X-10202012Y-2505242I0J35814D01*
G03X-10183512Y-2510390I18500J30666D01*
G01X-10093512Y-2510390D01*
G03X-10075012Y-2505242I0J35814D01*
G03X-10056512Y-2510390I18500J30666D01*
G01X-9966512Y-2510390D01*
G03X-9948012Y-2505242I0J35814D01*
G03X-9929512Y-2510390I18500J30666D01*
G01X-9839512Y-2510390D01*
G03X-9821012Y-2505242I0J35814D01*
G03X-9802512Y-2510390I18500J30666D01*
G01X-9712512Y-2510390D01*
G03X-9694012Y-2505242I0J35814D01*
G03X-9675512Y-2510390I18500J30666D01*
G01X-9609750Y-2510390D01*
G03X-9616332Y-2531081I29232J-20691D01*
G01X-9616332Y-2621081D01*
G03X-9609549Y-2642054I35814J0D01*
G03X-9613335Y-2658081I32028J-16027D01*
G01X-9613335Y-2748081D01*
G03X-9608187Y-2766581I35814J0D01*
G03X-9613335Y-2785081I30666J-18500D01*
G01X-9613335Y-2875081D01*
G03X-9608187Y-2893581I35814J0D01*
G03X-9613335Y-2912081I30666J-18500D01*
G01X-9613335Y-3002081D01*
G03X-9608187Y-3020581I35814J0D01*
G03X-9613335Y-3039081I30666J-18500D01*
G01X-9613335Y-3129081D01*
G03X-9608187Y-3147581I35814J0D01*
G03X-9613335Y-3166081I30666J-18500D01*
G01X-9613335Y-3256081D01*
G03X-9608187Y-3274581I35814J0D01*
G03X-9613335Y-3293081I30666J-18500D01*
G01X-9613335Y-3383081D01*
G03X-9608187Y-3401581I35814J0D01*
G03X-9613335Y-3420081I30666J-18500D01*
G01X-9613335Y-3510081D01*
G03X-9608187Y-3528581I35814J0D01*
G03X-9613335Y-3547081I30666J-18500D01*
G01X-9613335Y-3637081D01*
G03X-9608187Y-3655581I35814J0D01*
G03X-9613335Y-3674081I30666J-18500D01*
G01X-9613335Y-3764081D01*
G03X-9608187Y-3782581I35814J0D01*
G03X-9613335Y-3801081I30666J-18500D01*
G01X-9613335Y-3891081D01*
G03X-9608187Y-3909581I35814J0D01*
G03X-9613335Y-3928081I30666J-18500D01*
G01X-9613335Y-4018081D01*
G03X-9606753Y-4038771I35814J0D01*
G01X-9675512Y-4038771D01*
G03X-9694012Y-4043920I0J-35814D01*
G03X-9712512Y-4038771I-18500J-30666D01*
G01X-9802512Y-4038771D01*
G03X-9821012Y-4043920I0J-35814D01*
G03X-9823698Y-4042452I-18500J-30666D01*
G01X-9823698Y-3996454D01*
G03X-9861905Y-3898776I-56902J34054D01*
G03X-9946880Y-3960259I-18695J-63624D01*
G03X-10032241Y-3912109I-64632J-14841D01*
G03X-10072326Y-4001543I20730J-62991D01*
G01X-10072326Y-4042452D01*
G03X-10075012Y-4043920I15814J-32133D01*
G03X-10093512Y-4038771I-18500J-30666D01*
G01X-10183512Y-4038771D01*
G03X-10202012Y-4043920I0J-35814D01*
G03X-10220512Y-4038771I-18500J-30666D01*
G01X-10310512Y-4038771D01*
G03X-10329012Y-4043920I0J-35814D01*
G03X-10347512Y-4038771I-18500J-30666D01*
G01X-10437512Y-4038771D01*
G03X-10456012Y-4043920I0J-35814D01*
G03X-10467086Y-4039550I-18500J-30666D01*
G01X-10467086Y-4020310D01*
G03X-10481933Y-3917968I-48514J45210D01*
G03X-10578655Y-3954565I-33667J-57132D01*
G03X-10632678Y-3871432I-63945J17565D01*
G03X-10708880Y-3934859I-9922J-65568D01*
G03X-10804600Y-3891125I-64632J-14841D01*
G03X-10822026Y-3994910I31088J-58575D01*
G01X-10822026Y-4038944D01*
G03X-10837012Y-4043920I3514J-35641D01*
G03X-10855512Y-4038771I-18500J-30666D01*
G01X-10945512Y-4038771D01*
G03X-10964012Y-4043920I0J-35814D01*
G03X-10982512Y-4038771I-18500J-30666D01*
G01X-11072512Y-4038771D01*
G03X-11084083Y-4040692I0J-35814D01*
G01X-11033964Y-3990573D01*
G03X-10989409Y-3877409I-2336J66273D01*
G03X-11102573Y-3921964I-46891J-46891D01*
G01X-11188816Y-4008207D01*
G03X-11202893Y-4038931I34305J-34305D01*
G03X-11218012Y-4043920I3382J-35654D01*
G03X-11236512Y-4038771I-18500J-30666D01*
G01X-11326512Y-4038771D01*
G03X-11362326Y-4074585I0J-35814D01*
G01X-11362326Y-4224585D01*
G03X-11326512Y-4260399I35814J0D01*
G01X-11236512Y-4260399D01*
G03X-11218012Y-4255251I0J35814D01*
G03X-11215326Y-4256719I18500J30666D01*
G01X-11215326Y-4329657D01*
G03X-11173195Y-4419728I60814J-26443D01*
G03X-11089056Y-4366735I18683J63628D01*
G03X-11035828Y-4421277I65456J10635D01*
G03X-10966450Y-4389737I12228J65177D01*
G03X-10899687Y-4421714I57150J33637D01*
G03X-10844903Y-4371928I-9613J65614D01*
G03X-10839698Y-4347513I-55609J24617D01*
G03X-10710012Y-4362513I66186J4113D01*
G03X-10580232Y-4345541I63500J19113D01*
G03X-10520764Y-4396813I64632J14841D01*
G03X-10454056Y-4355395I5164J66113D01*
G03X-10366940Y-4391885I61544J24695D01*
G03X-10331698Y-4304257I-25572J61185D01*
G01X-10331698Y-4256719D01*
G03X-10329012Y-4255251I-15814J32133D01*
G03X-10310512Y-4260399I18500J30666D01*
G01X-10309714Y-4260399D01*
G01X-10309714Y-4304257D01*
G03X-10280625Y-4388933I60814J-26443D01*
G03X-10193706Y-4367458I31725J58233D01*
G03X-10106787Y-4388933I55194J36758D01*
G03X-10077698Y-4304257I-31725J58233D01*
G01X-10077698Y-4256719D01*
G03X-10075012Y-4255251I-15814J32133D01*
G03X-10056512Y-4260399I18500J30666D01*
G01X-9966512Y-4260399D01*
G03X-9948012Y-4255251I0J35814D01*
G03X-9929512Y-4260399I18500J30666D01*
G01X-9839512Y-4260399D01*
G03X-9821012Y-4255251I0J35814D01*
G03X-9817551Y-4257088I18500J30666D01*
G01X-9817551Y-4287766D01*
G01X-9823604Y-4287766D01*
G03X-9858616Y-4316047I0J-35814D01*
G03X-9893629Y-4287766I-35013J-7534D01*
G01X-9974276Y-4287766D01*
G03X-10010090Y-4323580I0J-35814D01*
G01X-10010090Y-4409981D01*
G03X-9982467Y-4444846I35814J0D01*
G01X-9982467Y-4463120D01*
G03X-9968257Y-4497425I48514J0D01*
G01X-9876326Y-4589356D01*
G01X-9876326Y-4610271D01*
G03X-9859886Y-4640393I35814J0D01*
G01X-9859886Y-4702769D01*
G03X-9876326Y-4732890I19374J-30121D01*
G01X-9876326Y-4840091D01*
G03X-9867588Y-4863534I35814J0D01*
G01X-9925408Y-4863534D01*
G03X-9935413Y-4864959I0J-35814D01*
G03X-9945418Y-4863534I-10005J-34388D01*
G01X-10005418Y-4863534D01*
G03X-10041232Y-4899348I0J-35814D01*
G01X-10041232Y-4906119D01*
G03X-10173729Y-4978124I-46683J-72005D01*
G01X-10173729Y-5088124D01*
G03X-10005804Y-5113060I85814J0D01*
G03X-9965600Y-5148054I61399J29948D01*
G03X-9912493Y-5143513I21195J64942D01*
G01X-9880221Y-5175785D01*
G03X-9845916Y-5189995I34305J34305D01*
G01X-9464916Y-5189995D01*
G03X-9430612Y-5175785I0J48514D01*
G01X-9398331Y-5143504D01*
G03X-9345233Y-5148062I31928J60393D01*
G03X-9305019Y-5113092I-21169J64951D01*
G03X-9137104Y-5088124I82101J24968D01*
G01X-9137104Y-4978124D01*
G03X-9269600Y-4906119I-85814J0D01*
G01X-9269600Y-4899348D01*
G03X-9305414Y-4863534I-35814J0D01*
G01X-9354210Y-4863534D01*
G01X-9354210Y-4860773D01*
G03X-9372140Y-4817488I-61214J0D01*
G01X-9379272Y-4810355D01*
G01X-9345516Y-4810355D01*
G03X-9309702Y-4774541I0J35814D01*
G01X-9309702Y-4693893D01*
G03X-9337982Y-4658881I-35814J0D01*
G03X-9323217Y-4651893I-7534J35013D01*
G01X-9281414Y-4693695D01*
G01X-9281414Y-4742690D01*
G03X-9232900Y-4854214I48514J-45210D01*
G03X-9184386Y-4742690I0J66314D01*
G01X-9184386Y-4673600D01*
G03X-9185175Y-4664886I-48514J0D01*
G03X-9156700Y-4673614I28475J42086D01*
G01X-9147353Y-4673614D01*
G03X-9113881Y-4702771I35198J6615D01*
G01X-9113881Y-4705735D01*
G03X-9141181Y-4740523I8514J-34787D01*
G01X-9141181Y-4830522D01*
G03X-9113881Y-4865310I35814J0D01*
G01X-9113881Y-5043140D01*
G03X-9099671Y-5077444I48514J0D01*
G01X-9048030Y-5129085D01*
G01X-9048030Y-5225790D01*
G03X-9012216Y-5261604I35814J0D01*
G01X-8876217Y-5261604D01*
G03X-8840403Y-5225790I0J35814D01*
G01X-8840403Y-5102790D01*
G03X-8876217Y-5066976I-35814J0D01*
G01X-8972921Y-5066976D01*
G01X-9016853Y-5023044D01*
G01X-9016853Y-4865310D01*
G03X-8995364Y-4850080I-8514J34787D01*
G03X-8965362Y-4866336I30002J19557D01*
G01X-8885362Y-4866336D01*
G03X-8849548Y-4830522I0J35814D01*
G01X-8849548Y-4740523D01*
G03X-8885362Y-4704709I-35814J0D01*
G01X-8965362Y-4704709D01*
G03X-8995364Y-4720965I0J-35814D01*
G03X-9016853Y-4705735I-30002J-19557D01*
G01X-9016853Y-4699677D01*
G03X-8996496Y-4674532I-14656J32678D01*
G03X-8961483Y-4702813I35013J7534D01*
G01X-8880835Y-4702813D01*
G03X-8845021Y-4666999I0J35814D01*
G01X-8845021Y-4580598D01*
G03X-8880835Y-4544784I-35814J0D01*
G01X-8931564Y-4544784D01*
G01X-8982270Y-4494079D01*
G03X-8960352Y-4478747I-8085J34889D01*
G03X-8930350Y-4495003I30002J19557D01*
G01X-8850350Y-4495003D01*
G03X-8814536Y-4459189I0J35814D01*
G01X-8814536Y-4369189D01*
G03X-8829536Y-4340045I-35814J0D01*
G01X-8829536Y-4310534D01*
G03X-8814536Y-4281389I-20814J29145D01*
G01X-8814536Y-4191389D01*
G03X-8829536Y-4162245I-35814J0D01*
G01X-8829536Y-4139594D01*
G03X-8818182Y-4126238I-20779J29169D01*
G01X-8762530Y-4126238D01*
G01X-8762530Y-4145191D01*
G03X-8726716Y-4181005I35814J0D01*
G01X-8535487Y-4181005D01*
G03X-8573139Y-4258644I26487J-60795D01*
G03X-8502198Y-4307764I64139J16844D01*
G01X-8407414Y-4402548D01*
G01X-8407414Y-4775200D01*
G03X-8392531Y-4811131I50814J0D01*
G01X-8125831Y-5077831D01*
G03X-8089900Y-5092714I35931J35931D01*
G01X-6324600Y-5092714D01*
G03X-6288669Y-5077831I0J50814D01*
G01X-6081302Y-4870464D01*
G01X-5908984Y-4870464D01*
G03X-5816595Y-5056114I92389J-69836D01*
G03X-5724206Y-4870464I0J115814D01*
G01X-5587086Y-4870464D01*
G03X-5551155Y-4855581I0J50814D01*
G01X-5451479Y-4755905D01*
G03X-5308771Y-4568044I50562J109724D01*
G03X-5517429Y-4678131I-92145J-78136D01*
G01X-5608133Y-4768836D01*
G01X-5735351Y-4768836D01*
G03X-5729368Y-4610114I-81244J82536D01*
G01X-5568036Y-4610114D01*
G03X-5532105Y-4595231I0J50814D01*
G01X-5442490Y-4505616D01*
G03X-5315488Y-4306752I41574J113435D01*
G03X-5514352Y-4433754I-85428J-85428D01*
G01X-5589083Y-4508486D01*
G01X-5729368Y-4508486D01*
G03X-5729368Y-4356114I-87227J76186D01*
G01X-5568036Y-4356114D01*
G03X-5532105Y-4341231I0J50814D01*
G01X-5442490Y-4251616D01*
G03X-5315488Y-4052752I41574J113435D01*
G03X-5514352Y-4179754I-85428J-85428D01*
G01X-5589083Y-4254486D01*
G01X-5729368Y-4254486D01*
G03X-5816595Y-4062486I-87227J76186D01*
G03X-5903822Y-4254486I0J-115814D01*
G01X-7569200Y-4254486D01*
G03X-7605131Y-4269369I0J-50814D01*
G01X-7863298Y-4527536D01*
G01X-8193341Y-4527536D01*
G03X-8302264Y-4578350I-42609J-50814D01*
G03X-8193341Y-4629164I66314J0D01*
G01X-7842250Y-4629164D01*
G03X-7806319Y-4614281I0J50814D01*
G01X-7548152Y-4356114D01*
G01X-5903822Y-4356114D01*
G03X-5903822Y-4508486I87227J-76186D01*
G01X-7607300Y-4508486D01*
G03X-7643231Y-4523369I0J-50814D01*
G01X-7793448Y-4673586D01*
G01X-7945691Y-4673586D01*
G03X-8054614Y-4724400I-42609J-50814D01*
G03X-7945691Y-4775214I66314J0D01*
G01X-7772400Y-4775214D01*
G03X-7736469Y-4760331I0J50814D01*
G01X-7586252Y-4610114D01*
G01X-5903822Y-4610114D01*
G03X-5897839Y-4768836I87227J-76186D01*
G01X-6102350Y-4768836D01*
G03X-6138281Y-4783719I0J-50814D01*
G01X-6345648Y-4991086D01*
G01X-7730814Y-4991086D01*
G03X-7722543Y-4975005I-54286J38086D01*
G01X-7512598Y-4765060D01*
G03X-7471509Y-4652109I-5802J66060D01*
G03X-7584460Y-4693198I-46891J-46891D01*
G01X-7778298Y-4887036D01*
G03X-7842287Y-4919425I-6802J-65964D01*
G03X-7839386Y-4991086I57187J-33575D01*
G01X-8068852Y-4991086D01*
G01X-8305786Y-4754152D01*
G01X-8305786Y-4381500D01*
G03X-8320669Y-4345569I-50814J0D01*
G01X-8446443Y-4219795D01*
G03X-8507637Y-4175500I-62557J-22005D01*
G03X-8490902Y-4145191I-19079J30309D01*
G01X-8490902Y-3945191D01*
G03X-8513797Y-3911789I-35814J0D01*
G03X-8505689Y-3889094I-27706J22694D01*
G01X-8505689Y-3639095D01*
G03X-8541503Y-3603281I-35814J0D01*
G01X-8651503Y-3603281D01*
G03X-8687317Y-3639095I0J-35814D01*
G01X-8687317Y-3659675D01*
G03X-8735686Y-3659044I-24990J-61425D01*
G01X-8735686Y-3639095D01*
G03X-8752639Y-3608650I-35814J0D01*
G01X-8752639Y-3322917D01*
G01X-8646500Y-3322917D01*
G03X-8610686Y-3287103I0J35814D01*
G01X-8610686Y-3053103D01*
G03X-8612886Y-3040745I-35814J0D01*
G01X-8612886Y-2963197D01*
G01X-8556316Y-2963197D01*
G03X-8522174Y-2938197I0J35814D01*
G01X-6405283Y-2938197D01*
G03X-6369352Y-2923314I0J50814D01*
G01X-6344198Y-2898160D01*
G03X-6303109Y-2785209I-5802J66060D01*
G03X-6416060Y-2826298I-46891J-46891D01*
G01X-6426331Y-2836569D01*
G01X-8522174Y-2836569D01*
G03X-8536759Y-2817381I-34142J-10814D01*
G03X-8520502Y-2787378I-19557J30002D01*
G01X-8520502Y-2707378D01*
G03X-8556316Y-2671564I-35814J0D01*
G01X-8646316Y-2671564D01*
G03X-8682130Y-2707378I0J-35814D01*
G01X-8682130Y-2787378D01*
G03X-8665874Y-2817381I35814J0D01*
G03X-8675461Y-2826569I19557J-30002D01*
G01X-8701507Y-2826569D01*
G03X-8712529Y-2815208I-30580J-18641D01*
G03X-8696273Y-2785206I-19557J30002D01*
G01X-8696273Y-2705206D01*
G03X-8732087Y-2669392I-35814J0D01*
G01X-8822087Y-2669392D01*
G03X-8857901Y-2705206I0J-35814D01*
G01X-8857901Y-2785206D01*
G03X-8841644Y-2815208I35814J0D01*
G03X-8852667Y-2826569I19557J-30002D01*
G01X-8882772Y-2826569D01*
G03X-8892359Y-2817381I-29145J-20814D01*
G03X-8876102Y-2787378I-19557J30002D01*
G01X-8876102Y-2707378D01*
G03X-8911916Y-2671564I-35814J0D01*
G01X-9001916Y-2671564D01*
G03X-9037730Y-2707378I0J-35814D01*
G01X-9037730Y-2787378D01*
G03X-9021474Y-2817381I35814J0D01*
G03X-9037730Y-2847383I19557J-30002D01*
G01X-9037730Y-2927383D01*
G03X-9033954Y-2943390I35814J0D01*
G01X-9033954Y-3030105D01*
G03X-9042314Y-3053103I27454J-22998D01*
G01X-9042314Y-3287103D01*
G03X-9006500Y-3322917I35814J0D01*
G01X-8894267Y-3322917D01*
G01X-8894267Y-3605634D01*
G03X-8917314Y-3639095I12767J-33461D01*
G01X-8917314Y-3889094D01*
G03X-8881500Y-3924908I35814J0D01*
G01X-8771500Y-3924908D01*
G03X-8735686Y-3889094I0J35814D01*
G01X-8735686Y-3812609D01*
G01X-8724900Y-3812609D01*
G03X-8690595Y-3798399I0J48514D01*
G01X-8687317Y-3795121D01*
G01X-8687317Y-3889094D01*
G03X-8685733Y-3899626I35814J0D01*
G01X-8685733Y-3909377D01*
G01X-8726716Y-3909377D01*
G03X-8762530Y-3945191I0J-35814D01*
G01X-8762530Y-4004610D01*
G01X-8818182Y-4004610D01*
G03X-8850316Y-3984611I-32133J-15814D01*
G01X-8930315Y-3984611D01*
G03X-8960318Y-4000867I0J-35814D01*
G03X-8990320Y-3984611I-30002J-19557D01*
G01X-9070320Y-3984611D01*
G03X-9106134Y-4020425I0J-35814D01*
G01X-9106134Y-4110424D01*
G03X-9070320Y-4146238I35814J0D01*
G01X-8990320Y-4146238D01*
G03X-8960318Y-4129982I0J35814D01*
G03X-8951164Y-4139544I30002J19557D01*
G01X-8951164Y-4162245D01*
G03X-8960352Y-4171832I20814J-29145D01*
G03X-8990355Y-4155575I-30002J-19557D01*
G01X-9070355Y-4155575D01*
G03X-9106169Y-4191389I0J-35814D01*
G01X-9106169Y-4281389D01*
G03X-9070355Y-4317203I35814J0D01*
G01X-8990355Y-4317203D01*
G03X-8960352Y-4300947I0J35814D01*
G03X-8951164Y-4310534I30002J19557D01*
G01X-8951164Y-4340045D01*
G03X-8960352Y-4349632I20814J-29145D01*
G03X-8990355Y-4333375I-30002J-19557D01*
G01X-9070355Y-4333375D01*
G03X-9106169Y-4369189I0J-35814D01*
G01X-9106169Y-4459189D01*
G01X-9106160Y-4459986D01*
G01X-9111205Y-4459986D01*
G01X-9184386Y-4386805D01*
G01X-9184386Y-4198110D01*
G03X-9199856Y-4095405I-48514J45210D01*
G03X-9296386Y-4133741I-33044J-57495D01*
G01X-9296386Y-4085048D01*
G01X-9133469Y-3922131D01*
G03X-9130808Y-3919256I-35931J35931D01*
G03X-9111497Y-3924908I19311J30162D01*
G01X-9001497Y-3924908D01*
G03X-8965683Y-3889094I0J35814D01*
G01X-8965683Y-3639095D01*
G03X-9001497Y-3603281I-35814J0D01*
G01X-9111497Y-3603281D01*
G03X-9118586Y-3603989I0J-35814D01*
G01X-9118586Y-2590800D01*
G03X-9133469Y-2554869I-50814J0D01*
G01X-9324693Y-2363645D01*
G03X-9360624Y-2348762I-35931J-35931D01*
G01X-9549698Y-2348762D01*
G01X-9549698Y-2324576D01*
G03X-9585512Y-2288762I-35814J0D01*
G01X-9675512Y-2288762D01*
G03X-9694012Y-2293910I0J-35814D01*
G03X-9712512Y-2288762I-18500J-30666D01*
G01X-9802512Y-2288762D01*
G03X-9821012Y-2293910I0J-35814D01*
G03X-9839512Y-2288762I-18500J-30666D01*
G01X-9929512Y-2288762D01*
G03X-9948012Y-2293910I0J-35814D01*
G03X-9966512Y-2288762I-18500J-30666D01*
G01X-10056512Y-2288762D01*
G03X-10075012Y-2293910I0J-35814D01*
G03X-10093512Y-2288762I-18500J-30666D01*
G01X-10099398Y-2288762D01*
G01X-10099398Y-2154307D01*
G01X-9414495Y-1469405D01*
G03X-9400286Y-1435100I-34305J34305D01*
G01X-9400286Y-366978D01*
G03X-9369786Y-331560I-5314J35418D01*
G01X-9369786Y-250913D01*
G03X-9398066Y-215900I-35814J0D01*
G03X-9369786Y-180887I-7534J35013D01*
G01X-9369786Y-100240D01*
G03X-9400286Y-64822I-35814J0D01*
G01X-9400286Y-22860D01*
G01X-7693914Y-22860D01*
G01X-7693914Y-52122D01*
G03X-7724414Y-87540I5314J-35418D01*
G01X-7724414Y-91186D01*
G01X-7735622Y-91186D01*
G03X-7771040Y-60686I-35418J-5314D01*
G01X-7851687Y-60686D01*
G03X-7886700Y-88966I0J-35814D01*
G03X-7921713Y-60686I-35013J-7534D01*
G01X-8002360Y-60686D01*
G03X-8038174Y-96500I0J-35814D01*
G01X-8038174Y-182900D01*
G03X-8002360Y-218714I35814J0D01*
G01X-7921713Y-218714D01*
G03X-7886700Y-190434I0J35814D01*
G03X-7851687Y-218714I35013J7534D01*
G01X-7771040Y-218714D01*
G03X-7735622Y-188214I0J35814D01*
G01X-7718292Y-188214D01*
G03X-7696134Y-203200I29691J20027D01*
G03X-7724414Y-238213I7534J-35013D01*
G01X-7724414Y-318860D01*
G03X-7693914Y-354278I35814J0D01*
G01X-7693914Y-704090D01*
G03X-7645400Y-815614I48514J-45210D01*
G03X-7596886Y-704090I0J66314D01*
G01X-7596886Y-354278D01*
G03X-7566386Y-318860I-5314J35418D01*
G01X-7566386Y-238213D01*
G03X-7594666Y-203200I-35814J0D01*
G03X-7566386Y-168187I-7534J35013D01*
G01X-7566386Y-87540D01*
G03X-7596886Y-52122I-35814J0D01*
G01X-7596886Y-22860D01*
G01X-5354543Y-22860D01*
G03X-5261216Y-220395I93327J-76721D01*
G03X-5167889Y-22860I0J120814D01*
G01X-5162870Y-22860D01*
G01X-4907214Y-278516D01*
G01X-4907214Y-2295546D01*
G01X-5365295Y-2753627D01*
G01X-5485916Y-2753627D01*
G03X-5521730Y-2789441I0J-35814D01*
G01X-5521730Y-2946921D01*
G03X-5485916Y-2982735I35814J0D01*
G01X-5315916Y-2982735D01*
G03X-5280102Y-2946921I0J35814D01*
G01X-5280102Y-2826300D01*
G01X-5172056Y-2718253D01*
G03X-5072890Y-2728214I53956J38553D01*
G01X-5049295Y-2728214D01*
G01X-4790673Y-2986836D01*
G03X-4677509Y-3031391I66273J2336D01*
G03X-4722064Y-2918227I-46891J46891D01*
G01X-4994895Y-2645395D01*
G03X-5029200Y-2631186I-34305J-34305D01*
G01X-5072890Y-2631186D01*
G03X-5079547Y-2625744I-45210J-48514D01*
G01X-4811934Y-2358131D01*
G03X-4795586Y-2318664I-39466J39466D01*
G01X-4795586Y-255397D01*
G03X-4811934Y-215931I-55814J0D01*
G01X-5005004Y-22860D01*
G01X-2947530Y-22860D01*
G01X-2947530Y-5395481D01*
G02X-3241916Y-5689867I-294386J0D01*
G01X-8852797Y-5689867D01*
G03X-8840403Y-5662771I-23420J27095D01*
G01X-8840403Y-5539772D01*
G03X-8876217Y-5503958I-35814J0D01*
G01X-9012216Y-5503958D01*
G03X-9048030Y-5539772I0J-35814D01*
G01X-9048030Y-5662771D01*
G03X-9035636Y-5689867I35814J0D01*
G01X-11712816Y-5689867D01*
G02X-12007202Y-5395481I0J294386D01*
G01X-12007202Y-4328414D01*
G01X-11417300Y-4328414D01*
G03X-11406886Y-4318000I0J10414D01*
G01X-11406886Y-2247900D01*
G03X-11407398Y-2244675I-10414J0D01*
G01X-11407398Y-2236622D01*
G03X-11417812Y-2226208I-10414J0D01*
G01X-11835130Y-5370081D02*
G03X-11463502Y-5370081I185814J0D01*
G03X-11835130Y-5370081I-185814J0D01*
G01X-11660815Y-1561070D02*
G03X-11696629Y-1525256I-35814J0D01*
G01X-11796629Y-1525256D01*
G03X-11832443Y-1561070I0J-35814D01*
G01X-11832443Y-1686071D01*
G03X-11796629Y-1721885I35814J0D01*
G01X-11696629Y-1721885D01*
G03X-11660815Y-1686071I0J35814D01*
G01X-11660815Y-1561070D01*
G01X-11739814Y-762000D02*
G01X-11739814Y-1028700D01*
G03X-11728614Y-1062238I55814J0D01*
G01X-11728614Y-1189900D01*
G03X-11692800Y-1225714I35814J0D01*
G01X-11522800Y-1225714D01*
G03X-11486986Y-1189900I0J35814D01*
G01X-11486986Y-1019900D01*
G03X-11522800Y-984086I-35814J0D01*
G01X-11628186Y-984086D01*
G01X-11628186Y-841014D01*
G01X-11604713Y-841014D01*
G03X-11569700Y-812734I0J35814D01*
G03X-11542014Y-840257I35013J7534D01*
G01X-11542014Y-843790D01*
G03X-11493500Y-955314I48514J-45210D01*
G03X-11444986Y-843790I0J66314D01*
G01X-11444986Y-839851D01*
G03X-11418226Y-805200I-9054J34651D01*
G01X-11418226Y-754471D01*
G01X-11395695Y-731941D01*
G03X-11381486Y-697636I-34305J34305D01*
G01X-11381486Y-662574D01*
G03X-11430000Y-444246I-48514J103774D01*
G03X-11478514Y-662574I0J-114554D01*
G01X-11478514Y-677541D01*
G01X-11483958Y-682986D01*
G01X-11534687Y-682986D01*
G03X-11569700Y-711266I0J-35814D01*
G03X-11596522Y-683935I-35013J-7534D01*
G01X-11596522Y-672272D01*
G03X-11569446Y-637540I-8738J34732D01*
G01X-11569446Y-480060D01*
G03X-11605260Y-444246I-35814J0D01*
G01X-11762740Y-444246D01*
G03X-11798554Y-480060I0J-35814D01*
G01X-11798554Y-637540D01*
G03X-11762740Y-673354I35814J0D01*
G01X-11693550Y-673354D01*
G01X-11693550Y-683935D01*
G03X-11721174Y-718800I8190J-34865D01*
G01X-11721174Y-720367D01*
G03X-11739814Y-762000I37174J-41633D01*
G01X-11474614Y-1104900D02*
G03X-11232986Y-1104900I120814J0D01*
G03X-11474614Y-1104900I-120814J0D01*
G01X-11290554Y-558800D02*
G03X-11061446Y-558800I114554J0D01*
G03X-11290554Y-558800I-114554J0D01*
G01X-10850814Y-1919990D02*
G03X-10795000Y-2022114I55814J-35810D01*
G03X-10739186Y-1919990I0J66314D01*
G01X-10739186Y-1161728D01*
G03X-10905807Y-1000042I-106614J56828D01*
G03X-10850814Y-1225610I60007J-104858D01*
G01X-10850814Y-1919990D01*
G01X-10414499Y-3645412D02*
G01X-10324499Y-3645412D01*
G03X-10288685Y-3609598I0J35814D01*
G01X-10288685Y-3519598D01*
G03X-10298857Y-3494595I-35814J0D01*
G03X-10288685Y-3469593I-25642J25002D01*
G01X-10288685Y-3379593D01*
G03X-10298857Y-3354591I-35814J0D01*
G03X-10288685Y-3329588I-25642J25002D01*
G01X-10288685Y-3239588D01*
G03X-10324499Y-3203774I-35814J0D01*
G01X-10414499Y-3203774D01*
G03X-10439502Y-3213946I0J-35814D01*
G03X-10464504Y-3203774I-25002J-25642D01*
G01X-10554504Y-3203774D01*
G03X-10579506Y-3213946I0J-35814D01*
G03X-10604509Y-3203774I-25002J-25642D01*
G01X-10694509Y-3203774D01*
G03X-10730323Y-3239588I0J-35814D01*
G01X-10730323Y-3329588D01*
G03X-10720151Y-3354591I35814J0D01*
G03X-10730323Y-3379593I25642J-25002D01*
G01X-10730323Y-3469593D01*
G03X-10720151Y-3494595I35814J0D01*
G03X-10730323Y-3519598I25642J-25002D01*
G01X-10730323Y-3609598D01*
G03X-10694509Y-3645412I35814J0D01*
G01X-10604509Y-3645412D01*
G03X-10579506Y-3635240I0J35814D01*
G03X-10554504Y-3645412I25002J25642D01*
G01X-10464504Y-3645412D01*
G03X-10439502Y-3635240I0J35814D01*
G03X-10414499Y-3645412I25002J25642D01*
G01X-10543612Y-4914293D02*
G01X-10584690Y-4914293D01*
G03X-10696214Y-4962807I-45210J-48514D01*
G03X-10584690Y-5011321I66314J0D01*
G01X-10543612Y-5011321D01*
G03X-10508747Y-5038945I34865J8190D01*
G01X-10422346Y-5038945D01*
G03X-10387482Y-5011321I0J35814D01*
G01X-10378475Y-5011321D01*
G03X-10348961Y-5033114I33028J13848D01*
G01X-10348961Y-5052625D01*
G01X-10350612Y-5054276D01*
G01X-10447316Y-5054276D01*
G03X-10483130Y-5090090I0J-35814D01*
G01X-10483130Y-5213090D01*
G03X-10447316Y-5248904I35814J0D01*
G01X-10311317Y-5248904D01*
G03X-10275503Y-5213090I0J35814D01*
G01X-10275503Y-5116385D01*
G01X-10266142Y-5107025D01*
G03X-10251933Y-5072720I-34305J34305D01*
G01X-10251933Y-5033114D01*
G03X-10219633Y-4997473I-3514J35641D01*
G01X-10219633Y-4917473D01*
G03X-10235889Y-4887471I-35814J0D01*
G03X-10219633Y-4857468I-19557J30002D01*
G01X-10219633Y-4777468D01*
G03X-10255447Y-4741654I-35814J0D01*
G01X-10345447Y-4741654D01*
G03X-10381261Y-4777468I0J-35814D01*
G01X-10381261Y-4857468D01*
G03X-10365004Y-4887471I35814J0D01*
G03X-10381119Y-4914293I19557J-30002D01*
G01X-10387482Y-4914293D01*
G03X-10414813Y-4887471I-34865J-8190D01*
G03X-10386532Y-4852458I-7534J35013D01*
G01X-10386532Y-4771810D01*
G03X-10422346Y-4735996I-35814J0D01*
G01X-10508747Y-4735996D01*
G03X-10543612Y-4763620I0J-35814D01*
G01X-10597390Y-4763620D01*
G03X-10708914Y-4812134I-45210J-48514D01*
G03X-10597390Y-4860648I66314J0D01*
G01X-10543612Y-4860648D01*
G03X-10516281Y-4887471I34865J8190D01*
G03X-10543612Y-4914293I7534J-35013D01*
G01X-10447316Y-5491258D02*
G03X-10483130Y-5527072I0J-35814D01*
G01X-10483130Y-5650071D01*
G03X-10447316Y-5685885I35814J0D01*
G01X-10311317Y-5685885D01*
G03X-10275503Y-5650071I0J35814D01*
G01X-10275503Y-5527072D01*
G03X-10311317Y-5491258I-35814J0D01*
G01X-10447316Y-5491258D01*
G01X-10086614Y-4721313D02*
G01X-10086614Y-4801960D01*
G03X-10050800Y-4837774I35814J0D01*
G01X-9964400Y-4837774D01*
G03X-9928586Y-4801960I0J35814D01*
G01X-9928586Y-4721313D01*
G03X-9956866Y-4686300I-35814J0D01*
G03X-9928586Y-4651287I-7534J35013D01*
G01X-9928586Y-4570640D01*
G03X-9964400Y-4534826I-35814J0D01*
G01X-10050800Y-4534826D01*
G03X-10083501Y-4556035I0J-35814D01*
G03X-10188213Y-4609756I-38399J-54065D01*
G03X-10084064Y-4664561I66313J-344D01*
G03X-10058334Y-4686300I33263J13273D01*
G03X-10086614Y-4721313I7534J-35013D01*
G01X-10173729Y-5408113D02*
G01X-10173729Y-5498113D01*
G03X-10002101Y-5498113I85814J0D01*
G01X-10002101Y-5408113D01*
G03X-10173729Y-5408113I-85814J0D01*
G01X-9308732Y-5408113D02*
G01X-9308732Y-5498113D01*
G03X-9137104Y-5498113I85814J0D01*
G01X-9137104Y-5408113D01*
G03X-9308732Y-5408113I-85814J0D01*
G01X-8726716Y-4349356D02*
G03X-8762530Y-4385170I0J-35814D01*
G01X-8762530Y-4585170D01*
G03X-8726716Y-4620984I35814J0D01*
G01X-8526716Y-4620984D01*
G03X-8490902Y-4585170I0J35814D01*
G01X-8490902Y-4385170D01*
G03X-8526716Y-4349356I-35814J0D01*
G01X-8726716Y-4349356D01*
G01X-6383743Y-3149586D02*
G01X-7856791Y-3149586D01*
G03X-7965714Y-3200400I-42609J-50814D01*
G03X-7856791Y-3251214I66314J0D01*
G01X-6362695Y-3251214D01*
G03X-6326764Y-3236331I0J50814D01*
G01X-5854253Y-2763820D01*
G03X-5757213Y-2753732I37658J109520D01*
G03X-5702314Y-2673081I-59382J99432D01*
G01X-5702314Y-2889519D01*
G03X-5932409Y-2908300I-114281J-18781D01*
G03X-5702314Y-2927081I115814J0D01*
G01X-5702314Y-3143519D01*
G03X-5932409Y-3162300I-114281J-18781D01*
G03X-5702314Y-3181081I115814J0D01*
G01X-5702314Y-3230157D01*
G01X-5778936Y-3306780D01*
G03X-5898488Y-3498193I-37658J-109520D01*
G03X-5707075Y-3378642I81893J81893D01*
G01X-5615569Y-3287136D01*
G03X-5600686Y-3251205I-35931J35931D01*
G01X-5600686Y-2565395D01*
G03X-5615569Y-2529464I-50814J0D01*
G01X-5707075Y-2437958D01*
G03X-5707075Y-2362642I-109520J37658D01*
G01X-5640969Y-2296536D01*
G03X-5626086Y-2260605I-35931J35931D01*
G01X-5626086Y-1298312D01*
G01X-5302790Y-975016D01*
G03X-5175788Y-776152I41574J113435D01*
G03X-5374652Y-903154I-85428J-85428D01*
G01X-5712831Y-1241333D01*
G03X-5727714Y-1277264I35931J-35931D01*
G01X-5727714Y-2072050D01*
G03X-5932409Y-2146300I-88881J-74250D01*
G03X-5727714Y-2220550I115814J0D01*
G01X-5727714Y-2239557D01*
G01X-5778936Y-2290780D01*
G03X-5932409Y-2400300I-37658J-109520D01*
G03X-5778936Y-2509820I115814J0D01*
G01X-5702314Y-2586443D01*
G01X-5702314Y-2635519D01*
G03X-5844915Y-2542002I-114281J-18781D01*
G03X-5926115Y-2691958I28320J-112298D01*
G01X-6383743Y-3149586D01*
G01X-5816595Y-3786114D02*
G03X-5816595Y-3554486I0J115814D01*
G03X-5816595Y-3786114I0J-115814D01*
G01X-5700781Y-5368300D02*
G03X-5736595Y-5332486I-35814J0D01*
G01X-5896595Y-5332486D01*
G03X-5932409Y-5368300I0J-35814D01*
G01X-5932409Y-5528300D01*
G03X-5896595Y-5564114I35814J0D01*
G01X-5736595Y-5564114D01*
G03X-5700781Y-5528300I0J35814D01*
G01X-5700781Y-5368300D01*
G01X-5816595Y-5310114D02*
G03X-5816595Y-5078486I0J115814D01*
G03X-5816595Y-5310114I0J-115814D01*
G01X-5932401Y-3925626D02*
G03X-5712524Y-3975114I115806J1326D01*
G01X-5695036Y-3975114D01*
G03X-5659105Y-3960231I0J50814D01*
G01X-5442490Y-3743616D01*
G03X-5315488Y-3544752I41574J113435D01*
G03X-5514352Y-3671754I-85428J-85428D01*
G01X-5713714Y-3871117D01*
G03X-5932401Y-3925626I-102881J-53183D01*
G01X-5889264Y-1835150D02*
G03X-5756636Y-1835150I66314J0D01*
G03X-5889264Y-1835150I-66314J0D01*
G01X-5546105Y-1585860D02*
G03X-5560314Y-1620164I34305J-34305D01*
G01X-5560314Y-1854200D01*
G03X-5546105Y-1888505I48514J0D01*
G01X-5509514Y-1925095D01*
G01X-5509514Y-2482090D01*
G03X-5461000Y-2593614I48514J-45210D01*
G03X-5412486Y-2482090I0J66314D01*
G01X-5412486Y-1905000D01*
G03X-5426695Y-1870695I-48514J0D01*
G01X-5463286Y-1834105D01*
G01X-5463286Y-1640260D01*
G01X-5382030Y-1559004D01*
G01X-5382030Y-1702321D01*
G03X-5346216Y-1738135I35814J0D01*
G01X-5176216Y-1738135D01*
G03X-5140402Y-1702321I0J35814D01*
G01X-5140402Y-1544841D01*
G03X-5176216Y-1509027I-35814J0D01*
G01X-5332053Y-1509027D01*
G01X-5305150Y-1482123D01*
G03X-5175788Y-1284152I43933J112543D01*
G03X-5373759Y-1413514I-85428J-85428D01*
G01X-5546105Y-1585860D01*
G01X-5400916Y-3763367D02*
G03X-5400916Y-4004995I0J-120814D01*
G03X-5400916Y-3763367I0J120814D01*
G01X-5400916Y-3001367D02*
G03X-5400916Y-3242995I0J-120814D01*
G03X-5400916Y-3001367I0J120814D01*
G01X-5400916Y-3255367D02*
G03X-5400916Y-3496995I0J-120814D01*
G03X-5400916Y-3255367I0J120814D01*
G01X-5261216Y-474395D02*
G03X-5261216Y-232767I0J120814D01*
G03X-5261216Y-474395I0J-120814D01*
G01X-5261216Y-728395D02*
G03X-5261216Y-486767I0J120814D01*
G03X-5261216Y-728395I0J-120814D01*
G01X-5261216Y-1236395D02*
G03X-5261216Y-994767I0J120814D01*
G03X-5261216Y-1236395I0J-120814D01*
G01X-3491230Y-5344681D02*
G03X-3119602Y-5344681I185814J0D01*
G03X-3491230Y-5344681I-185814J0D01*
G01X-10837012Y-4255251D02*
G03X-10834326Y-4256719I18500J30666D01*
G01X-10834326Y-4316957D01*
G03X-10839698Y-4339281I60814J-26443D01*
G01X-10839698Y-4256719D01*
G03X-10837012Y-4255251I-15814J32133D01*
G01X-10579545Y-3957535D02*
G03X-10564114Y-4020310I63945J-17565D01*
G01X-10564114Y-4038771D01*
G01X-10564512Y-4038771D01*
G03X-10583012Y-4043920I0J-35814D01*
G03X-10594086Y-4039550I-18500J-30666D01*
G01X-10594086Y-3982210D01*
G03X-10579545Y-3957535I-48514J45210D01*
G01X-9671418Y-4639356D02*
G01X-9669894Y-4640393D01*
G01X-9669894Y-4702769D01*
G01X-9671418Y-4703805D01*
G03X-9692316Y-4697076I-20898J-29085D01*
G01X-9704461Y-4697076D01*
G03X-9682990Y-4650441I-44805J48888D01*
G03X-9677311Y-4642791I-35926J32603D01*
G03X-9671418Y-4639356I-15005J32519D01*
G01X-9549698Y-4224585D02*
G01X-9549698Y-4074585D01*
G03X-9556279Y-4053895I-35814J0D01*
G01X-9427521Y-4053895D01*
G03X-9391707Y-4018081I0J35814D01*
G01X-9391707Y-3928081D01*
G03X-9396855Y-3909581I-35814J0D01*
G03X-9391707Y-3891081I-30666J18500D01*
G01X-9391707Y-3801081D01*
G03X-9396855Y-3782581I-35814J0D01*
G03X-9395388Y-3779895I-30666J18500D01*
G01X-9283524Y-3779895D01*
G03X-9220214Y-3773953I25224J71495D01*
G01X-9220214Y-3865152D01*
G01X-9383131Y-4028069D01*
G03X-9398014Y-4064000I35931J-35931D01*
G01X-9398014Y-4432300D01*
G03X-9383131Y-4468231I50814J0D01*
G01X-9343920Y-4507442D01*
G01X-9345516Y-4507407D01*
G01X-9431917Y-4507407D01*
G03X-9467731Y-4543221I0J-35814D01*
G01X-9467731Y-4623868D01*
G03X-9439450Y-4658881I35814J0D01*
G03X-9467731Y-4693893I7534J-35013D01*
G01X-9467731Y-4774541D01*
G01X-9467719Y-4775467D01*
G01X-9477513Y-4775467D01*
G03X-9561506Y-4805432I-25503J-61214D01*
G01X-9561506Y-4732890D01*
G03X-9577946Y-4702769I-35814J0D01*
G01X-9577946Y-4640393D01*
G03X-9561506Y-4610271I-19374J30121D01*
G01X-9561506Y-4562866D01*
G01X-9456012Y-4457372D01*
G03X-9447455Y-4445795I-34305J34305D01*
G01X-9438156Y-4445795D01*
G03X-9402342Y-4409981I0J35814D01*
G01X-9402342Y-4323580D01*
G03X-9438156Y-4287766I-35814J0D01*
G01X-9518804Y-4287766D01*
G03X-9553816Y-4316047I0J-35814D01*
G03X-9580639Y-4288715I-35013J-7534D01*
G01X-9580639Y-4260066D01*
G03X-9549698Y-4224585I-4873J35481D01*
G01X-9903714Y23114D02*
G01X-12007202Y23114D01*
G01X-12007202Y1576819D01*
G02X-11712816Y1871205I294386J0D01*
G01X-3241916Y1871205D01*
G02X-2947530Y1576819I0J-294386D01*
G01X-2947530Y23114D01*
G01X-5050978Y23114D01*
G01X-5145984Y118120D01*
G03X-5346645Y239848I-115232J36299D01*
G03X-5224917Y39187I85428J-85428D01*
G01X-5208844Y23114D01*
G01X-7596886Y23114D01*
G01X-7596886Y164073D01*
G01X-7489157Y164073D01*
G03X-7453343Y199887I0J35814D01*
G01X-7453343Y459886D01*
G03X-7489157Y495700I-35814J0D01*
G01X-7669157Y495700D01*
G03X-7704971Y459886I0J-35814D01*
G01X-7704971Y199887D01*
G03X-7693914Y174008I35814J0D01*
G01X-7693914Y23114D01*
G01X-8038668Y23114D01*
G01X-8038668Y174793D01*
G03X-7961368Y290877I-48514J116084D01*
G01X-7961368Y370877D01*
G03X-8212996Y370877I-125814J0D01*
G01X-8212996Y290877D01*
G03X-8135696Y174793I125814J0D01*
G01X-8135696Y23114D01*
G01X-9400286Y23114D01*
G01X-9400286Y138491D01*
G01X-9269887Y138491D01*
G03X-9234073Y174305I0J35814D01*
G01X-9234073Y434304D01*
G03X-9269887Y470118I-35814J0D01*
G01X-9449887Y470118D01*
G03X-9485701Y434304I0J-35814D01*
G01X-9485701Y246887D01*
G03X-9490362Y240416I36901J-31495D01*
G03X-9488073Y264305I-123525J23889D01*
G01X-9488073Y344305D01*
G03X-9521732Y429958I-125814J0D01*
G01X-9466805Y484886D01*
G01X-9207373Y484886D01*
G03X-9175598Y496740I0J48514D01*
G01X-9024899Y496740D01*
G03X-8989085Y532554I0J35814D01*
G01X-8989085Y737192D01*
G03X-9024899Y773006I-35814J0D01*
G01X-9186901Y773006D01*
G03X-9222715Y737192I0J-35814D01*
G01X-9222715Y586668D01*
G01X-9227468Y581914D01*
G01X-9486900Y581914D01*
G03X-9521205Y567705I0J-48514D01*
G01X-9618890Y470019D01*
G03X-9739701Y344305I5003J-125714D01*
G01X-9739701Y264305D01*
G03X-9497286Y217048I125814J0D01*
G01X-9497314Y215392D01*
G01X-9497314Y23114D01*
G01X-9806686Y23114D01*
G01X-9806686Y155384D01*
G03X-9742099Y265295I-61227J109911D01*
G01X-9742099Y345295D01*
G03X-9993438Y353809I-125814J0D01*
G01X-10796397Y353809D01*
G01X-10952832Y510244D01*
G01X-10952832Y697449D01*
G03X-10988646Y733263I-35814J0D01*
G01X-11000884Y733263D01*
G03X-11098646Y987263I-97763J108186D01*
G03X-11196409Y733263I0J-145814D01*
G01X-11208646Y733263D01*
G03X-11244460Y697449I0J-35814D01*
G01X-11244460Y477449D01*
G03X-11208646Y441635I35814J0D01*
G01X-11021441Y441635D01*
G01X-10850797Y270991D01*
G03X-10816492Y256781I34305J34305D01*
G01X-9993438Y256781D01*
G03X-9903714Y144683I125525J8514D01*
G01X-9903714Y23114D01*
G01X-11835130Y1538719D02*
G03X-11463502Y1538719I185814J0D01*
G03X-11835130Y1538719I-185814J0D01*
G01X-10844646Y750635D02*
G03X-10844646Y932263I0J90814D01*
G03X-10844646Y750635I0J-90814D01*
G01X-10844646Y496635D02*
G03X-10844646Y678263I0J90814D01*
G03X-10844646Y496635I0J-90814D01*
G01X-9560402Y1039119D02*
G03X-9596216Y1074933I-35814J0D01*
G01X-9816216Y1074933D01*
G03X-9852030Y1039119I0J-35814D01*
G01X-9852030Y819119D01*
G03X-9816216Y783305I35814J0D01*
G01X-9596216Y783305D01*
G03X-9560402Y819119I0J35814D01*
G01X-9560402Y831357D01*
G03X-9306402Y929119I108186J97763D01*
G03X-9560402Y1026882I-145814J0D01*
G01X-9560402Y1039119D01*
G01X-9797030Y675119D02*
G03X-9615402Y675119I90814J0D01*
G03X-9797030Y675119I-90814J0D01*
G01X-9543030Y675119D02*
G03X-9361402Y675119I90814J0D01*
G03X-9543030Y675119I-90814J0D01*
G01X-9024899Y928794D02*
G03X-8989085Y964608I0J35814D01*
G01X-8989085Y1169246D01*
G03X-9024899Y1205060I-35814J0D01*
G01X-9186901Y1205060D01*
G03X-9222715Y1169246I0J-35814D01*
G01X-9222715Y964608D01*
G03X-9186901Y928794I35814J0D01*
G01X-9024899Y928794D01*
G01X-7871302Y1051819D02*
G03X-7907116Y1087633I-35814J0D01*
G01X-8127116Y1087633D01*
G03X-8162930Y1051819I0J-35814D01*
G01X-8162930Y831819D01*
G03X-8127116Y796005I35814J0D01*
G01X-7907116Y796005D01*
G03X-7871302Y831819I0J35814D01*
G01X-7871302Y844057D01*
G03X-7617302Y941819I108186J97763D01*
G03X-7871302Y1039582I-145814J0D01*
G01X-7871302Y1051819D01*
G01X-8107930Y687819D02*
G03X-7926302Y687819I90814J0D01*
G03X-8107930Y687819I-90814J0D01*
G01X-7881671Y485970D02*
G03X-7958971Y369886I48514J-116084D01*
G01X-7958971Y289886D01*
G03X-7707343Y289886I125814J0D01*
G01X-7707343Y369886D01*
G03X-7784643Y485970I-125814J0D01*
G01X-7784643Y490648D01*
G01X-7765005Y510286D01*
G01X-7475050Y510286D01*
G03X-7447001Y496740I28049J22268D01*
G01X-7284999Y496740D01*
G03X-7249185Y532554I0J35814D01*
G01X-7249185Y737192D01*
G03X-7284999Y773006I-35814J0D01*
G01X-7447001Y773006D01*
G03X-7482815Y737192I0J-35814D01*
G01X-7482815Y607314D01*
G01X-7721092Y607314D01*
G03X-7765874Y778591I-42025J80505D01*
G03X-7800177Y604912I2757J-90772D01*
G03X-7819405Y593105I15077J-46112D01*
G01X-7867461Y545048D01*
G03X-7881671Y510743I34305J-34305D01*
G01X-7881671Y485970D01*
G01X-7284999Y928794D02*
G03X-7249185Y964608I0J35814D01*
G01X-7249185Y1169246D01*
G03X-7284999Y1205060I-35814J0D01*
G01X-7447001Y1205060D01*
G03X-7482815Y1169246I0J-35814D01*
G01X-7482815Y964608D01*
G03X-7447001Y928794I35814J0D01*
G01X-7284999Y928794D01*
G01X-3491230Y1526019D02*
G03X-3119602Y1526019I185814J0D01*
G03X-3491230Y1526019I-185814J0D01*
G54D11*
G01X-11696883Y-1623571D02*
G01X-11670975Y-1623571D01*
G01X-11796375Y-1623571D02*
G01X-11822283Y-1623571D01*
G01X-11746629Y-1685817D02*
G01X-11746629Y-1711725D01*
G01X-11746629Y-1561324D02*
G01X-11746629Y-1535416D01*
G01X-10694255Y-3564598D02*
G01X-10720163Y-3564598D01*
G01X-10649509Y-3609344D02*
G01X-10649509Y-3635252D01*
G01X-11281512Y-4224331D02*
G01X-11281512Y-4250239D01*
G01X-11281512Y-4074839D02*
G01X-11281512Y-4048931D01*
G01X-11326258Y-4149585D02*
G01X-11352166Y-4149585D01*
G01X-10694255Y-3424593D02*
G01X-10720163Y-3424593D01*
G01X-10694255Y-3284588D02*
G01X-10720163Y-3284588D01*
G01X-10649509Y-3239842D02*
G01X-10649509Y-3213934D01*
G01X-11281512Y-2324830D02*
G01X-11281512Y-2298922D01*
G01X-11281512Y-2474322D02*
G01X-11281512Y-2500230D01*
G01X-11326258Y-2399576D02*
G01X-11352166Y-2399576D01*
G01X-10324753Y-3564598D02*
G01X-10298845Y-3564598D01*
G01X-10369499Y-3609344D02*
G01X-10369499Y-3635252D01*
G01X-10509504Y-3609344D02*
G01X-10509504Y-3635252D01*
G01X-10324753Y-3424593D02*
G01X-10298845Y-3424593D01*
G01X-10324753Y-3284588D02*
G01X-10298845Y-3284588D01*
G01X-10369499Y-3239842D02*
G01X-10369499Y-3213934D01*
G01X-10509504Y-3239842D02*
G01X-10509504Y-3213934D01*
G01X-10379316Y-5527326D02*
G01X-10379316Y-5501418D01*
G01X-10379316Y-5649817D02*
G01X-10379316Y-5675725D01*
G01X-10311571Y-5588571D02*
G01X-10285663Y-5588571D01*
G01X-10447062Y-5588571D02*
G01X-10472970Y-5588571D01*
G01X-10300447Y-4777722D02*
G01X-10300447Y-4751814D01*
G01X-10255701Y-4817468D02*
G01X-10229793Y-4817468D01*
G01X-10345193Y-4817468D02*
G01X-10371101Y-4817468D01*
G01X-9975418Y-4899602D02*
G01X-9975418Y-4873694D01*
G01X-10007600Y-4801706D02*
G01X-10007600Y-4827614D01*
G01X-9964654Y-4761636D02*
G01X-9938746Y-4761636D01*
G01X-10050546Y-4761636D02*
G01X-10076454Y-4761636D01*
G01X-9345770Y-4734217D02*
G01X-9319862Y-4734217D01*
G01X-9431663Y-4734217D02*
G01X-9457571Y-4734217D01*
G01X-9335414Y-4899602D02*
G01X-9335414Y-4873694D01*
G01X-8885616Y-4785523D02*
G01X-8859708Y-4785523D01*
G01X-8925362Y-4830268D02*
G01X-8925362Y-4856176D01*
G01X-8925362Y-4740777D02*
G01X-8925362Y-4714869D01*
G01X-9070101Y-4414189D02*
G01X-9096009Y-4414189D01*
G01X-9030355Y-4369443D02*
G01X-9030355Y-4343535D01*
G01X-9070101Y-4236389D02*
G01X-9096009Y-4236389D01*
G01X-9030355Y-4191643D02*
G01X-9030355Y-4165735D01*
G01X-9030355Y-4281135D02*
G01X-9030355Y-4307043D01*
G01X-9070066Y-4065424D02*
G01X-9095974Y-4065424D01*
G01X-9030320Y-4020679D02*
G01X-9030320Y-3994771D01*
G01X-9030320Y-4110170D02*
G01X-9030320Y-4136078D01*
G01X-8944216Y-5540026D02*
G01X-8944216Y-5514118D01*
G01X-8876471Y-5601271D02*
G01X-8850563Y-5601271D01*
G01X-9011962Y-5601271D02*
G01X-9037870Y-5601271D01*
G01X-9056497Y-3639349D02*
G01X-9056497Y-3613441D01*
G01X-9056497Y-3888840D02*
G01X-9056497Y-3914748D01*
G01X-9001751Y-3764095D02*
G01X-8975843Y-3764095D01*
G01X-8777087Y-2705460D02*
G01X-8777087Y-2679552D01*
G01X-8732341Y-2745206D02*
G01X-8706433Y-2745206D01*
G01X-8821833Y-2745206D02*
G01X-8847741Y-2745206D01*
G01X-8601316Y-2707632D02*
G01X-8601316Y-2681724D01*
G01X-8556570Y-2747378D02*
G01X-8530662Y-2747378D01*
G01X-8646062Y-2747378D02*
G01X-8671970Y-2747378D01*
G01X-9792806Y-139700D02*
G01X-9818714Y-139700D01*
G01X-9752736Y-96754D02*
G01X-9752736Y-70846D01*
G01X-9752736Y-182646D02*
G01X-9752736Y-208554D01*
G01X-8956916Y-2707632D02*
G01X-8956916Y-2681724D01*
G01X-8912170Y-2747378D02*
G01X-8886262Y-2747378D01*
G01X-9001662Y-2747378D02*
G01X-9027570Y-2747378D01*
G01X-8002106Y-139700D02*
G01X-8028014Y-139700D01*
G01X-7962036Y-96754D02*
G01X-7962036Y-70846D01*
G01X-7962036Y-182646D02*
G01X-7962036Y-208554D01*
G01X-10137661Y-5453113D02*
G01X-10163569Y-5453113D01*
G01X-10038169Y-5453113D02*
G01X-10012261Y-5453113D01*
G01X-10087915Y-5358367D02*
G01X-10087915Y-5332459D01*
G01X-10087915Y-5547859D02*
G01X-10087915Y-5573767D01*
G01X-10137661Y-5033124D02*
G01X-10163569Y-5033124D01*
G01X-10087915Y-4928379D02*
G01X-10087915Y-4902471D01*
G01X-10087915Y-5137870D02*
G01X-10087915Y-5163778D01*
G01X-11438546Y-1104900D02*
G01X-11464454Y-1104900D01*
G01X-11269054Y-1104900D02*
G01X-11243146Y-1104900D01*
G01X-11353800Y-1020154D02*
G01X-11353800Y-994246D01*
G01X-11353800Y-1189646D02*
G01X-11353800Y-1215554D01*
G01X-9173172Y-5033124D02*
G01X-9147264Y-5033124D01*
G01X-9222918Y-4928379D02*
G01X-9222918Y-4902471D01*
G01X-9222918Y-5137870D02*
G01X-9222918Y-5163778D01*
G01X-9272664Y-5453113D02*
G01X-9298572Y-5453113D01*
G01X-9173172Y-5453113D02*
G01X-9147264Y-5453113D01*
G01X-9222918Y-5358367D02*
G01X-9222918Y-5332459D01*
G01X-9222918Y-5547859D02*
G01X-9222918Y-5573767D01*
G01X-5816595Y-5274046D02*
G01X-5816595Y-5299954D01*
G01X-5816595Y-5114554D02*
G01X-5816595Y-5088646D01*
G01X-5896341Y-5194300D02*
G01X-5922249Y-5194300D01*
G01X-5736849Y-5194300D02*
G01X-5710941Y-5194300D01*
G01X-5400916Y-3037435D02*
G01X-5400916Y-3011527D01*
G01X-5400916Y-3206927D02*
G01X-5400916Y-3232835D01*
G01X-5316170Y-3122181D02*
G01X-5290262Y-3122181D01*
G01X-5485662Y-3122181D02*
G01X-5511570Y-3122181D01*
G01X-11254486Y-558800D02*
G01X-11280394Y-558800D01*
G01X-11097514Y-558800D02*
G01X-11071606Y-558800D01*
G01X-11176000Y-480314D02*
G01X-11176000Y-454406D01*
G01X-11176000Y-637286D02*
G01X-11176000Y-663194D01*
G01X-5261216Y-438327D02*
G01X-5261216Y-464235D01*
G01X-5261216Y-268835D02*
G01X-5261216Y-242927D01*
G01X-5345962Y-353581D02*
G01X-5371870Y-353581D01*
G01X-5176470Y-353581D02*
G01X-5150562Y-353581D01*
G01X-9105900Y964862D02*
G01X-9105900Y938954D01*
G01X-9105900Y1168992D02*
G01X-9105900Y1194900D01*
G01X-9186647Y1066927D02*
G01X-9212555Y1066927D01*
G01X-9025153Y1066927D02*
G01X-8999245Y1066927D01*
G01X-7366000Y964862D02*
G01X-7366000Y938954D01*
G01X-7366000Y1168992D02*
G01X-7366000Y1194900D01*
G01X-7446747Y1066927D02*
G01X-7472655Y1066927D01*
G01X-7285253Y1066927D02*
G01X-7259345Y1066927D01*
G01X-11098646Y951195D02*
G01X-11098646Y977103D01*
G01X-11208392Y841449D02*
G01X-11234300Y841449D01*
G01X-10988900Y841449D02*
G01X-10962992Y841449D01*
G01X-9342470Y929119D02*
G01X-9316562Y929119D01*
G01X-9452216Y1038865D02*
G01X-9452216Y1064773D01*
G01X-9452216Y819373D02*
G01X-9452216Y793465D01*
G01X-7653370Y941819D02*
G01X-7627462Y941819D01*
G01X-7763116Y1051565D02*
G01X-7763116Y1077473D01*
G01X-7763116Y832073D02*
G01X-7763116Y806165D01*
G04 Copper End*

G04 Rect Start*
G36*
G01X-8998140Y-3060700D02*
G01X-8998140Y-2876740D01*
G01X-8648700Y-2876740D01*
G01X-8648700Y-3060700D01*
G01X-8998140Y-3060700D01*
G37*
G04 Rect End*

G04 Pad Start*
G54D12*
G01X-11281512Y-4149585D03*
G01X-11154512Y-4149585D03*
G01X-11027512Y-4149585D03*
G01X-10900512Y-4149585D03*
G01X-10773512Y-4149585D03*
G01X-10646512Y-4149585D03*
G01X-10519512Y-4149585D03*
G01X-10392512Y-4149585D03*
G01X-10265512Y-4149585D03*
G01X-10138512Y-4149585D03*
G01X-10011512Y-4149585D03*
G01X-9884512Y-4149585D03*
G01X-9757512Y-4149585D03*
G01X-9630512Y-4149585D03*
G54D13*
G01X-9502521Y-3973081D03*
G01X-9502521Y-3846081D03*
G01X-9502521Y-3719081D03*
G01X-9502521Y-3592081D03*
G01X-9502521Y-3465081D03*
G01X-9502521Y-3338081D03*
G01X-9502521Y-3211081D03*
G01X-9502521Y-3084081D03*
G01X-9502521Y-2957081D03*
G01X-9502521Y-2830081D03*
G01X-9502521Y-2703081D03*
G01X-9505518Y-2576081D03*
G54D12*
G01X-9630512Y-2399576D03*
G01X-9757512Y-2399576D03*
G01X-9884512Y-2399576D03*
G01X-10011512Y-2399576D03*
G01X-10138512Y-2399576D03*
G01X-10265512Y-2399576D03*
G01X-10392512Y-2399576D03*
G01X-10519512Y-2399576D03*
G01X-10646512Y-2399576D03*
G01X-10773512Y-2399576D03*
G01X-10900512Y-2399576D03*
G01X-11027512Y-2399576D03*
G01X-11154512Y-2399576D03*
G01X-11281512Y-2399576D03*
G54D14*
G01X-10369499Y-3284588D03*
G01X-10369499Y-3424593D03*
G01X-10369499Y-3564598D03*
G01X-10649509Y-3564598D03*
G01X-10649509Y-3424593D03*
G01X-10649509Y-3284588D03*
G01X-10509504Y-3284588D03*
G01X-10509504Y-3564598D03*
G01X-10509504Y-3424593D03*
G54D15*
G01X-5400916Y-4646181D03*
G01X-5400916Y-4392181D03*
G01X-5400916Y-4138181D03*
G01X-5400916Y-3884181D03*
G01X-5400916Y-3630181D03*
G01X-5400916Y-3376181D03*
G01X-5400916Y-3122181D03*
G54D16*
G01X-5400916Y-2868181D03*
G54D15*
G01X-5261216Y154419D03*
G01X-5261216Y-99581D03*
G01X-5261216Y-353581D03*
G01X-5261216Y-607581D03*
G01X-5261216Y-861581D03*
G01X-5261216Y-1115581D03*
G01X-5261216Y-1369581D03*
G54D16*
G01X-5261216Y-1623581D03*
G54D18*
G01X-9335414Y-4956848D03*
G01X-9415424Y-4956848D03*
G54D19*
G01X-9480423Y-4956848D03*
G01X-9530410Y-4956848D03*
G01X-9580423Y-4956848D03*
G01X-9630410Y-4956848D03*
G01X-9680397Y-4956848D03*
G01X-9730410Y-4956848D03*
G01X-9780397Y-4956848D03*
G01X-9830410Y-4956848D03*
G54D18*
G01X-9895408Y-4956848D03*
G01X-9975418Y-4956848D03*
G54D20*
G01X-9222918Y-5453113D03*
G01X-10087915Y-5453113D03*
G54D21*
G01X-9222918Y-5033124D03*
G01X-10087915Y-5033124D03*
G54D22*
G01X-9813912Y-4786490D03*
G01X-9718916Y-4786490D03*
G01X-9623920Y-4786490D03*
G01X-9623920Y-4556671D03*
G01X-9718916Y-4556671D03*
G01X-9813912Y-4556671D03*
G54D23*
G01X-8017116Y687819D03*
G01X-7763116Y687819D03*
G54D24*
G01X-8017116Y941819D03*
G54D25*
G01X-7763116Y941819D03*
G54D23*
G01X-9706216Y675119D03*
G01X-9452216Y675119D03*
G54D24*
G01X-9706216Y929119D03*
G54D25*
G01X-9452216Y929119D03*
G54D23*
G01X-10844646Y587449D03*
G01X-10844646Y841449D03*
G54D24*
G01X-11098646Y587449D03*
G54D25*
G01X-11098646Y841449D03*
G54D26*
G01X-5816595Y-5448300D03*
G54D27*
G01X-5816595Y-5194300D03*
G01X-5816595Y-4940300D03*
G01X-5816595Y-4686300D03*
G01X-5816595Y-4432300D03*
G01X-5816595Y-4178300D03*
G01X-5816595Y-3924300D03*
G01X-5816595Y-3670300D03*
G01X-5816595Y-3416300D03*
G01X-5816595Y-3162300D03*
G01X-5816595Y-2908300D03*
G01X-5816595Y-2654300D03*
G01X-5816595Y-2400300D03*
G01X-5816595Y-2146300D03*
G54D28*
G01X-8890350Y-4414189D03*
G01X-9030355Y-4414189D03*
G01X-8890350Y-4236389D03*
G01X-9030355Y-4236389D03*
G01X-8890315Y-4065424D03*
G01X-9030320Y-4065424D03*
G54D29*
G01X-8601316Y-2887383D03*
G01X-8601316Y-2747378D03*
G01X-8777087Y-2885210D03*
G01X-8777087Y-2745206D03*
G01X-8956916Y-2887383D03*
G01X-8956916Y-2747378D03*
G54D28*
G01X-9065367Y-4785523D03*
G01X-8925362Y-4785523D03*
G54D29*
G01X-10300447Y-4957473D03*
G01X-10300447Y-4817468D03*
G54D30*
G01X-8626716Y-4045191D03*
G01X-8626716Y-4485170D03*
G54D31*
G01X-11526614Y-1623571D03*
G01X-11746629Y-1623571D03*
G54D32*
G01X-7645400Y-278536D03*
G01X-7645400Y-127864D03*
G01X-9448800Y-140564D03*
G01X-9448800Y-291236D03*
G54D33*
G01X-7811364Y-139700D03*
G01X-7962036Y-139700D03*
G01X-9602064Y-139700D03*
G01X-9752736Y-139700D03*
G54D32*
G01X-10007600Y-4761636D03*
G01X-10007600Y-4610964D03*
G01X-9388716Y-4734217D03*
G01X-9388716Y-4583544D03*
G54D33*
G01X-9783280Y-4366781D03*
G01X-9933953Y-4366781D03*
G01X-9629153Y-4366781D03*
G01X-9478480Y-4366781D03*
G01X-8921159Y-4623798D03*
G01X-9071832Y-4623798D03*
G54D32*
G01X-10465547Y-4812134D03*
G01X-10465547Y-4962807D03*
G54D34*
G01X-8944216Y-5164290D03*
G01X-8944216Y-5601271D03*
G01X-10379316Y-5151590D03*
G01X-10379316Y-5588571D03*
G54D35*
G01X-9056497Y-3764095D03*
G01X-8826500Y-3764095D03*
G01X-8596503Y-3764095D03*
G54D36*
G01X-8826500Y-3170103D03*
G54D37*
G01X-7579157Y329886D03*
G54D38*
G01X-8087182Y330877D03*
G01X-7833157Y329886D03*
G54D37*
G01X-9359887Y304305D03*
G54D38*
G01X-9867913Y305295D03*
G01X-9613887Y304305D03*
G54D33*
G01X-11645036Y-762000D03*
G01X-11494364Y-762000D03*
G54D39*
G01X-7366000Y634873D03*
G01X-7366000Y1066927D03*
G01X-9105900Y634873D03*
G01X-9105900Y1066927D03*
G54D40*
G01X-11176000Y-558800D03*
G01X-11430000Y-558800D03*
G54D41*
G01X-11684000Y-558800D03*
G54D42*
G01X-11607800Y-1104900D03*
G54D15*
G01X-11353800Y-1104900D03*
G01X-11099800Y-1104900D03*
G01X-10845800Y-1104900D03*
G04 Pad End*

G04 Via Start*
G54D43*
G01X-9749266Y-4648188D03*
G01X-9680694Y-4686119D03*
G01X-9503016Y-4836681D03*
G01X-9780397Y-5065281D03*
G01X-9490316Y-5077981D03*
G54D44*
G01X-9258300Y-2703081D03*
G01X-9258300Y-2830081D03*
G01X-9258300Y-2957081D03*
G01X-9258300Y-3084081D03*
G01X-9258300Y-3211081D03*
G01X-9258300Y-3352800D03*
G01X-9245600Y-3465081D03*
G01X-9258300Y-3592081D03*
G01X-9258300Y-3708400D03*
G01X-8605415Y-4506472D03*
G54D43*
G01X-10909300Y-4356100D03*
G01X-10773512Y-4343400D03*
G01X-10646512Y-4343400D03*
G01X-10515600Y-4330700D03*
G01X-10392512Y-4330700D03*
G01X-10248900Y-4330700D03*
G01X-10138512Y-4330700D03*
G01X-7518400Y-4699000D03*
G01X-7785100Y-4953000D03*
G01X-8235950Y-4578350D03*
G01X-7988300Y-4724400D03*
G01X-10121900Y-4610100D03*
G01X-9232900Y-4787900D03*
G01X-9385300Y-4737100D03*
G01X-8930364Y-4785526D03*
G01X-11154512Y-4356100D03*
G01X-11023600Y-4356100D03*
G01X-10629900Y-4962807D03*
G01X-10642600Y-4812134D03*
G01X-10011512Y-3975100D03*
G01X-9880600Y-3962400D03*
G01X-8509000Y-4241800D03*
G01X-9232900Y-4152900D03*
G01X-8712307Y-3721100D03*
G01X-9931400Y-4711700D03*
G01X-7899400Y-3200400D03*
G01X-6350000Y-2832100D03*
G01X-5822950Y-1835150D03*
G01X-5461000Y-2527300D03*
G01X-5118100Y-2679700D03*
G01X-4724400Y-2984500D03*
G01X-10795000Y-1955800D03*
G01X-10680700Y-2120900D03*
G01X-7645400Y-749300D03*
G01X-10773512Y-3949700D03*
G01X-10642600Y-3937000D03*
G01X-11036300Y-3924300D03*
G01X-10515600Y-3975100D03*
G01X-11811000Y-5118100D03*
G01X-11671300Y-5054600D03*
G01X-11531600Y-5080000D03*
G01X-11430000Y-5168900D03*
G01X-11353800Y-5295900D03*
G01X-11353800Y-5447947D03*
G01X-11417300Y-5562600D03*
G01X-11531600Y-5638800D03*
G01X-3086100Y-5080000D03*
G01X-3238500Y-5016500D03*
G01X-3383888Y-5016500D03*
G01X-3517900Y-5080000D03*
G01X-3581400Y-5194300D03*
G01X-3619500Y-5334000D03*
G01X-3581400Y-5486400D03*
G01X-3492500Y-5588000D03*
G01X-3365500Y-5651500D03*
G01X-9575800Y-495300D03*
G01X-9575800Y-622300D03*
G01X-9575800Y-758511D03*
G01X-9575800Y-882333D03*
G01X-9575800Y-1027690D03*
G01X-9575800Y-1168400D03*
G01X-9575800Y-1291485D03*
G01X-9588500Y-1397000D03*
G01X-10265510Y-2229574D03*
G01X-10261600Y-2108200D03*
G01X-10172700Y-1993900D03*
G01X-10083800Y-1917700D03*
G01X-9994900Y-1841500D03*
G01X-9906000Y-1765300D03*
G01X-9829800Y-1676400D03*
G01X-9740900Y-1587500D03*
G01X-9664700Y-1498600D03*
G01X-9334500Y-495300D03*
G01X-9334500Y-615800D03*
G01X-9334500Y-749300D03*
G01X-9334500Y-876300D03*
G01X-9334500Y-1014185D03*
G01X-9334500Y-1143000D03*
G01X-9334500Y-1264522D03*
G01X-9334500Y-1375782D03*
G01X-9334500Y-1490632D03*
G01X-9410700Y-1574800D03*
G01X-9486900Y-1651000D03*
G01X-9575800Y-1739900D03*
G01X-9677400Y-1854200D03*
G01X-9779000Y-1930400D03*
G01X-9867900Y-2019300D03*
G01X-9931400Y-2095500D03*
G01X-9994900Y-2159000D03*
G01X-10045700Y-2222500D03*
G01X-7759700Y-381000D03*
G01X-7759700Y-546100D03*
G01X-7759700Y-455975D03*
G01X-7759700Y-633633D03*
G01X-7759700Y-719770D03*
G01X-7759700Y-805908D03*
G01X-7543800Y-393700D03*
G01X-7543800Y-488277D03*
G01X-7543800Y-601332D03*
G01X-7543800Y-698500D03*
G01X-7543800Y-822059D03*
G01X-11493500Y-889000D03*
G01X-11112500Y-1803400D03*
G04 Via End*

G04 Track Start*
G54D11*
G01X-9464916Y-5141481D02*
G01X-9845916Y-5141481D01*
G01X-9431916Y-5108481D02*
G01X-9464916Y-5141481D01*
G01X-9845916Y-5141481D02*
G01X-9884005Y-5103392D01*
G01X-9490316Y-5077981D02*
G01X-9480423Y-5068087D01*
G01X-9431916Y-4973340D02*
G01X-9431916Y-5108481D01*
G01X-9884005Y-5103392D02*
G01X-9884005Y-4968251D01*
G01X-9480423Y-5068087D02*
G01X-9480423Y-4956848D01*
G01X-9780397Y-4956848D02*
G01X-9780397Y-5065281D01*
G01X-9222918Y-5033124D02*
G01X-9222918Y-4977079D01*
G54D10*
G01X-9580423Y-4956848D02*
G01X-9580423Y-5028387D01*
G01X-9680816Y-5027181D02*
G01X-9680816Y-4957267D01*
G54D11*
G01X-10043871Y-4989081D02*
G01X-10007651Y-4989081D01*
G01X-9975418Y-4956848D01*
G01X-9222918Y-4977079D02*
G01X-9243149Y-4956848D01*
G01X-9415424Y-4956848D02*
G01X-9431916Y-4973340D01*
G01X-9884005Y-4968251D02*
G01X-9895408Y-4956848D01*
G54D10*
G01X-9680816Y-4957267D02*
G01X-9680397Y-4956848D01*
G01X-9630016Y-4956454D02*
G01X-9630410Y-4956848D01*
G54D45*
G01X-9415424Y-4956848D02*
G01X-9415424Y-4860773D01*
G01X-9439516Y-4836681D01*
G01X-9503016Y-4836681D01*
G54D10*
G01X-9730410Y-4869056D02*
G01X-9726805Y-4865451D01*
G01X-9623920Y-4786490D02*
G01X-9623920Y-4556671D01*
G01X-9730410Y-4956848D02*
G01X-9730410Y-4869056D01*
G01X-9813912Y-4786490D02*
G01X-9822185Y-4794763D01*
G01X-9802778Y-4865451D02*
G01X-9726805Y-4865451D01*
G01X-9822185Y-4846044D02*
G01X-9802778Y-4865451D01*
G01X-9822185Y-4794763D02*
G01X-9822185Y-4846044D01*
G01X-9630016Y-4887481D02*
G01X-9630016Y-4956454D01*
G01X-9623920Y-4830077D02*
G01X-9623920Y-4786490D01*
G01X-9726805Y-4865451D02*
G01X-9652046Y-4865451D01*
G01X-9630016Y-4887481D01*
G54D11*
G01X-10100615Y-5459133D02*
G01X-10100615Y-5039144D01*
G54D10*
G01X-9580423Y-5028387D02*
G01X-9591744Y-5039709D01*
G01X-9668288Y-5039709D01*
G01X-9680816Y-5027181D01*
G01X-9580423Y-4956848D02*
G01X-9580423Y-4873574D01*
G01X-9623920Y-4830077D01*
G54D11*
G01X-9210916Y-5434432D02*
G01X-9210916Y-5063846D01*
G01X-9235618Y-5039144D01*
G54D10*
G01X-9813912Y-4786490D02*
G01X-9813912Y-4556671D01*
G54D11*
G01X-10369499Y-3335388D02*
G01X-10509504Y-3335388D01*
G01X-9813912Y-4556671D02*
G01X-9840402Y-4556671D01*
G01X-9490316Y-4378617D02*
G01X-9490316Y-4423067D01*
G01X-9478480Y-4366781D02*
G01X-9490316Y-4378617D01*
G01X-9490316Y-4423067D02*
G01X-9623920Y-4556671D01*
G01X-9840402Y-4556671D02*
G01X-9933953Y-4463120D01*
G01X-9933953Y-4366781D01*
G01X-9718916Y-4556671D02*
G01X-9718916Y-4617838D01*
G01X-9749266Y-4648188D01*
G01X-9680694Y-4686119D02*
G01X-9718916Y-4724342D01*
G01X-9718916Y-4786490D01*
G01X-9630512Y-4149585D02*
G01X-9629153Y-4150944D01*
G01X-9629153Y-4366781D01*
G01X-9769037Y-4145242D02*
G01X-9769037Y-4361078D01*
G01X-9770396Y-4143883D02*
G01X-9769037Y-4145242D01*
G54D46*
G01X-8890350Y-4414189D02*
G01X-8890350Y-4236389D01*
G01X-8890350Y-4065459D01*
G01X-8890315Y-4065424D02*
G01X-8646949Y-4065424D01*
G01X-9030320Y-4065424D02*
G01X-9030320Y-4236389D01*
G01X-9030320Y-4414155D01*
G01X-9030320Y-3804368D02*
G01X-9030320Y-4065424D01*
G54D11*
G01X-10379316Y-5151590D02*
G01X-10300447Y-5072720D01*
G01X-10300447Y-4957473D01*
G01X-10305781Y-4962807D01*
G01X-10465547Y-4962807D01*
G01X-8944216Y-5601271D02*
G01X-9005125Y-5601271D01*
G01X-9153284Y-5453113D02*
G01X-9222918Y-5453113D01*
G01X-9005125Y-5601271D02*
G01X-9153284Y-5453113D01*
G01X-9235618Y-5459133D02*
G01X-9210916Y-5434432D01*
G01X-10223373Y-5588571D02*
G01X-10379316Y-5588571D01*
G01X-10208029Y-4817468D02*
G01X-10300447Y-4817468D01*
G01X-10087915Y-5033124D02*
G01X-10087915Y-5026444D01*
G01X-10087915Y-4937582D01*
G01X-10208029Y-4817468D01*
G01X-10100615Y-5039144D02*
G01X-10087915Y-5026444D01*
G01X-10369499Y-3615398D02*
G01X-10649509Y-3615398D01*
G01X-10369499Y-3564598D02*
G01X-10369499Y-3615398D01*
G01X-10369499Y-3564598D02*
G01X-10369499Y-3424593D01*
G01X-10369499Y-3335388D01*
G01X-10509504Y-3335388D02*
G01X-10509504Y-3424593D01*
G01X-10509504Y-3475393D01*
G01X-10649509Y-3615398D02*
G01X-10649509Y-3564598D01*
G01X-10649509Y-3424593D01*
G01X-10649509Y-3335388D01*
G54D46*
G01X-9502521Y-2703081D02*
G01X-9258300Y-2703081D01*
G01X-9502521Y-2830081D02*
G01X-9258300Y-2830081D01*
G01X-9502521Y-2957081D02*
G01X-9258300Y-2957081D01*
G01X-9502521Y-3084081D02*
G01X-9258300Y-3084081D01*
G01X-9502521Y-3211081D02*
G01X-9258300Y-3211081D01*
G01X-9502521Y-3338081D02*
G01X-9273019Y-3338081D01*
G54D11*
G01X-9273019Y-3338081D02*
G01X-9258300Y-3352800D01*
G54D46*
G01X-9502521Y-3465081D02*
G01X-9245600Y-3465081D01*
G01X-9502521Y-3592081D02*
G01X-9258300Y-3592081D01*
G01X-9502521Y-3719081D02*
G01X-9268981Y-3719081D01*
G54D11*
G01X-9268981Y-3719081D02*
G01X-9258300Y-3708400D01*
G01X-8944216Y-5164290D02*
G01X-9065367Y-5043140D01*
G01X-9065367Y-4785523D01*
G01X-9065367Y-4630264D01*
G01X-9071832Y-4623798D01*
G01X-9388716Y-4734217D02*
G01X-9335414Y-4787519D01*
G01X-9335414Y-4956848D01*
G01X-9243149Y-4956848D02*
G01X-9335414Y-4956848D01*
G01X-10007600Y-4761636D02*
G01X-10000818Y-4768418D01*
G01X-10000818Y-4931448D01*
G01X-9975418Y-4956848D01*
G54D46*
G01X-10773512Y-4149585D02*
G01X-10773512Y-4343400D01*
G01X-10646512Y-4149585D02*
G01X-10646512Y-4343400D01*
G01X-10519512Y-4149585D02*
G01X-10519512Y-4326788D01*
G54D11*
G01X-10519512Y-4326788D02*
G01X-10515600Y-4330700D01*
G54D46*
G01X-10392512Y-4149585D02*
G01X-10392512Y-4330700D01*
G54D11*
G01X-10265512Y-4149585D02*
G01X-10248900Y-4166197D01*
G54D46*
G01X-10248900Y-4166197D02*
G01X-10248900Y-4330700D01*
G01X-10138512Y-4149585D02*
G01X-10138512Y-4330700D01*
G01X-10900512Y-4149585D02*
G01X-10900512Y-4347312D01*
G01X-10909300Y-4356100D01*
G54D47*
G01X-8842616Y-3168084D02*
G01X-8823453Y-3187247D01*
G01X-8823453Y-3742912D01*
G54D46*
G01X-9065565Y-3755027D02*
G01X-9030320Y-3804368D01*
G01X-8956916Y-2747378D02*
G01X-8995778Y-2747378D01*
G01X-9080500Y-2832100D01*
G01X-9080500Y-3740092D01*
G54D48*
G01X-8614016Y-4045191D02*
G01X-8599919Y-4031094D01*
G01X-8626716Y-4045191D02*
G01X-8614016Y-4045191D01*
G01X-8599919Y-3767511D02*
G01X-8596503Y-3764095D01*
G01X-8599919Y-4031094D02*
G01X-8599919Y-3767511D01*
G54D49*
G01X-5816595Y-2400300D02*
G01X-5651500Y-2565395D01*
G01X-5651500Y-3251205D02*
G01X-5816595Y-3416300D01*
G01X-5651500Y-2565395D02*
G01X-5651500Y-3251205D01*
G01X-7518400Y-4699000D02*
G01X-7772400Y-4953000D01*
G01X-7785100Y-4953000D01*
G01X-7842250Y-4578350D02*
G01X-8235950Y-4578350D01*
G01X-5400916Y-4138181D02*
G01X-5568036Y-4305300D01*
G01X-7569200Y-4305300D01*
G01X-7842250Y-4578350D01*
G01X-5568036Y-4559300D02*
G01X-5400916Y-4392181D01*
G01X-7607300Y-4559300D02*
G01X-5568036Y-4559300D01*
G54D11*
G01X-10007600Y-4610964D02*
G01X-10121036Y-4610964D01*
G01X-10121900Y-4610100D01*
G01X-9388716Y-4583544D02*
G01X-9374861Y-4597400D01*
G01X-9309100Y-4597400D01*
G01X-9232900Y-4673600D01*
G01X-9232900Y-4787900D01*
G54D49*
G01X-9030355Y-4414189D02*
G01X-8936044Y-4508500D01*
G01X-8839200Y-4508500D02*
G01X-8788400Y-4559300D01*
G01X-8788400Y-4699000D01*
G01X-8874923Y-4785523D01*
G01X-8925362Y-4785523D01*
G54D46*
G01X-9080500Y-3740092D02*
G01X-9065565Y-3755027D01*
G01X-9056497Y-3764095D01*
G54D49*
G01X-8936044Y-4508500D02*
G01X-8839200Y-4508500D01*
G54D50*
G01X-10401300Y-4660900D02*
G01X-10300447Y-4761753D01*
G01X-10300447Y-4817468D01*
G01X-11281512Y-4149585D02*
G01X-11281512Y-4352188D01*
G01X-10972800Y-4660900D01*
G01X-10401300Y-4660900D01*
G54D46*
G01X-11154512Y-4149585D02*
G01X-11154512Y-4356100D01*
G01X-11027512Y-4149585D02*
G01X-11023600Y-4153497D01*
G01X-11023600Y-4356100D01*
G54D11*
G01X-10465547Y-4962807D02*
G01X-10629900Y-4962807D01*
G01X-10465547Y-4812134D02*
G01X-10642600Y-4812134D01*
G54D46*
G01X-10011512Y-4149585D02*
G01X-10011512Y-3975100D01*
G01X-9884512Y-4149585D02*
G01X-9884512Y-3966312D01*
G01X-9880600Y-3962400D01*
G54D49*
G01X-8496300Y-4241800D02*
G01X-8356600Y-4381500D01*
G01X-8356600Y-4775200D01*
G01X-8089900Y-5041900D01*
G01X-6324600Y-5041900D01*
G01X-6102350Y-4819650D01*
G01X-5587086Y-4819650D01*
G01X-5413616Y-4646181D01*
G01X-8509000Y-4241800D02*
G01X-8496300Y-4241800D01*
G01X-5413616Y-4646181D02*
G01X-5400916Y-4646181D01*
G01X-8930364Y-4785526D02*
G01X-8521591Y-5194300D01*
G01X-5816595Y-5194300D01*
G54D11*
G01X-8921159Y-4623798D02*
G01X-9036457Y-4508500D01*
G01X-9131300Y-4508500D01*
G01X-9232900Y-4406900D01*
G01X-9232900Y-4152900D01*
G01X-8826500Y-3764095D02*
G01X-8724900Y-3764095D01*
G01X-8712307Y-3751502D01*
G01X-8712307Y-3721100D01*
G54D47*
G01X-8835568Y-3755027D02*
G01X-8842616Y-3762075D01*
G54D11*
G01X-10007600Y-4761636D02*
G01X-9957664Y-4711700D01*
G01X-9931400Y-4711700D01*
G54D49*
G01X-9071832Y-4623798D02*
G01X-9072830Y-4622800D01*
G01X-9156700Y-4622800D01*
G01X-9347200Y-4064000D02*
G01X-9169400Y-3886200D01*
G01X-9360624Y-2399576D02*
G01X-9630512Y-2399576D01*
G01X-9156700Y-4622800D02*
G01X-9347200Y-4432300D01*
G01X-9347200Y-4064000D01*
G01X-9169400Y-3886200D02*
G01X-9169400Y-2590800D01*
G01X-9360624Y-2399576D01*
G01X-5816595Y-2654300D02*
G01X-6362695Y-3200400D01*
G01X-7899400Y-3200400D01*
G01X-5816595Y-3924300D02*
G01X-5695036Y-3924300D01*
G01X-5400916Y-3630181D01*
G01X-5816595Y-5194300D02*
G01X-5638800Y-5194300D01*
G01X-5207000Y-4762500D01*
G01X-5207000Y-3316097D02*
G01X-5400916Y-3122181D01*
G01X-5207000Y-4762500D02*
G01X-5207000Y-3316097D01*
G01X-8601316Y-2887383D02*
G01X-6405283Y-2887383D01*
G01X-6350000Y-2832100D01*
G54D50*
G01X-11526614Y-1623571D02*
G01X-11154512Y-1995673D01*
G01X-11154512Y-2399576D01*
G54D49*
G01X-7988300Y-4724400D02*
G01X-7772400Y-4724400D01*
G01X-7607300Y-4559300D01*
G54D11*
G01X-10649509Y-3284588D02*
G01X-10761612Y-3284588D01*
G01X-11281512Y-2764688D02*
G01X-11281512Y-2399576D01*
G01X-10761612Y-3284588D02*
G01X-11281512Y-2764688D01*
G01X-10649509Y-3564598D02*
G01X-10828998Y-3564598D01*
G01X-11281512Y-4017112D02*
G01X-11281512Y-4149585D01*
G01X-11281512Y-2764688D02*
G01X-11281512Y-4017112D01*
G01X-10828998Y-3564598D02*
G01X-11281512Y-4017112D01*
G54D49*
G01X-5816595Y-2400300D02*
G01X-5676900Y-2260605D01*
G01X-5676900Y-1277264D02*
G01X-5261216Y-861581D01*
G01X-5676900Y-2260605D02*
G01X-5676900Y-1277264D01*
G54D50*
G01X-5400916Y-2868181D02*
G01X-4851400Y-2318664D01*
G01X-4851400Y-255397D02*
G01X-5261216Y154419D01*
G01X-4851400Y-2318664D02*
G01X-4851400Y-255397D01*
G54D46*
G01X-8601316Y-2887383D02*
G01X-8956916Y-2887383D01*
G54D11*
G01X-5261216Y-1369581D02*
G01X-5511800Y-1620164D01*
G01X-5511800Y-1854200D02*
G01X-5461000Y-1905000D01*
G01X-5461000Y-2527300D01*
G01X-5511800Y-1620164D02*
G01X-5511800Y-1854200D01*
G01X-4724400Y-2984500D02*
G01X-5029200Y-2679700D01*
G01X-5118100Y-2679700D01*
G01X-7811364Y-139700D02*
G01X-7657236Y-139700D01*
G01X-7645400Y-127864D01*
G01X-7645400Y263643D01*
G01X-7579157Y329886D01*
G01X-9448800Y-140564D02*
G01X-9448800Y215392D01*
G01X-9359887Y304305D01*
G01X-9602064Y-139700D02*
G01X-9449664Y-139700D01*
G01X-9448800Y-140564D01*
G01X-9752736Y-139700D02*
G01X-9855200Y-37236D01*
G01X-9855200Y292583D02*
G01X-9867913Y305295D01*
G01X-9855200Y-37236D02*
G01X-9855200Y292583D01*
G01X-7962036Y-139700D02*
G01X-8087182Y-14554D01*
G01X-8087182Y330877D01*
G01X-10816492Y305295D02*
G01X-11098646Y587449D01*
G01X-9867913Y305295D02*
G01X-10816492Y305295D01*
G01X-10138512Y-2399576D02*
G01X-10147912Y-2390176D01*
G01X-10147912Y-2134212D01*
G01X-9448800Y-1435100D01*
G01X-9448800Y-291236D01*
G01X-10773512Y-4149585D02*
G01X-10773512Y-3949700D01*
G01X-10646512Y-4149585D02*
G01X-10642600Y-4145674D01*
G01X-10642600Y-3937000D01*
G01X-11154512Y-4149585D02*
G01X-11154512Y-4042512D01*
G01X-11036300Y-3924300D01*
G01X-10519512Y-4149585D02*
G01X-10515600Y-4145674D01*
G01X-10515600Y-3975100D01*
G01X-7645400Y-278536D02*
G01X-7645400Y-749300D01*
G54D50*
G01X-11746629Y-1623571D02*
G01X-11746629Y-1743959D01*
G01X-11281512Y-2209076D01*
G01X-11281512Y-2399576D01*
G01X-11684000Y-1028700D02*
G01X-11607800Y-1104900D01*
G01X-11176000Y-558800D02*
G01X-11176000Y-673100D01*
G01X-11353800Y-850900D02*
G01X-11353800Y-1104900D01*
G01X-11176000Y-673100D02*
G01X-11353800Y-850900D01*
G01X-10795000Y-1155700D02*
G01X-10845800Y-1104900D01*
G54D11*
G01X-11746629Y-1497729D02*
G01X-11746629Y-1623571D01*
G01X-7366000Y1066927D02*
G01X-7491108Y941819D01*
G01X-7763116Y941819D01*
G01X-7833157Y329886D02*
G01X-7833157Y510743D01*
G01X-7442073Y558800D02*
G01X-7366000Y634873D01*
G01X-7833157Y510743D02*
G01X-7785100Y558800D01*
G01X-7442073Y558800D01*
G01X-9105900Y1066927D02*
G01X-9243708Y929119D01*
G01X-9452216Y929119D01*
G01X-9105900Y634873D02*
G01X-9207373Y533400D01*
G01X-9613887Y406413D02*
G01X-9613887Y304305D01*
G01X-9207373Y533400D02*
G01X-9486900Y533400D01*
G01X-9613887Y406413D01*
G01X-11494364Y-762000D02*
G01X-11430000Y-697636D01*
G01X-11430000Y-558800D01*
G01X-11645036Y-762000D02*
G01X-11645036Y-597764D01*
G01X-11684000Y-558800D01*
G01X-11494364Y-762000D02*
G01X-11493500Y-762864D01*
G01X-11493500Y-889000D01*
G01X-11027512Y-2399576D02*
G01X-11045682Y-2381405D01*
G01X-11045682Y-2022618D01*
G01X-11112500Y-1955800D01*
G01X-11112500Y-1803400D01*
G54D50*
G01X-11010900Y-1181100D02*
G01X-11010900Y-1943100D01*
G01X-10845800Y-2108200D01*
G01X-10693400Y-2108200D01*
G01X-10680700Y-2120900D01*
G54D11*
G01X-11099800Y-1104900D02*
G01X-11023600Y-1181100D01*
G01X-11010900Y-1181100D01*
G54D50*
G01X-10795000Y-1955800D02*
G01X-10795000Y-1155700D01*
G54D11*
G01X-11353800Y-1104900D02*
G01X-11746629Y-1497729D01*
G54D46*
G01X-8601316Y-2747378D02*
G01X-8956916Y-2747378D01*
G54D11*
G01X-10087915Y-5453113D02*
G01X-10223373Y-5588571D01*
G54D50*
G01X-11684000Y-762000D02*
G01X-11684000Y-1028700D01*
G04 Track End*

M02*

